<svg width="148" height="141.5" viewBox="0 0 148 141.5" xmlns="http://www.w3.org/2000/svg" xmlns:xlink="http://www.w3.org/1999/xlink" overflow="hidden"><g id="Icon_Background" transform="translate(-331.25 -328.769)"><ellipse cx="64.967" cy="64.892" rx="64.967" ry="64.892" id="Ellipse_20" fill="#003189" opacity="0.05" transform="translate(339.27 338.881)"/><ellipse cx="3.609" cy="3.605" rx="3.609" ry="3.605" id="Ellipse_21" stroke="#009CDC" stroke-width="3.206" stroke-linecap="round" stroke-miterlimit="10" fill="none" transform="translate(346.489 373.602)"/><ellipse cx="2.206" cy="2.203" rx="2.206" ry="2.203" id="Ellipse_22" fill="#E0007A" transform="translate(344.283 405.155)"/><line x1="0" y1="0" x2="10.627" y2="0" id="Line_28" stroke="#45A735" stroke-width="2.406" stroke-linecap="round" stroke-miterlimit="10" fill="none" transform="translate(467.419 378.91)"/><line x1="0" y1="10.615" x2="0" y2="0" id="Line_29" stroke="#45A735" stroke-width="2.403" stroke-linecap="round" stroke-miterlimit="10" fill="none" transform="translate(472.733 373.602)"/><line x1="0" y1="0" x2="16.843" y2="0" id="Line_30" stroke="#172954" stroke-width="3.208" stroke-linecap="round" stroke-miterlimit="10" fill="none" transform="translate(351.301 468.665)"/><line x1="0" y1="0" x2="3.208" y2="0" id="Line_31" stroke="#172954" stroke-width="3.208" stroke-linecap="round" stroke-miterlimit="10" fill="none" transform="translate(375.363 468.665)"/><path d="M363.933 445.533C363.933 446.361 363.261 447.033 362.433 447.033 361.605 447.033 360.933 446.361 360.933 445.533 360.933 444.705 361.605 444.033 362.433 444.033 363.261 444.033 363.933 444.705 363.933 445.533Z" id="Path_79" fill="#003189"/><path d="M463.488 395.061C463.488 395.889 462.816 396.561 461.988 396.561 461.16 396.561 460.488 395.889 460.488 395.061 460.488 394.233 461.16 393.561 461.988 393.561 462.816 393.561 463.488 394.233 463.488 395.061Z" id="Path_80" fill="#003189"/><ellipse cx="1.805" cy="1.803" rx="1.805" ry="1.803" id="Ellipse_23" fill="#EC411B" transform="translate(359.121 353.301)"/><path d="M457.093 447.85C457.094 448.839 456.294 449.641 455.305 449.642 454.316 449.643 453.514 448.843 453.513 447.854 453.512 446.865 454.312 446.063 455.301 446.062 455.302 446.062 455.303 446.062 455.304 446.062 456.292 446.062 457.092 446.862 457.093 447.85Z" id="Path_81" fill="#FFEE00"/><path d="M470.937 440.254 463.901 437.741 470.136 433.626Z" id="Path_82" stroke="#880F50" stroke-width="2.405" stroke-linecap="round" stroke-linejoin="round" fill="none"/><rect x="0" y="0" width="5.101" height="5.101" id="Rectangle_3" stroke="#FE9D2B" stroke-width="2.405" stroke-linecap="round" stroke-linejoin="round" fill="none" transform="matrix(0.708 -0.707 0.708 0.707 382.983 334.074)"/><path d="M385.79 468.665 446.746 468.665" id="Path_83" stroke="#172954" stroke-width="3.208" stroke-linecap="round" stroke-linejoin="round" fill="none"/><path d="M461.986 447.04C459.365 450.524 456.435 453.765 453.232 456.723" id="Path_84" stroke="#121A50" stroke-width="1.603" stroke-linecap="round" stroke-miterlimit="10" fill="none" opacity="0.42"/><path d="M475.2 390.516C477.528 403.059 476.507 415.994 472.238 428.016" id="Path_85" stroke="#121A50" stroke-width="1.603" stroke-linecap="round" stroke-miterlimit="10" fill="none" opacity="0.3"/><path d="M458.037 355.7C461.762 359.855 464.993 364.428 467.666 369.326" id="Path_86" stroke="#121A50" stroke-width="1.603" stroke-linecap="round" stroke-miterlimit="10" fill="none" opacity="0.6"/><path d="M398.174 331.921C400.174 331.754 402.195 331.671 404.238 331.67 414.656 331.655 424.954 333.902 434.419 338.255" id="Path_87" stroke="#121A50" stroke-width="1.603" stroke-linecap="round" stroke-miterlimit="10" fill="none" opacity="0.2"/><path d="M370.706 339.905C373.222 338.584 375.814 337.413 378.469 336.399" id="Path_88" stroke="#121A50" stroke-width="1.603" stroke-linecap="round" stroke-miterlimit="10" fill="none" opacity="0.35"/><path d="M359.538 460.392C328.27 435.776 322.877 390.474 347.492 359.205 347.836 358.769 348.184 358.336 348.538 357.908" id="Path_89" stroke="#121A50" stroke-width="1.603" stroke-linecap="round" stroke-miterlimit="10" fill="none" opacity="0.2"/></g><g id="Advanced_Large" transform="translate(-268.018 -268.213)"><path d="M314.376 348.972C315.416 354.872 312.726 360.272 308.367 361.037 304.008 361.802 299.634 357.631 298.594 351.729 297.554 345.827 300.244 340.429 304.603 339.664 308.962 338.899 313.337 343.07 314.376 348.972Z" id="Path_90" stroke="#172954" stroke-width="2.701" stroke-linecap="round" stroke-miterlimit="10" fill="#FFD85B"/><path d="M383.32 352.737C382.028 358.589 377.478 362.568 373.156 361.622 368.834 360.676 366.378 355.165 367.67 349.313 368.962 343.461 373.512 339.482 377.834 340.428 382.156 341.374 384.613 346.884 383.32 352.737Z" id="Path_91" stroke="#172954" stroke-width="2.701" stroke-linecap="round" stroke-miterlimit="10" fill="#E2B733"/><path d="M329.776 383.713C315.087 377.47 304.46 359.806 304.46 343.613 304.46 323.435 320.817 307.078 340.995 307.078 361.173 307.078 377.53 323.435 377.53 343.613 377.53 359.897 366.785 377.666 351.972 383.813" id="Path_92" stroke="#172954" stroke-width="2.701" stroke-linecap="round" stroke-miterlimit="10" fill="#FFD746"/><path d="M352.5 382.772C352.5 385.703 347.11 388.078 340.462 388.078 333.814 388.078 328.424 385.703 328.424 382.772 328.424 379.841 333.814 377.466 340.462 377.466 347.11 377.466 352.5 379.841 352.5 382.772Z" id="Path_93" fill="#FFD746"/><path d="M364.2 317.151C364.2 317.151 383.66 366.269 340.99 387.405 340.99 387.405 375.947 383.811 378.99 338.129Z" id="Path_94" fill="#D4AB2F" opacity="0.8"/><path d="M312.747 321.209C312.747 321.209 311.007 373.403 335.122 385.42 335.122 385.42 308.003 383.482 305.096 338.16 305.1 338.159 310.7 322.747 312.747 321.209Z" id="Path_95" fill="#FDD55D"/><path d="M328.817 383.288C314.627 376.698 304.459 359.453 304.459 343.611 304.459 323.433 320.816 307.076 340.994 307.076 361.172 307.076 377.529 323.433 377.529 343.611 377.529 359.892 366.79 377.655 351.981 383.811" id="Path_96" stroke="#172954" stroke-width="2.701" stroke-linecap="round" stroke-miterlimit="10" fill="none"/><path d="M336.428 353.38C336.428 353.38 340.995 357.928 345.562 353.38" id="Path_97" stroke="#172954" stroke-width="2.701" stroke-linecap="round" stroke-miterlimit="10" fill="none"/><line x1="0" y1="0.845" x2="1.382" y2="0" id="Line_32" stroke="#172954" stroke-width="2.701" stroke-linecap="round" stroke-linejoin="round" fill="#FFFFFF" transform="translate(303.275 350.176)"/><line x1="1.382" y1="0.845" x2="0" y2="0" id="Line_33" stroke="#172954" stroke-width="2.701" stroke-linecap="round" stroke-linejoin="round" fill="#FFFFFF" transform="translate(377.699 350.176)"/><ellipse cx="3.101" cy="3.088" rx="3.101" ry="3.088" id="Ellipse_24" fill="#162954" transform="translate(321.317 338.67)"/><ellipse cx="3.101" cy="3.088" rx="3.101" ry="3.088" id="Ellipse_25" fill="#162954" transform="translate(353.116 338.669)"/><path d="M330.733 364.248C330.733 364.248 340.995 374.467 351.256 364.248" id="Path_98" stroke="#172954" stroke-width="2.701" stroke-linecap="round" stroke-linejoin="round" fill="none"/><path d="M337.879 376.64C337.879 376.64 340.995 373.54 344.11 376.64" id="Path_99" stroke="#172954" stroke-width="2.701" stroke-linecap="round" stroke-linejoin="round" fill="none"/><path d="M377.53 315.313 377.53 339.568 371.44 339.568C371.44 339.568 371.44 327.441 365.351 321.377L365.351 315.313" id="Path_100" stroke="#172954" stroke-width="2.701" stroke-linecap="round" stroke-linejoin="round" fill="#D2988F"/><path d="M340.995 315.313 316.638 315.313 316.638 321.377C310.549 327.441 310.549 339.568 310.549 339.568L304.46 339.568 304.46 291.058 377.53 291.058 377.53 339.568 371.44 339.568C371.44 339.568 371.44 327.441 365.351 321.377L365.351 315.313Z" id="Path_101" stroke="#172954" stroke-width="2.701" stroke-linecap="round" stroke-linejoin="round" fill="#AB4E3E"/><path d="M304.459 315.313 304.459 339.568 310.548 339.568C310.548 339.568 310.548 327.441 316.637 321.377L316.637 315.313" id="Path_102" stroke="#172954" stroke-width="2.701" stroke-linecap="round" stroke-linejoin="round" fill="#D2988F"/><path d="M377.53 315.313 377.53 339.568 371.44 339.568C371.44 339.568 371.44 327.441 365.351 321.377L365.351 315.313" id="Path_103" stroke="#172954" stroke-width="2.701" stroke-linecap="round" stroke-linejoin="round" fill="#D2988F"/><line x1="0" y1="0" x2="12.178" y2="0" id="Line_34" stroke="#172954" stroke-width="2.706" stroke-linecap="round" stroke-linejoin="round" fill="#FFFFFF" transform="translate(318.667 333.504)"/><line x1="0" y1="0" x2="12.178" y2="0" id="Line_35" stroke="#172954" stroke-width="2.706" stroke-linecap="round" stroke-linejoin="round" fill="#FFFFFF" transform="translate(350.467 333.504)"/><line x1="0" y1="6.161" x2="0" y2="0" id="Line_36" stroke="#172954" stroke-width="1.347" stroke-linecap="round" stroke-linejoin="round" fill="#FFFFFF" opacity="0.4" transform="translate(343.024 328.691)"/><line x1="0" y1="2.396" x2="0" y2="0" id="Line_37" stroke="#172954" stroke-width="1.347" stroke-linecap="round" stroke-linejoin="round" fill="#FFFFFF" opacity="0.4" transform="translate(339.98 331.771)"/><path d="M334.905 357.759 332.2 357.759C332.2 357.759 326.111 357.759 326.111 363.823L355.88 363.823C355.88 363.823 355.88 357.759 349.791 357.759L334.905 357.759Z" id="Path_104" stroke="#172954" stroke-width="2.701" stroke-linecap="round" stroke-miterlimit="10" fill="#162954"/><path d="M356.556 372.816C356.556 381.439 349.566 388.429 340.943 388.429 332.32 388.429 325.33 381.439 325.33 372.816" id="Path_105" stroke="#172954" stroke-width="2.701" stroke-linecap="round" stroke-linejoin="round" fill="none"/><path d="M369.411 291.058 372.117 315.089C372.117 315.089 376.112 322 376.112 339.604 376.112 357.208 376.854 291.059 376.854 291.059Z" id="Path_106" fill="#A23028"/><line x1="0" y1="0" x2="5.92" y2="0" id="Line_38" stroke="#172954" stroke-width="2.706" stroke-linecap="round" stroke-linejoin="round" fill="none" transform="translate(370.595 318.659)"/><line x1="0" y1="0" x2="4.398" y2="0" id="Line_39" stroke="#172954" stroke-width="2.706" stroke-linecap="round" stroke-linejoin="round" fill="none" transform="translate(373.132 324.577)"/><path d="M311.9 291.058 309.2 315.089C309.2 315.089 305.2 322 305.2 339.6 305.2 357.2 304.458 291.055 304.458 291.055Z" id="Path_107" fill="#C0685D"/><line x1="0" y1="0" x2="2.622" y2="0" id="Line_40" stroke="#172954" stroke-width="2.706" stroke-linecap="round" stroke-linejoin="round" fill="none" transform="translate(374.908 330.411)"/><line x1="5.92" y1="0" x2="0" y2="0" id="Line_41" stroke="#172954" stroke-width="2.706" stroke-linecap="round" stroke-linejoin="round" fill="none" transform="translate(305.982 318.659)"/><line x1="4.398" y1="0" x2="0" y2="0" id="Line_42" stroke="#172954" stroke-width="2.706" stroke-linecap="round" stroke-linejoin="round" fill="none" transform="translate(304.967 324.577)"/><line x1="2.622" y1="0" x2="0" y2="0" id="Line_43" stroke="#172954" stroke-width="2.706" stroke-linecap="round" stroke-linejoin="round" fill="none" transform="translate(304.967 330.411)"/><line x1="0" y1="0" x2="23.689" y2="0" id="Line_44" stroke="#172954" stroke-width="2.706" stroke-linecap="round" stroke-linejoin="round" fill="none" transform="translate(320.689 299.817)"/><path d="M340.995 315.313 316.638 315.313 316.638 321.377C310.549 327.441 310.549 339.568 310.549 339.568L304.46 339.568 304.46 291.058 377.53 291.058 377.53 339.568 371.44 339.568C371.44 339.568 371.44 327.441 365.351 321.377L365.351 315.313Z" id="Path_108" stroke="#172954" stroke-width="2.701" stroke-linecap="round" stroke-linejoin="round" fill="none"/></g></svg>