<?xml version="1.0" encoding="UTF-8"?>
<svg xmlns="http://www.w3.org/2000/svg" xmlns:xlink="http://www.w3.org/1999/xlink" width="261.49pt" height="248.87pt" viewBox="0 0 261.49 248.87" version="1.1">
<defs>
<clipPath id="clip1">
  <path d="M 0 0 L 261.488281 0 L 261.488281 248.871094 L 0 248.871094 Z M 0 0 "/>
</clipPath>
</defs>
<g id="surface1">
<g clip-path="url(#clip1)" clip-rule="nonzero">
<path style=" stroke:none;fill-rule:nonzero;fill:rgb(0%,0%,0%);fill-opacity:1;" d="M 240.289063 65.730469 L 239.261719 64.675781 L 239.136719 64.550781 L 196.828125 21.023438 L 206.789063 10.289063 L 251.3125 54.832031 Z M 222.003906 91.183594 C 223.339844 95.210938 222.257813 99.648438 219.214844 102.605469 L 196.917969 126.820313 C 193.949219 129.785156 189.703125 131.078125 185.585938 130.273438 L 185.585938 124.675781 C 185.574219 114.65625 178.527344 106.023438 168.714844 104.007813 L 168.714844 89.425781 C 168.8125 81.703125 163.113281 75.132813 155.457031 74.132813 C 152.75 73.855469 150.023438 74.335938 147.574219 75.511719 C 147.503906 74.640625 147.363281 73.777344 147.152344 72.929688 C 147.078125 72.660156 146.96875 72.40625 146.890625 72.140625 C 146.726563 71.585938 146.535156 71.039063 146.316406 70.503906 C 146.183594 70.199219 146.015625 69.921875 145.863281 69.628906 C 145.628906 69.167969 145.398438 68.707031 145.121094 68.277344 C 144.933594 67.980469 144.699219 67.710938 144.507813 67.433594 C 144.214844 67.039063 143.929688 66.652344 143.601563 66.289063 C 143.363281 66.023438 143.105469 65.78125 142.847656 65.53125 C 142.507813 65.203125 142.164063 64.882813 141.796875 64.585938 C 141.515625 64.359375 141.21875 64.164063 140.921875 63.949219 C 140.535156 63.683594 140.148438 63.433594 139.742188 63.207031 C 139.421875 63.03125 139.09375 62.871094 138.761719 62.71875 C 138.339844 62.523438 137.917969 62.355469 137.496094 62.203125 C 137.140625 62.082031 136.785156 61.976563 136.425781 61.878906 C 136.21875 61.828125 136.023438 61.738281 135.8125 61.695313 L 154.847656 41.707031 C 159.113281 37.476563 165.273438 35.769531 171.105469 37.203125 L 183.246094 40.238281 C 184.683594 40.597656 186.203125 40.179688 187.253906 39.128906 L 194.539063 31.84375 L 231.394531 68.703125 C 227.464844 73.246094 219.519531 83.71875 222.003906 91.167969 Z M 177.148438 133.363281 L 177.148438 188.523438 C 177.132813 194.527344 173.984375 200.089844 168.839844 203.195313 C 168.550781 203.367188 168.285156 203.574219 168.046875 203.8125 L 161.542969 210.257813 C 160.734375 211.046875 160.277344 212.125 160.277344 213.257813 L 160.277344 219.34375 L 105.441406 219.34375 L 105.441406 218.464844 C 105.464844 211.082031 101.289063 204.324219 94.671875 201.042969 C 90.917969 199.1875 88.550781 195.355469 88.570313 191.167969 L 88.570313 149.984375 C 88.589844 144.640625 91.96875 139.886719 97.003906 138.105469 L 97.003906 164.507813 L 105.441406 164.507813 L 105.441406 85.207031 C 105.324219 81.839844 107.707031 78.90625 111.023438 78.324219 C 112.863281 78.371094 114.628906 79.0625 116.007813 80.277344 C 117.285156 81.363281 118.050781 82.933594 118.117188 84.605469 L 118.117188 147.632813 L 126.554688 147.632813 L 126.554688 76.164063 C 126.550781 72.671875 129.378906 69.835938 132.875 69.832031 C 133.097656 69.832031 133.324219 69.84375 133.546875 69.867188 C 136.894531 70.425781 139.308594 73.378906 139.1875 76.769531 L 139.1875 147.632813 L 147.621094 147.632813 L 147.621094 88.820313 C 147.621094 85.324219 150.449219 82.488281 153.945313 82.488281 C 154.167969 82.488281 154.394531 82.5 154.617188 82.523438 C 157.972656 83.066406 160.398438 86.023438 160.277344 89.425781 L 160.277344 147.632813 L 168.714844 147.632813 L 168.714844 112.796875 C 173.753906 114.578125 177.128906 119.332031 177.148438 124.675781 Z M 168.714844 240.433594 L 97.003906 240.433594 L 97.003906 227.78125 L 168.714844 227.78125 Z M 80.132813 149.984375 L 80.132813 151.628906 C 79.636719 151.332031 79.175781 150.984375 78.757813 150.582031 L 46.1875 115.125 C 41.953125 110.863281 40.246094 104.699219 41.6875 98.867188 L 44.71875 86.726563 C 45.082031 85.289063 44.660156 83.769531 43.617188 82.71875 L 31.929688 71.035156 L 67.628906 35.335938 L 72.847656 40.859375 C 74.359375 42.457031 76.84375 42.628906 78.558594 41.25 L 82.023438 38.457031 C 86.808594 37.117188 91.949219 38.472656 95.453125 42 L 119.75 66.300781 L 115.800781 70.445313 C 114.519531 70.078125 113.195313 69.886719 111.867188 69.871094 C 111.042969 69.824219 110.21875 69.835938 109.398438 69.910156 C 101.867188 70.921875 96.433594 77.628906 97.003906 85.207031 L 97.003906 129.316406 C 87.191406 131.332031 80.144531 139.964844 80.132813 149.984375 M 22.738281 67.808594 C 22.332031 68.210938 22.015625 68.695313 21.808594 69.230469 L 21.078125 69.960938 L 10.167969 59.050781 L 59.039063 10.179688 L 69.949219 21.089844 L 65.839844 25.195313 C 65.34375 25.390625 64.886719 25.675781 64.496094 26.039063 Z M 209.660156 1.234375 C 208.859375 0.40625 207.746094 -0.0429688 206.597656 0 C 205.453125 0.0195313 204.367188 0.507813 203.589844 1.34375 L 187.917969 18.214844 C 186.382813 19.863281 186.410156 22.429688 187.984375 24.039063 L 189.171875 25.265625 L 182.949219 31.484375 L 173.121094 29.03125 C 164.378906 26.875 155.144531 29.453125 148.78125 35.824219 L 125.582031 60.199219 L 101.429688 36.046875 C 95.492188 30.070313 86.671875 27.988281 78.691406 30.675781 C 78.214844 30.835938 77.769531 31.078125 77.378906 31.390625 L 76.320313 32.234375 L 73.609375 29.367188 L 78.910156 24.070313 C 80.554688 22.425781 80.554688 19.753906 78.910156 18.105469 L 62.035156 1.234375 C 60.390625 -0.414063 57.71875 -0.414063 56.070313 1.234375 L 1.234375 56.070313 C -0.410156 57.71875 -0.410156 60.386719 1.234375 62.035156 L 18.109375 78.90625 C 19.753906 80.554688 22.425781 80.554688 24.074219 78.90625 L 25.976563 77 L 35.972656 87 L 33.515625 96.824219 C 31.363281 105.472656 33.863281 114.613281 40.113281 120.960938 L 72.679688 156.421875 C 74.816406 158.421875 77.359375 159.941406 80.132813 160.882813 L 80.132813 191.167969 C 80.113281 198.550781 84.289063 205.304688 90.902344 208.589844 C 94.652344 210.449219 97.023438 214.28125 97.003906 218.464844 L 97.003906 219.34375 L 92.785156 219.34375 C 90.457031 219.34375 88.570313 221.230469 88.570313 223.5625 L 88.570313 244.652344 C 88.570313 246.984375 90.457031 248.871094 92.785156 248.871094 L 172.933594 248.871094 C 175.261719 248.871094 177.148438 246.984375 177.148438 244.652344 L 177.148438 223.5625 C 177.148438 221.230469 175.261719 219.34375 172.933594 219.34375 L 168.714844 219.34375 L 168.714844 215.019531 L 173.632813 210.152344 C 181.054688 205.457031 185.5625 197.300781 185.585938 188.523438 L 185.585938 138.699219 C 192.039063 139.757813 198.59375 137.480469 203 132.648438 L 225.296875 108.433594 C 230.539063 103.230469 232.363281 95.5 230 88.5 C 229.324219 86.464844 232.953125 79.808594 237.289063 74.707031 C 238.0625 75.46875 239.101563 75.90625 240.1875 75.925781 L 240.230469 75.925781 C 241.335938 75.921875 242.394531 75.484375 243.183594 74.707031 L 260.246094 57.832031 C 261.898438 56.191406 261.90625 53.519531 260.265625 51.867188 C 260.257813 51.863281 260.253906 51.855469 260.246094 51.851563 "/>
</g>
</g>
</svg>
