<svg width="59.278" height="59.862" viewBox="0 0 59.278 59.862" xmlns="http://www.w3.org/2000/svg" xmlns:xlink="http://www.w3.org/1999/xlink" overflow="hidden"><g id="Outline" transform="translate(-18.343 -16)"><path d="M60.512 139.543C60.2372 139.357 59.888 139.32 59.58 139.443 58.6129 139.837 57.5693 140.008 56.527 139.943 52.6771 139.706 49.7481 136.393 49.9848 132.544 50.2215 128.694 53.5344 125.765 57.3843 126.001 58.1383 126.048 58.8799 126.216 59.58 126.5 60.0926 126.705 60.6748 126.456 60.8802 125.944 60.9272 125.826 60.9516 125.701 60.952 125.575L60.952 116.01C60.952 115.458 60.5043 115.01 59.952 115.01L53.745 115.01C54.8433 110.174 51.8135 105.364 46.9777 104.265 42.1419 103.167 37.3313 106.197 36.233 111.033 35.9357 112.342 35.9357 113.701 36.233 115.01L29.026 115.01C28.4737 115.01 28.026 115.458 28.026 116.01L28.026 125.987 25.035 125.987C22.8329 125.992 21.0489 127.776 21.044 129.978L21.044 138.544 18.344 141.244 19.755 142.655 22.748 139.662C22.9347 139.475 23.0397 139.221 23.04 138.957L23.04 129.978C23.04 128.873 23.9354 127.978 25.04 127.978L28.033 127.978 28.033 130.558 26.333 132.258 27.744 133.669 32.234 129.179C32.6819 128.753 33.3902 128.771 33.816 129.219 34.2267 129.651 34.2267 130.329 33.816 130.761L29.326 135.251C28.9376 135.641 28.9376 136.272 29.326 136.662 31.1374 138.478 31.1374 141.417 29.326 143.233L24.337 148.222 25.748 149.633 28.194 147.187C28.9074 150.526 31.8549 152.913 35.269 152.918L59.954 152.918C60.5063 152.918 60.954 152.47 60.954 151.918L60.954 140.37C60.9531 140.038 60.7875 139.728 60.512 139.543ZM58.957 150.93 35.257 150.93C32.3655 150.927 30.0223 148.583 30.019 145.692L30.019 145.357 30.725 144.652C33.0458 142.33 33.3232 138.661 31.378 136.017L35.214 132.181C36.4799 131.017 36.5625 129.047 35.3984 127.781 34.2343 126.515 32.2643 126.433 30.9984 127.597 30.9344 127.655 30.8729 127.717 30.814 127.781L30.023 128.572 30.023 117.008 37.59 117.008C38.1423 117.006 38.5885 116.557 38.5868 116.005 38.5864 115.878 38.562 115.753 38.515 115.636 37.0688 112.06 38.7951 107.989 42.3709 106.543 45.9467 105.097 50.0178 106.823 51.464 110.399 52.1433 112.078 52.1433 113.956 51.464 115.636 51.2585 116.149 51.5076 116.731 52.0202 116.936 52.1375 116.983 52.2626 117.008 52.389 117.008L58.958 117.008 58.958 124.216C54.1222 123.118 49.3116 126.148 48.2133 130.983 47.115 135.819 50.1448 140.63 54.9806 141.728 56.2897 142.025 57.6489 142.025 58.958 141.728Z" id="Path_1030" fill="#6852ED" transform="matrix(1 0 0 1 0 -77.063)"/><path d="M93.868 67.541 93.868 58.975C93.863 56.7729 92.0791 54.9889 89.877 54.984L86.877 54.984C86.7388 51.0914 83.546 48.0056 79.651 48L51.964 48C51.4117 48 50.964 48.4477 50.964 49L50.964 57.274C46.1282 56.1708 41.3136 59.1966 40.2104 64.0325 39.3339 67.8747 41.0645 71.8394 44.478 73.809L45.478 72.082C42.1373 70.1517 40.9939 65.8788 42.9242 62.5381 44.6657 59.5242 48.3602 58.2521 51.588 59.555 52.1006 59.7605 52.6828 59.5114 52.8882 58.9988 52.9352 58.8815 52.9596 58.7564 52.96 58.63L52.96 50 79.651 50C82.5425 50.0033 84.8857 52.3465 84.889 55.238L84.889 57.569 84.098 56.778C82.9339 55.5121 80.9639 55.4295 79.698 56.5936 78.4321 57.7577 78.3495 59.7277 79.5136 60.9936 79.5725 61.0576 79.634 61.1191 79.698 61.178L83.534 65.014C81.5888 67.6585 81.8662 71.3271 84.187 73.649L84.892 74.354 84.892 82.92 75.692 82.92C76.0074 81.5221 75.9865 80.0693 75.631 78.681L73.698 79.181C74.0693 80.6295 73.9688 82.1586 73.411 83.546 73.2055 84.0586 73.4546 84.6408 73.9672 84.8462 74.0845 84.8932 74.2096 84.9176 74.336 84.918L85.886 84.918C86.4383 84.918 86.886 84.4703 86.886 83.918L86.886 76.349 89.174 78.637 90.585 77.226 85.596 72.237C83.7846 70.4212 83.7846 67.4818 85.596 65.666 85.9844 65.2758 85.9844 64.6452 85.596 64.255L81.106 59.765C80.6581 59.3392 80.6402 58.6309 81.066 58.183 81.4918 57.7351 82.2001 57.7172 82.648 58.143 82.6617 58.156 82.675 58.1693 82.688 58.183L87.178 62.673 88.589 61.262 86.889 59.562 86.889 56.982 89.882 56.982C90.9866 56.982 91.882 57.8774 91.882 58.982L91.882 67.961C91.8821 68.2257 91.9871 68.4796 92.174 68.667L95.167 71.66 96.578 70.249Z" id="Path_1031" fill="#6852ED" transform="translate(-18.948 -28.009)"/><rect x="0" y="0" width="20.952" height="1.995" id="Rectangle_87" fill="#6852ED" transform="translate(36.009 16)"/><rect x="0" y="0" width="1.995" height="1.995" id="Rectangle_88" fill="#6852ED" transform="translate(58.957 16)"/></g></svg>