<svg width="50.16" height="50.161" viewBox="0 0 50.16 50.161" xmlns="http://www.w3.org/2000/svg" xmlns:xlink="http://www.w3.org/1999/xlink" overflow="hidden"><g id="query" transform="translate(-1 -1)"><path d="M51.16 17.181 51.16 2.618 39.834 2.618 39.834 9.09 27.59 9.09C26.7897 8.24209 25.8957 7.48791 24.925 6.842 25.1479 6.56078 25.2697 6.21281 25.271 5.854L25.271 2.618C25.2699 1.72486 24.5461 1.0011 23.653 1L9.09 1C8.19686 1.0011 7.4731 1.72486 7.472 2.618L7.472 5.854C7.47329 6.21281 7.59515 6.56078 7.818 6.842 0.766627 11.561-1.12412 21.1028 3.5949 28.1542 5.81379 31.4697 9.23544 33.7921 13.136 34.63L13.136 37.407C13.1385 37.8251 13.2502 38.2353 13.46 38.597 12.7563 39.0394 12.3285 39.8118 12.327 40.643L12.327 47.115C12.327 49.349 14.138 51.16 16.372 51.16 18.606 51.16 20.417 49.349 20.417 47.115L20.417 43.07 39.834 43.07 39.834 49.542 51.16 49.542 51.16 34.98 39.834 34.98 39.834 41.452 20.417 41.452 20.417 40.643C20.4142 39.8126 19.9862 39.0416 19.283 38.6 19.4928 38.2383 19.6045 37.8281 19.607 37.41L19.607 34.63C24.0055 33.6765 27.7679 30.8488 29.907 26.889L39.836 26.889 39.836 33.361 51.16 33.361 51.16 18.8 39.834 18.8 39.834 25.272 30.649 25.272C32.5806 20.438 31.9276 14.9543 28.915 10.709L39.834 10.709 39.834 17.181ZM41.452 36.6 49.542 36.6 49.542 47.924 41.452 47.924ZM41.452 20.419 49.542 20.419 49.542 31.743 41.452 31.743ZM25.265 14C28.3653 18.9117 26.8969 25.4068 21.9851 28.5071 17.0734 31.6075 10.5783 30.139 7.478 25.2273 5.31333 21.7979 5.31333 17.4294 7.478 14 7.50706 14.87 8.21956 15.5608 9.09 15.563L9.09 17.181C8.19647 17.1821 7.47255 17.9065 7.472 18.8L7.472 22.036C7.47365 22.9287 8.19725 23.6519 9.09 23.653L23.653 23.653C24.5461 23.6519 25.2699 22.9281 25.271 22.035L25.271 18.8C25.2699 17.9069 24.5461 17.1831 23.653 17.182L23.653 15.563C24.5232 15.5603 25.2354 14.8697 25.265 14ZM23.653 18.8 23.653 22.036 9.09 22.036 9.09 18.8ZM10.708 17.181 10.708 15.563 22.035 15.563 22.035 17.181ZM9.09 13.945 9.09 10.708 23.653 10.708 23.653 13.944ZM10.708 9.09 10.708 7.472 22.035 7.472 22.035 9.09ZM9.09 2.618 23.653 2.618 23.653 5.854 9.09 5.854ZM18.798 47.118C18.798 48.4584 17.7114 49.545 16.371 49.545 15.0306 49.545 13.944 48.4584 13.944 47.118L13.944 40.643C13.9446 40.1964 14.3064 39.8346 14.753 39.834L17.99 39.834C18.4366 39.8345 18.7984 40.1964 18.799 40.643ZM17.989 37.41C17.9884 37.8566 17.6266 38.2184 17.18 38.219L15.563 38.219C15.1164 38.2185 14.7546 37.8566 14.754 37.41L14.754 34.893C15.8296 35.0084 16.9144 35.0084 17.99 34.893ZM16.371 33.365C8.77598 33.3691 2.61569 27.2154 2.6116 19.6204 2.60904 14.87 5.0584 10.4546 9.09 7.942L9.09 9.09C8.19686 9.0911 7.4731 9.81486 7.472 10.708L7.472 11.374C2.92177 16.2915 3.21953 23.9667 8.13707 28.5169 13.0546 33.0672 20.7298 32.7694 25.28 27.8519 27.3558 25.6085 28.5082 22.6643 28.507 19.608 28.5113 16.5535 27.3546 13.6115 25.271 11.378L25.271 10.709C25.2704 9.81547 24.5465 9.0911 23.653 9.09L23.653 7.942C30.0965 11.9626 32.0606 20.4455 28.04 26.889 25.5278 30.915 21.1175 33.3613 16.372 33.361ZM41.452 4.236 49.542 4.236 49.542 15.563 41.452 15.563Z" id="Path_1035" fill="#6852ED"/><path d="M56.236 7 53 7 53 8.618 54.618 8.618 54.618 13.472 53 13.472 53 15.09 57.854 15.09 57.854 13.472 56.236 13.472Z" id="Path_1036" fill="#6852ED" transform="translate(-9.93 -1.146)"/><path d="M56.883 31.369C57.9554 30.5649 58.1729 29.0436 57.3687 27.9712 56.5646 26.8988 55.0434 26.6814 53.971 27.4855 53.3598 27.9438 53.0001 28.6631 53 29.427L53 30.236 54.618 30.236 54.618 29.427C54.6177 28.9802 54.9797 28.6178 55.4265 28.6175 55.8733 28.6172 56.2357 28.9792 56.236 29.426 56.2362 29.681 56.1161 29.9211 55.912 30.074L53 32.259 53 35.09 57.854 35.09 57.854 33.472 54.618 33.472 54.618 33.072Z" id="Path_1037" fill="#6852ED" transform="translate(-9.93 -4.965)"/><path d="M55.427 47 53 47 53 48.618 55.427 48.618C55.8738 48.618 56.236 48.9802 56.236 49.427 56.236 49.8738 55.8738 50.236 55.427 50.236L53 50.236 53 51.854 55.427 51.854C55.8738 51.854 56.236 52.2162 56.236 52.663 56.236 53.1098 55.8738 53.472 55.427 53.472L53 53.472 53 55.09 55.427 55.09C56.7618 55.0975 57.85 54.0214 57.8575 52.6866 57.8609 52.0796 57.6358 51.4936 57.227 51.045 58.1261 50.0584 58.0552 48.5297 57.0686 47.6305 56.62 47.2217 56.034 46.9966 55.427 47Z" id="Path_1038" fill="#6852ED" transform="translate(-9.93 -8.784)"/></g></svg>