<svg width="1920" height="353" viewBox="0 0 1920 353" xmlns="http://www.w3.org/2000/svg" xmlns:xlink="http://www.w3.org/1999/xlink" overflow="hidden"><defs><linearGradient x1="0.5" x2="0.5" y2="1" gradientUnits="objectBoundingBox" id="linear-gradient"><stop offset="0" stop-color="#6852ED"/><stop offset="1" stop-color="#BA43FC"/></linearGradient><clipPath id="clip-path"><rect x="0" y="0" width="1920" height="353" id="Bg" fill="url(#linear-gradient)" opacity="0.1" transform="matrix(1 0 0 1 0 -0.081)"/></clipPath></defs><g id="Bg-2" transform="matrix(1 0 0 1 0 0.081)"><rect x="0" y="0" width="1920" height="353" id="Bg-3" fill="url(#linear-gradient)" opacity="0.1" transform="matrix(1 0 0 1 0 -0.081)"/><g id="Bg-4" clip-path="url(#clip-path)"><path d="M172 52.75C267 81.883 367.62 168.963 396.753 247.25L543.108 640.536C572.241 718.822 518.85 758.669 423.856 729.536 328.862 700.403 228.238 613.323 199.1 535.036L52.75 141.75C23.617 63.464 77.008 23.617 172 52.75Z" id="Rectangle" fill="#062C51" transform="matrix(0.602 0.799 -0.799 0.602 213.083 133.896)"/><circle cx="55.5" cy="55.5" r="55.5" id="Oval" fill="#062C51" transform="translate(1768 176.919)"/><circle cx="25" cy="25" r="25" id="Oval-2" fill="#1E84ED" transform="translate(1657 28.919)"/></g></g></svg>