<?xml version="1.0" encoding="UTF-8"?>
<svg xmlns="http://www.w3.org/2000/svg" xmlns:xlink="http://www.w3.org/1999/xlink" width="1307.18pt" height="768pt" viewBox="0 0 1307.18 768" version="1.1">
<defs>
<clipPath id="clip1">
  <path d="M 0 90 L 1307.179688 90 L 1307.179688 768 L 0 768 Z M 0 90 "/>
</clipPath>
</defs>
<g id="surface1">
<g clip-path="url(#clip1)" clip-rule="nonzero">
<path style=" stroke:none;fill-rule:nonzero;fill:rgb(87.109375%,92.576599%,97.264099%);fill-opacity:1;" d="M 1241.640625 767 C 1241.640625 767 1398.640625 532 1226.640625 410 C 1157.539063 360.988281 1044.640625 379 984.640625 346 C 903.898438 301.59375 865.703125 257.511719 788.640625 207 C 696.253906 146.449219 560.621094 88.226563 423.640625 91 C 176.640625 96 77.640625 259 130.640625 485 C 183.640625 711 0 768 0 768 "/>
</g>
<path style=" stroke:none;fill-rule:nonzero;fill:rgb(28.637695%,59.179688%,87.109375%);fill-opacity:1;" d="M 537.621094 793.796875 L 478.789063 526.691406 L 494.984375 526.691406 C 498.820313 526.691406 501.964844 523.554688 501.964844 519.714844 L 501.964844 510.691406 C 501.964844 506.855469 498.820313 503.714844 494.984375 503.714844 L 289.5625 503.714844 C 285.726563 503.714844 282.585938 506.855469 282.585938 510.691406 L 282.585938 519.714844 C 282.585938 523.554688 285.726563 526.691406 289.5625 526.691406 L 310.410156 526.691406 L 251.578125 793.796875 C 250.789063 797.390625 253.074219 800.972656 256.652344 801.769531 C 260.230469 802.5625 263.808594 800.273438 264.601563 796.679688 L 324.066406 526.691406 L 465.132813 526.691406 L 524.601563 796.679688 C 525.390625 800.273438 528.96875 802.5625 532.546875 801.769531 C 536.128906 800.972656 538.410156 797.390625 537.621094 793.796875 "/>
<path style=" stroke:none;fill-rule:nonzero;fill:rgb(98.4375%,45.872498%,45.872498%);fill-opacity:1;" d="M 431.402344 504.003906 C 431.902344 508.699219 438.546875 508.53125 446.058594 507.40625 C 453.566406 506.28125 451.625 508.253906 462.1875 508.050781 C 472.742188 507.847656 476.265625 504.234375 476.726563 502.710938 C 477.140625 501.359375 472.019531 500.398438 466.535156 499.257813 C 465.847656 499.117188 465.152344 498.964844 464.460938 498.816406 C 458.277344 497.460938 454.066406 493.007813 448.683594 489.171875 C 443.589844 485.542969 440.15625 468.902344 440.15625 468.902344 L 425.144531 468.816406 C 425.144531 468.816406 429.859375 483.863281 432.316406 489.097656 C 433.761719 492.171875 432.222656 496.125 431.738281 499.089844 C 431.480469 500.699219 431.222656 502.347656 431.402344 504.003906 "/>
<path style=" stroke:none;fill-rule:nonzero;fill:rgb(21.166992%,36.473083%,63.867188%);fill-opacity:1;" d="M 446.058594 507.40625 C 453.566406 506.28125 451.625 508.253906 462.183594 508.050781 C 472.742188 507.847656 476.265625 504.234375 476.726563 502.710938 C 477.140625 501.359375 472.015625 500.398438 466.535156 499.257813 L 466.472656 499.359375 C 466.472656 499.359375 459.800781 503.234375 451.078125 502.648438 C 443.96875 502.175781 436.644531 499.457031 431.738281 499.089844 C 431.476563 500.699219 431.222656 502.347656 431.402344 504.003906 C 431.902344 508.699219 438.546875 508.53125 446.058594 507.40625 "/>
<path style=" stroke:none;fill-rule:nonzero;fill:rgb(98.4375%,45.872498%,45.872498%);fill-opacity:1;" d="M 314.042969 503.261719 C 314.367188 507.972656 321.015625 508.050781 328.5625 507.210938 C 336.105469 506.367188 334.09375 508.269531 344.652344 508.460938 C 355.214844 508.65625 358.867188 505.183594 359.386719 503.675781 C 359.847656 502.339844 354.769531 501.1875 349.332031 499.839844 C 348.648438 499.671875 347.960938 499.496094 347.277344 499.320313 C 341.148438 497.734375 337.105469 493.121094 331.875 489.089844 C 326.917969 485.269531 330.996094 469.421875 330.996094 469.421875 L 319.605469 464.042969 C 319.605469 464.042969 318.039063 480.378906 317.191406 488.636719 C 316.847656 492.019531 315.164063 495.417969 314.566406 498.363281 C 314.246094 499.960938 313.929688 501.601563 314.042969 503.261719 "/>
<path style=" stroke:none;fill-rule:nonzero;fill:rgb(21.166992%,36.473083%,63.867188%);fill-opacity:1;" d="M 328.5625 507.210938 C 336.105469 506.367188 334.09375 508.269531 344.652344 508.460938 C 355.214844 508.65625 358.867188 505.183594 359.386719 503.675781 C 359.847656 502.339844 354.769531 501.191406 349.332031 499.839844 L 349.265625 499.941406 C 349.265625 499.941406 342.449219 503.558594 333.757813 502.648438 C 326.671875 501.902344 319.453125 498.910156 314.566406 498.359375 C 314.246094 499.960938 313.929688 501.601563 314.042969 503.261719 C 314.367188 507.972656 321.015625 508.050781 328.5625 507.210938 "/>
<path style=" stroke:none;fill-rule:nonzero;fill:rgb(16.868591%,27.43988%,54.101563%);fill-opacity:1;" d="M 339.628906 268.074219 C 339.628906 268.074219 336.476563 283.351563 333.3125 360.824219 C 333.3125 360.824219 327.453125 375.171875 323.203125 392.710938 C 318.949219 410.25 315.953125 483.4375 315.953125 483.4375 C 315.953125 483.4375 317.644531 485.882813 322.792969 486.191406 C 326.996094 486.445313 330.265625 484.601563 330.265625 484.601563 C 330.265625 484.601563 359.816406 388.742188 374.203125 351.527344 C 388.589844 314.3125 397.015625 261.171875 397.015625 261.171875 "/>
<path style=" stroke:none;fill-rule:nonzero;fill:rgb(16.868591%,27.43988%,54.101563%);fill-opacity:1;" d="M 375.171875 274.617188 C 375.171875 274.617188 377.503906 290.039063 401.359375 363.816406 C 401.359375 363.816406 400.828125 379.304688 402.914063 397.230469 C 405 415.15625 429.152344 485.738281 429.152344 485.738281 C 429.152344 485.738281 432.355469 486.851563 437.171875 485.585938 C 441.644531 484.402344 445.148438 481.714844 445.148438 481.714844 C 445.148438 481.714844 435.890625 380.828125 436.503906 340.933594 C 437.109375 301.039063 426.617188 248.269531 426.617188 248.269531 "/>
<path style=" stroke:none;fill-rule:nonzero;fill:rgb(77.34375%,32.542419%,27.43988%);fill-opacity:1;" d="M 417.425781 60.945313 C 413.6875 58.566406 409.085938 58.09375 405.851563 58.125 C 406.726563 57.308594 408.371094 57.078125 408.371094 57.078125 C 406.386719 56.679688 401.824219 58.441406 401.824219 58.441406 C 374.53125 46.328125 368.109375 87.085938 368.21875 96.632813 C 368.324219 106.179688 367.847656 117.140625 353.527344 124.984375 C 325.355469 140.417969 346.949219 170.894531 346.949219 170.894531 C 341.878906 185.445313 360.652344 203.273438 360.652344 203.273438 C 360.335938 195.546875 395.808594 146.3125 414.933594 135.082031 C 419.773438 128.671875 421.960938 117.027344 422.128906 116.109375 C 420.886719 125.367188 419.03125 130.503906 417.464844 133.367188 C 433.867188 119.71875 427.339844 67.253906 417.425781 60.945313 "/>
<path style=" stroke:none;fill-rule:nonzero;fill:rgb(98.4375%,45.872498%,45.872498%);fill-opacity:1;" d="M 411.480469 129.808594 C 411.578125 129.851563 402.53125 134.546875 395.730469 132.6875 C 389.328125 130.941406 385.148438 122.644531 385.234375 122.625 C 387.945313 122.085938 388.726563 118.363281 388.667969 102.359375 L 389.894531 102.601563 L 409.757813 106.535156 L 410.496094 106.679688 C 410.496094 106.679688 410.023438 113.164063 410.011719 119.269531 C 410.007813 120.5625 410.023438 121.835938 410.074219 123.027344 C 410.207031 126.574219 410.601563 129.394531 411.480469 129.808594 "/>
<path style=" stroke:none;fill-rule:nonzero;fill:rgb(98.826599%,36.863708%,35.301208%);fill-opacity:1;" d="M 410.011719 119.269531 C 410.007813 120.5625 410.027344 121.835938 410.074219 123.027344 C 398.519531 122.5625 391.863281 109.351563 389.347656 103.554688 L 409.757813 106.535156 L 410.496094 106.679688 C 410.496094 106.679688 410.027344 113.164063 410.011719 119.269531 "/>
<path style=" stroke:none;fill-rule:nonzero;fill:rgb(77.34375%,32.542419%,27.43988%);fill-opacity:1;" d="M 387.765625 100.359375 C 387.765625 100.359375 381.726563 90.8125 380.273438 82.652344 C 379.242188 76.824219 382.210938 55.222656 403.914063 58.335938 C 403.914063 58.335938 410.21875 58.957031 416.144531 62.957031 C 420.855469 66.140625 427.660156 73.011719 420.054688 91.859375 L 418.078125 98.226563 "/>
<path style=" stroke:none;fill-rule:nonzero;fill:rgb(98.4375%,45.872498%,45.872498%);fill-opacity:1;" d="M 411.710938 116.277344 C 411.710938 116.277344 384.667969 112.703125 387.152344 95.894531 C 389.636719 79.089844 387.820313 67.308594 405.191406 68.878906 C 422.566406 70.449219 424.964844 77.359375 425.5 83.171875 C 426.03125 88.984375 418.808594 116.773438 411.710938 116.277344 "/>
<path style=" stroke:none;fill-rule:nonzero;fill:rgb(77.34375%,32.542419%,27.43988%);fill-opacity:1;" d="M 417.539063 70.296875 C 417.539063 70.296875 407.21875 88.910156 395.449219 90.140625 C 383.675781 91.363281 379.214844 87.59375 379.214844 87.59375 C 379.214844 87.59375 388.9375 81.984375 392.539063 70.195313 C 392.539063 70.195313 413.367188 60.085938 417.539063 70.296875 "/>
<path style=" stroke:none;fill-rule:nonzero;fill:rgb(77.34375%,32.542419%,27.43988%);fill-opacity:1;" d="M 415.472656 71.628906 C 415.472656 71.628906 420.332031 76.851563 421.039063 81.328125 C 421.746094 85.808594 421.039063 94.707031 423.652344 94.789063 C 423.652344 94.789063 431.214844 82.222656 426.089844 73.710938 C 420.65625 64.683594 415.472656 71.628906 415.472656 71.628906 "/>
<path style=" stroke:none;fill-rule:nonzero;fill:rgb(78.90625%,29.026794%,18.041992%);fill-opacity:1;" d="M 598.085938 297.402344 C 592.410156 285.386719 576.640625 275.441406 563.351563 275.4375 C 553.535156 275.433594 544.878906 278.785156 538.183594 284.238281 C 534.351563 287.359375 528.574219 285.300781 527.535156 280.472656 L 515.90625 226.429688 C 514.210938 218.550781 506.445313 213.539063 498.566406 215.234375 L 310.355469 255.742188 C 302.65625 257.398438 297.757813 264.984375 299.414063 272.683594 L 339.878906 460.6875 C 341.035156 466.066406 344.976563 470.121094 349.867188 471.679688 L 347.398438 472.382813 L 354.703125 472.382813 L 354.761719 472.371094 C 355.65625 472.34375 356.558594 472.242188 357.46875 472.046875 L 361.566406 471.164063 L 409.867188 460.769531 C 416.648438 459.308594 419.398438 451.109375 414.84375 445.882813 C 410.445313 440.832031 407.277344 434.574219 405.929688 427.488281 C 402.128906 407.523438 414.472656 387.742188 434.09375 382.425781 C 455.914063 376.515625 477.953125 390.136719 482.648438 411.957031 C 484.414063 420.164063 483.46875 428.324219 480.40625 435.503906 C 479.21875 438.292969 480.203125 441.1875 482.242188 442.839844 L 479.425781 444.214844 L 485.953125 444.210938 C 486.441406 444.222656 486.945313 444.179688 487.460938 444.070313 L 545.140625 431.65625 C 553.023438 429.960938 558.039063 422.191406 556.339844 414.308594 L 544.78125 360.601563 C 543.710938 355.632813 548.246094 351.277344 553.167969 352.539063 C 558.863281 354.003906 564.972656 354.199219 571.109375 352.882813 C 595.246094 347.6875 609.351563 321.273438 598.085938 297.402344 "/>
<path style=" stroke:none;fill-rule:nonzero;fill:rgb(99.21875%,76.5625%,35.301208%);fill-opacity:1;" d="M 553.683594 278.007813 C 543.871094 278.003906 535.214844 281.355469 528.515625 286.8125 C 524.683594 289.929688 518.910156 287.871094 517.871094 283.042969 L 506.238281 229.003906 C 504.542969 221.121094 496.78125 216.109375 488.898438 217.804688 L 300.6875 258.3125 C 292.988281 259.96875 288.089844 267.554688 289.746094 275.253906 L 330.210938 463.261719 C 331.929688 471.253906 339.804688 476.339844 347.800781 474.617188 L 400.203125 463.339844 C 406.980469 461.878906 409.730469 453.679688 405.175781 448.453125 C 400.777344 443.402344 397.613281 437.144531 396.261719 430.0625 C 392.460938 410.09375 404.808594 390.3125 424.425781 384.996094 C 446.246094 379.085938 468.285156 392.710938 472.980469 414.527344 C 474.746094 422.738281 473.800781 430.894531 470.742188 438.074219 C 468.753906 442.738281 472.835938 447.707031 477.796875 446.640625 L 535.472656 434.226563 C 543.355469 432.53125 548.371094 424.765625 546.675781 416.878906 L 535.113281 363.171875 C 534.046875 358.203125 538.578125 353.847656 543.503906 355.113281 C 549.195313 356.574219 555.308594 356.769531 561.445313 355.449219 C 585.578125 350.257813 599.6875 323.84375 588.417969 299.972656 C 582.746094 287.953125 566.972656 278.011719 553.683594 278.007813 "/>
<path style=" stroke:none;fill-rule:nonzero;fill:rgb(98.4375%,45.872498%,45.872498%);fill-opacity:1;" d="M 484.820313 206.535156 C 484.820313 206.535156 496.558594 208.457031 499.636719 216.09375 C 502.714844 223.726563 498.417969 228.894531 496.765625 228.878906 C 495.109375 228.859375 491.941406 227.640625 490.460938 223.679688 C 488.976563 219.722656 484.820313 206.535156 484.820313 206.535156 "/>
<path style=" stroke:none;fill-rule:nonzero;fill:rgb(98.4375%,45.872498%,45.872498%);fill-opacity:1;" d="M 323.203125 240.601563 C 323.203125 240.601563 336.382813 240.582031 341.121094 248.371094 C 345.863281 256.160156 342.101563 262.585938 340.289063 262.867188 C 338.480469 263.144531 334.796875 262.382813 332.460938 258.324219 C 330.125 254.261719 323.203125 240.601563 323.203125 240.601563 "/>
<path style=" stroke:none;fill-rule:nonzero;fill:rgb(46.655273%,49.021912%,70.896912%);fill-opacity:1;" d="M 485.144531 215.394531 C 483.980469 215.144531 478.871094 214.542969 472.371094 213.523438 C 460.40625 211.644531 443.726563 208.339844 438.128906 203.175781 C 436.613281 201.777344 433.082031 194.0625 429.414063 185.222656 C 425.703125 204.796875 425.496094 219.808594 426.480469 231.238281 L 345.609375 248.644531 C 352.546875 234.625 363.277344 217.242188 361.265625 203.175781 C 360.519531 197.960938 357.660156 190.804688 356.59375 182.765625 C 356.503906 182.074219 356.425781 181.382813 356.363281 180.683594 C 345.023438 190.019531 331.921875 200.320313 331.609375 202.378906 C 331.085938 205.832031 339.917969 244.066406 339.917969 244.066406 C 337.722656 249.113281 328.199219 248.050781 328.199219 248.050781 C 319.273438 241.679688 306.148438 205.5625 307.203125 197.5625 C 308.253906 189.5625 340.792969 143.96875 348.671875 133.074219 C 356.449219 122.304688 384.851563 122.574219 385.535156 122.578125 L 385.550781 122.578125 C 408.136719 136.140625 410.175781 124.871094 410.175781 124.871094 C 410.175781 124.871094 430.554688 128.746094 434.058594 134.761719 C 437.5625 140.785156 452.917969 186.4375 454.003906 188.046875 C 456.277344 191.40625 493.40625 204.859375 494.070313 208.753906 C 494.746094 212.648438 488.472656 216.101563 485.144531 215.394531 "/>
<path style=" stroke:none;fill-rule:nonzero;fill:rgb(32.93457%,36.473083%,63.084412%);fill-opacity:1;" d="M 373.808594 242.601563 L 345.609375 248.644531 C 352.628906 234.664063 361.859375 217.253906 359.84375 203.273438 C 359.085938 198.054688 357.394531 191.878906 356.578125 183.804688 C 356.5 183.027344 356.363281 180.683594 356.363281 180.683594 C 356.363281 180.683594 376.335938 196.398438 376.683594 213.40625 C 376.867188 222.226563 375.328125 233.769531 373.808594 242.601563 "/>
<path style=" stroke:none;fill-rule:nonzero;fill:rgb(32.93457%,36.473083%,63.084412%);fill-opacity:1;" d="M 473.121094 213.628906 C 461.011719 211.746094 444.121094 208.441406 438.460938 203.277344 C 436.925781 201.875 433.347656 194.152344 429.632813 185.300781 C 429.632813 185.300781 428.332031 171.070313 432.050781 171.601563 C 435.769531 172.132813 441.246094 197.371094 445.148438 198.96875 C 448.644531 200.398438 467.972656 207.816406 473.121094 213.628906 "/>
<path style=" stroke:none;fill-rule:nonzero;fill:rgb(17.259216%,22.363281%,38.818359%);fill-opacity:1;" d="M 1018.640625 744.9375 C 1017.121094 750.078125 1010.078125 753.5 1009.128906 759.78125 C 1008.671875 762.84375 1007.519531 765.226563 1006.070313 766.863281 L 984.15625 766.863281 C 984.375 765.65625 985.335938 764.355469 988.1875 763.734375 C 994.273438 762.402344 996.570313 755.027344 996.191406 748.175781 C 996.035156 745.300781 996.105469 742.027344 996.246094 739.195313 C 996.441406 735.273438 996.761719 732.1875 996.761719 732.1875 L 1009.699219 729.144531 L 1011.058594 730.894531 L 1012.371094 732.570313 C 1012.371094 732.570313 1020.171875 739.800781 1018.640625 744.9375 "/>
<path style=" stroke:none;fill-rule:nonzero;fill:rgb(17.259216%,22.363281%,38.818359%);fill-opacity:1;" d="M 916.585938 766.863281 L 872.246094 766.863281 C 873.25 765.6875 874.953125 764.550781 877.835938 764.082031 C 884.660156 762.972656 896.476563 759.011719 899.109375 750.289063 C 899.195313 750.011719 899.273438 749.722656 899.339844 749.433594 C 901.429688 740.109375 916.652344 752.285156 916.652344 752.285156 C 916.652344 752.285156 916.703125 752.660156 916.769531 753.296875 C 917.035156 755.917969 917.628906 763.039063 916.585938 766.863281 "/>
<path style=" stroke:none;fill-rule:nonzero;fill:rgb(20.776367%,27.830505%,54.101563%);fill-opacity:1;" d="M 879.644531 519.839844 C 879.644531 519.839844 881.960938 548.683594 884.675781 583.355469 C 888.371094 630.453125 892.8125 688.308594 893.25 699.269531 C 894.007813 718.300781 897.058594 748.746094 897.058594 748.746094 C 897.058594 748.746094 904.285156 755.976563 918.75 752.929688 C 918.75 752.929688 931.636719 709.46875 935.320313 663.488281 C 935.378906 662.734375 935.4375 661.976563 935.492188 661.21875 C 938.917969 614.410156 944.242188 515.84375 944.242188 515.84375 "/>
<path style=" stroke:none;fill-rule:nonzero;fill:rgb(17.259216%,22.363281%,38.818359%);fill-opacity:1;" d="M 879.644531 519.839844 C 879.644531 519.839844 881.960938 548.683594 884.675781 583.355469 L 935.320313 663.488281 C 935.378906 662.734375 935.4375 661.976563 935.492188 661.21875 C 938.917969 614.410156 944.242188 515.84375 944.242188 515.84375 "/>
<path style=" stroke:none;fill-rule:nonzero;fill:rgb(20.776367%,27.830505%,54.101563%);fill-opacity:1;" d="M 890.203125 523.265625 C 890.203125 523.265625 931.875 627.726563 959.277344 676.820313 C 986.675781 725.910156 995.238281 739.613281 995.238281 739.613281 C 995.238281 739.613281 1010.941406 733.332031 1012.359375 729.050781 C 1012.359375 729.050781 1001.890625 634.277344 983.535156 611.171875 C 973.167969 598.117188 960.988281 558.941406 960.417969 545.242188 C 959.847656 531.539063 956.707031 504.425781 956.707031 504.425781 "/>
<path style=" stroke:none;fill-rule:nonzero;fill:rgb(98.826599%,36.863708%,35.301208%);fill-opacity:1;" d="M 911.578125 362.015625 C 909.722656 351.078125 909.667969 344.589844 909.667969 344.589844 L 930.808594 327.550781 C 930.023438 350.980469 945.039063 362.246094 945.039063 362.246094 C 945.039063 362.246094 916.863281 376.117188 900.578125 370.980469 C 900.578125 370.980469 904.585938 365.855469 911.578125 362.015625 "/>
<path style=" stroke:none;fill-rule:nonzero;fill:rgb(98.4375%,45.872498%,45.872498%);fill-opacity:1;" d="M 904.6875 344.203125 C 904.6875 344.203125 931.585938 348.675781 934.109375 331.882813 C 936.632813 315.085938 941.804688 304.355469 924.738281 300.789063 C 907.671875 297.226563 903.363281 303.132813 901.160156 308.53125 C 898.953125 313.933594 897.753906 342.609375 904.6875 344.203125 "/>
<path style=" stroke:none;fill-rule:nonzero;fill:rgb(62.693787%,42.358398%,23.143005%);fill-opacity:1;" d="M 810.21875 378.824219 L 804.492188 375.277344 C 804.492188 375.277344 797.355469 364.738281 785.15625 371.285156 C 785.15625 371.285156 780.328125 374.367188 783.570313 376.945313 C 786.8125 379.523438 785.9375 378.066406 790.429688 381.800781 C 794.921875 385.539063 800.730469 386.871094 804.480469 384.8125 L 809.289063 384.359375 "/>
<path style=" stroke:none;fill-rule:nonzero;fill:rgb(90.234375%,61.521912%,26.268005%);fill-opacity:1;" d="M 803.421875 379.925781 C 804.894531 375.3125 805.597656 374.90625 805.597656 374.90625 C 805.597656 374.90625 851.90625 380.378906 856.273438 380.699219 C 860.640625 381.023438 921.269531 368.53125 921.269531 368.53125 L 949.894531 403.296875 C 949.894531 403.296875 865.488281 406.480469 854.441406 405.441406 C 836.1875 403.730469 803.085938 386.738281 803.085938 386.738281 C 803.085938 386.738281 802.261719 383.550781 803.421875 379.925781 "/>
<path style=" stroke:none;fill-rule:nonzero;fill:rgb(78.90625%,29.026794%,18.041992%);fill-opacity:1;" d="M 959.886719 509.765625 C 959.964844 511.558594 956.269531 513.527344 954.664063 514.25 C 942.574219 519.671875 931.316406 523.433594 918.597656 524.660156 C 903.507813 526.203125 885.675781 522.8125 879.5625 522.894531 C 878.90625 522.894531 878.339844 522.652344 877.851563 522.242188 C 877.441406 521.914063 877.113281 503.484375 877.441406 480.246094 C 877.441406 479.351563 877.441406 478.367188 877.523438 477.472656 L 877.523438 477.148438 C 877.546875 474.730469 877.585938 472.269531 877.636719 469.785156 C 877.789063 462.996094 878.046875 456.023438 878.339844 449.09375 C 878.78125 438.878906 879.386719 428.839844 880.226563 419.945313 C 881.105469 410.65625 882.222656 402.613281 883.640625 396.90625 C 886.902344 383.777344 894.40625 375.132813 901.253906 368.769531 L 906.878906 363.800781 C 912.503906 364.941406 918.460938 364.613281 924.410156 361.679688 C 930.851563 358.5 937.867188 355.074219 939.007813 355.890625 C 947.699219 362.386719 953.554688 377.140625 956.554688 395.886719 C 958.167969 405.976563 958.953125 417.222656 958.910156 428.964844 C 958.894531 433.46875 958.757813 438.039063 958.492188 442.652344 C 957.042969 467.414063 958.53125 488.882813 959.386719 501.359375 C 959.632813 504.945313 959.828125 507.800781 959.886719 509.765625 "/>
<path style=" stroke:none;fill-rule:nonzero;fill:rgb(32.93457%,36.473083%,63.084412%);fill-opacity:1;" d="M 819.109375 280.859375 L 649.007813 253.847656 C 641.773438 252.695313 634.980469 257.628906 633.832031 264.863281 L 626.300781 312.273438 C 625.953125 314.46875 626.511719 320.640625 626.511719 320.640625 L 632.640625 321.550781 C 632.988281 321.628906 633.34375 321.683594 633.703125 321.710938 C 634.8125 321.800781 635.972656 321.660156 637.128906 321.246094 C 642.765625 319.203125 649.015625 318.582031 655.371094 319.746094 C 673.273438 323.03125 685.800781 339.738281 683.894531 357.84375 C 681.773438 377.980469 663.269531 391.980469 643.527344 388.84375 C 636.101563 387.664063 629.59375 384.234375 624.589844 379.355469 C 623.617188 378.410156 622.449219 377.910156 621.269531 377.789063 L 614.855469 376.828125 L 606.863281 434.660156 C 605.734375 441.796875 610.597656 448.496094 617.730469 449.628906 L 666.320313 457.34375 C 670.816406 458.058594 672.988281 463.253906 670.339844 466.957031 C 667.277344 471.238281 665.136719 476.277344 664.253906 481.832031 C 660.789063 503.667969 678.285156 523.992188 701.863281 522.300781 C 713.734375 521.449219 727.140625 511.496094 731.441406 500.398438 C 734.617188 492.203125 734.621094 483.890625 732.230469 476.53125 C 730.863281 472.324219 734.449219 468.164063 738.820313 468.859375 L 787.714844 476.625 C 794.84375 477.757813 801.542969 472.894531 802.675781 465.765625 L 829.71875 295.476563 C 830.824219 288.511719 826.074219 281.96875 819.109375 280.859375 "/>
<path style=" stroke:none;fill-rule:nonzero;fill:rgb(74.414063%,14.501953%,1.567078%);fill-opacity:1;" d="M 939.628906 395.382813 C 939.628906 395.382813 926.589844 456.230469 877.636719 469.785156 C 877.789063 462.996094 878.046875 456.023438 878.339844 449.09375 C 878.78125 438.878906 879.386719 428.839844 880.226563 419.945313 C 881.101563 419.496094 881.921875 419.144531 882.671875 418.898438 C 899.285156 413.421875 939.628906 395.382813 939.628906 395.382813 "/>
<path style=" stroke:none;fill-rule:nonzero;fill:rgb(46.655273%,49.021912%,70.896912%);fill-opacity:1;" d="M 722.9375 499.449219 C 726.117188 491.253906 726.117188 482.941406 723.730469 475.582031 C 722.363281 471.375 725.949219 467.214844 730.316406 467.910156 L 779.214844 475.675781 C 786.34375 476.808594 793.039063 471.945313 794.171875 464.816406 L 821.214844 294.527344 C 822.324219 287.5625 817.574219 281.019531 810.605469 279.910156 L 640.503906 252.898438 C 633.273438 251.75 626.480469 256.679688 625.332031 263.914063 L 617.800781 311.324219 C 616.828125 317.457031 622.785156 322.40625 628.625 320.296875 C 634.265625 318.253906 640.515625 317.632813 646.867188 318.800781 C 664.773438 322.082031 677.300781 338.789063 675.394531 356.894531 C 673.273438 377.03125 654.769531 391.03125 635.027344 387.894531 C 627.601563 386.714844 621.09375 383.285156 616.085938 378.40625 C 612.832031 375.238281 607.363281 377.042969 606.652344 381.527344 L 598.363281 433.714844 C 597.230469 440.84375 602.09375 447.546875 609.226563 448.675781 L 657.820313 456.394531 C 662.316406 457.109375 664.488281 462.304688 661.839844 466.007813 C 658.777344 470.289063 656.636719 475.328125 655.753906 480.882813 C 652.285156 502.71875 669.78125 523.042969 693.359375 521.351563 C 705.230469 520.503906 718.636719 510.546875 722.9375 499.449219 "/>
<path style=" stroke:none;fill-rule:nonzero;fill:rgb(98.4375%,45.872498%,45.872498%);fill-opacity:1;" d="M 810.414063 418.054688 L 803.421875 416.894531 C 803.421875 416.894531 795.449219 405.359375 781.550781 411.828125 C 781.550781 411.828125 776.039063 414.914063 779.6875 417.800781 C 783.332031 420.6875 782.359375 419.09375 787.40625 423.265625 C 792.457031 427.4375 799.027344 429.101563 803.296875 427.0625 L 808.75 426.78125 "/>
<path style=" stroke:none;fill-rule:nonzero;fill:rgb(90.234375%,61.521912%,26.268005%);fill-opacity:1;" d="M 805.070313 421.605469 C 805.296875 416.460938 808.035156 415.910156 808.035156 415.910156 C 808.035156 415.910156 861.015625 412.40625 865.585938 411.519531 C 870.15625 410.632813 912.351563 375.675781 912.351563 375.675781 C 912.351563 375.675781 928.671875 361.007813 940.101563 365.957031 C 950.035156 370.257813 953.148438 378.742188 953.648438 386.542969 C 954.242188 395.84375 949 404.535156 940.558594 408.476563 C 921.605469 417.328125 883.710938 434.703125 875.078125 436.203125 C 855.867188 439.539063 806.492188 428.84375 806.492188 428.84375 C 806.492188 428.84375 804.894531 425.648438 805.070313 421.605469 "/>
<path style=" stroke:none;fill-rule:nonzero;fill:rgb(18.041992%,9.423828%,32.542419%);fill-opacity:1;" d="M 901.160156 308.53125 C 901.160156 308.53125 890.242188 300.4375 897.363281 287.859375 C 897.363281 287.859375 905.949219 290.707031 918.148438 287.859375 C 930.347656 285.011719 941.265625 289.046875 942.6875 293.316406 C 942.6875 293.316406 947.433594 295.21875 947.910156 302.335938 C 948.386719 309.457031 934.109375 331.882813 934.109375 331.882813 C 934.109375 331.882813 931.058594 328.085938 931.890625 325.472656 C 932.722656 322.863281 935.332031 317.050781 932.128906 317.050781 C 928.925781 317.050781 927.855469 321.796875 926.550781 319.898438 C 925.246094 318 927.621094 310.050781 923.824219 308.742188 C 920.027344 307.4375 905.429688 310.933594 901.160156 308.53125 "/>
<path style=" stroke:none;fill-rule:nonzero;fill:rgb(12.547302%,61.914063%,50.193787%);fill-opacity:1;" d="M 803.835938 547.503906 L 750.414063 547.503906 C 743.503906 547.503906 739.101563 554.917969 742.441406 560.964844 C 745.671875 566.808594 734.3125 617.433594 710.386719 618.753906 C 687.886719 619.996094 669.265625 602.042969 669.265625 579.800781 C 669.265625 571.433594 671.902344 563.679688 676.386719 557.328125 C 679.304688 553.199219 676.363281 547.503906 671.3125 547.503906 L 612.511719 547.503906 C 604.476563 547.503906 597.960938 554.019531 597.960938 562.054688 C 597.960938 562.054688 592.628906 625.167969 588.097656 622.902344 C 583.429688 620.570313 578.226563 619.148438 572.722656 618.863281 L 572.667969 618.863281 C 572.011719 618.828125 571.351563 618.808594 570.6875 618.808594 C 570.019531 618.808594 560.339844 618.644531 560.339844 618.644531 L 558.875 696.636719 L 567.277344 696.726563 C 575.269531 696.484375 582.210938 695.738281 588.378906 692.59375 C 592.761719 690.359375 597.960938 693.574219 597.960938 698.496094 L 597.960938 753.589844 C 597.960938 761.621094 604.472656 768.132813 612.507813 768.132813 L 804.378906 768.132813 C 812.230469 768.132813 818.589844 761.773438 818.589844 753.921875 L 818.589844 562.257813 C 818.589844 554.109375 811.984375 547.503906 803.835938 547.503906 "/>
<path style=" stroke:none;fill-rule:nonzero;fill:rgb(26.660156%,73.631287%,63.476563%);fill-opacity:1;" d="M 551.664063 695.726563 C 561.226563 697.789063 570.359375 696.339844 578.03125 692.425781 C 582.417969 690.191406 587.613281 693.40625 587.613281 698.332031 L 587.613281 753.421875 C 587.613281 761.457031 594.128906 767.96875 602.160156 767.96875 L 794.03125 767.96875 C 801.882813 767.96875 808.246094 761.605469 808.246094 753.757813 L 808.246094 562.09375 C 808.246094 553.945313 801.640625 547.339844 793.488281 547.339844 L 740.066406 547.339844 C 733.15625 547.339844 728.757813 554.75 732.097656 560.800781 C 735.324219 566.644531 737.097656 573.402344 736.929688 580.589844 C 736.445313 600.839844 720.269531 617.523438 700.039063 618.589844 C 677.535156 619.773438 658.921875 601.878906 658.921875 579.636719 C 658.921875 571.265625 661.554688 563.515625 666.042969 557.164063 C 668.957031 553.035156 666.019531 547.339844 660.964844 547.339844 L 602.164063 547.339844 C 594.128906 547.339844 587.613281 553.851563 587.613281 561.890625 L 587.613281 616.640625 C 587.613281 621.710938 582.285156 625.003906 577.753906 622.738281 C 572.511719 620.117188 566.597656 618.644531 560.339844 618.644531 C 535.738281 618.644531 516.453125 641.421875 522.429688 667.039063 C 525.433594 679.941406 538.71875 692.933594 551.664063 695.726563 "/>
<path style="fill:none;stroke-width:20;stroke-linecap:round;stroke-linejoin:miter;stroke:rgb(32.93457%,36.473083%,63.084412%);stroke-opacity:1;stroke-miterlimit:10;" d="M 6623.632813 4421.171875 L 7281.757813 5012.148438 L 7281.757813 7680 " transform="matrix(0.1,0,0,-0.1,0,768)"/>
<path style="fill:none;stroke-width:20;stroke-linecap:butt;stroke-linejoin:miter;stroke:rgb(32.93457%,36.473083%,63.084412%);stroke-opacity:1;stroke-miterlimit:10;" d="M 7281.757813 5012.148438 L 8102.1875 4081.054688 L 8194.882813 4081.054688 " transform="matrix(0.1,0,0,-0.1,0,768)"/>
</g>
</svg>
