<svg width="35.462" height="35.461" viewBox="0 0 35.462 35.461" xmlns="http://www.w3.org/2000/svg" xmlns:xlink="http://www.w3.org/1999/xlink" overflow="hidden"><g id="New_Topic" transform="translate(1 1)"><path d="M109.565 137.45 109.565 109.565 143.026 109.565 143.026 143.026 137.449 137.449 117.931 137.449" id="Path_9" fill="none" transform="translate(-109.565 -109.565)"/><path d="M120.719 133.27 109.565 133.27 109.565 124.9" id="Path_10" stroke="#2C3149" stroke-width="2" stroke-linecap="round" stroke-linejoin="round" fill="none" transform="translate(-109.565 -105.385)"/><path d="M130.481 137.45 133.269 137.45 138.846 143.027 138.846 109.565 124.9 109.565" id="Path_11" stroke="#2C3149" stroke-width="2" stroke-linecap="round" stroke-linejoin="round" fill="none" transform="translate(-105.385 -109.565)"/><line x1="0" y1="0" x2="2.788" y2="0" id="Line_9" stroke="#2C3149" stroke-width="2" stroke-linecap="round" stroke-linejoin="round" fill="none" transform="translate(16.731 27.885)"/><path d="M109.565 120.719 109.565 115.142 115.142 115.142 115.142 109.565 120.719 109.565 120.719 115.142 126.3 115.142 126.3 120.719 120.723 120.719 120.723 126.3 115.146 126.3 115.146 120.723Z" id="Path_12" stroke="#2C3149" stroke-width="2" stroke-linecap="round" stroke-linejoin="round" fill="none" transform="translate(-109.565 -109.565)"/></g></svg>