<?xml version="1.0" encoding="UTF-8"?>
<svg xmlns="http://www.w3.org/2000/svg" xmlns:xlink="http://www.w3.org/1999/xlink" width="268.74pt" height="268.74pt" viewBox="0 0 268.74 268.74" version="1.1">
<defs>
<clipPath id="clip1">
  <path d="M 0 0 L 268.738281 0 L 268.738281 268.738281 L 0 268.738281 Z M 0 0 "/>
</clipPath>
</defs>
<g id="surface1">
<path style=" stroke:none;fill-rule:nonzero;fill:rgb(0%,0%,0%);fill-opacity:1;" d="M 26.875 26.875 L 35.832031 26.875 L 35.832031 17.917969 L 26.875 17.917969 Z M 26.875 26.875 "/>
<path style=" stroke:none;fill-rule:nonzero;fill:rgb(0%,0%,0%);fill-opacity:1;" d="M 44.789063 26.875 L 53.746094 26.875 L 53.746094 17.917969 L 44.789063 17.917969 Z M 44.789063 26.875 "/>
<path style=" stroke:none;fill-rule:nonzero;fill:rgb(0%,0%,0%);fill-opacity:1;" d="M 62.707031 26.875 L 71.664063 26.875 L 71.664063 17.917969 L 62.707031 17.917969 Z M 62.707031 26.875 "/>
<path style=" stroke:none;fill-rule:nonzero;fill:rgb(0%,0%,0%);fill-opacity:1;" d="M 35.832031 71.664063 L 98.539063 71.664063 L 98.539063 107.496094 L 35.832031 107.496094 Z M 31.351563 116.453125 L 103.015625 116.453125 C 105.492188 116.453125 107.496094 114.449219 107.496094 111.976563 L 107.496094 67.183594 C 107.496094 64.710938 105.492188 62.707031 103.015625 62.707031 L 31.351563 62.707031 C 28.878906 62.707031 26.875 64.710938 26.875 67.183594 L 26.875 111.976563 C 26.875 114.449219 28.878906 116.453125 31.351563 116.453125 "/>
<path style=" stroke:none;fill-rule:nonzero;fill:rgb(0%,0%,0%);fill-opacity:1;" d="M 35.832031 139.164063 L 98.539063 139.164063 L 98.539063 207.367188 L 35.832031 207.367188 Z M 31.351563 216.324219 L 103.015625 216.324219 C 105.492188 216.324219 107.496094 214.320313 107.496094 211.84375 L 107.496094 134.683594 C 107.496094 132.210938 105.492188 130.203125 103.015625 130.203125 L 31.351563 130.203125 C 28.878906 130.203125 26.875 132.210938 26.875 134.683594 L 26.875 211.84375 C 26.875 214.320313 28.878906 216.324219 31.351563 216.324219 "/>
<path style=" stroke:none;fill-rule:nonzero;fill:rgb(0%,0%,0%);fill-opacity:1;" d="M 129.890625 71.664063 L 192.597656 71.664063 L 192.597656 107.496094 L 129.890625 107.496094 Z M 125.410156 116.453125 L 197.074219 116.453125 C 199.550781 116.453125 201.554688 114.449219 201.554688 111.976563 L 201.554688 67.183594 C 201.554688 64.710938 199.550781 62.707031 197.074219 62.707031 L 125.410156 62.707031 C 122.9375 62.707031 120.933594 64.710938 120.933594 67.183594 L 120.933594 111.976563 C 120.933594 114.449219 122.9375 116.453125 125.410156 116.453125 "/>
<g clip-path="url(#clip1)" clip-rule="nonzero">
<path style=" stroke:none;fill-rule:nonzero;fill:rgb(0%,0%,0%);fill-opacity:1;" d="M 259.78125 62.707031 L 241.867188 62.707031 L 241.867188 35.832031 L 246.34375 35.832031 C 253.757813 35.855469 259.761719 41.855469 259.78125 49.269531 Z M 259.78125 105.257813 L 241.867188 87.339844 L 241.867188 71.664063 L 259.78125 71.664063 Z M 259.78125 246.347656 C 259.761719 253.757813 253.757813 259.761719 246.34375 259.78125 L 49.269531 259.78125 C 41.855469 259.761719 35.855469 253.757813 35.832031 246.347656 L 35.832031 241.867188 L 219.472656 241.867188 C 231.839844 241.867188 241.867188 231.839844 241.867188 219.472656 L 241.867188 143.640625 L 259.78125 125.726563 Z M 22.394531 232.90625 C 14.984375 232.886719 8.980469 226.882813 8.957031 219.472656 L 8.957031 44.789063 L 232.910156 44.789063 L 232.910156 89.265625 L 156.003906 166.171875 C 155.554688 166.617188 155.203125 167.148438 154.972656 167.738281 L 139.164063 208.902344 C 138.496094 210.550781 138.886719 212.4375 140.148438 213.691406 C 140.996094 214.527344 142.136719 214.996094 143.328125 214.992188 C 143.882813 214.996094 144.429688 214.890625 144.941406 214.679688 L 186.101563 198.867188 C 186.691406 198.636719 187.226563 198.285156 187.671875 197.835938 L 232.910156 152.601563 L 232.910156 219.472656 C 232.886719 226.882813 226.882813 232.886719 219.472656 232.90625 Z M 8.957031 22.394531 C 8.980469 14.984375 14.984375 8.980469 22.394531 8.957031 L 219.472656 8.957031 C 226.882813 8.980469 232.886719 14.984375 232.910156 22.394531 L 232.910156 35.832031 L 8.957031 35.832031 Z M 232.011719 128.1875 L 238.328125 134.503906 L 184.488281 188.34375 L 178.175781 182.027344 Z M 171.8125 175.667969 L 165.5 169.351563 L 219.335938 115.515625 L 225.652344 121.828125 Z M 158.152344 199.988281 L 151.121094 202.71875 L 153.855469 195.6875 Z M 157.347656 186.550781 L 160.886719 177.367188 L 176.472656 192.957031 L 167.289063 196.492188 Z M 238.328125 96.476563 L 257.363281 115.515625 L 244.6875 128.1875 L 225.652344 109.152344 Z M 246.34375 26.875 L 241.867188 26.875 L 241.867188 22.394531 C 241.867188 10.027344 231.839844 0 219.472656 0 L 22.394531 0 C 10.027344 0 0 10.027344 0 22.394531 L 0 219.472656 C 0 231.839844 10.027344 241.867188 22.394531 241.867188 L 26.875 241.867188 L 26.875 246.347656 C 26.875 258.714844 36.902344 268.738281 49.269531 268.738281 L 246.34375 268.738281 C 258.714844 268.738281 268.738281 258.714844 268.738281 246.347656 L 268.738281 49.269531 C 268.738281 36.898438 258.714844 26.875 246.34375 26.875 "/>
</g>
<path style="fill:none;stroke-width:80;stroke-linecap:round;stroke-linejoin:round;stroke:rgb(0%,0%,0%);stroke-opacity:1;stroke-miterlimit:10;" d="M 1764.726563 1343.689063 L 1244.765625 1343.689063 L 1244.765625 584.74375 " transform="matrix(0.1,0,0,-0.1,0,268.74)"/>
</g>
</svg>
