<svg width="507" height="503" xmlns="http://www.w3.org/2000/svg" xmlns:xlink="http://www.w3.org/1999/xlink" overflow="hidden"><defs><clipPath id="clip0"><rect x="-1" y="218" width="507" height="503"/></clipPath><clipPath id="clip1"><rect x="0" y="219" width="505" height="501"/></clipPath><clipPath id="clip2"><rect x="0" y="270" width="505" height="450"/></clipPath><clipPath id="clip3"><rect x="-175" y="270" width="716" height="721"/></clipPath></defs><g clip-path="url(#clip0)" transform="translate(1 -218)"><g clip-path="url(#clip1)"><g clip-path="url(#clip2)"><g clip-path="url(#clip3)"><path d="M144.866 0C224.873-3.39573e-14 289.731 64.8585 289.731 144.866L289.731 579.761C289.731 659.768 224.873 724.626 144.866 724.626L144.866 724.626C64.8585 724.626 0 659.768 0 579.761L0 144.866C-1.69787e-14 64.8585 64.8585-3.39573e-14 144.866-3.39573e-14Z" fill="#1E84ED" transform="matrix(0.721773 0.692532 -0.697681 0.716447 331.091 270.772)"/></g></g></g></g></svg>