<svg width="25.289" height="18.967" viewBox="0 0 25.289 18.967" xmlns="http://www.w3.org/2000/svg" xmlns:xlink="http://www.w3.org/1999/xlink" overflow="hidden"><g id="envelope" transform="matrix(1 0 0 1 0 -64)"><g id="Group_1679" transform="matrix(1 0 0 1 0 64)"><path d="M23.182 64 2.107 64C0.943793 64.0011 0.00110268 64.9438 1.12534e-07 66.107L0 80.859C0.00110257 82.0222 0.943793 82.9649 2.107 82.966L23.182 82.966C24.3452 82.9649 25.2879 82.0222 25.289 80.859L25.289 66.107C25.2879 64.9438 24.3452 64.0011 23.182 64ZM2.107 65.054 23.182 65.054C23.2564 65.0604 23.3299 65.0752 23.401 65.098 21.576 66.768 15.527 72.298 13.41 74.21 13.0072 74.6325 12.3381 74.6484 11.9156 74.2456 11.9035 74.234 11.8916 74.2221 11.88 74.21 9.763 72.3 3.712 66.767 1.888 65.1 1.95906 65.0766 2.03252 65.0611 2.107 65.054ZM1.054 80.859 1.054 66.107C1.05934 66.0076 1.07922 65.9096 1.113 65.816 2.513 67.094 6.731 70.956 9.468 73.445 6.74 75.789 2.517 79.792 1.11 81.134 1.07869 81.0454 1.05984 80.9528 1.054 80.859ZM23.182 81.913 2.107 81.913C2.02602 81.9066 1.94611 81.8905 1.869 81.865 3.323 80.478 7.569 76.452 10.253 74.159L11.173 74.992C11.9896 75.7924 13.2964 75.7924 14.113 74.992L15.034 74.159C17.714 76.452 21.963 80.478 23.418 81.865 23.3415 81.8904 23.2623 81.9065 23.182 81.913ZM24.236 80.859C24.2301 80.9528 24.2113 81.0454 24.18 81.134 22.772 79.791 18.55 75.788 15.822 73.445 18.559 70.956 22.78 67.095 24.177 65.816 24.2108 65.9096 24.2307 66.0076 24.236 66.107Z" id="Path_1043" fill="#6852ED" transform="matrix(1 0 0 1 0 -64)"/></g></g></svg>