<svg width="62.112" height="62.112" viewBox="0 0 62.112 62.112" xmlns="http://www.w3.org/2000/svg" xmlns:xlink="http://www.w3.org/1999/xlink" overflow="hidden"><g id="social-media" transform="translate(-1 -1)"><path d="M27.036 13.411 27.036 13.254C27.0409 11.5487 26.3632 9.9124 25.154 8.71 22.9204 6.47643 19.3155 6.42415 17.018 8.592 14.7205 6.42415 11.1156 6.47643 8.882 8.71 7.67303 9.91216 6.99532 11.5481 7 13.253L7 13.41C7.00073 15.3528 7.83145 17.2027 9.283 18.494L17.018 25.37 24.752 18.5C26.2044 17.2088 27.0356 15.3583 27.036 13.415ZM17.018 22.69 10.614 17C9.58779 16.0893 9.00034 14.783 9 13.411L9 13.254C8.99791 12.0798 9.46609 10.9536 10.3 10.127 11.7979 8.62956 14.2261 8.62956 15.724 10.127L17.024 11.427 18.324 10.127C19.8422 8.67938 22.2298 8.67938 23.748 10.127 24.5819 10.9536 25.0501 12.0798 25.048 13.254L25.048 13.411C25.0444 14.7851 24.452 16.0917 23.421 17Z" id="Path_1044" fill="#6852ED" transform="translate(0.011 0.011)"/><path d="M60.106 9.014 33.058 9.014 33.058 4.005C33.0558 2.34591 31.7111 1.00165 30.052 1L4.005 1C2.3463 1.0022 1.0022 2.3463 1 4.005L1 26.045C1.0022 27.7037 2.3463 29.0478 4.005 29.05L12.552 29.05 14.222 31.05 6.009 31.05C4.34718 31.05 3 32.3972 3 34.059L3 54.1C3.00496 55.7583 4.35068 57.1 6.009 57.1L16.56 57.1 20.86 62.259C21.6963 63.2631 23.1882 63.3991 24.1922 62.5628 24.7321 62.1131 25.0442 61.4467 25.044 60.744L25.044 57.1 36.064 57.1C37.7204 57.0973 39.063 55.7564 39.068 54.1L39.068 37.065 41.068 37.065 41.068 40.71C41.0676 42.0167 42.1265 43.0764 43.4332 43.0768 44.1359 43.077 44.8023 42.7649 45.252 42.225L49.552 37.066 60.106 37.066C61.7647 37.0638 63.1088 35.7197 63.111 34.061L63.111 12.02C63.1088 10.3613 61.7647 9.0172 60.106 9.015ZM4.005 27.047C3.45272 27.047 3.005 26.5993 3.005 26.047L3.005 4.005C3.005 3.45272 3.45272 3.005 4.005 3.005L30.052 3.005C30.6043 3.005 31.052 3.45272 31.052 4.005L31.052 26.045C31.052 26.5973 30.6043 27.045 30.052 27.045L19.032 27.045 19.032 32.693C19.0144 32.8994 18.8328 33.0523 18.6264 33.0347 18.5373 33.0271 18.4538 32.9878 18.391 32.924L13.491 27.044ZM27.046 31.054 21.036 31.054 21.036 29.054 27.047 29.054ZM37.065 54.1C37.065 54.6523 36.6173 55.1 36.065 55.1L23.04 55.1 23.04 60.748C23.0224 60.9544 22.8408 61.1073 22.6344 61.0897 22.5453 61.0821 22.4618 61.0428 22.399 60.979L17.5 55.1 6.009 55.1C5.45672 55.1 5.009 54.6523 5.009 54.1L5.009 34.059C5.009 33.5067 5.45672 33.059 6.009 33.059L15.892 33.059 16.853 34.211C17.6854 35.2133 19.1727 35.3509 20.1749 34.5186 20.6196 34.1492 20.9132 33.6295 21 33.058L27.048 33.058 27.048 34.058C27.0502 35.7167 28.3943 37.0608 30.053 37.063L37.066 37.063ZM61.108 34.059C61.108 34.6113 60.6603 35.059 60.108 35.059L48.618 35.059 43.718 40.939C43.5715 41.0862 43.3335 41.0868 43.1863 40.9404 43.1237 40.8781 43.085 40.7959 43.077 40.708L43.077 35.061 30.052 35.061C29.4997 35.061 29.052 34.6133 29.052 34.061L29.052 29.05 30.052 29.05C31.7107 29.0478 33.0548 27.7037 33.057 26.045L33.057 11.018 60.106 11.018C60.6583 11.018 61.106 11.4657 61.106 12.018Z" id="Path_1045" fill="#6852ED"/><path d="M25.032 43.011C25.0342 43.5846 25.1608 44.151 25.403 44.671 24.97 44.2859 24.4882 43.9595 23.97 43.7 25.4704 42.0732 25.3679 39.5382 23.7411 38.0379 22.1144 36.5375 19.5794 36.64 18.079 38.2667 16.6637 39.8013 16.6637 42.1654 18.079 43.7 17.5609 43.9588 17.0792 44.2846 16.646 44.669 16.8882 44.149 17.0148 43.5827 17.017 43.009 17.0254 40.796 15.2382 38.9952 13.0252 38.9868 10.8123 38.9784 9.01146 40.7656 9.00306 42.9786 8.99912 44.0145 9.39657 45.0118 10.112 45.761 8.19342 46.818 7.00127 48.8345 7 51.025L7 53.025 9 53.025 9 51.025C8.99509 48.8159 10.782 47.021 12.9911 47.0161 13.6193 47.0147 14.239 47.1613 14.8 47.444 14.6368 47.9093 14.5258 48.3912 14.469 48.881L14.02 52.918 16.011 53.139 16.46 49.102C16.7638 46.5797 19.0547 44.7812 21.577 45.085 23.6816 45.3385 25.3405 46.9974 25.594 49.102L26.043 53.139 28.034 52.918 27.585 48.881C27.5286 48.3911 27.4176 47.9091 27.254 47.444 29.2285 46.4532 31.6323 47.2506 32.6231 49.2251 32.9034 49.7837 33.0489 50.4001 33.048 51.025L33.048 53.025 35.048 53.025 35.048 51.025C35.0458 48.835 33.8533 46.8194 31.935 45.763 33.4536 44.1586 33.3841 41.6269 31.7797 40.1083 30.1753 38.5896 27.6436 38.6592 26.125 40.2636 25.4224 41.0058 25.0306 41.9889 25.03 43.011ZM11.007 43.011C11.007 41.9064 11.9024 41.011 13.007 41.011 14.1116 41.011 15.007 41.9064 15.007 43.011 15.007 44.1156 14.1116 45.011 13.007 45.011 11.9038 45.0077 11.0103 44.1142 11.007 43.011ZM19.021 41.011C19.021 39.9064 19.9164 39.011 21.021 39.011 22.1256 39.011 23.021 39.9064 23.021 41.011 23.021 42.1156 22.1256 43.011 21.021 43.011 19.9166 43.0071 19.0231 42.1114 19.022 41.007ZM31.043 43.011C31.043 44.1156 30.1476 45.011 29.043 45.011 27.9384 45.011 27.043 44.1156 27.043 43.011 27.043 41.9064 27.9384 41.011 29.043 41.011 30.1462 41.0143 31.0397 41.9078 31.043 43.011Z" id="Path_1046" fill="#6852ED" transform="translate(0.011 0.065)"/><path d="M53.032 19.011 51.209 19.011 51.45 17.564C51.8057 15.4285 50.3628 13.4089 48.2273 13.0533 48.015 13.0179 47.8002 13.0001 47.585 13 46.2053 12.9979 45.002 13.937 44.669 15.276 44.307 16.7285 43.5574 18.0554 42.5 19.115L42.2 19.415C41.8572 19.1569 41.4401 19.0166 41.011 19.015L37 19.015C35.8968 19.0183 35.0033 19.9118 35 21.015L35 31.032C35.0033 32.1352 35.8968 33.0287 37 33.032L41.007 33.032C41.8601 33.0336 42.6202 32.4939 42.9 31.688 44.6815 32.5743 46.6442 33.0357 48.634 33.036L53.034 33.036C55.2461 33.0338 57.0388 31.2411 57.041 29.029L57.041 23.018C57.0388 20.8059 55.2461 19.0132 53.034 19.011ZM37 31.032 37 21.014 41.007 21.014 41.007 31.032ZM55.032 29.032C55.0287 30.1352 54.1352 31.0287 53.032 31.032L48.632 31.032C46.6532 31.0317 44.712 30.492 43.017 29.471L43.017 21.429 43.917 20.529C45.2326 19.213 46.1658 17.5643 46.617 15.759 46.7275 15.314 47.1265 15.0012 47.585 15 48.6437 15.0011 49.5011 15.8602 49.5001 16.9189 49.5 17.0238 49.4912 17.1285 49.474 17.232L48.845 21.011 53.033 21.011C54.1362 21.0143 55.0297 21.9078 55.033 23.011Z" id="Path_1047" fill="#6852ED" transform="translate(0.061 0.022)"/></g></svg>