<?xml version="1.0" encoding="UTF-8"?>
<svg xmlns="http://www.w3.org/2000/svg" xmlns:xlink="http://www.w3.org/1999/xlink" width="690.74pt" height="621pt" viewBox="0 0 690.74 621" version="1.1">
<defs>
<clipPath id="clip1">
  <path d="M 437 224 L 690.738281 224 L 690.738281 621 L 437 621 Z M 437 224 "/>
</clipPath>
</defs>
<g id="surface1">
<path style="fill:none;stroke-width:120;stroke-linecap:round;stroke-linejoin:round;stroke:rgb(0%,0%,0%);stroke-opacity:1;stroke-miterlimit:10;" d="M 6370.976563 5226.054688 L 6370.976563 3768.90625 L 5967.382813 4206.171875 L 4654.765625 4206.171875 L 4654.765625 5226.054688 Z M 6370.976563 5226.054688 " transform="matrix(0.1,0,0,-0.1,0,621)"/>
<path style="fill:none;stroke-width:120;stroke-linecap:round;stroke-linejoin:round;stroke:rgb(0%,0%,0%);stroke-opacity:1;stroke-miterlimit:10;" d="M 556.875 5367.460938 L 556.875 3802.382813 L 996.679688 4272.070313 L 2400.195313 4272.070313 L 2400.195313 5367.460938 Z M 556.875 5367.460938 " transform="matrix(0.1,0,0,-0.1,0,621)"/>
<path style="fill:none;stroke-width:120;stroke-linecap:round;stroke-linejoin:round;stroke:rgb(0%,0%,0%);stroke-opacity:1;stroke-miterlimit:10;" d="M 2605.820313 6150.039063 L 2605.820313 4584.921875 L 3073.945313 5054.609375 L 4449.140625 5054.609375 L 4449.140625 6150.039063 Z M 2605.820313 6150.039063 " transform="matrix(0.1,0,0,-0.1,0,621)"/>
<path style=" stroke:none;fill-rule:nonzero;fill:rgb(0%,0%,0%);fill-opacity:1;" d="M 354.285156 37.898438 C 346.515625 30.132813 333.921875 30.136719 326.160156 37.902344 C 318.394531 45.671875 318.398438 58.265625 326.164063 66.027344 L 349.597656 89.460938 C 352.1875 92.046875 356.382813 92.046875 358.96875 89.460938 L 382.402344 66.027344 C 390.171875 58.265625 390.171875 45.671875 382.40625 37.902344 C 374.644531 30.136719 362.050781 30.132813 354.285156 37.898438 "/>
<path style="fill:none;stroke-width:120;stroke-linecap:round;stroke-linejoin:round;stroke:rgb(0%,0%,0%);stroke-opacity:1;stroke-miterlimit:10;" d="M 901.5625 5035.78125 L 2134.765625 5035.78125 " transform="matrix(0.1,0,0,-0.1,0,621)"/>
<path style="fill:none;stroke-width:120;stroke-linecap:round;stroke-linejoin:round;stroke:rgb(0%,0%,0%);stroke-opacity:1;stroke-miterlimit:10;" d="M 901.5625 4821.328125 L 2134.765625 4821.328125 " transform="matrix(0.1,0,0,-0.1,0,621)"/>
<path style="fill:none;stroke-width:120;stroke-linecap:round;stroke-linejoin:round;stroke:rgb(0%,0%,0%);stroke-opacity:1;stroke-miterlimit:10;" d="M 901.5625 4606.875 L 2134.765625 4606.875 " transform="matrix(0.1,0,0,-0.1,0,621)"/>
<path style="fill:none;stroke-width:120;stroke-linecap:round;stroke-linejoin:round;stroke:rgb(0%,0%,0%);stroke-opacity:1;stroke-miterlimit:10;" d="M 4896.25 4938.515625 L 6129.453125 4938.515625 " transform="matrix(0.1,0,0,-0.1,0,621)"/>
<path style="fill:none;stroke-width:120;stroke-linecap:round;stroke-linejoin:round;stroke:rgb(0%,0%,0%);stroke-opacity:1;stroke-miterlimit:10;" d="M 4896.25 4724.023438 L 6129.453125 4724.023438 " transform="matrix(0.1,0,0,-0.1,0,621)"/>
<path style="fill:none;stroke-width:120;stroke-linecap:round;stroke-linejoin:round;stroke:rgb(0%,0%,0%);stroke-opacity:1;stroke-miterlimit:10;" d="M 4896.25 4509.53125 L 6129.453125 4509.53125 " transform="matrix(0.1,0,0,-0.1,0,621)"/>
<path style=" stroke:none;fill-rule:nonzero;fill:rgb(0%,0%,0%);fill-opacity:1;" d="M 420.292969 431.429688 L 457.695313 489.910156 C 463.382813 498.972656 460.644531 510.921875 451.589844 516.605469 C 448.382813 518.617188 444.828125 519.570313 441.3125 519.570313 C 434.863281 519.570313 428.570313 516.359375 424.890625 510.496094 L 389.195313 454.691406 C 387.179688 452.601563 385.550781 450.070313 384.621094 447.101563 L 379.796875 431.703125 L 406.097656 386.203125 Z M 360.554688 437.199219 L 360.535156 500.324219 C 360.445313 510.96875 351.78125 519.519531 341.171875 519.519531 L 341.007813 519.519531 C 330.3125 519.421875 321.71875 510.679688 321.816406 499.988281 L 321.828125 435.671875 C 321.828125 435.136719 321.949219 434.636719 322 434.117188 C 321.554688 430.148438 322.28125 426.023438 324.429688 422.308594 L 354.15625 370.878906 C 356.851563 366.222656 357.464844 360.652344 355.855469 355.519531 L 330.964844 266.316406 C 329.789063 261.878906 329.683594 257.425781 330.425781 253.183594 C 331.175781 248.910156 332.816406 244.871094 335.199219 241.3125 C 335.210938 241.296875 335.222656 241.277344 335.234375 241.257813 C 336.804688 238.925781 338.707031 236.808594 340.875 234.96875 C 340.945313 234.914063 341.011719 234.851563 341.082031 234.796875 C 342.125 233.929688 343.222656 233.140625 344.382813 232.410156 C 347.636719 230.773438 350.304688 229.671875 351.726563 229.128906 C 352.09375 229.015625 352.4375 228.847656 352.816406 228.75 C 355.433594 228.0625 358.066406 227.726563 360.65625 227.726563 C 369.683594 227.726563 424.398438 255.902344 424.398438 255.902344 C 425.824219 256.523438 427.0625 257.355469 428.207031 258.289063 C 430.519531 259.578125 432.59375 261.363281 434.132813 263.738281 L 463.148438 308.113281 C 468.226563 315.90625 466 326.335938 458.207031 331.40625 C 455.375 333.246094 452.191406 334.128906 449.042969 334.128906 C 443.539063 334.128906 438.136719 331.425781 434.910156 326.460938 L 413.691406 294.035156 C 411.027344 290.628906 408.433594 287.339844 406.101563 284.398438 C 403.960938 281.695313 399.652344 283.875 400.554688 287.203125 L 412.253906 330.238281 C 413.101563 333.402344 413.390625 336.582031 413.238281 339.6875 C 413.445313 343.332031 412.644531 347.078125 410.671875 350.472656 L 410.585938 350.617188 C 410.464844 350.902344 410.296875 351.15625 410.167969 351.4375 L 407.867188 355.414063 C 407.703125 355.671875 407.554688 355.9375 407.378906 356.183594 L 400.421875 368.21875 L 400.441406 368.28125 L 374.140625 413.777344 L 374.128906 413.71875 Z M 325.496094 301.839844 C 324.320313 302.84375 323.015625 303.597656 321.675781 304.226563 C 319.511719 305.726563 316.992188 306.8125 314.195313 307.15625 L 261.574219 313.800781 C 260.882813 313.882813 260.183594 313.925781 259.503906 313.925781 C 251.117188 313.925781 243.859375 307.671875 242.8125 299.140625 C 241.671875 289.917969 248.230469 281.503906 257.46875 280.371094 L 305.929688 274.257813 L 317.050781 264.699219 C 316.976563 267.101563 317.246094 269.613281 317.941406 272.25 L 317.941406 272.476563 L 325.988281 301.417969 Z M 305.878906 188.492188 C 305.878906 168.167969 323.019531 151.871094 343.640625 153.265625 C 361.050781 154.441406 375.171875 168.527344 376.394531 185.933594 C 377.847656 206.589844 361.53125 223.792969 341.183594 223.792969 C 321.675781 223.800781 305.878906 207.988281 305.878906 188.492188 M 423.054688 356.976563 C 426.074219 351.628906 427.527344 345.417969 427.207031 339.089844 C 427.238281 339.074219 427.214844 339.085938 427.25 339.070313 C 432.964844 344.796875 440.746094 348.09375 449.058594 348.09375 C 455.015625 348.09375 460.820313 346.375 465.84375 343.109375 C 472.730469 338.621094 477.476563 331.726563 479.1875 323.675781 C 480.890625 315.621094 479.363281 307.382813 474.867188 300.476563 L 445.835938 256.078125 C 443.375 252.296875 440.089844 249.128906 436.066406 246.691406 C 434.074219 245.179688 432.074219 243.996094 429.976563 243.089844 C 429.976563 243.089844 384.703125 220.476563 380.371094 218.34375 C 387.433594 209.082031 391.308594 197.246094 390.300781 184.511719 C 388.390625 160.476563 368.957031 141.136719 344.910156 139.359375 C 316.0625 137.226563 291.90625 160.097656 291.90625 188.503906 C 291.90625 209.289063 304.835938 227.105469 323.078125 234.339844 C 320.863281 237.785156 319.109375 241.554688 317.902344 245.546875 L 300.007813 260.929688 L 255.710938 266.519531 C 247.585938 267.515625 240.292969 271.644531 235.230469 278.132813 C 230.164063 284.621094 227.929688 292.699219 228.9375 300.871094 C 230.828125 316.28125 243.96875 327.914063 259.496094 327.914063 C 260.757813 327.914063 262.023438 327.828125 263.28125 327.675781 L 315.941406 321.035156 C 320.441406 320.480469 324.714844 318.914063 328.648438 316.386719 C 329.101563 316.15625 329.527344 315.917969 329.953125 315.6875 L 338.25 345.535156 L 340.6875 353.84375 C 342.296875 358.972656 341.683594 364.546875 338.988281 369.203125 L 312.332031 415.320313 C 309.085938 420.933594 307.578125 427.28125 307.957031 433.796875 C 307.902344 434.335938 307.859375 434.972656 307.859375 435.679688 L 307.839844 499.976563 C 307.679688 518.238281 322.496094 533.324219 340.886719 533.488281 L 341.175781 533.488281 C 359.421875 533.488281 374.375 518.652344 374.507813 500.421875 L 374.527344 458.433594 C 375.550781 460.109375 376.738281 461.714844 378.082031 463.230469 L 413.121094 518.015625 C 419.195313 527.695313 429.75 533.535156 441.316406 533.535156 C 447.578125 533.535156 453.699219 531.769531 459.015625 528.433594 C 474.585938 518.652344 479.300781 498.046875 469.535156 482.476563 L 433.066406 425.460938 L 415.617188 369.863281 L 419.167969 363.730469 C 420.648438 361.605469 421.957031 359.347656 423.054688 356.976563 "/>
<path style="fill:none;stroke-width:20;stroke-linecap:round;stroke-linejoin:round;stroke:rgb(100%,100%,100%);stroke-opacity:1;stroke-miterlimit:10;" d="M 4202.929688 1895.703125 L 4576.953125 1310.898438 C 4633.828125 1220.273438 4606.445313 1100.78125 4515.898438 1043.945313 C 4483.828125 1023.828125 4448.28125 1014.296875 4413.125 1014.296875 C 4348.632813 1014.296875 4285.703125 1046.40625 4248.90625 1105.039063 L 3891.953125 1663.085938 C 3871.796875 1683.984375 3855.507813 1709.296875 3846.210938 1738.984375 L 3797.96875 1892.96875 L 4060.976563 2347.96875 Z M 3605.546875 1838.007813 L 3605.351563 1206.757813 C 3604.453125 1100.3125 3517.8125 1014.804688 3411.71875 1014.804688 L 3410.078125 1014.804688 C 3303.125 1015.78125 3217.1875 1103.203125 3218.164063 1210.117188 L 3218.28125 1853.28125 C 3218.28125 1858.632813 3219.492188 1863.632813 3220 1868.828125 C 3215.546875 1908.515625 3222.8125 1949.765625 3244.296875 1986.914063 L 3541.5625 2501.210938 C 3568.515625 2547.773438 3574.648438 2603.476563 3558.554688 2654.804688 L 3309.648438 3546.835938 C 3297.890625 3591.210938 3296.835938 3635.742188 3304.257813 3678.164063 C 3311.757813 3720.898438 3328.164063 3761.289063 3351.992188 3796.875 C 3352.109375 3797.03125 3352.226563 3797.226563 3352.34375 3797.421875 C 3368.046875 3820.742188 3387.070313 3841.914063 3408.75 3860.3125 C 3409.453125 3860.859375 3410.117188 3861.484375 3410.820313 3862.03125 C 3421.25 3870.703125 3432.226563 3878.59375 3443.828125 3885.898438 C 3476.367188 3902.265625 3503.046875 3913.28125 3517.265625 3918.710938 C 3520.9375 3919.84375 3524.375 3921.523438 3528.164063 3922.5 C 3554.335938 3929.375 3580.664063 3932.734375 3606.5625 3932.734375 C 3696.835938 3932.734375 4243.984375 3650.976563 4243.984375 3650.976563 C 4258.242188 3644.765625 4270.625 3636.445313 4282.070313 3627.109375 C 4305.195313 3614.21875 4325.9375 3596.367188 4341.328125 3572.617188 L 4631.484375 3128.867188 C 4682.265625 3050.9375 4660 2946.640625 4582.070313 2895.9375 C 4553.75 2877.539063 4521.914063 2868.710938 4490.429688 2868.710938 C 4435.390625 2868.710938 4381.367188 2895.742188 4349.101563 2945.390625 L 4136.914063 3269.648438 C 4110.273438 3303.710938 4084.335938 3336.601563 4061.015625 3366.015625 C 4039.609375 3393.046875 3996.523438 3371.25 4005.546875 3337.96875 L 4122.539063 2907.617188 C 4131.015625 2875.976563 4133.90625 2844.179688 4132.382813 2813.125 C 4134.453125 2776.679688 4126.445313 2739.21875 4106.71875 2705.273438 L 4105.859375 2703.828125 C 4104.648438 2700.976563 4102.96875 2698.4375 4101.679688 2695.625 L 4078.671875 2655.859375 C 4077.03125 2653.28125 4075.546875 2650.625 4073.789063 2648.164063 L 4004.21875 2527.8125 L 4004.414063 2527.1875 L 3741.40625 2072.226563 L 3741.289063 2072.8125 Z M 3254.960938 3191.601563 C 3243.203125 3181.5625 3230.15625 3174.023438 3216.757813 3167.734375 C 3195.117188 3152.734375 3169.921875 3141.875 3141.953125 3138.4375 L 2615.742188 3071.992188 C 2608.828125 3071.171875 2601.835938 3070.742188 2595.039063 3070.742188 C 2511.171875 3070.742188 2438.59375 3133.28125 2428.125 3218.59375 C 2416.71875 3310.820313 2482.304688 3394.960938 2574.6875 3406.289063 L 3059.296875 3467.421875 L 3170.507813 3563.007813 C 3169.765625 3538.984375 3172.460938 3513.867188 3179.414063 3487.5 L 3179.414063 3485.234375 L 3259.882813 3195.820313 Z M 3058.789063 4325.078125 C 3058.789063 4528.320313 3230.195313 4691.289063 3436.40625 4677.34375 C 3610.507813 4665.585938 3751.71875 4524.726563 3763.945313 4350.664063 C 3778.476563 4144.101563 3615.3125 3972.070313 3411.835938 3972.070313 C 3216.757813 3971.992188 3058.789063 4130.117188 3058.789063 4325.078125 Z M 4230.546875 2640.234375 C 4260.742188 2693.710938 4275.273438 2755.820313 4272.070313 2819.101563 C 4272.382813 2819.257813 4272.148438 2819.140625 4272.5 2819.296875 C 4329.648438 2762.03125 4407.460938 2729.0625 4490.585938 2729.0625 C 4550.15625 2729.0625 4608.203125 2746.25 4658.4375 2778.90625 C 4727.304688 2823.789063 4774.765625 2892.734375 4791.875 2973.242188 C 4808.90625 3053.789063 4793.632813 3136.171875 4748.671875 3205.234375 L 4458.359375 3649.21875 C 4433.75 3687.03125 4400.898438 3718.710938 4360.664063 3743.085938 C 4340.742188 3758.203125 4320.742188 3770.039063 4299.765625 3779.101563 C 4299.765625 3779.101563 3847.03125 4005.234375 3803.710938 4026.5625 C 3874.335938 4119.179688 3913.085938 4237.539063 3903.007813 4364.882813 C 3883.90625 4605.234375 3689.570313 4798.632813 3449.101563 4816.40625 C 3160.625 4837.734375 2919.0625 4609.023438 2919.0625 4324.960938 C 2919.0625 4117.109375 3048.359375 3938.945313 3230.78125 3866.601563 C 3208.632813 3832.148438 3191.09375 3794.453125 3179.023438 3754.53125 L 3000.078125 3600.703125 L 2557.109375 3544.804688 C 2475.859375 3534.84375 2402.929688 3493.554688 2352.304688 3428.671875 C 2301.640625 3363.789063 2279.296875 3283.007813 2289.375 3201.289063 C 2308.28125 3047.1875 2439.6875 2930.859375 2594.960938 2930.859375 C 2607.578125 2930.859375 2620.234375 2931.71875 2632.8125 2933.242188 L 3159.414063 2999.648438 C 3204.414063 3005.195313 3247.148438 3020.859375 3286.484375 3046.132813 C 3291.015625 3048.4375 3295.273438 3050.820313 3299.53125 3053.125 L 3382.5 2754.648438 L 3406.875 2671.5625 C 3422.96875 2620.273438 3416.835938 2564.53125 3389.882813 2517.96875 L 3123.320313 2056.796875 C 3090.859375 2000.664063 3075.78125 1937.1875 3079.570313 1872.03125 C 3079.023438 1866.640625 3078.59375 1860.273438 3078.59375 1853.203125 L 3078.398438 1210.234375 C 3076.796875 1027.617188 3224.960938 876.757813 3408.867188 875.117188 L 3411.757813 875.117188 C 3594.21875 875.117188 3743.75 1023.476563 3745.078125 1205.78125 L 3745.273438 1625.664063 C 3755.507813 1608.90625 3767.382813 1592.851563 3780.820313 1577.695313 L 4131.210938 1029.84375 C 4191.953125 933.046875 4297.5 874.648438 4413.164063 874.648438 C 4475.78125 874.648438 4536.992188 892.304688 4590.15625 925.664063 C 4745.859375 1023.476563 4793.007813 1229.53125 4695.351563 1385.234375 L 4330.664063 1955.390625 L 4156.171875 2511.367188 L 4191.679688 2572.695313 C 4206.484375 2593.945313 4219.570313 2616.523438 4230.546875 2640.234375 Z M 4230.546875 2640.234375 " transform="matrix(0.1,0,0,-0.1,0,621)"/>
<path style=" stroke:none;fill-rule:nonzero;fill:rgb(0%,0%,0%);fill-opacity:1;" d="M 630.167969 517.894531 L 667.566406 576.375 C 673.253906 585.4375 670.515625 597.382813 661.460938 603.066406 C 658.257813 605.082031 654.703125 606.035156 651.183594 606.035156 C 644.738281 606.035156 638.445313 602.824219 634.765625 596.960938 L 599.070313 541.15625 C 597.050781 539.066406 595.421875 536.535156 594.496094 533.566406 L 589.667969 518.167969 L 615.96875 472.664063 Z M 570.425781 523.664063 L 570.40625 586.789063 C 570.320313 597.429688 561.652344 605.984375 551.042969 605.984375 L 550.878906 605.984375 C 540.183594 605.886719 531.589844 597.144531 531.6875 586.453125 L 531.703125 522.136719 C 531.703125 521.601563 531.824219 521.101563 531.875 520.578125 C 531.425781 516.613281 532.152344 512.488281 534.300781 508.773438 L 564.03125 457.34375 C 566.722656 452.6875 567.339844 447.117188 565.726563 441.984375 L 540.835938 352.777344 C 539.664063 348.34375 539.554688 343.890625 540.296875 339.648438 C 541.046875 335.375 542.691406 331.335938 545.070313 327.777344 C 545.085938 327.757813 545.09375 327.742188 545.109375 327.722656 C 546.679688 325.390625 548.578125 323.273438 550.75 321.433594 C 550.820313 321.378906 550.886719 321.316406 550.953125 321.261719 C 551.996094 320.394531 553.097656 319.605469 554.257813 318.878906 C 557.507813 317.238281 560.179688 316.136719 561.597656 315.59375 C 561.96875 315.480469 562.3125 315.3125 562.6875 315.214844 C 565.304688 314.523438 567.9375 314.191406 570.527344 314.191406 C 579.554688 314.191406 634.269531 342.367188 634.269531 342.367188 C 635.695313 342.988281 636.933594 343.820313 638.082031 344.753906 C 640.390625 346.042969 642.464844 347.828125 644.007813 350.203125 L 673.023438 394.578125 C 678.101563 402.371094 675.871094 412.800781 668.078125 417.871094 C 665.246094 419.710938 662.066406 420.59375 658.917969 420.59375 C 653.410156 420.59375 648.007813 417.890625 644.785156 412.925781 L 623.566406 380.5 C 620.898438 377.089844 618.304688 373.800781 615.976563 370.863281 C 613.832031 368.160156 609.523438 370.339844 610.429688 373.667969 L 622.128906 416.703125 C 622.976563 419.867188 623.265625 423.046875 623.109375 426.148438 C 623.320313 429.796875 622.519531 433.539063 620.542969 436.9375 L 620.460938 437.082031 C 620.339844 437.367188 620.171875 437.621094 620.039063 437.902344 L 617.738281 441.878906 C 617.574219 442.136719 617.425781 442.402344 617.25 442.648438 L 610.296875 454.683594 L 610.3125 454.746094 L 584.015625 500.242188 L 584 500.183594 Z M 535.367188 388.300781 C 534.195313 389.308594 532.890625 390.0625 531.550781 390.691406 C 529.382813 392.191406 526.867188 393.277344 524.066406 393.621094 L 471.449219 400.265625 C 470.753906 400.347656 470.054688 400.390625 469.375 400.390625 C 460.992188 400.390625 453.734375 394.132813 452.6875 385.605469 C 451.542969 376.382813 458.101563 367.96875 467.339844 366.835938 L 515.804688 360.71875 L 526.921875 351.160156 C 526.847656 353.566406 527.117188 356.078125 527.8125 358.714844 L 527.8125 358.941406 L 535.863281 387.882813 Z M 515.753906 274.953125 C 515.753906 254.632813 532.890625 238.335938 553.515625 239.730469 C 570.925781 240.90625 585.042969 254.992188 586.265625 272.398438 C 587.71875 293.054688 571.40625 310.257813 551.058594 310.257813 C 531.550781 310.265625 515.753906 294.453125 515.753906 274.953125 M 632.929688 443.441406 C 635.949219 438.09375 637.398438 431.882813 637.078125 425.554688 C 637.113281 425.539063 637.089844 425.550781 637.121094 425.535156 C 642.835938 431.257813 650.621094 434.558594 658.929688 434.558594 C 664.890625 434.558594 670.691406 432.839844 675.714844 429.574219 C 682.605469 425.085938 687.351563 418.1875 689.058594 410.140625 C 690.765625 402.085938 689.238281 393.84375 684.742188 386.941406 L 655.707031 342.546875 C 653.246094 338.761719 649.964844 335.59375 645.9375 333.152344 C 643.945313 331.644531 641.949219 330.460938 639.851563 329.550781 C 639.851563 329.550781 594.578125 306.941406 590.246094 304.808594 C 597.304688 295.546875 601.183594 283.710938 600.171875 270.976563 C 598.265625 246.941406 578.828125 227.601563 554.78125 225.824219 C 525.9375 223.691406 501.777344 246.5625 501.777344 274.96875 C 501.777344 295.753906 514.710938 313.570313 532.949219 320.804688 C 530.738281 324.253906 528.980469 328.019531 527.773438 332.011719 L 509.878906 347.394531 L 465.585938 352.984375 C 457.460938 353.980469 450.164063 358.105469 445.101563 364.597656 C 440.039063 371.085938 437.804688 379.164063 438.808594 387.335938 C 440.699219 402.746094 453.839844 414.378906 469.371094 414.378906 C 470.628906 414.378906 471.894531 414.296875 473.152344 414.140625 L 525.8125 407.496094 C 530.3125 406.945313 534.585938 405.378906 538.523438 402.851563 C 538.972656 402.621094 539.402344 402.382813 539.824219 402.152344 L 548.121094 432 L 550.558594 440.308594 C 552.171875 445.4375 551.554688 451.011719 548.863281 455.667969 L 522.203125 501.785156 C 518.957031 507.398438 517.453125 513.746094 517.828125 520.257813 C 517.773438 520.800781 517.730469 521.4375 517.730469 522.144531 L 517.714844 586.441406 C 517.550781 604.703125 532.367188 619.789063 550.757813 619.953125 L 551.046875 619.953125 C 569.292969 619.953125 584.246094 605.117188 584.382813 586.882813 L 584.398438 544.898438 C 585.425781 546.574219 586.613281 548.179688 587.953125 549.695313 L 622.992188 604.480469 C 629.066406 614.160156 639.621094 620 651.1875 620 C 657.449219 620 663.570313 618.234375 668.890625 614.898438 C 684.457031 605.117188 689.171875 584.507813 679.410156 568.941406 L 642.941406 511.925781 L 625.488281 456.328125 L 629.039063 450.195313 C 630.519531 448.070313 631.828125 445.8125 632.929688 443.441406 "/>
<g clip-path="url(#clip1)" clip-rule="nonzero">
<path style="fill:none;stroke-width:20;stroke-linecap:round;stroke-linejoin:round;stroke:rgb(100%,100%,100%);stroke-opacity:1;stroke-miterlimit:10;" d="M 6301.679688 1031.054688 L 6675.664063 446.25 C 6732.539063 355.625 6705.15625 236.171875 6614.609375 179.335938 C 6582.578125 159.179688 6547.03125 149.648438 6511.835938 149.648438 C 6447.382813 149.648438 6384.453125 181.757813 6347.65625 240.390625 L 5990.703125 798.4375 C 5970.507813 819.335938 5954.21875 844.648438 5944.960938 874.335938 L 5896.679688 1028.320313 L 6159.6875 1483.359375 Z M 5704.257813 973.359375 L 5704.0625 342.109375 C 5703.203125 235.703125 5616.523438 150.15625 5510.429688 150.15625 L 5508.789063 150.15625 C 5401.835938 151.132813 5315.898438 238.554688 5316.875 345.46875 L 5317.03125 988.632813 C 5317.03125 993.984375 5318.242188 998.984375 5318.75 1004.21875 C 5314.257813 1043.867188 5321.523438 1085.117188 5343.007813 1122.265625 L 5640.3125 1636.5625 C 5667.226563 1683.125 5673.398438 1738.828125 5657.265625 1790.15625 L 5408.359375 2682.226563 C 5396.640625 2726.5625 5395.546875 2771.09375 5402.96875 2813.515625 C 5410.46875 2856.25 5426.914063 2896.640625 5450.703125 2932.226563 C 5450.859375 2932.421875 5450.9375 2932.578125 5451.09375 2932.773438 C 5466.796875 2956.09375 5485.78125 2977.265625 5507.5 2995.664063 C 5508.203125 2996.210938 5508.867188 2996.835938 5509.53125 2997.382813 C 5519.960938 3006.054688 5530.976563 3013.945313 5542.578125 3021.210938 C 5575.078125 3037.617188 5601.796875 3048.632813 5615.976563 3054.0625 C 5619.6875 3055.195313 5623.125 3056.875 5626.875 3057.851563 C 5653.046875 3064.765625 5679.375 3068.085938 5705.273438 3068.085938 C 5795.546875 3068.085938 6342.695313 2786.328125 6342.695313 2786.328125 C 6356.953125 2780.117188 6369.335938 2771.796875 6380.820313 2762.460938 C 6403.90625 2749.570313 6424.648438 2731.71875 6440.078125 2707.96875 L 6730.234375 2264.21875 C 6781.015625 2186.289063 6758.710938 2081.992188 6680.78125 2031.289063 C 6652.460938 2012.890625 6620.664063 2004.0625 6589.179688 2004.0625 C 6534.101563 2004.0625 6480.078125 2031.09375 6447.851563 2080.742188 L 6235.664063 2405 C 6208.984375 2439.101563 6183.046875 2471.992188 6159.765625 2501.367188 C 6138.320313 2528.398438 6095.234375 2506.601563 6104.296875 2473.320313 L 6221.289063 2042.96875 C 6229.765625 2011.328125 6232.65625 1979.53125 6231.09375 1948.515625 C 6233.203125 1912.03125 6225.195313 1874.609375 6205.429688 1840.625 L 6204.609375 1839.179688 C 6203.398438 1836.328125 6201.71875 1833.789063 6200.390625 1830.976563 L 6177.382813 1791.210938 C 6175.742188 1788.632813 6174.257813 1785.976563 6172.5 1783.515625 L 6102.96875 1663.164063 L 6103.125 1662.539063 L 5840.15625 1207.578125 L 5840 1208.164063 Z M 5353.671875 2326.992188 C 5341.953125 2316.914063 5328.90625 2309.375 5315.507813 2303.085938 C 5293.828125 2288.085938 5268.671875 2277.226563 5240.664063 2273.789063 L 4714.492188 2207.34375 C 4707.539063 2206.523438 4700.546875 2206.09375 4693.75 2206.09375 C 4609.921875 2206.09375 4537.34375 2268.671875 4526.875 2353.945313 C 4515.429688 2446.171875 4581.015625 2530.3125 4673.398438 2541.640625 L 5158.046875 2602.8125 L 5269.21875 2698.398438 C 5268.476563 2674.335938 5271.171875 2649.21875 5278.125 2622.851563 L 5278.125 2620.585938 L 5358.632813 2331.171875 Z M 5157.539063 3460.46875 C 5157.539063 3663.671875 5328.90625 3826.640625 5535.15625 3812.695313 C 5709.257813 3800.9375 5850.429688 3660.078125 5862.65625 3486.015625 C 5877.1875 3279.453125 5714.0625 3107.421875 5510.585938 3107.421875 C 5315.507813 3107.34375 5157.539063 3265.46875 5157.539063 3460.46875 Z M 6329.296875 1775.585938 C 6359.492188 1829.0625 6373.984375 1891.171875 6370.78125 1954.453125 C 6371.132813 1954.609375 6370.898438 1954.492188 6371.210938 1954.648438 C 6428.359375 1897.421875 6506.210938 1864.414063 6589.296875 1864.414063 C 6648.90625 1864.414063 6706.914063 1881.601563 6757.148438 1914.257813 C 6826.054688 1959.140625 6873.515625 2028.125 6890.585938 2108.59375 C 6907.65625 2189.140625 6892.382813 2271.5625 6847.421875 2340.585938 L 6557.070313 2784.53125 C 6532.460938 2822.382813 6499.648438 2854.0625 6459.375 2878.476563 C 6439.453125 2893.554688 6419.492188 2905.390625 6398.515625 2914.492188 C 6398.515625 2914.492188 5945.78125 3140.585938 5902.460938 3161.914063 C 5973.046875 3254.53125 6011.835938 3372.890625 6001.71875 3500.234375 C 5982.65625 3740.585938 5788.28125 3933.984375 5547.8125 3951.757813 C 5259.375 3973.085938 5017.773438 3744.375 5017.773438 3460.3125 C 5017.773438 3252.460938 5147.109375 3074.296875 5329.492188 3001.953125 C 5307.382813 2967.460938 5289.804688 2929.804688 5277.734375 2889.882813 L 5098.789063 2736.054688 L 4655.859375 2680.15625 C 4574.609375 2670.195313 4501.640625 2628.945313 4451.015625 2564.023438 C 4400.390625 2499.140625 4378.046875 2418.359375 4388.085938 2336.640625 C 4406.992188 2182.539063 4538.398438 2066.210938 4693.710938 2066.210938 C 4706.289063 2066.210938 4718.945313 2067.03125 4731.523438 2068.59375 L 5258.125 2135.039063 C 5303.125 2140.546875 5345.859375 2156.210938 5385.234375 2181.484375 C 5389.726563 2183.789063 5394.023438 2186.171875 5398.242188 2188.476563 L 5481.210938 1890 L 5505.585938 1806.914063 C 5521.71875 1755.625 5515.546875 1699.882813 5488.632813 1653.320313 L 5222.03125 1192.148438 C 5189.570313 1136.015625 5174.53125 1072.539063 5178.28125 1007.421875 C 5177.734375 1001.992188 5177.304688 995.625 5177.304688 988.554688 L 5177.148438 345.585938 C 5175.507813 162.96875 5323.671875 12.109375 5507.578125 10.46875 L 5510.46875 10.46875 C 5692.929688 10.46875 5842.460938 158.828125 5843.828125 341.171875 L 5843.984375 761.015625 C 5854.257813 744.257813 5866.132813 728.203125 5879.53125 713.046875 L 6229.921875 165.195313 C 6290.664063 68.398438 6396.210938 10 6511.875 10 C 6574.492188 10 6635.703125 27.65625 6688.90625 61.015625 C 6844.570313 158.828125 6891.71875 364.921875 6794.101563 520.585938 L 6429.414063 1090.742188 L 6254.882813 1646.71875 L 6290.390625 1708.046875 C 6305.195313 1729.296875 6318.28125 1751.875 6329.296875 1775.585938 Z M 6329.296875 1775.585938 " transform="matrix(0.1,0,0,-0.1,0,621)"/>
</g>
<path style=" stroke:none;fill-rule:nonzero;fill:rgb(0%,0%,0%);fill-opacity:1;" d="M 75.15625 471.894531 L 101.59375 517.632813 L 96.742188 533.113281 C 95.8125 536.097656 94.171875 538.640625 92.144531 540.742188 L 56.261719 596.839844 C 52.5625 602.734375 46.238281 605.960938 39.757813 605.960938 C 36.222656 605.960938 32.648438 605 29.425781 602.976563 C 20.324219 597.265625 17.570313 585.253906 23.289063 576.148438 L 60.886719 517.355469 Z M 107.292969 499.554688 L 107.28125 499.617188 L 80.84375 453.878906 L 80.859375 453.8125 L 73.867188 441.71875 C 73.691406 441.472656 73.542969 441.203125 73.378906 440.949219 L 71.0625 436.949219 C 70.933594 436.664063 70.765625 436.410156 70.644531 436.121094 L 70.558594 435.980469 C 68.574219 432.566406 67.769531 428.800781 67.980469 425.132813 C 67.824219 422.015625 68.113281 418.816406 68.96875 415.636719 L 80.726563 372.378906 C 81.636719 369.03125 77.304688 366.839844 75.152344 369.558594 C 72.808594 372.511719 70.199219 375.816406 67.519531 379.246094 L 46.191406 411.839844 C 42.949219 416.832031 37.519531 419.546875 31.984375 419.546875 C 28.816406 419.546875 25.621094 418.660156 22.773438 416.8125 C 14.9375 411.714844 12.703125 401.230469 17.804688 393.394531 L 46.972656 348.789063 C 48.523438 346.398438 50.605469 344.605469 52.929688 343.3125 C 54.082031 342.371094 55.328125 341.535156 56.757813 340.914063 C 56.757813 340.914063 111.761719 312.585938 120.835938 312.585938 C 123.4375 312.585938 126.085938 312.925781 128.71875 313.617188 C 129.097656 313.714844 129.441406 313.882813 129.8125 313.996094 C 131.238281 314.546875 133.925781 315.648438 137.191406 317.296875 C 138.359375 318.03125 139.464844 318.824219 140.511719 319.695313 C 140.582031 319.753906 140.648438 319.8125 140.71875 319.871094 C 142.898438 321.71875 144.8125 323.84375 146.390625 326.191406 C 146.402344 326.210938 146.410156 326.230469 146.425781 326.246094 C 148.820313 329.824219 150.472656 333.882813 151.226563 338.175781 C 151.96875 342.445313 151.863281 346.921875 150.683594 351.378906 L 125.664063 441.050781 C 124.042969 446.210938 124.660156 451.8125 127.367188 456.492188 L 157.253906 508.1875 C 159.410156 511.925781 160.140625 516.070313 159.691406 520.058594 C 159.742188 520.585938 159.863281 521.085938 159.863281 521.625 L 159.878906 586.277344 C 159.976563 597.023438 151.339844 605.8125 140.585938 605.910156 L 140.421875 605.910156 C 129.757813 605.910156 121.046875 597.3125 120.957031 586.613281 L 120.9375 523.160156 Z M 155.683594 386.664063 L 163.773438 357.574219 L 163.773438 357.34375 C 164.472656 354.691406 164.746094 352.171875 164.671875 349.753906 L 175.847656 359.363281 L 224.566406 365.511719 C 233.851563 366.648438 240.441406 375.105469 239.296875 384.378906 C 238.242188 392.949219 230.945313 399.238281 222.519531 399.238281 C 221.835938 399.238281 221.132813 399.199219 220.433594 399.113281 L 167.539063 392.4375 C 164.726563 392.089844 162.195313 390.996094 160.019531 389.492188 C 158.671875 388.855469 157.359375 388.101563 156.179688 387.085938 Z M 140.410156 308.636719 C 119.953125 308.636719 103.554688 291.339844 105.015625 270.578125 C 106.246094 253.078125 120.4375 238.917969 137.9375 237.734375 C 158.667969 236.335938 175.898438 252.71875 175.898438 273.144531 C 175.898438 292.746094 160.019531 308.640625 140.410156 308.636719 M 62.019531 449.304688 L 65.585938 455.472656 L 48.042969 511.359375 L 11.386719 568.671875 C 1.570313 584.324219 6.308594 605.039063 21.957031 614.875 C 27.304688 618.226563 33.460938 620 39.753906 620 C 51.378906 620 61.988281 614.128906 68.097656 604.398438 L 103.316406 549.328125 C 104.667969 547.804688 105.859375 546.1875 106.890625 544.503906 L 106.910156 586.710938 C 107.046875 605.039063 122.078125 619.953125 140.417969 619.953125 L 140.710938 619.953125 C 159.195313 619.789063 174.089844 604.621094 173.925781 586.265625 L 173.90625 521.632813 C 173.90625 520.921875 173.867188 520.28125 173.808594 519.734375 C 174.1875 513.191406 172.675781 506.808594 169.414063 501.164063 L 142.613281 454.808594 C 139.90625 450.125 139.289063 444.523438 140.910156 439.367188 L 143.359375 431.015625 L 151.699219 401.007813 C 152.125 401.242188 152.554688 401.480469 153.011719 401.710938 C 156.96875 404.253906 161.261719 405.828125 165.785156 406.382813 L 218.722656 413.0625 C 219.984375 413.214844 221.257813 413.300781 222.523438 413.300781 C 238.136719 413.300781 251.34375 401.609375 253.246094 386.117188 C 254.257813 377.898438 252.011719 369.78125 246.917969 363.257813 C 241.828125 356.734375 234.496094 352.585938 226.328125 351.585938 L 181.804688 345.964844 L 163.8125 330.503906 C 162.601563 326.492188 160.835938 322.703125 158.609375 319.238281 C 176.949219 311.964844 189.945313 294.054688 189.945313 273.160156 C 189.945313 244.605469 165.660156 221.613281 136.664063 223.757813 C 112.492188 225.542969 92.953125 244.984375 91.035156 269.148438 C 90.019531 281.949219 93.917969 293.84375 101.015625 303.15625 C 96.660156 305.300781 51.148438 328.03125 51.148438 328.03125 C 49.042969 328.945313 47.03125 330.132813 45.027344 331.648438 C 40.984375 334.105469 37.683594 337.289063 35.210938 341.089844 L 6.023438 385.71875 C 1.503906 392.660156 -0.03125 400.941406 1.683594 409.039063 C 3.402344 417.128906 8.171875 424.066406 15.097656 428.574219 C 20.144531 431.859375 25.980469 433.585938 31.96875 433.585938 C 40.324219 433.585938 48.148438 430.269531 53.894531 424.515625 C 53.925781 424.53125 53.902344 424.519531 53.9375 424.535156 C 53.613281 430.894531 55.074219 437.140625 58.109375 442.515625 C 59.214844 444.898438 60.527344 447.171875 62.019531 449.304688 "/>
<path style="fill:none;stroke-width:20;stroke-linecap:round;stroke-linejoin:round;stroke:rgb(100%,100%,100%);stroke-opacity:1;stroke-miterlimit:10;" d="M 751.5625 1491.054688 L 1015.9375 1033.671875 L 967.421875 878.867188 C 958.125 849.023438 941.71875 823.59375 921.445313 802.578125 L 562.617188 241.601563 C 525.625 182.65625 462.382813 150.390625 397.578125 150.390625 C 362.226563 150.390625 326.484375 160 294.257813 180.234375 C 203.242188 237.34375 175.703125 357.460938 232.890625 448.515625 L 608.867188 1036.445313 Z M 1072.929688 1214.453125 L 1072.8125 1213.828125 L 808.4375 1671.210938 L 808.59375 1671.875 L 738.671875 1792.8125 C 736.914063 1795.273438 735.429688 1797.96875 733.789063 1800.507813 L 710.625 1840.507813 C 709.335938 1843.359375 707.65625 1845.898438 706.445313 1848.789063 L 705.585938 1850.195313 C 685.742188 1884.335938 677.695313 1921.992188 679.804688 1958.671875 C 678.242188 1989.84375 681.132813 2021.835938 689.6875 2053.632813 L 807.265625 2486.210938 C 816.367188 2519.6875 773.046875 2541.601563 751.523438 2514.414063 C 728.085938 2484.882813 701.992188 2451.835938 675.195313 2417.539063 L 461.914063 2091.601563 C 429.492188 2041.679688 375.195313 2014.53125 319.84375 2014.53125 C 288.164063 2014.53125 256.210938 2023.398438 227.734375 2041.875 C 149.375 2092.851563 127.03125 2197.695313 178.046875 2276.054688 L 469.726563 2722.109375 C 485.234375 2746.015625 506.054688 2763.945313 529.296875 2776.875 C 540.820313 2786.289063 553.28125 2794.648438 567.578125 2800.859375 C 567.578125 2800.859375 1117.617188 3084.140625 1208.359375 3084.140625 C 1234.375 3084.140625 1260.859375 3080.742188 1287.1875 3073.828125 C 1290.976563 3072.851563 1294.414063 3071.171875 1298.125 3070.039063 C 1312.382813 3064.53125 1339.257813 3053.515625 1371.914063 3037.03125 C 1383.59375 3029.6875 1394.648438 3021.757813 1405.117188 3013.046875 C 1405.820313 3012.460938 1406.484375 3011.875 1407.1875 3011.289063 C 1428.984375 2992.8125 1448.125 2971.5625 1463.90625 2948.085938 C 1464.023438 2947.890625 1464.101563 2947.695313 1464.257813 2947.539063 C 1488.203125 2911.757813 1504.726563 2871.171875 1512.265625 2828.242188 C 1519.6875 2785.546875 1518.632813 2740.78125 1506.835938 2696.210938 L 1256.640625 1799.492188 C 1240.429688 1747.890625 1246.601563 1691.875 1273.671875 1645.078125 L 1572.539063 1128.125 C 1594.101563 1090.742188 1601.40625 1049.296875 1596.914063 1009.414063 C 1597.421875 1004.140625 1598.632813 999.140625 1598.632813 993.75 L 1598.789063 347.226563 C 1599.765625 239.765625 1513.398438 151.875 1405.859375 150.898438 L 1404.21875 150.898438 C 1297.578125 150.898438 1210.46875 236.875 1209.570313 343.867188 L 1209.375 978.398438 Z M 1556.835938 2343.359375 L 1637.734375 2634.257813 L 1637.734375 2636.5625 C 1644.726563 2663.085938 1647.460938 2688.28125 1646.71875 2712.460938 L 1758.476563 2616.367188 L 2245.664063 2554.882813 C 2338.515625 2543.515625 2404.414063 2458.945313 2392.96875 2366.210938 C 2382.421875 2280.507813 2309.453125 2217.617188 2225.195313 2217.617188 C 2218.359375 2217.617188 2211.328125 2218.007813 2204.335938 2218.867188 L 1675.390625 2285.625 C 1647.265625 2289.101563 1621.953125 2300.039063 1600.195313 2315.078125 C 1586.71875 2321.445313 1573.59375 2328.984375 1561.796875 2339.140625 Z M 1404.101563 3123.632813 C 1199.53125 3123.632813 1035.546875 3296.601563 1050.15625 3504.21875 C 1062.460938 3679.21875 1204.375 3820.820313 1379.375 3832.65625 C 1586.679688 3846.640625 1758.984375 3682.8125 1758.984375 3478.554688 C 1758.984375 3282.539063 1600.195313 3123.59375 1404.101563 3123.632813 Z M 620.195313 1716.953125 L 655.859375 1655.273438 L 480.429688 1096.40625 L 113.867188 523.28125 C 15.703125 366.757813 63.085938 159.609375 219.570313 61.25 C 273.046875 27.734375 334.609375 10 397.539063 10 C 513.789063 10 619.882813 68.710938 680.976563 166.015625 L 1033.164063 716.71875 C 1046.679688 731.953125 1058.59375 748.125 1068.90625 764.960938 L 1069.101563 342.890625 C 1070.46875 159.609375 1220.78125 10.46875 1404.179688 10.46875 L 1407.109375 10.46875 C 1591.953125 12.109375 1740.898438 163.789063 1739.257813 347.34375 L 1739.0625 993.671875 C 1739.0625 1000.78125 1738.671875 1007.1875 1738.085938 1012.65625 C 1741.875 1078.085938 1726.757813 1141.914063 1694.140625 1198.359375 L 1426.132813 1661.914063 C 1399.0625 1708.75 1392.890625 1764.765625 1409.101563 1816.328125 L 1433.59375 1899.84375 L 1516.992188 2199.921875 C 1521.25 2197.578125 1525.546875 2195.195313 1530.117188 2192.890625 C 1569.6875 2167.460938 1612.617188 2151.71875 1657.851563 2146.171875 L 2187.226563 2079.375 C 2199.84375 2077.851563 2212.578125 2076.992188 2225.234375 2076.992188 C 2381.367188 2076.992188 2513.4375 2193.90625 2532.460938 2348.828125 C 2542.578125 2431.015625 2520.117188 2512.1875 2469.179688 2577.421875 C 2418.28125 2642.65625 2344.960938 2684.140625 2263.28125 2694.140625 L 1818.046875 2750.351563 L 1638.125 2904.960938 C 1626.015625 2945.078125 1608.359375 2982.96875 1586.09375 3017.617188 C 1769.492188 3090.351563 1899.453125 3269.453125 1899.453125 3478.398438 C 1899.453125 3763.945313 1656.601563 3993.867188 1366.640625 3972.421875 C 1124.921875 3954.570313 929.53125 3760.15625 910.351563 3518.515625 C 900.195313 3390.507813 939.179688 3271.5625 1010.15625 3178.4375 C 966.601563 3156.992188 511.484375 2929.6875 511.484375 2929.6875 C 490.429688 2920.546875 470.3125 2908.671875 450.273438 2893.515625 C 409.84375 2868.945313 376.835938 2837.109375 352.109375 2799.101563 L 60.234375 2352.8125 C 15.039063 2283.398438 -0.3125 2200.585938 16.835938 2119.609375 C 34.023438 2038.710938 81.71875 1969.335938 150.976563 1924.257813 C 201.445313 1891.40625 259.804688 1874.140625 319.6875 1874.140625 C 403.242188 1874.140625 481.484375 1907.304688 538.945313 1964.84375 C 539.257813 1964.6875 539.023438 1964.804688 539.375 1964.648438 C 536.132813 1901.054688 550.742188 1838.59375 581.09375 1784.84375 C 592.148438 1761.015625 605.273438 1738.28125 620.195313 1716.953125 Z M 620.195313 1716.953125 " transform="matrix(0.1,0,0,-0.1,0,621)"/>
</g>
</svg>
