<svg width="631.994" height="717.824" viewBox="0 0 631.994 717.824" xmlns="http://www.w3.org/2000/svg" xmlns:xlink="http://www.w3.org/1999/xlink" overflow="hidden"><defs><linearGradient x1="0.5" y1="1" x2="0" gradientUnits="objectBoundingBox" id="linear-gradient"><stop offset="0" stop-color="#6852ED"/><stop offset="1" stop-color="#BA43FC"/></linearGradient><linearGradient x1="0.479" y1="0.495" x2="0.926" y2="1.4" gradientUnits="objectBoundingBox" id="linear-gradient-2"><stop offset="0" stop-color="#1EDDA1"/><stop offset="1" stop-color="#8DFFDB"/></linearGradient><linearGradient x1="0.41" y1="-1.435" x2="0.625" y2="2.237" gradientUnits="objectBoundingBox" id="linear-gradient-3"><stop offset="0" stop-color="#2A5DE6"/><stop offset="0.3" stop-color="#3046BB"/><stop offset="1" stop-color="#9E2AE6"/></linearGradient><linearGradient x1="0.926" y1="-0.08" x2="-0.042" y2="0.765" gradientUnits="objectBoundingBox" id="linear-gradient-4"><stop offset="0" stop-color="#2A5DE6"/><stop offset="1" stop-color="#3A2AE6"/></linearGradient><linearGradient x1="0.795" y1="0.328" x2="-0.628" y2="1.023" gradientUnits="objectBoundingBox" id="linear-gradient-5"><stop offset="0" stop-color="#151875"/><stop offset="1" stop-color="#662AE6"/></linearGradient><linearGradient x1="-0.292" y1="-0.616" x2="0.856" y2="1.494" xlink:href="#linear-gradient-3" id="linear-gradient-6"></linearGradient><linearGradient x1="0.673" y1="-0.021" x2="0.254" y2="0.899" xlink:href="#linear-gradient-4" id="linear-gradient-7"></linearGradient><linearGradient x1="0.471" y1="1.845" x2="0.502" y2="0.218" gradientUnits="objectBoundingBox" id="linear-gradient-12"><stop offset="0" stop-color="#CFF8FF"/><stop offset="1" stop-color="#D6F9FF"/></linearGradient><linearGradient x1="-0.007" y1="0.545" x2="0.994" y2="0.558" gradientUnits="objectBoundingBox" id="linear-gradient-14"><stop offset="0" stop-color="#3046BB"/><stop offset="1" stop-color="#4C30BB"/></linearGradient><linearGradient x1="0.496" y1="0.992" x2="0" gradientUnits="objectBoundingBox" id="linear-gradient-17"><stop offset="0" stop-color="#EF7171"/><stop offset="1" stop-color="#FF8560"/></linearGradient></defs><g id="Img" transform="translate(-0.725 -14.595)"><rect x="0" y="0" rx="180" width="360" height="537" id="shape" fill="url(#linear-gradient)" opacity="0.1" transform="matrix(0.719 -0.695 0.695 0.719 0.725 267.135)"/><g id="db-1" transform="matrix(-0.99863 -0.052336 0.052336 -0.99863 546.478 27.218)"><g id="SCR" transform="matrix(1 0 0 1 0 -0.336)"><path d="M-26.226 151.686C-31.164 143.251-57.665 82.673-67.634 61.011-92.348 7.335-66.952 1.453-66.952 1.453-38.226-5.824-39.446 15.447-30.328 38.26-17.937 69.208-8.16 107.088-0.055 139.087 1.333 144.761-24.109 155.351-26.226 151.686Z" id="Path" fill="url(#linear-gradient-2)" transform="matrix(-1 1.22465e-16 -1.22465e-16 -1 93.696 -124.25)"/><path d="M-50 0.046C-31.937 0.283-31.73 18.725-23.932 38.279-16.134 57.833-1.143 105.4 0 107.008-6.311 83.566-13.526 59.3-21.961 38.233-30.066 17.989-30-1.058-50 0.046Z" id="Path-2" fill="#FFFFFF" transform="matrix(-1 1.22465e-16 -1.22465e-16 -1 102.125 -124.246)"/><path d="M-3.55 21.471C-5.4 15.075-9.769 6.9-11.218 0-19.27 0.629-27.4 1.265-35.373 1.779-35.442 13.279-43.885 15.95-54.029 20.279-67.379 25.984-80.223 29.197-81.749 46.079-54.144 44.415-27.459 41.179 0 38.411-0.805708 32.6917-1.99167 27.0325-3.55 21.471Z" id="Path-3" fill="url(#linear-gradient-3)" transform="matrix(-1 1.22465e-16 -1.22465e-16 -1 374.893 -554.309)"/><path d="M-11.507 0C-68.665 21.064-124.864 36.807-172.743 50.08-214.151 61.58-224.119 73.889-229.143 91.802-249.785 165.546-235.423 272.002-235.423 272.002-235.423 272.002-212.971 271.235-196.837 265.202-204.505 216.448-178.227 107.876-178.227 107.876-178.227 107.876-102.113 93.5-80.842 91.342 15.5 81.55 6.59 34.989-11.507 0Z" id="Path-4" fill="url(#linear-gradient-4)" transform="matrix(-1 1.22465e-16 -1.22465e-16 -1 182.198 -287.453)"/><path d="M-227.411 297.046C-223.151 296.592-219.306 294.285-216.9 290.74-214.493 287.194-213.769 282.768-214.922 278.64L-214.976 278.448C-216.776 272.206-220.976 264.262-222.514 257.491-220.129 256.847-217.79 256.118-215.567 255.283-223.235 206.529-196.949 97.957-196.949 97.957-196.949 97.957-120.843 83.579-99.565 81.425-15.891 72.99-11.62 36.743-23.789 4.445-19.697 2.98967-15.6063 1.508-11.517 0 6.58 34.989 15.529 81.55-80.836 91.3-102.123 93.455-178.22 107.832-178.22 107.832-178.22 107.832-204.52 216.404-196.83 265.158-199.054 265.994-201.392 266.692-203.777 267.366-202.243 274.137-198.041 282.081-196.239 288.323-194.678 293.881-193.49 299.538-192.681 305.254-220.14 307.999-246.81 311.235-274.43 312.922-274.18 308.793-272.842 304.803-270.55 301.359-256.128 300.09-241.835 298.556-227.411 297.046Z" id="Path-5" opacity="0.15" transform="matrix(-1 1.22465e-16 -1.22465e-16 -1 182.203 -287.484)"/><path d="M-25.558 30.335C-22.138 18.127-16.417 8.519 0 0-12.967 7.883-19.991 18.1-23.073 29.139-28.111 47.139-32.114 69.339-35.756 97.162-34.422 74.357-31.385 51.054-25.558 30.335Z" id="Path-6" fill="url(#linear-gradient-5)" transform="matrix(-1 1.22465e-16 -1.22465e-16 -1 385.751 -348.92)"/><path d="M-10.973 18.1C-15.612 12.514-23.556 6.242-28 0-35.775 4.156-43.612 8.335-51.357 12.338-46.396 23.838-53.657 30.205-61.901 38.969-72.751 50.469-84.177 59.312-78.318 76.857-51.476 63.124-26.232 48.24 0 33.5-3.31034 28.1278-6.97619 22.983-10.973 18.1Z" id="Path-7" fill="url(#linear-gradient-6)" transform="matrix(-1 1.22465e-16 -1.22465e-16 -1 181.029 -637.078)"/><path d="M-41.728 0C-80.551 53.891-95.589 75.914-130.762 117.137-161.181 152.786-162.692 169.978-156.304 189.217-129.995 268.459-84.224 365.717-84.224 365.717-84.224 365.717-62.124 355.15-48.652 342.069-77.63 296.728-100.534 172.669-100.534 172.669-100.534 172.669-66.679 139.696-48.752 124.782 32.437 57.227-4.032 20.589-41.728 0Z" id="Path-8" fill="url(#linear-gradient-7)" transform="matrix(-1 1.22465e-16 -1.22465e-16 -1 154.054 -290.221)"/><path d="M-61.747 386.793C-57.6723 384.487-54.8258 380.497-53.971 375.893-53.1173 371.288-54.344 366.541-57.322 362.926L-57.46 362.757C-61.984 357.313-69.652 351.209-74.146 345.12-72.046 343.441-70.021 341.685-68.165 339.89-97.143 294.541-120.024 170.472-120.024 170.472-120.024 170.472-86.17 137.5-68.242 122.582 2.212 63.936-15.984 28.594-46.672 6.794-45.024 4.53933-43.378 2.27467-41.734 0-4.034 20.589 32.432 57.227-48.727 124.782-66.655 139.7-100.51 172.67-100.51 172.67-100.51 172.67-77.61 296.732-48.628 342.07-50.484 343.87-52.5 345.628-54.601 347.307-50.108 353.395-42.439 359.507-37.915 364.944-33.918 369.829-30.2522 374.975-26.942 380.349-53.174 395.087-78.395 409.971-105.256 423.704-106.612 419.943-107.099 415.925-106.682 411.949-91.538 403.762-76.723 395.327-61.747 386.793Z" id="Path-9" opacity="0.15" transform="matrix(-1 1.22465e-16 -1.22465e-16 -1 154.026 -290.198)"/><path d="M-5.13 0C-5.038 1.411-28.372 29.422-21.9 56.6-17.407 75.5-0.046 124.384 0 126-8.274 105.1-16.379 83.419-23.181 62.938-28.993 45.418-28.28 29.591-5.13 0Z" id="Path-10" fill="url(#linear-gradient-5)" transform="matrix(-1 1.22465e-16 -1.22465e-16 -1 287.178 -416.506)"/><path d="M-48.309 0 0 130.288-5.368 135.87C-13.5018 144.312-26.9391 144.562-35.3809 136.428-38.5573 133.367-40.7013 129.393-41.515 125.058L-64.458 2.876Z" id="Path-11" fill="url(#linear-gradient-2)" transform="matrix(-1 1.22465e-16 -1.22465e-16 -1 306.548 -119.622)"/><path d="M-73.347 130.882C-65.74 124.702-43.127 88.248-26.572 71.109 24.589 18.109-13.872 1.652-13.872 1.652-24.653-6.837-39.782 19.289-53.472 36.652-74.106 62.836-72.358 62.721-91.206 89.8-94.58 94.628-76.636 133.566-73.347 130.882Z" id="Path-12" fill="url(#linear-gradient-2)" transform="matrix(-1 1.22465e-16 -1.22465e-16 -1 237.058 -123.077)"/><path d="M-24.306 59.926C-38.614 74.748-57.455 104-67.208 115.65L-67.208 115.65C-68.3652 117.111-69.6481 118.468-71.042 119.706L-71.142 119.76-72.561 121.232C-80.6948 129.674-94.1321 129.924-102.574 121.79-105.75 118.729-107.894 114.755-108.708 110.42L-129.412 0-133.852 0.767-110.97 123.011C-108.806 134.533-97.7119 142.119-86.1899 139.956-81.8559 139.142-77.883 136.998-74.823 133.823L-73.404 132.351C-73.3666 132.338-73.3324 132.317-73.304 132.29-71.9079 131.057-70.6248 129.702-69.47 128.241L-69.47 128.241C-59.716 116.593-40.876 87.341-26.57 72.517-5.78 50.977 0.209 35.472-0.006 24.661-3.249 33.993-10.526 45.648-24.306 59.926Z" id="Path-13" opacity="0.15" transform="matrix(-1 1.22465e-16 -1.22465e-16 -1 237.1 -121.669)"/><path d="M-0.023 16.922C0.567 8.211-9.8-2.417-58.017 0.489-106.027 3.38-125.726 0.857-125.817 9.614L-124.023 195.714C-124.115 203.068-118.839 201.848-112.444 202.101L-67.854 203.888-66.435 203.949-21.845 205.736C-15.445 205.989-9.845 200.292-9.338 192.961L-13.019 175.946Z" id="Path-14" fill="url(#linear-gradient-2)" transform="matrix(-1 1.22465e-16 -1.22465e-16 -1 136.6 -118.496)"/><path d="M-28.449 94.463C-0.728 79.3-12.231 0-12.231 0-12.231 0-4.908 27.176 0 20.911L-6.9 105.183-3.221 122.2C-3.727 129.531-9.355 135.236-15.728 134.975L-60.318 133.188-61.737 133.127-106.327 131.34C-112.727 131.079-117.998 132.306-117.906 124.953L-118.788 106.404C-96.855 118.341-51.4 111.762-28.449 94.463Z" id="Path-15" opacity="0.15" transform="matrix(-1 1.22465e-16 -1.22465e-16 -1 142.735 -189.256)"/><path d="M-1.457 0 0 88.39C-0.178033 98.4439-0.925564 108.48-2.239 118.449-2.239 118.449-2.216 2.339-1.457 0Z" id="Path-16" fill="#FFFFFF" transform="matrix(-1 1.22465e-16 -1.22465e-16 -1 258.891 -143.032)"/><path d="M0 0.529-0.491 0-2.17 2.377C-1.434 1.756-0.713 1.158 0 0.529Z" id="Path-17" fill="#231F20" opacity="0.1" transform="matrix(-1 1.22465e-16 -1.22465e-16 -1 188.935 -353.276)"/><path d="M-0.752 6.993C-3.428 5.912-11.986 0.445-14.9 0-16.181 7.745-17.967 22.138-31.5 22.506-46.485 20.029-45.856 7.7-45.81 5.636-47.068 6.05-50.748 9.294-51.178 9.424-62.327 17.744-60.378 35.058-49.736 44.413-44.236 38.838-38.936 30.913-32.958 25.596-35.672 33.924-37.613 47.918-37.613 47.918L-32.13 48.347C-32.13 48.347-29.53 32.973-28.058 25.619-21.709 29.706-18.35 35.219-15.958 42.044-9.118 33.057 3.158 18.465-0.752 6.993Z" id="Path-18" fill="#231F20" transform="matrix(-1 1.22465e-16 -1.22465e-16 -1 166.888 -119.031)"/><path d="M-41.806 13.925-22.5 1.1 0 0C0 0-14.7 33.226-4.171 43.294 4.977 52.043-13.718 59.52-24.384 56.422-35.05 53.324-48.408 53.163-39.352 39.882-35.81 34.721-41.806 13.925-41.806 13.925Z" id="Path-19" fill="#FFD4D4" transform="matrix(-1 1.22465e-16 -1.22465e-16 -1 175.454 -83.367)"/><path d="M-17.13 6.641-10.512 14.309C-9.22235 10.0577-7.7021 5.87989-5.958 1.794L-24.936 2.73-22.5 1.1 0 0C-2.67717 6.272-4.81815 12.7595-6.4 19.393-6.53 19.999-6.891 21.793-7.6 26.064-7.155 25.664-7.194 25.711-7.6 26.064-8.482 33.042-7.953 39.652-4.172 43.271 2.338 49.505-5.261 55.087-14.033 56.671-8.382 54.156-5.192 49.771-10.133 45.071-13.369 42.004-14.22 36.697-13.852 30.877-20.838 35.785-31.788 42.011-38.582 38.614-38.207 37.0901-38.0981 35.5129-38.26 33.952-38.547 31.086-17.13 6.641-17.13 6.641Z" id="Path-20" fill="#231F20" transform="matrix(-1 1.22465e-16 -1.22465e-16 -1 175.454 -83.36)"/><path d="M-51.947 1.257C-45.8071-0.295561-39.3919-0.411224-33.2 0.919-23.944 2.714-13.561 4.485-5.479 9.5 6.3 16.8-4.444 45.133-5.326 57.809-5.37947 61.0323-5.83294 64.2365-6.676 67.348-7.976 71.427-21.676 87.714-34.526 90.207-55.997 91.373-64.309 89.387-64.293 82.263-64.293 74.388-62.867 23.096-62.368 17.391-59.991 7.613-63.971 4.262-51.947 1.257Z" id="Path-21" fill="#FFD4D4" transform="matrix(-1 1.22465e-16 -1.22465e-16 -1 169.439 -27.115)"/><path d="M-15.562 72.34C-14.7142 69.2289-14.2584 66.0241-14.205 62.8-13.331 50.1-2.588 21.776-14.358 14.491-22.448 9.476-32.823 7.705-42.086 5.91-48.1744 4.6024-54.4802 4.69403-60.528 6.178-59.585 4.069-57.461 2.628-51.947 1.255-45.8069-0.2969-39.3917-0.411879-33.2 0.919-23.944 2.714-13.561 4.485-5.479 9.5 6.3 16.8-4.444 45.133-5.326 57.809-5.37947 61.0323-5.83294 64.2365-6.676 67.348-7.857 71.048-19.206 84.762-30.892 89.156-22.87 83.274-16.429 75.077-15.562 72.34Z" id="Path-22" fill="#231F20" transform="matrix(-1 1.22465e-16 -1.22465e-16 -1 169.439 -27.146)"/><path d="M-0.754 6.986C-3.431 5.9-11.988 0.445-14.894 0-16.182 7.745-17.961 22.138-31.494 22.506-46.487 20.021-45.85 7.691-45.8 5.636-47.065 6.05-50.746 9.294-51.168 9.416-62.325 17.744-60.408 35.058-49.726 44.405-44.226 38.838-38.926 30.905-32.956 25.595-35.663 33.915-36.023 50.685-36.023 50.685L-30.54 51.114C-30.54 51.114-29.54 32.941-28.102 25.595-21.761 29.682-18.402 35.195-16.009 42.02-9.12 33.057 3.164 18.457-0.754 6.986Z" id="Path-23" fill="url(#linear-gradient-12)" transform="matrix(-1 1.22465e-16 -1.22465e-16 -1 168.497 -116.263)"/><path d="M-2.124 9.148C-1.3214 6.13848-0.699297 3.08371-0.261-2.36511e-07L0 0.054C-0.448953 3.14006-1.15951 6.18235-2.124 9.148Z" id="Path-24" fill="#FFFFFF" transform="matrix(-1 1.22465e-16 -1.22465e-16 -1 183.13 -116.263)"/><path d="M-26.67 6.587C-20.359 10.659-16.962 16.18-14.57 23.004-9.968 16.985-2.922 8.435 0 0-2.507 9-10.237 18.35-15.167 24.791-17.529 18.051-20.841 12.591-27.037 8.519-26.892 7.814-26.785 7.162-26.67 6.587Z" id="Path-25" fill="#FFFFFF" transform="matrix(-1 1.22465e-16 -1.22465e-16 -1 169.343 -133.501)"/><path d="M-26.992 0C-29.216 8.435-26.018 18.48-18.741 24.852-13.241 19.277-7.941 11.352-1.963 6.035-4.677 14.363-5.03 31.135-5.03 31.135L0 31.516C-0.069 32.651-0.107 33.333-0.107 33.333L-5.59 32.9C-5.59 32.9-5.253 16.13-2.523 7.81-8.489 13.124-13.795 21.053-19.293 26.62-27.1 19.8-30.22 8.719-26.992 0Z" id="Path-26" fill="#FFFFFF" transform="matrix(-1 1.22465e-16 -1.22465e-16 -1 198.949 -134.022)"/><path d="M-109.254 49.375-22.9 0-6.525 10.919C-1.93545 13.9839 0.546876 19.3642-0.1 24.845-0.747324 30.3251-4.41371 34.9789-9.59 36.891L-97.077 67.2Z" id="Path-27" fill="url(#linear-gradient-2)" transform="matrix(-1 1.22465e-16 -1.22465e-16 -1 93.185 -244.052)"/><path d="M-15.328 18.934C-13.143 22.362-9.746 26.694-7.775 20.169-7.3 18.589-8.12 14.748-6.875 13.605-4.705 11.619-3.375 16.066-2.75 17.738 1.72 29.547 1.85 46.11-10.962 52.338-20.593 57.046-30.577 49.47-35.699 41.802-40.729 34.28-42.485 25.316-38.099 17.264-36.941 15.117-35.561 13.43-34.763 11.264-33.965 9.098-33.72 7.093-32.723 5.084-32.136 3.913-29.491-0.1-28.118 0-26.408 0.13-24.499 3.834-23.732 5.069-21.048 9.286-18.571 13.719-15.941 17.99Z" id="Path-28" fill="#FFD4D4" transform="matrix(-1 1.22465e-16 -1.22465e-16 -1 350.563 -73.642)"/><path d="M-7.054 4.494C-2.591 16.303-2.454 32.866-15.274 39.094-16.6961 39.796-18.2261 40.2541-19.8 40.449-16.7971 41.022-13.6892 40.5963-10.951 39.237 1.834 32.988 1.734 16.448-2.737 4.64-3.365 2.968-4.692-1.495-6.862 0.507-7.40374 1.23706-7.66239 2.13878-7.59 3.045-7.368 3.581-7.192 4.1-7.054 4.494Z" id="Path-29" fill="#231F20" transform="matrix(-1 1.22465e-16 -1.22465e-16 -1 350.579 -86.756)"/><path d="M-15.091 4.915C-12.407 9.133-3.182 21.195 0 22.122-0.883272 21.1443-1.67399 20.0867-2.362 18.963L-2.975 17.989C-5.605 13.718-8.082 9.278-10.766 5.068-11.533 3.857-13.442 0.13-15.152 0-15.727 0-16.509 0.629-17.284 1.534-16.4896 2.61893-15.7574 3.74808-15.091 4.916Z" id="Path-30" fill="#231F20" transform="matrix(-1 1.22465e-16 -1.22465e-16 -1 363.529 -73.613)"/><path d="M-1.3 51.067C-0.239787 47.5931 0.177052 43.9547-0.07 40.331-0.653 32.418-2.317 23.875-8.827 18.623-11.572 16.415-16.733 11.568-20.559 12.749-20.145 12.626-23.826 6.423-24.148 6.024-25.8734 3.95561-28.1062 2.37058-30.628 1.424-35.887-0.6-41.983 0.028-47.5 0.358-55.935 0.864-65.336 1.616-73.042 5.373-80.373 8.946-82.397 14.573-85.227 21.652-87.336 26.928-92.197 28.86-97.205 30.452-97.397 32.177-96.223 33.78-94.905 34.807-92.965 36.341-91.838 35.842-94.138 37.667-97.129 40.021-103.125 40.389-106.407 38.902-106.315 41.816-103.762 45.113-101.729 47.091-99.6557 49.1702-97.475 51.1395-95.196 52.991-89.736 57.262-76.179 60.145-65.068 58.297-61.395 57.691-57.783 56.763-54.141 55.997-49.724 55.054-45.484 54.019-41.641 51.611-39.341 50.185-37.976 47.846-35.698 46.243-37.1317 54.1239-37.4518 62.1671-36.649 70.137-36.22 73.971-35.882 78.672-35.031 83.119-28.1425 78.8462-20.9215 75.1343-13.438 72.019-8.527 65.7-3.582 58.758-1.3 51.067Z" id="Path-31" fill="url(#linear-gradient-14)" transform="matrix(-1 1.22465e-16 -1.22465e-16 -1 144.176 -0.156)"/><g id="Group" opacity="0.1" transform="translate(165.164 -23.771)"><path d="M-84.924 14.822C-81.642 16.31-75.646 15.942-72.655 13.587-70.355 11.762-71.443 12.237-73.422 10.727-74.749 9.699-75.922 8.097-75.722 6.372-71.574 5.053-67.525 3.5-65.064 0-66.222 3.129-68.055 5.728-71.858 6.84-70.087 10.674-65.858 10.94-62.258 13.412-66.299 14.179-68.952 16.755-72.993 17.522-60.609 27.751-45.066 26.922-30.282 22.054-20.527 18.1-13.2 12.522-8.841 2.3-11.249 17.836-14.324 41.76 0 51.568-4.6519 53.8004-9.1753 56.2913-13.549 59.029-14.438 54.582-14.738 49.881-15.167 46.047-15.9698 38.0771-15.6497 30.0339-14.216 22.153-16.516 23.687-17.881 26.053-20.159 27.521-23.993 29.929-28.241 30.964-32.659 31.907-36.301 32.674-39.913 33.607-43.586 34.207-54.7 36.055-68.253 33.172-73.713 28.9-75.992 27.0485-78.1727 25.0792-80.246 23-82.317 21-84.832 17.7-84.924 14.822Z" id="Path-32" fill="#231F20" transform="matrix(-1 1.22465e-16 -1.22465e-16 -1 0.498 -0.514)"/></g><path d="M-20.435 14.094C-27.413 9.83-33.325 3.711-35.166 0-35.074 2.914-32.521 6.211-30.488 8.189-28.4147 10.2682-26.234 12.2375-23.955 14.089-19.477 17.555-9.555 20.116 3.55271e-15 19.94-7.17056 19.5885-14.1635 17.588-20.435 14.094Z" id="Path-33" fill="url(#linear-gradient-5)" transform="matrix(-1 1.22465e-16 -1.22465e-16 -1 215.42 -39.107)"/><path d="M-57.234 34.776C-55.294 36.31-54.167 35.811-56.467 37.636-58.2152 38.8475-60.2636 39.5534-62.387 39.676-59.174 40.098-55.233 39.446-52.978 37.682-50.723 35.918-51.778 36.332-53.745 34.822-55.064 33.794-56.245 32.192-56.045 30.467-51.045 28.872-46.184 26.94-44.075 21.667-41.238 14.582-39.221 8.953-31.89 5.388-24.147 1.635-14.792 0.883-6.357 0.377-4.294 0.254-2.155 0.086 0 0.032-3.29503-0.0576088-6.59248 0.0425569-9.876 0.332-18.311 0.838-27.712 1.59-35.418 5.347-42.749 8.92-44.773 14.547-47.603 21.626-49.712 26.902-54.573 28.834-59.581 30.426-59.5641 32.1744-58.686 33.8019-57.234 34.776Z" id="Path-34" fill="url(#linear-gradient-5)" transform="matrix(-1 1.22465e-16 -1.22465e-16 -1 181.811 -0.198)"/><path d="M-32.531 12.163C-28.531 11.463-23.214 10.008-28.475 5.676-29.748 4.625-33.612 3.9-34.18 2.294-35.169-0.467-30.568-0.006-28.774 0.086-16.16 0.53-0.862 6.818-0.026 21.027 0.6 31.762-10.248 38.012-19.3 39.775-28.187 41.508-37.128 39.668-42.895 32.506-44.429 30.606-45.448 28.672-47.135 27.138-48.822 25.604-50.586 24.562-52.05 22.867-52.909 21.878-55.585 17.89-54.964 16.667-54.197 15.133-50.01 14.819-48.6 14.574-43.677 13.731-38.632 13.155-33.67 12.374Z" id="Path-35" fill="#FFD4D4" transform="matrix(-1 1.22465e-16 -1.22465e-16 -1 190.258 -289.261)"/><path d="M-30.578 4.006C-17.964 4.443-2.666 10.731-1.838 24.947-1.73896 26.5278-1.90491 28.114-2.329 29.64-0.643038 27.0917 0.164568 24.0624-0.029 21.013-0.864 6.8-16.131 0.517-28.776 0.072-30.57 0.011-35.176-0.48-34.182 2.28-33.7216 3.06883-32.9874 3.66101-32.119 3.944-31.529 3.96-30.984 3.99-30.578 4.006Z" id="Path-36" fill="#231F20" transform="matrix(-1 1.22465e-16 -1.22465e-16 -1 190.256 -289.275)"/><path d="M-21.693 7.277C-16.77 6.426-2.086 2.569 0 0-1.24664 0.434043-2.52982 0.755004-3.834 0.959L-4.969 1.143C-9.923 1.91-14.976 2.5-19.899 3.343-21.31 3.588-25.481 3.903-26.263 5.436-26.516 5.95-26.209 6.936-25.696 7.982-24.3771 7.67146-23.0416 7.43609-21.696 7.277Z" id="Path-37" fill="#231F20" transform="matrix(-1 1.22465e-16 -1.22465e-16 -1 218.963 -300.466)"/><path d="M-24.024 18.588-3.489 18.588C-1.56338 18.5858-0.00275522 17.0256-8.2016e-08 15.1L0 3.489C-0.0022043 1.56299-1.56299 0.00220438-3.489 8.2016e-08L-24.024 0C-24.9447-0.00230298-25.8286 0.361387-26.481 1.011-27.1396 1.66813-27.5107 2.55963-27.513 3.49L-27.513 15.1C-27.5102 17.0256-25.9496 18.5858-24.024 18.588ZM-5.624 2.148C-4.14488 2.15122-2.94369 3.34394-2.93 4.823L-2.93 13.756C-2.92943 14.4722-3.2128 15.1594-3.718 15.667-4.22255 16.1701-4.9055 16.4533-5.618 16.455L-21.831 16.455C-23.3222 16.455-24.531 15.2462-24.531 13.755L-24.531 4.838C-24.526 3.35035-23.3187 2.14699-21.831 2.147L-5.62 2.147Z" id="Shape-2" fill="url(#linear-gradient-17)" transform="matrix(-1 1.22465e-16 -1.22465e-16 -1 183.912 -63.031)"/><path d="M-19.884 18.588-2.884 18.588C-1.294 18.588 0 17.022 0 15.1L0 3.489C0.0149087 2.58973-0.284271 1.71341-0.846 1.011-1.33793 0.383683-2.0869 0.0121392-2.884 3.71933e-08L-19.884 0C-21.474 0-22.767 1.565-22.767 3.489L-22.767 15.1C-22.7823 15.9988-22.4843 16.875-21.924 17.578-21.4315 18.2056-20.6817 18.5768-19.884 18.588ZM-4.677 2.132C-3.3256 2.27365-2.33478 3.46876-2.446 4.823L-2.446 13.756C-2.32961 15.1136-3.32181 16.3144-4.677 16.456L-18.089 16.456C-19.4484 16.3293-20.4476 15.1246-20.3209 13.7652-20.3206 13.7621-20.3203 13.7591-20.32 13.756L-20.32 4.823C-20.4312 3.46876-19.4404 2.27365-18.089 2.132Z" id="Shape-3" fill="url(#linear-gradient-17)" transform="matrix(-1 1.22465e-16 -1.22465e-16 -1 216.916 -63.032)"/><rect x="0" y="0" width="10.927" height="3.313" id="Rectangle" fill="url(#linear-gradient-17)" transform="matrix(-1 1.22465e-16 -1.22465e-16 -1 219.369 -69.94)"/><path d="M-13.189 4.187-1.848 4.187 0 0-13.189 0-13.189 4.187Z" id="Path-38" fill="url(#linear-gradient-17)" transform="matrix(-1 1.22465e-16 -1.22465e-16 -1 170.693 -66.566)"/><path d="M-0.427 6.908C1.743 13.043-4.744 20.565-11.239 20-17.734 19.435-16.906 18.42-16.906 18.42-16.906 18.42-15.663-0.6-9.168 0.015-2.673 0.63-2.666 0.544-0.427 6.908Z" id="Path-39" fill="#FFD4D4" transform="matrix(-1 1.22465e-16 -1.22465e-16 -1 158.472 -65.402)"/><path d="M-10.076 0.076C-9.77678 0.0100458-9.46973-0.013185-9.164 0.007-2.669 0.582-2.669 0.582-0.422 6.907 0.428481 9.73629-0.143126 12.8023-1.956 15.135-3.68699 16.2705-5.74151 16.8095-7.807 16.67-14.302 16.095-13.481 15.09-13.481 15.09-13.481 15.09-12.829 5.4-10.076 0.076Z" id="Path-40" fill="#231F20" transform="matrix(-1 1.22465e-16 -1.22465e-16 -1 161.912 -68.66)"/><path d="M-114.845 0-6 0C-2.69058-5.56166e-06-0.00606727 2.67959 0 5.989L0 5.989C1.77636e-15 9.30271-2.68629 11.989-6 11.989L-114.883 11.989C-118.173 11.9616-120.827 9.28999-120.833 6L-120.833 6C-120.837 4.40884-120.208 2.88148-119.084 1.755-117.96 0.630514-116.435-0.000869243-114.845-4.76837e-09Z" id="Path-41" fill="#D6D6D6" transform="matrix(-1 1.22465e-16 -1.22465e-16 -1 196.312 -336.759)"/><rect x="0" y="0" rx="22.4" width="156.367" height="121.355" id="Rectangle-2" fill="#D6D6D6" transform="matrix(-1 1.22465e-16 -1.22465e-16 -1 427.366 -227.389)"/><rect x="0" y="0" rx="22.4" width="156.367" height="121.355" id="Rectangle-3" fill="#FFFFFF" transform="matrix(-1 1.22465e-16 -1.22465e-16 -1 432.166 -227.389)"/><path d="M-21.655 10.781C-21.6736 15.1656-19.046 19.1285-15 20.818-10.9556 22.5083-6.29098 21.5932-3.185 18.5-0.077955 15.4049 0.8551 10.7412-0.822001 6.689-2.49757 2.63773-6.4509-0.00322136-10.835 1.297e-07-16.7955-3.85899e-05-21.6335 4.82052-21.655 10.781Z" id="Path-42" fill="url(#linear-gradient)" transform="matrix(-1 1.22465e-16 -1.22465e-16 -1 349.174 -274.517)"/><g id="Group-2" transform="matrix(-1 1.22465e-16 -1.22465e-16 -1 273 -333)"><path d="M95.572 76.112 95.563 76.112C66.2261 76.2153 36.9265 74.0085 7.936 69.512 3.271 68.485 0.23 64.462 0 59.014L0.1 7.775C0.1308 6.01107 0.632067 4.28736 1.552 2.782 2.89958 0.884525 5.14094-0.170547 7.462 6.48498e-08 7.643 0 7.846 0.005 8.062 0.015 37.0395 4.51075 66.326 6.71757 95.65 6.615 116.856 6.64679 138.047 5.51341 159.128 3.22 159.428 3.196 159.716 3.183 159.995 3.183 162.003 3.14052 163.96 3.82083 165.508 5.1 167.227 6.69513 168.205 8.93368 168.208 11.279L168.108 62.525C167.978 67.6968 164.122 72.0137 158.998 72.725 137.934 75.0148 116.76 76.1455 95.572 76.112ZM68.71 50.062C67.9403 50.0635 67.1913 50.3116 66.573 50.77 65.4584 51.6448 64.9967 53.115 65.411 54.47 65.611 55.1652 66.0146 55.7845 66.57 56.248 67.2163 56.7707 68.0062 57.0845 68.835 57.148 77.635 57.536 86.635 57.732 95.588 57.732 103.67 57.732 111.828 57.572 119.835 57.255 120.809 57.2062 121.731 56.7962 122.419 56.105L122.396 56.113C123.428 55.1087 123.76 53.5846 123.239 52.242 122.652 50.9233 121.315 50.1004 119.873 50.17 111.573 50.49 103.267 50.652 95.197 50.652 86.269 50.652 77.413 50.452 68.873 50.063 68.825 50.063 68.772 50.062 68.71 50.062ZM27.473 11.489C23.5304 11.4687 19.6941 12.766 16.573 15.175 13.3253 17.7135 11.0054 21.2523 9.973 25.243 8.89123 29.3523 8.87712 33.6698 9.932 37.786 11.0298 42.3228 13.3306 46.4797 16.592 49.819 18.2871 51.5394 20.2361 52.9897 22.371 54.119 24.671 55.3251 27.1483 56.1575 29.71 56.585 35.2587 57.2178 40.8027 55.361 44.851 51.514 48.5002 48.0882 50.7819 43.4542 51.272 38.473 51.6266 35.0152 51.1973 31.522 50.016 28.253 48.884 25.1181 47.1456 22.2369 44.9 19.774 40.217 14.586 33.7 11.489 27.473 11.489ZM68.813 37.219C68.1393 37.2194 67.4768 37.3915 66.888 37.719 65.6833 38.566 65.1062 40.0543 65.425 41.492 65.8237 43.0999 67.2267 44.2581 68.881 44.345 77.688 44.73 86.624 44.925 95.443 44.925 111.563 44.925 127.882 44.273 143.951 42.987 144.933 42.892 145.847 42.4423 146.521 41.722L146.498 41.729C147.498 40.6502 147.807 39.1011 147.298 37.721 146.682 36.4762 145.363 35.7381 143.98 35.863 127.917 37.151 111.607 37.8 95.5 37.8 86.673 37.8 77.725 37.6 68.906 37.216ZM68.213 22.119C67.6474 22.1189 67.0917 22.2668 66.601 22.548 65.6136 23.242 65.1403 24.4616 65.401 25.64 65.7274 26.9666 66.882 27.9244 68.246 28 77.287 28.408 86.524 28.616 95.699 28.616 104.874 28.616 114.118 28.409 123.18 28 123.887 27.9577 124.562 27.6887 125.105 27.233 126.357 26.27 126.591 24.4744 125.628 23.2224 125.088 22.5192 124.251 22.1068 123.364 22.106 123.306 22.106 123.247 22.106 123.188 22.111 114.128 22.511 104.888 22.721 95.711 22.721 86.534 22.721 77.302 22.516 68.262 22.111Z" id="Shape-4" fill="#FFFFFF" opacity="0.2" transform="translate(0.206 102.251)"/><path d="M22.28 44.417C19.57 44.4141 16.8901 43.8485 14.41 42.756 11.6422 41.5268 9.14951 39.7541 7.08 37.543 5.3648 35.7297 3.93332 33.6678 2.834 31.427 1.73438 29.2023 0.942772 26.8383 0.481001 24.4-0.480735 19.7157-0.0410995 14.8519 1.745 10.416 2.99405 7.38109 5.11251 4.7832 7.834 2.949 11.0133 0.923943 14.726-0.103134 18.494-5.95093e-07 19.041 0 19.607 0.018 20.176 0.053 23.0864 0.389321 25.9037 1.28834 28.471 2.7 31.0274 4.09749 33.3191 5.93225 35.242 8.121 37.1812 10.3083 38.7255 12.8159 39.806 15.532 40.9054 18.2736 41.4732 21.1992 41.479 24.153 41.4971 27.0337 40.9537 29.8902 39.879 32.563 38.9057 34.9551 37.4595 37.1262 35.627 38.946 32.0746 42.4574 27.2789 44.4233 22.284 44.416ZM15.59 22.475 12.73 22.889C10.9784 23.1947 9.72715 24.7548 9.809 26.531L9.809 28.131C9.78836 29.2648 10.6007 30.243 11.719 30.431 17.125 31.143 22.84 31.795 28.704 32.371 29.7067 32.4734 30.6026 31.7435 30.7049 30.7408 30.7136 30.6558 30.7163 30.5703 30.713 30.485L30.713 28.885C30.8084 27.5928 30.2547 26.3378 29.236 25.537 27.8611 24.6565 26.3673 23.9773 24.8 23.52L24.794 23.52C23.6901 24.2483 22.3965 24.636 21.074 24.635 20.7794 24.6346 20.4851 24.6152 20.193 24.577 18.476 24.3817 16.8653 23.6464 15.593 22.477ZM19.5 9.216C18.2484 9.21863 17.0321 9.63097 16.037 10.39 14.9932 11.1748 14.2448 12.2889 13.913 13.552 13.5921 14.8096 13.6059 16.1293 13.953 17.38 14.3329 18.817 15.086 20.128 16.136 21.18 17.2144 22.2628 18.6209 22.9583 20.136 23.158 23.3626 23.5345 26.2836 21.2241 26.6601 17.9974 26.6661 17.9464 26.6714 17.8952 26.676 17.844 26.9449 15.6401 26.2527 13.427 24.776 11.769 23.4564 10.2116 21.5401 9.28439 19.5 9.216Z" id="Shape-5" fill="#FFFFFF" opacity="0.2" transform="translate(9.79 114.267)"/><path d="M54.071 77.618 54.071 77.618C39.057 77.618 23.855 77.049 8.888 75.926 6.47719 75.655 4.2448 74.5243 2.6 72.741 0.976427 70.8805 0.0564168 68.5097-5.72205e-07 66.041L0.107 9.413C0.126548 7.12087 1.02082 4.92276 2.607 3.268 4.26446 1.74452 6.45747 0.938856 8.707 1.027 8.814 1.027 8.922 1.027 9.03 1.027 24 2.154 39.206 2.723 54.218 2.723 73.177 2.723 92.359 1.816 111.232 0.023 111.481 0.005 111.732-0.004 111.981-0.004 114.03-0.0454393 116.028 0.643257 117.616 1.939 119.374 3.53713 120.383 5.79892 120.396 8.175L120.288 64.811C120.161 69.9988 116.241 74.3049 111.088 74.918 92.211 76.71 73.028 77.618 54.071 77.618ZM53.485 27.135 53.431 53.206C60.531 48.978 69.531 43.513 75.592 39.806 68.144 35.618 58.545 30.069 53.485 27.134Z" id="Shape-6" fill="#EB008B" opacity="0.5" transform="translate(141.444 0.564)"/><path d="M22.59 45.037C19.842 45.0328 17.1248 44.4587 14.61 43.351 11.8031 42.104 9.27516 40.3061 7.176 38.064 5.4373 36.2256 3.98597 34.1354 2.871 31.864 1.75733 29.6097 0.955321 27.2144 0.487001 24.744-0.48831 19.994-0.042409 15.062 1.769 10.564 3.03566 7.48632 5.18406 4.85189 7.944 2.992 11.168 0.937403 14.9334-0.10469 18.755-2.75803e-06 19.31 0 19.883 0.018 20.455 0.054 32.355 1.411 42.049 12.371 42.055 24.485 42.0721 27.4074 41.5194 30.305 40.428 33.016 39.4411 35.442 37.9745 37.6436 36.116 39.489 32.515 43.0495 27.6531 45.0433 22.589 45.036L22.589 45.036ZM18.168 0.116 18.168 0.116C16.2826 0.111273 14.4085 0.406634 12.616 0.991 10.74 1.61151 8.98198 2.54391 7.416 3.749 4.21305 6.24665 1.92456 9.73212 0.905999 13.664-0.160558 17.7128-0.175015 21.967 0.863999 26.023 1.94536 30.4992 4.21443 34.6007 7.432 37.895 9.10398 39.5915 11.0263 41.0215 13.132 42.135 15.4013 43.3249 17.8455 44.1459 20.373 44.567 25.8428 45.1912 31.3081 43.3603 35.298 39.567 38.895 36.189 41.1441 31.6207 41.628 26.71L41.6 26.71C41.9527 23.3031 41.5333 19.8606 40.373 16.638 39.2624 13.5502 37.5538 10.7117 35.345 8.285 30.73 3.169 24.309 0.117 18.168 0.117Z" id="Shape-7" fill="#FFFFFF" transform="translate(9.547 113.96)"/><path d="M57.879 0C39.476 0.84 20.957 0.825 2.953 0-0.459 0.188-0.551 3.463 0.852 4.92 1.39695 5.49768 2.14473 5.84146 2.938 5.879 20.938 6.646 39.484 6.699 57.872 5.879 59.5409 5.86094 60.8792 4.49338 60.8611 2.82448 60.8528 2.05552 60.5516 1.31866 60.019 0.764 59.4366 0.233312 58.6658-0.0418631 57.879 5.81741e-08Z" id="Path-43" fill="#FFFFFF" transform="translate(65.522 124.346)"/><path d="M80.65 0.444C80.0279 0.115278 79.3273-0.0359084 78.625 0.00700001 53.6642 2.01055 28.6032 2.46643 3.586 1.372-0.555 1.6-0.67 5.566 1.032 7.345 1.7013 8.03895 2.60749 8.45527 3.57 8.511 28.5974 9.60561 53.6685 9.15241 78.64 7.154 83.1 6.333 82.873 1.74 80.65 0.444Z" id="Path-44" fill="#FFFFFF" transform="translate(65.526 138.1)"/><path d="M56.882 0.813C56.2162 0.326481 55.4061 0.078156 54.582 0.108 37.489 0.782 20.305 0.728 3.581 0 1.68358-0.0963337 0.0673313 1.36373-0.0290025 3.26115-0.0800371 4.26634 0.31171 5.24346 1.043 5.935 1.70619 6.62659 2.60896 7.03808 3.566 7.085 20.298 7.852 37.482 7.852 54.566 7.192 58.316 6.855 59.328 2.668 56.882 0.813Z" id="Path-45" fill="#FFFFFF" transform="translate(65.477 152.323)"/><path d="M17.867 2.116 14.93 1.043C11.9941 2.7968 8.24777 2.36967 5.782-1.71661e-08 1.856 0.575 0.069 0.836 0 4.056L0 5.656C0.00236986 6.78128 0.803408 7.74639 1.909 7.956 7.446 8.688 13.12 9.332 18.894 9.9 19.8969 10.0007 20.7915 9.2694 20.8923 8.26652 20.9007 8.1823 20.9033 8.09758 20.9 8.013L20.9 6.441C20.875 4.51146 19.6694 2.79463 17.863 2.116Z" id="Path-46" fill="#FFFFFF" transform="translate(19.599 136.711)"/><path d="M13.07 8.352C13.4003 4.29525 10.5492 0.669087 6.529 0.0330002 0.678-0.534-2.171 6.42 1.929 11.313 5.747 15.936 12.526 14.111 13.07 8.352Z" id="Path-47" fill="#FFFFFF" transform="translate(23.422 123.535)"/><path d="M0 25.079C6.37 21.245 14.842 16.097 21.161 12.189 14.805 8.576 6.356 3.709 0.051 0Z" id="Path-48" fill="#FFFFFF" transform="translate(194.444 28.564)"/></g><g id="Group-3" transform="matrix(-1 1.22465e-16 -1.22465e-16 -1 88.694 -101)"><path d="M7.607 197.232C5.63616 197.352 3.70305 196.654 2.264 195.302 0.865836 193.667 0.0671919 191.604-6.10352e-08 189.454L0.276 41.774C0.812 36.164 3.596 32.728 8.787 31.274 18.958 29.517 28.465 27.463 37.044 25.168 44.709 23.1604 52.2421 20.6793 59.6 17.739 65.3575 15.4701 70.878 12.6409 76.082 9.292 79.9613 6.86095 83.3719 3.75216 86.151 0.113999 86.2476 0.0256605 86.3781-0.0159904 86.508-1.13988e-06 86.561 0 86.615 0 86.665 0.005L86.685 0.005 86.725 0.005 86.813 0.005C86.8398 0.00550311 86.8665 0.00383094 86.893-1.11759e-10 87.458 1.523 87.607 2.47 87.66 6.7L87.385 154.371C87.34 162.571 86.353 164.809 85.823 166.011L85.805 166.05C83.0244 169.689 79.6125 172.799 75.732 175.231 70.5235 178.583 64.9966 181.412 59.232 183.678 51.877 186.617 44.3465 189.095 36.684 191.1 28.101 193.4 18.597 195.449 8.435 197.2 8.113 197.224 7.835 197.232 7.607 197.232ZM65.417 158.78C65.217 158.784 65.0193 158.824 64.833 158.897 54.565 163.479 43.8939 167.099 32.957 169.709 31.8716 170.034 30.947 170.754 30.365 171.726 29.7551 172.647 29.3874 173.708 29.296 174.809 29.1948 175.779 29.3702 176.758 29.802 177.633 30.2646 178.582 31.2306 179.18 32.286 179.173 32.5061 179.171 32.7256 179.15 32.942 179.11 43.8785 176.499 54.5495 172.88 64.818 168.3 65.5189 167.892 66.06 167.257 66.352 166.5L66.352 166.477C67.373 164.327 67.478 160.937 66.567 159.501 66.3431 159.07 65.9028 158.794 65.417 158.78ZM78.774 150.908C78.6234 150.914 78.4773 150.961 78.352 151.045 76.2226 152.624 73.9969 154.068 71.688 155.37 70.9397 155.913 70.3987 156.694 70.154 157.586 69.291 159.968 69.32 163.061 70.217 164.34 70.4127 164.673 70.7647 164.884 71.151 164.899 71.3368 164.895 71.5195 164.851 71.687 164.771 73.9964 163.47 76.2221 162.026 78.351 160.447 78.551 160.276 79.151 159.756 79.601 157.778L79.601 157.755C80.116 155.485 80.093 152.198 79.292 151.196 79.1741 151.024 78.9823 150.917 78.774 150.908ZM82.324 132.308 82.324 132.308 82.055 132.469C73.095 140.837 56.125 148.341 32.98 154.169 31.8903 154.489 30.9617 155.209 30.38 156.185 29.7702 157.105 29.4028 158.165 29.312 159.265 29.2103 160.234 29.3861 161.213 29.819 162.086 30.2803 163.035 31.2466 163.635 32.302 163.626 32.5242 163.625 32.7458 163.604 32.964 163.562 56.105 157.744 73.075 150.24 82.039 141.862L82.039 141.839C82.7047 140.7 83.0938 139.421 83.175 138.105 83.434 136.561 83.4133 134.983 83.114 133.446 82.939 132.802 82.673 132.419 82.324 132.308ZM82.331 116.765 82.331 116.765 82.063 116.926C73.092 125.304 56.121 132.808 32.987 138.626 31.9013 138.955 30.9753 139.673 30.387 140.643 29.7777 141.566 29.4105 142.628 29.319 143.73 29.2179 144.7 29.394 145.678 29.827 146.552 30.2881 147.5 31.253 148.098 32.307 148.09 32.5271 148.089 32.7467 148.068 32.963 148.027 56.105 142.209 73.075 134.705 82.038 126.327L82.069 126.305C82.7325 125.17 83.1203 123.896 83.201 122.584 83.4589 121.04 83.4369 119.462 83.136 117.926 82.958 117.27 82.687 116.88 82.33 116.766ZM45.672 118.13C45.4617 118.13 45.2523 118.156 45.048 118.206 35.1286 121.193 25.0532 123.636 14.867 125.522 13.6837 125.782 12.6366 126.467 11.923 127.446 10.6417 129.03 10.3394 131.192 11.137 133.067 11.6937 134.255 12.9049 134.996 14.216 134.952 14.4261 134.953 14.636 134.938 14.844 134.908 25.031 133.026 35.1072 130.586 45.027 127.6 45.8883 127.283 46.6124 126.676 47.075 125.883 47.7202 124.868 48.1055 123.71 48.197 122.511 48.3144 121.457 48.1317 120.392 47.67 119.438 47.3144 118.654 46.5374 118.148 45.677 118.138ZM30.488 103.656C29.8783 104.573 29.5111 105.63 29.421 106.727 29.3212 107.699 29.4972 108.679 29.929 109.556 30.3964 110.522 31.3782 111.132 32.451 111.123 32.6643 111.121 32.8771 111.102 33.087 111.064 44.023 108.45 54.6938 104.83 64.963 100.251 65.6668 99.8412 66.2092 99.2028 66.5 98.442 67.518 96.31 67.613 92.919 66.7 91.464 66.4735 91.0303 66.0301 90.7529 65.541 90.739 65.3456 90.7432 65.1525 90.7811 64.97 90.851 54.7015 95.432 44.0305 99.0515 33.094 101.663 32.0083 101.992 31.0823 102.71 30.494 103.68ZM70.314 89.516 70.314 89.516C69.8697 90.7417 69.6492 92.0373 69.663 93.341 69.6144 94.3637 69.849 95.38 70.341 96.278 70.5326 96.6102 70.8809 96.8211 71.264 96.837 71.4475 96.833 71.628 96.7894 71.793 96.709 74.1035 95.4053 76.3316 93.9609 78.465 92.384 78.686 92.184 79.272 91.66 79.715 89.707 80.231 87.436 80.207 84.144 79.403 83.136 79.2861 82.9654 79.0956 82.8598 78.889 82.851 78.7432 82.8562 78.6017 82.9015 78.48 82.982 76.3506 84.5606 74.1249 86.005 71.816 87.307 71.0672 87.8494 70.526 88.6312 70.282 89.523L70.311 89.515ZM82.414 64.242 82.414 64.242 82.146 64.403C73.182 72.782 56.212 80.286 33.07 86.103 31.9869 86.4328 31.0638 87.1511 30.478 88.12 29.8685 89.043 29.5012 90.1047 29.41 91.207 29.309 92.1768 29.4852 93.1553 29.918 94.029 30.3797 94.9761 31.3443 95.574 32.398 95.566 32.6185 95.5649 32.8384 95.5438 33.055 95.503 56.191 89.69 73.161 82.186 82.131 73.803L82.162 73.795C83.117 72.738 83.892 67.814 83.249 65.436 83.066 64.761 82.786 64.359 82.415 64.236ZM82.414 48.706 82.414 48.706C82.325 48.753 82.235 48.806 82.146 48.867 73.192 57.237 56.222 64.741 33.07 70.567 31.9872 70.8975 31.0644 71.6156 30.478 72.584 29.8668 73.5043 29.4981 74.5641 29.406 75.665 29.3021 76.634 29.4755 77.6127 29.906 78.487 30.3686 79.441 31.3398 80.0427 32.4 80.032 32.6201 80.031 32.8397 80.0099 33.056 79.969 56.197 74.152 73.168 66.648 82.132 58.269L82.193 58.261C83.146 57.194 83.903 52.261 83.25 49.89 83.066 49.221 82.785 48.822 82.415 48.706ZM45.787 50.057C45.577 50.0574 45.3679 50.0829 45.164 50.133 35.2486 53.1331 25.1758 55.5855 14.991 57.479 13.8074 57.7374 12.7596 58.4209 12.046 59.4 10.7679 60.9776 10.4669 63.1326 11.264 65 11.8117 66.1809 13.012 66.9202 14.313 66.878 14.5318 66.8767 14.7503 66.8607 14.967 66.83 25.1535 64.9418 35.2289 62.4971 45.148 59.507 46.009 59.1928 46.7343 58.5894 47.2 57.8 47.8448 56.7873 48.2298 55.6311 48.321 54.434 48.4387 53.3804 48.2556 52.3149 47.793 51.361 47.4352 50.5729 46.6525 50.0641 45.787 50.057ZM26.1 36.841C25.7029 36.8651 25.313 36.9571 24.947 37.113L24.44 39.395 24.392 39.611C23.492 43.653 22.804 46.77 22.346 48.876L22.346 48.888C22.098 49.982 21.841 51.113 22.236 51.61 22.3967 51.7944 22.6352 51.8916 22.879 51.872 23.0136 51.8723 23.1477 51.8576 23.279 51.828 23.5417 51.785 23.7989 51.7132 24.046 51.614 24.71 48.591 25.746 43.86 26.615 39.843 26.877 38.615 27.103 37.555 26.727 37.09 26.5696 36.9118 26.3367 36.8194 26.1 36.841ZM16.656 42.241C16.2742 42.2221 15.9092 42.3993 15.688 42.711 15.3991 43.2656 15.2907 43.8967 15.378 44.516L19.127 46.05 16.451 48.159 16.382 48.205C15.6751 48.6435 15.2923 49.4568 15.405 50.281 15.5944 50.8224 16.0996 51.1898 16.673 51.203L20.836 47.537C21.89 46.59 21.505 44.687 21.243 44.237 21.166 44.106 21.166 44.106 17.922 42.573 17.5275 42.3736 17.0955 42.2591 16.654 42.237Z" id="Shape-8" fill="#25A9E0" opacity="0.2" transform="translate(0.077 0.476)"/><path d="M35.911 0.187C35.4267-0.0237665 34.883-0.0546199 34.378 0.1 24.4605 3.09091 14.3859 5.53393 4.2 7.418-0.363 8.545-1.321 14.611 1.9 16.451 2.60021 16.8384 3.41388 16.9685 4.2 16.819 14.3858 14.9337 24.4603 12.4904 34.378 9.5 38.035 8.1 38.58 1.468 35.911 0.187Z" id="Path-49" fill="#00D1C8" transform="translate(10.864 50.537)"/><path d="M53.052 0C52.9574 0.0443994 52.8676 0.0983462 52.784 0.161L52.784 0.161C43.973 8.4 27.226 15.942 3.708 21.862-0.563 23.212-1.138 29.737 1.952 31.125 2.50183 31.3593 3.11312 31.4078 3.693 31.263 27.2 25.351 43.95 17.8 52.768 9.562 54.164 7.745 54.662 0.537 53.052 0Z" id="Path-50" fill="#FFFFFF" transform="translate(29.51 49.175)"/><path d="M53.037 0C52.9441 0.0475259 52.8546 0.101317 52.769 0.161 43.958 8.4 27.211 15.95 3.693 21.862-0.578 23.219-1.123 29.745 1.945 31.14 2.49638 31.3689 3.10674 31.4145 3.686 31.27 27.2 25.358 43.943 17.805 52.761 9.57 54.149 7.745 54.648 0.537 53.037 0Z" id="Path-51" fill="#FFFFFF" transform="translate(29.494 64.711)"/><path d="M36.534 0.058C36.2216-0.0400192 35.8833-0.0123968 35.591 0.135 25.3228 4.71684 14.6518 8.33635 3.715 10.947-0.564 12.3-1.139 18.822 1.951 20.21 2.50178 20.4404 3.1118 20.4888 3.692 20.348 14.6281 17.7351 25.299 14.1156 35.568 9.536 38.459 7.887 38.666 0.771 36.534 0.058Z" id="Path-52" fill="#FFFFFF" transform="translate(29.45 91.192)"/><path d="M9.274 0C9.09685-0.0131478 8.92132 0.0415471 8.783 0.153 6.65451 1.73301 4.42915 3.17817 2.12 4.48-0.664 6.366-0.518 13.766 1.468 14.019 1.6865 14.0334 1.9046 13.9855 2.097 13.881 4.40755 12.578 6.63546 11.1336 8.768 9.556 10.853 7.693 10.769 0.194 9.274 0Z" id="Path-53" fill="#FF85BB" transform="translate(69.792 83.296)"/><path d="M35.922 0.187C35.439-0.0292384 34.8933-0.0602056 34.389 0.1L34.389 0.1C24.4699 3.09003 14.3941 5.53305 4.207 7.418-0.393 8.545-1.314 14.618 1.907 16.451 2.60385 16.848 3.42106 16.9788 4.207 16.819 14.3872 14.9257 24.4555 12.4734 34.366 9.473 38.031 8.1 38.575 1.467 35.922 0.187Z" id="Path-54" fill="#00D1C8" transform="translate(10.738 118.584)"/><path d="M53.059 0C52.9654 0.0462804 52.8758 0.100126 52.791 0.161 43.98 8.4 27.233 15.95 3.715 21.862-0.564 23.219-1.139 29.745 1.951 31.125 2.50083 31.3593 3.11212 31.4078 3.692 31.263 27.21 25.351 43.957 17.8 52.767 9.562 54.209 7.768 54.669 0.537 53.059 0Z" id="Path-55" fill="#FFFFFF" transform="translate(29.373 117.222)"/><path d="M53.059 0C52.9664 0.0479883 52.8769 0.101761 52.791 0.161 43.98 8.4 27.233 15.942 3.715 21.862-0.564 23.212-1.139 29.737 1.951 31.125 2.50406 31.3571 3.11769 31.4028 3.699 31.255 27.209 25.343 43.956 17.79 52.775 9.555 54.178 7.745 54.677 0.537 53.059 0Z" id="Path-56" fill="#FFFFFF" transform="translate(29.342 132.765)"/><path d="M36.529 0.058C36.2166-0.0400192 35.8783-0.0123968 35.586 0.135 25.3183 4.71802 14.6471 8.33756 3.71 10.947-0.569 12.3-1.136 18.822 1.954 20.21 2.50383 20.4443 3.11512 20.4928 3.695 20.348 14.6318 17.7373 25.3028 14.1178 35.571 9.536 38.454 7.948 38.661 0.794 36.529 0.058Z" id="Path-57" fill="#FFFFFF" transform="translate(29.324 159.216)"/><path d="M9.27 0C9.09291-0.0126451 8.91756 0.0419937 8.779 0.153 6.65018 1.73305 4.42449 3.17821 2.115 4.48-0.669 6.374-0.515 13.774 1.471 14.027 1.6902 14.0381 1.90812 13.9876 2.1 13.881 4.40944 12.5799 6.63513 11.1354 8.764 9.556 10.849 7.693 10.765 0.193 9.27 0Z" id="Path-58" fill="#FF85BB" transform="translate(69.665 151.343)"/><path d="M1.191 0.03C-0.343 0.359 0.04 2.33 0.048 2.33L3.8 3.864C0.431 6.509 0.431 6.509 0.232 6.931 0.232 6.931-0.627 8.779 1.344 9.024 5.715 5.19 5.715 5.19 5.868 4.93 6.33947 3.97947 6.32233 2.85966 5.822 1.924 1.674-0.062 1.674-0.062 1.191 0.03Z" id="Path-59" fill="#FFFFFF" transform="translate(15.403 42.674)"/><path d="M3.7 0.047C3.43829 0.0982488 3.18162 0.172538 2.933 0.269 0.025 13.412 0.025 13.412 0.009 13.681-0.052 14.617 0.147 15.475 2.026 14.77 4.886 1.67 4.886 1.67 4.902 1.543 4.978 1.021 5.116-0.26 3.7 0.047Z" id="Path-60" fill="#FFFFFF" transform="translate(22.075 37.32)"/></g><g id="Group-4" transform="matrix(-1 1.22465e-16 -1.22465e-16 -1 508.77 -45)"><path d="M116.271 265.5 116.271 265.5C95.9813 262.49 75.9043 258.189 56.162 252.623 37.973 247.349 22.851 241.323 11.219 234.704 7.30429 232.517 3.55464 230.046-1.37329e-07 227.312L0.355 36.455C3.91451 39.1846 7.6655 41.6549 11.579 43.847 23.215 50.465 38.332 56.494 56.511 61.766 76.2561 67.3346 96.3371 71.6351 116.631 74.641L116.271 265.5 116.271 265.5ZM17.928 207.321 17.782 211.721C29.9949 217.59 42.698 222.379 55.746 226.033 71.563 230.55 87.6132 234.207 103.826 236.987L103.826 232.587C87.6186 229.808 71.5743 226.151 55.764 221.63 42.7547 217.985 30.0934 213.197 17.928 207.321ZM17.928 196.839 17.935 201.248C30.1357 207.136 42.8323 211.936 55.877 215.591 71.6957 220.112 87.748 223.771 103.963 226.553L103.963 222.144C87.7448 219.36 71.69 215.696 55.87 211.168 42.8291 207.507 30.1334 202.712 17.928 196.839ZM17.928 182.952 17.928 188.036C25.6727 191.822 33.6509 195.111 41.814 197.882L41.814 192.8C33.6508 190.028 25.6726 186.739 17.928 182.952ZM8.122 173.868C8.094 173.868 8.061 173.868 7.997 173.873 7.022 173.948 6.208 174.989 5.706 176.805 5.05584 179.603 4.99997 182.506 5.542 185.327 6.16 188.718 7.46 191.264 9.201 192.498 9.53522 192.712 9.92422 192.824 10.321 192.822 10.9682 192.824 11.5797 192.526 11.977 192.015 13.101 190.757 13.661 188.408 13.554 185.402 13.4563 182.678 12.8633 179.995 11.804 177.483 10.76 175.151 9.464 173.867 8.155 173.867L8.123 173.867ZM18 148.04 18 152.44C30.2053 158.307 42.9007 163.094 55.941 166.747 71.7604 171.264 87.8125 174.923 104.027 177.706L104.027 173.306C87.8104 170.539 71.7577 166.885 55.941 162.361 42.9009 158.702 30.2055 153.91 18 148.04ZM18 137.558 18 141.967C30.2031 147.851 42.9004 152.65 55.945 156.307 71.7651 160.83 87.819 164.49 104.036 167.272L104.036 162.863C87.8195 160.079 71.7668 156.414 55.949 151.884 42.907 148.221 30.2093 143.427 18 137.558ZM18 123.671 17.938 128.716C25.6978 132.521 33.6943 135.822 41.878 138.6L41.878 133.517C33.717 130.747 25.7414 127.458 18 123.671ZM8.233 114.579C8.201 114.579 8.159 114.579 8.108 114.579 7.121 114.664 6.301 115.735 5.799 117.592 5.16377 120.385 5.11678 123.28 5.661 126.092 6.283 129.456 7.582 131.984 9.319 133.208 9.65101 133.421 10.0375 133.534 10.432 133.532 11.0806 133.534 11.6929 133.233 12.087 132.718 13.21 131.462 13.771 129.118 13.666 126.113 13.5721 123.39 12.9803 120.707 11.92 118.197 10.874 115.858 9.575 114.57 8.262 114.57L8.232 114.57ZM18.059 88.75 18.059 93.159C30.2642 99.0262 42.9597 103.813 56 107.466 71.8213 111.985 87.8759 115.643 104.093 118.425L104.093 114.016C87.8743 111.249 71.8193 107.596 56 103.074 42.9589 99.4168 30.2633 94.6238 18.059 88.75ZM18.059 78.283 18.059 82.683C30.2603 88.5683 42.9564 93.3672 56 97.024 71.8187 101.545 87.871 105.206 104.086 107.989L104.086 103.589C87.8699 100.805 71.8175 97.1392 56 92.609 42.9606 88.9457 30.2655 84.1522 18.059 78.283ZM18.059 64.389 18.066 69.504C25.8082 73.2923 33.7841 76.5833 41.945 79.357L41.945 74.272C33.7807 71.4895 25.8025 68.1884 18.059 64.389ZM8.367 55.3C8.316 55.3 8.267 55.3 8.213 55.306 7.238 55.383 6.425 56.427 5.923 58.248 5.27471 61.0459 5.21987 63.9486 5.762 66.769 6.381 70.157 7.681 72.703 9.424 73.94 10.338 74.514 11.5383 74.3017 12.2 73.449 13.322 72.192 13.88 69.849 13.773 66.841 13.677 64.1171 13.0839 61.4337 12.023 58.923 10.977 56.582 9.679 55.3 8.367 55.3Z" id="Shape-9" fill="#25A9E0" opacity="0.2" transform="matrix(1 0 0 1 0 28.883)"/><path d="M116.271 74.641C95.9813 71.6315 75.9043 67.3312 56.162 61.766 37.973 56.491 22.852 50.466 11.219 43.847 7.30708 41.6546 3.55776 39.1839-1.37329e-07 36.454L0.069 0C3.62654 2.72988 7.37589 5.20026 11.288 7.392 22.924 14.01 38.042 20.039 56.22 25.311 75.9655 30.8782 96.0464 35.1789 116.34 38.187L116.271 74.639ZM8.087 13.7 8.087 13.7C8.034 13.7 7.981 13.7 7.929 13.706 6.956 13.781 6.144 14.821 5.641 16.636 4.99074 19.4349 4.93487 22.3391 5.477 25.161 6.1 28.558 7.4 31.107 9.14 32.344 10.054 32.918 11.2543 32.7057 11.916 31.853 13.04 30.599 13.602 28.253 13.498 25.253 13.4044 22.532 12.8144 19.8509 11.757 17.342 10.708 15 9.405 13.7 8.088 13.7Z" id="Shape-10" fill="#6852ED" transform="translate(0.353 28.883)"/><path d="M4.027 0.279C-0.16-1.768-0.988 7.909 1.106 14.082 2.747 18.936 5.706 20.37 7.378 17.149 9.978 12.28 7.531 2.334 4.027 0.279Z" id="Path-61" fill="#FFFFFF" transform="translate(5.504 42.651)"/><path d="M4.027 0.281 4.027 0.281C-0.16-1.774-0.988 7.9 1.106 14.084 2.747 18.938 5.706 20.384 7.378 17.151 9.978 12.274 7.508 2.336 4.027 0.281Z" id="Path-62" fill="#FFFFFF" transform="translate(5.428 84.249)"/><path d="M0.008 5.076C7.74916 8.86626 15.7248 12.1576 23.886 14.93L23.886 9.846C15.7219 7.07752 7.74354 3.78879-3.20435e-07-2.82288e-07Z" id="Path-63" fill="#FFFFFF" transform="translate(18.043 93.271)"/><path d="M0 4.4C21.3 15 51.2 23.57 86.028 29.7L86.028 25.3C51.2 19.17 21.3 10.636 0 0Z" id="Path-64" fill="#FFFFFF" transform="translate(18.028 107.189)"/><path d="M0 4.409C21.3 15.009 51.2 23.579 86.036 29.675L86.036 25.266C51.2 19.132 21.3 10.6 0 0Z" id="Path-65" fill="#FFFFFF" transform="translate(18.005 117.633)"/><path d="M4.027 0.281C-0.16-1.774-0.988 7.9 1.106 14.084 2.747 18.938 5.706 20.384 7.378 17.151 10.016 12.289 7.5 2.352 4.027 0.281Z" id="Path-66" fill="#FFFFFF" transform="translate(5.32 143.515)"/><path d="M0 5.076C7.74185 8.87082 15.7204 12.1623 23.886 14.93L23.886 9.846C15.7239 7.07894 7.74818 3.79016 0.00799968-2.82288e-07Z" id="Path-67" fill="#FFFFFF" transform="translate(17.936 152.522)"/><path d="M0 4.409C21.3 15.009 51.207 23.579 86.036 29.709L86.036 25.3C51.207 19.17 21.31 10.636 0 0Z" id="Path-68" fill="#FFFFFF" transform="translate(17.913 166.44)"/><path d="M0 4.4C21.3 15 51.2 23.572 86.028 29.668L86.028 25.268C51.2 19.132 21.3 10.6 0 0Z" id="Path-69" fill="#FFFFFF" transform="translate(17.897 176.922)"/><path d="M4.033 0.279C-0.154-1.768-0.99 7.9 1.1 14.082 2.741 18.936 5.7 20.37 7.38 17.149 9.983 12.3 7.506 2.327 4.033 0.279Z" id="Path-70" fill="#FFFFFF" transform="translate(5.207 202.814)"/><path d="M0 5.084C7.74354 8.87279 15.7219 12.1615 23.886 14.93L23.886 9.846C15.7219 7.07752 7.74354 3.78879-3.20435e-07-2.82288e-07Z" id="Path-71" fill="#FFFFFF" transform="translate(17.828 211.835)"/><path d="M0.008 4.409C21.308 15.009 51.208 23.579 86.036 29.709L86.036 25.3 86.036 25.3C51.2 19.17 21.3 10.643 0 0Z" id="Path-72" fill="#FFFFFF" transform="translate(17.798 225.722)"/><path d="M0 4.4C21.325 15 51.23 23.539 86.036 29.666L86.036 25.266 86.036 25.266C51.23 19.139 21.325 10.6 0.008 0Z" id="Path-73" fill="#FFFFFF" transform="translate(17.782 236.204)"/><path d="M8.21 21C7.359 21.575 7.443 22.756 6.676 23.385 6.576 23.331 0.7 12.3 3.1 9.153 3.55549 8.70281 3.80265 8.08309 3.782 7.443 3.782 7.374 2.639 0.48 2.182 0.166-0.824-1.444-0.678 8.923 2.397 19.305 5.081 28.392 8.931 33.2 10.825 29.8 12.742 26.284 8.677 21.276 8.21 21Z" id="Path-74" fill="#BA43FC" transform="translate(38.988 0.315)"/><path d="M13.557 14.125C12.8245 14.6422 11.8993 14.8054 11.034 14.57L11.034 14.57C7.921 13.365 0.061 0.13 0 0L0 14.907C-0.0949745 16.401 0.638308 17.8265 1.909 18.618 7.81367 20.7907 14.104 22.8353 20.78 24.752 22.038 25.028 22.896 24.093 22.965 22.375L22.965 7.461C21.655 9.018 13.634 14.079 13.557 14.125Z" id="Path-75" fill="#BA43FC" transform="translate(73.852 24.674)"/><path d="M20.771 6.195C14.115 4.27 7.8 2.215 1.9 0.06-0.056-0.507-0.991 3 1.524 7.452 1.585 7.567 9.016 19.199 11.009 20.043L11.009 20.043C12.918 20.48 21.376 13.643 21.445 13.563 23.0252 11.9529 23.3618 9.49682 22.273 7.521 21.9481 6.91324 21.4158 6.44234 20.773 6.194Z" id="Path-76" fill="#BA43FC" transform="translate(73.854 16.8)"/></g></g></g></g></svg>