<?xml version="1.0" encoding="UTF-8"?>
<svg xmlns="http://www.w3.org/2000/svg" xmlns:xlink="http://www.w3.org/1999/xlink" width="1201.35pt" height="702.86pt" viewBox="0 0 1201.35 702.86" version="1.1">
<defs>
<clipPath id="clip1">
  <path d="M 0 0 L 1201.351563 0 L 1201.351563 702.859375 L 0 702.859375 Z M 0 0 "/>
</clipPath>
<clipPath id="clip2">
  <path d="M 205.265625 34.234375 L 564.019531 34.234375 L 564.019531 702.859375 L 205.265625 702.859375 Z M 205.265625 34.234375 "/>
</clipPath>
<filter id="alpha" filterUnits="objectBoundingBox" x="0%" y="0%" width="100%" height="100%">
  <feColorMatrix type="matrix" in="SourceGraphic" values="0 0 0 0 1 0 0 0 0 1 0 0 0 0 1 0 0 0 1 0"/>
</filter>
<mask id="mask0">
  <g filter="url(#alpha)">
<rect x="0" y="0" width="1201.35" height="702.86" style="fill:rgb(0%,0%,0%);fill-opacity:0.800003;stroke:none;"/>
  </g>
</mask>
<clipPath id="clip4">
  <path d="M 0.265625 615 L 359.019531 615 L 359.019531 668.859375 L 0.265625 668.859375 Z M 0.265625 615 "/>
</clipPath>
<clipPath id="clip5">
  <path d="M 215.074219 281.855469 L 260.476563 281.855469 L 260.476563 326.402344 L 215.074219 326.402344 Z M 215.074219 281.855469 "/>
</clipPath>
<mask id="mask1">
  <g filter="url(#alpha)">
<rect x="0" y="0" width="360" height="669" style="fill:rgb(0%,0%,0%);fill-opacity:0.100006;stroke:none;"/>
  </g>
</mask>
<clipPath id="clip7">
  <path d="M 0.0742188 0.855469 L 45.476563 0.855469 L 45.476563 45.402344 L 0.0742188 45.402344 Z M 0.0742188 0.855469 "/>
</clipPath>
<clipPath id="clip6">
  <rect width="46" height="46"/>
</clipPath>
<g id="surface9" clip-path="url(#clip6)">
<g clip-path="url(#clip7)" clip-rule="nonzero">
<path style=" stroke:none;fill-rule:nonzero;fill:rgb(93.75%,96.09375%,97.264099%);fill-opacity:1;" d="M 26.84375 45.402344 L 0.0742188 45.402344 L 18.710938 0.855469 L 45.476563 0.855469 Z M 26.84375 45.402344 "/>
</g>
</g>
<clipPath id="clip8">
  <path d="M 261.257813 281.855469 L 288.804688 281.855469 L 288.804688 326.402344 L 261.257813 326.402344 Z M 261.257813 281.855469 "/>
</clipPath>
<mask id="mask2">
  <g filter="url(#alpha)">
<rect x="0" y="0" width="360" height="669" style="fill:rgb(0%,0%,0%);fill-opacity:0.100006;stroke:none;"/>
  </g>
</mask>
<clipPath id="clip10">
  <path d="M 0.257813 0.855469 L 27.804688 0.855469 L 27.804688 45.402344 L 0.257813 45.402344 Z M 0.257813 0.855469 "/>
</clipPath>
<clipPath id="clip9">
  <rect width="28" height="46"/>
</clipPath>
<g id="surface12" clip-path="url(#clip9)">
<g clip-path="url(#clip10)" clip-rule="nonzero">
<path style=" stroke:none;fill-rule:nonzero;fill:rgb(93.75%,96.09375%,97.264099%);fill-opacity:1;" d="M 9.171875 45.402344 L 0.257813 45.402344 L 18.894531 0.855469 L 27.804688 0.855469 Z M 9.171875 45.402344 "/>
</g>
</g>
<clipPath id="clip11">
  <path d="M 58 406 L 301 406 L 301 668.859375 L 58 668.859375 Z M 58 406 "/>
</clipPath>
<clipPath id="clip12">
  <path d="M 202 660 L 301 660 L 301 668.859375 L 202 668.859375 Z M 202 660 "/>
</clipPath>
<clipPath id="clip13">
  <path d="M 58 660 L 96 660 L 96 668.859375 L 58 668.859375 Z M 58 660 "/>
</clipPath>
<clipPath id="clip14">
  <path d="M 95 342 L 169 342 L 169 668.859375 L 95 668.859375 Z M 95 342 "/>
</clipPath>
<clipPath id="clip15">
  <path d="M 95 342 L 116 342 L 116 668.859375 L 95 668.859375 Z M 95 342 "/>
</clipPath>
<clipPath id="clip16">
  <path d="M 131 342 L 142 342 L 142 668.859375 L 131 668.859375 Z M 131 342 "/>
</clipPath>
<clipPath id="clip17">
  <path d="M 95.832031 498.632813 L 168.015625 498.632813 L 168.015625 597.800781 L 95.832031 597.800781 Z M 95.832031 498.632813 "/>
</clipPath>
<mask id="mask3">
  <g filter="url(#alpha)">
<rect x="0" y="0" width="360" height="669" style="fill:rgb(0%,0%,0%);fill-opacity:0.100006;stroke:none;"/>
  </g>
</mask>
<clipPath id="clip19">
  <path d="M 0.832031 0.632813 L 73.015625 0.632813 L 73.015625 99.800781 L 0.832031 99.800781 Z M 0.832031 0.632813 "/>
</clipPath>
<clipPath id="clip18">
  <rect width="74" height="100"/>
</clipPath>
<g id="surface15" clip-path="url(#clip18)">
<g clip-path="url(#clip19)" clip-rule="nonzero">
<path style=" stroke:none;fill-rule:nonzero;fill:rgb(93.75%,96.09375%,97.264099%);fill-opacity:1;" d="M 73.015625 27.550781 L 0.832031 99.800781 L 0.832031 72.882813 L 73.015625 0.632813 Z M 73.015625 27.550781 "/>
</g>
</g>
<clipPath id="clip20">
  <path d="M 95.832031 342.613281 L 168.015625 342.613281 L 168.015625 533.421875 L 95.832031 533.421875 Z M 95.832031 342.613281 "/>
</clipPath>
<mask id="mask4">
  <g filter="url(#alpha)">
<rect x="0" y="0" width="360" height="669" style="fill:rgb(0%,0%,0%);fill-opacity:0.100006;stroke:none;"/>
  </g>
</mask>
<clipPath id="clip22">
  <path d="M 0.832031 0.613281 L 73.015625 0.613281 L 73.015625 191.421875 L 0.832031 191.421875 Z M 0.832031 0.613281 "/>
</clipPath>
<clipPath id="clip21">
  <rect width="74" height="192"/>
</clipPath>
<g id="surface18" clip-path="url(#clip21)">
<g clip-path="url(#clip22)" clip-rule="nonzero">
<path style=" stroke:none;fill-rule:nonzero;fill:rgb(93.75%,96.09375%,97.264099%);fill-opacity:1;" d="M 73.015625 119.175781 L 0.832031 191.421875 L 0.832031 0.609375 L 73.015625 0.609375 Z M 73.015625 119.175781 "/>
</g>
</g>
<clipPath id="clip23">
  <path d="M 168 334 L 203 334 L 203 668.859375 L 168 668.859375 Z M 168 334 "/>
</clipPath>
<clipPath id="clip24">
  <path d="M 168.015625 342.613281 L 202.917969 342.613281 L 202.917969 461.175781 L 168.015625 461.175781 Z M 168.015625 342.613281 "/>
</clipPath>
<mask id="mask5">
  <g filter="url(#alpha)">
<rect x="0" y="0" width="360" height="669" style="fill:rgb(0%,0%,0%);fill-opacity:0.0500031;stroke:none;"/>
  </g>
</mask>
<clipPath id="clip26">
  <path d="M 0.015625 0.613281 L 34.914063 0.613281 L 34.914063 119.175781 L 0.015625 119.175781 Z M 0.015625 0.613281 "/>
</clipPath>
<clipPath id="clip25">
  <rect width="35" height="120"/>
</clipPath>
<g id="surface21" clip-path="url(#clip25)">
<g clip-path="url(#clip26)" clip-rule="nonzero">
<path style=" stroke:none;fill-rule:nonzero;fill:rgb(93.75%,96.09375%,97.264099%);fill-opacity:1;" d="M 0.015625 119.175781 L 34.914063 66.976563 L 34.914063 0.609375 L 0.015625 0.609375 Z M 0.015625 119.175781 "/>
</g>
</g>
<clipPath id="clip27">
  <path d="M 168.015625 447.714844 L 202.917969 447.714844 L 202.917969 525.550781 L 168.015625 525.550781 Z M 168.015625 447.714844 "/>
</clipPath>
<mask id="mask6">
  <g filter="url(#alpha)">
<rect x="0" y="0" width="360" height="669" style="fill:rgb(0%,0%,0%);fill-opacity:0.100006;stroke:none;"/>
  </g>
</mask>
<clipPath id="clip29">
  <path d="M 0.015625 0.714844 L 34.914063 0.714844 L 34.914063 78.550781 L 0.015625 78.550781 Z M 0.015625 0.714844 "/>
</clipPath>
<clipPath id="clip28">
  <rect width="35" height="79"/>
</clipPath>
<g id="surface24" clip-path="url(#clip28)">
<g clip-path="url(#clip29)" clip-rule="nonzero">
<path style=" stroke:none;fill-rule:nonzero;fill:rgb(93.75%,96.09375%,97.264099%);fill-opacity:1;" d="M 0.015625 51.632813 L 0.015625 78.550781 L 34.914063 27.632813 L 34.914063 0.714844 Z M 0.015625 51.632813 "/>
</g>
</g>
<clipPath id="clip30">
  <path d="M 95 0.234375 L 169 0.234375 L 169 9 L 95 9 Z M 95 0.234375 "/>
</clipPath>
<clipPath id="clip31">
  <path d="M 95.832031 164.234375 L 168.015625 164.234375 L 168.015625 263.402344 L 95.832031 263.402344 Z M 95.832031 164.234375 "/>
</clipPath>
<mask id="mask7">
  <g filter="url(#alpha)">
<rect x="0" y="0" width="360" height="669" style="fill:rgb(0%,0%,0%);fill-opacity:0.100006;stroke:none;"/>
  </g>
</mask>
<clipPath id="clip33">
  <path d="M 0.832031 0.234375 L 73.015625 0.234375 L 73.015625 99.402344 L 0.832031 99.402344 Z M 0.832031 0.234375 "/>
</clipPath>
<clipPath id="clip32">
  <rect width="74" height="100"/>
</clipPath>
<g id="surface27" clip-path="url(#clip32)">
<g clip-path="url(#clip33)" clip-rule="nonzero">
<path style=" stroke:none;fill-rule:nonzero;fill:rgb(93.75%,96.09375%,97.264099%);fill-opacity:1;" d="M 73.015625 27.152344 L 0.832031 99.402344 L 0.832031 72.484375 L 73.015625 0.234375 Z M 73.015625 27.152344 "/>
</g>
</g>
<clipPath id="clip34">
  <path d="M 95.832031 8.214844 L 168.015625 8.214844 L 168.015625 199.023438 L 95.832031 199.023438 Z M 95.832031 8.214844 "/>
</clipPath>
<mask id="mask8">
  <g filter="url(#alpha)">
<rect x="0" y="0" width="360" height="669" style="fill:rgb(0%,0%,0%);fill-opacity:0.100006;stroke:none;"/>
  </g>
</mask>
<clipPath id="clip36">
  <path d="M 0.832031 0.214844 L 73.015625 0.214844 L 73.015625 191.023438 L 0.832031 191.023438 Z M 0.832031 0.214844 "/>
</clipPath>
<clipPath id="clip35">
  <rect width="74" height="192"/>
</clipPath>
<g id="surface30" clip-path="url(#clip35)">
<g clip-path="url(#clip36)" clip-rule="nonzero">
<path style=" stroke:none;fill-rule:nonzero;fill:rgb(93.75%,96.09375%,97.264099%);fill-opacity:1;" d="M 73.015625 118.777344 L 0.832031 191.023438 L 0.832031 0.214844 L 73.015625 0.214844 Z M 73.015625 118.777344 "/>
</g>
</g>
<clipPath id="clip37">
  <path d="M 168 0.234375 L 203 0.234375 L 203 335 L 168 335 Z M 168 0.234375 "/>
</clipPath>
<clipPath id="clip38">
  <path d="M 168 0.234375 L 203 0.234375 L 203 9 L 168 9 Z M 168 0.234375 "/>
</clipPath>
<clipPath id="clip39">
  <path d="M 168.015625 8.214844 L 202.917969 8.214844 L 202.917969 126.777344 L 168.015625 126.777344 Z M 168.015625 8.214844 "/>
</clipPath>
<mask id="mask9">
  <g filter="url(#alpha)">
<rect x="0" y="0" width="360" height="669" style="fill:rgb(0%,0%,0%);fill-opacity:0.0500031;stroke:none;"/>
  </g>
</mask>
<clipPath id="clip41">
  <path d="M 0.015625 0.214844 L 34.914063 0.214844 L 34.914063 118.777344 L 0.015625 118.777344 Z M 0.015625 0.214844 "/>
</clipPath>
<clipPath id="clip40">
  <rect width="35" height="119"/>
</clipPath>
<g id="surface33" clip-path="url(#clip40)">
<g clip-path="url(#clip41)" clip-rule="nonzero">
<path style=" stroke:none;fill-rule:nonzero;fill:rgb(93.75%,96.09375%,97.264099%);fill-opacity:1;" d="M 0.015625 118.777344 L 34.914063 66.578125 L 34.914063 0.214844 L 0.015625 0.214844 Z M 0.015625 118.777344 "/>
</g>
</g>
<clipPath id="clip42">
  <path d="M 168.015625 113.316406 L 202.917969 113.316406 L 202.917969 191.152344 L 168.015625 191.152344 Z M 168.015625 113.316406 "/>
</clipPath>
<mask id="mask10">
  <g filter="url(#alpha)">
<rect x="0" y="0" width="360" height="669" style="fill:rgb(0%,0%,0%);fill-opacity:0.100006;stroke:none;"/>
  </g>
</mask>
<clipPath id="clip44">
  <path d="M 0.015625 0.316406 L 34.914063 0.316406 L 34.914063 78.152344 L 0.015625 78.152344 Z M 0.015625 0.316406 "/>
</clipPath>
<clipPath id="clip43">
  <rect width="35" height="79"/>
</clipPath>
<g id="surface36" clip-path="url(#clip43)">
<g clip-path="url(#clip44)" clip-rule="nonzero">
<path style=" stroke:none;fill-rule:nonzero;fill:rgb(93.75%,96.09375%,97.264099%);fill-opacity:1;" d="M 0.015625 51.234375 L 0.015625 78.152344 L 34.914063 27.234375 L 34.914063 0.316406 Z M 0.015625 51.234375 "/>
</g>
</g>
<clipPath id="clip45">
  <path d="M 215.074219 615.953125 L 260.476563 615.953125 L 260.476563 660.5 L 215.074219 660.5 Z M 215.074219 615.953125 "/>
</clipPath>
<mask id="mask11">
  <g filter="url(#alpha)">
<rect x="0" y="0" width="360" height="669" style="fill:rgb(0%,0%,0%);fill-opacity:0.100006;stroke:none;"/>
  </g>
</mask>
<clipPath id="clip47">
  <path d="M 0.0742188 0.953125 L 45.476563 0.953125 L 45.476563 45.5 L 0.0742188 45.5 Z M 0.0742188 0.953125 "/>
</clipPath>
<clipPath id="clip46">
  <rect width="46" height="46"/>
</clipPath>
<g id="surface39" clip-path="url(#clip46)">
<g clip-path="url(#clip47)" clip-rule="nonzero">
<path style=" stroke:none;fill-rule:nonzero;fill:rgb(93.75%,96.09375%,97.264099%);fill-opacity:1;" d="M 26.84375 45.5 L 0.0742188 45.5 L 18.710938 0.953125 L 45.476563 0.953125 Z M 26.84375 45.5 "/>
</g>
</g>
<clipPath id="clip48">
  <path d="M 261.257813 615.953125 L 288.804688 615.953125 L 288.804688 660.5 L 261.257813 660.5 Z M 261.257813 615.953125 "/>
</clipPath>
<mask id="mask12">
  <g filter="url(#alpha)">
<rect x="0" y="0" width="360" height="669" style="fill:rgb(0%,0%,0%);fill-opacity:0.100006;stroke:none;"/>
  </g>
</mask>
<clipPath id="clip50">
  <path d="M 0.257813 0.953125 L 27.804688 0.953125 L 27.804688 45.5 L 0.257813 45.5 Z M 0.257813 0.953125 "/>
</clipPath>
<clipPath id="clip49">
  <rect width="28" height="46"/>
</clipPath>
<g id="surface41" clip-path="url(#clip49)">
<g clip-path="url(#clip50)" clip-rule="nonzero">
<path style=" stroke:none;fill-rule:nonzero;fill:rgb(93.75%,96.09375%,97.264099%);fill-opacity:1;" d="M 9.171875 45.5 L 0.257813 45.5 L 18.894531 0.953125 L 27.804688 0.953125 Z M 9.171875 45.5 "/>
</g>
</g>
<clipPath id="clip3">
  <rect width="360" height="669"/>
</clipPath>
<g id="surface5" clip-path="url(#clip3)">
<g clip-path="url(#clip4)" clip-rule="nonzero">
<path style=" stroke:none;fill-rule:nonzero;fill:rgb(9.008789%,52.146912%,23.143005%);fill-opacity:1;" d="M 0.265625 668.859375 L 359.019531 668.859375 C 359.019531 596.136719 323.976563 611.394531 323.175781 638.042969 C 321.734375 630.082031 315.175781 627.746094 311.183594 628.515625 C 308.515625 629.03125 306.390625 635.042969 306.921875 644.613281 C 303.457031 635.808594 294.035156 623.113281 284.136719 621.808594 C 257.890625 618.347656 248.296875 638.347656 247.246094 652.5 C 245.203125 651.070313 242.773438 650.238281 240.164063 650.238281 C 237.644531 650.238281 235.289063 651.015625 233.292969 652.355469 C 231.007813 644.054688 223.9375 638.007813 215.566406 638.007813 C 206.171875 638.007813 198.417969 645.628906 197.226563 655.492188 C 194.722656 652.867188 190.828125 651.171875 186.445313 651.171875 C 180.21875 651.171875 174.960938 654.59375 173.324219 659.265625 C 171.117188 658.554688 168.4375 658.140625 165.550781 658.140625 C 164.433594 658.140625 163.34375 658.203125 162.300781 658.320313 C 162.699219 657.125 162.921875 655.835938 162.921875 654.484375 C 162.921875 648.304688 158.316406 643.300781 152.640625 643.300781 C 148.164063 643.300781 144.363281 646.410156 142.949219 650.75 C 141.957031 648.84375 140.46875 647.625 138.800781 647.625 C 136.574219 647.625 134.65625 649.800781 133.832031 652.902344 C 132.5 652.164063 130.996094 651.746094 129.402344 651.746094 C 124.019531 651.746094 119.648438 656.496094 119.648438 662.355469 C 119.648438 662.382813 119.652344 662.40625 119.652344 662.429688 C 114.597656 657.578125 107 654.484375 98.503906 654.484375 C 94.007813 654.484375 89.765625 655.355469 86.011719 656.898438 C 86.78125 651.167969 85.085938 645.875 81.199219 643.433594 C 77.324219 641 72.289063 642.03125 68.125 645.585938 C 62.664063 632.484375 50.539063 623.367188 36.453125 623.367188 C 26.40625 623.367188 0.265625 633.984375 0.265625 668.859375 "/>
</g>
<path style=" stroke:none;fill-rule:nonzero;fill:rgb(87.5%,89.0625%,91.014099%);fill-opacity:1;" d="M 58.320313 72.578125 L 300.964844 72.578125 L 300.964844 63.371094 L 58.320313 63.371094 Z M 58.320313 72.578125 "/>
<path style=" stroke:none;fill-rule:nonzero;fill:rgb(93.75%,96.09375%,97.264099%);fill-opacity:1;" d="M 58.320313 334.679688 L 300.964844 334.679688 L 300.964844 71.996094 L 58.320313 71.996094 Z M 58.320313 334.679688 "/>
<path style=" stroke:none;fill-rule:nonzero;fill:rgb(87.5%,89.0625%,91.014099%);fill-opacity:1;" d="M 202.914063 334.679688 L 300.964844 334.679688 L 300.964844 326.402344 L 202.914063 326.402344 Z M 202.914063 334.679688 "/>
<path style=" stroke:none;fill-rule:nonzero;fill:rgb(87.5%,89.0625%,91.014099%);fill-opacity:1;" d="M 58.324219 334.679688 L 95.898438 334.679688 L 95.898438 326.402344 L 58.324219 326.402344 Z M 58.324219 334.679688 "/>
<path style=" stroke:none;fill-rule:nonzero;fill:rgb(0.784302%,38.035583%,61.914063%);fill-opacity:1;" d="M 215.074219 326.402344 L 288.804688 326.402344 L 288.804688 281.855469 L 215.074219 281.855469 Z M 215.074219 326.402344 "/>
<g clip-path="url(#clip5)" clip-rule="nonzero">
<use xlink:href="#surface9" transform="matrix(1,0,0,1,215,281)" mask="url(#mask1)"/>
</g>
<g clip-path="url(#clip8)" clip-rule="nonzero">
<use xlink:href="#surface12" transform="matrix(1,0,0,1,261,281)" mask="url(#mask2)"/>
</g>
<path style=" stroke:none;fill-rule:nonzero;fill:rgb(0%,27.43988%,47.459412%);fill-opacity:1;" d="M 215.074219 291.988281 L 288.804688 291.988281 L 288.804688 289.84375 L 215.074219 289.84375 Z M 215.074219 291.988281 "/>
<path style=" stroke:none;fill-rule:nonzero;fill:rgb(0%,27.43988%,47.459412%);fill-opacity:1;" d="M 236.902344 326.402344 L 239.050781 326.402344 L 239.050781 281.855469 L 236.902344 281.855469 Z M 236.902344 326.402344 "/>
<path style=" stroke:none;fill-rule:nonzero;fill:rgb(0%,27.43988%,47.459412%);fill-opacity:1;" d="M 264.828125 326.402344 L 266.976563 326.402344 L 266.976563 281.855469 L 264.828125 281.855469 Z M 264.828125 326.402344 "/>
<path style=" stroke:none;fill-rule:nonzero;fill:rgb(2.352905%,45.092773%,63.867188%);fill-opacity:1;" d="M 215.074219 94.675781 L 245.582031 94.675781 L 245.582031 87.609375 L 215.074219 87.609375 Z M 215.074219 94.675781 "/>
<path style=" stroke:none;fill-rule:nonzero;fill:rgb(2.352905%,45.092773%,63.867188%);fill-opacity:1;" d="M 215.074219 113.257813 L 245.582031 113.257813 L 245.582031 106.1875 L 215.074219 106.1875 Z M 215.074219 113.257813 "/>
<path style=" stroke:none;fill-rule:nonzero;fill:rgb(2.352905%,45.092773%,63.867188%);fill-opacity:1;" d="M 215.074219 131.839844 L 245.582031 131.839844 L 245.582031 124.769531 L 215.074219 124.769531 Z M 215.074219 131.839844 "/>
<path style=" stroke:none;fill-rule:nonzero;fill:rgb(2.352905%,45.092773%,63.867188%);fill-opacity:1;" d="M 215.074219 150.417969 L 245.582031 150.417969 L 245.582031 143.347656 L 215.074219 143.347656 Z M 215.074219 150.417969 "/>
<path style=" stroke:none;fill-rule:nonzero;fill:rgb(2.352905%,45.092773%,63.867188%);fill-opacity:1;" d="M 215.074219 169 L 245.582031 169 L 245.582031 161.929688 L 215.074219 161.929688 Z M 215.074219 169 "/>
<path style=" stroke:none;fill-rule:nonzero;fill:rgb(2.352905%,45.092773%,63.867188%);fill-opacity:1;" d="M 215.074219 187.582031 L 245.582031 187.582031 L 245.582031 180.511719 L 215.074219 180.511719 Z M 215.074219 187.582031 "/>
<path style=" stroke:none;fill-rule:nonzero;fill:rgb(2.352905%,45.092773%,63.867188%);fill-opacity:1;" d="M 215.074219 206.160156 L 245.582031 206.160156 L 245.582031 199.09375 L 215.074219 199.09375 Z M 215.074219 206.160156 "/>
<path style=" stroke:none;fill-rule:nonzero;fill:rgb(2.352905%,45.092773%,63.867188%);fill-opacity:1;" d="M 215.074219 224.742188 L 245.582031 224.742188 L 245.582031 217.671875 L 215.074219 217.671875 Z M 215.074219 224.742188 "/>
<path style=" stroke:none;fill-rule:nonzero;fill:rgb(2.352905%,45.092773%,63.867188%);fill-opacity:1;" d="M 215.074219 243.324219 L 245.582031 243.324219 L 245.582031 236.253906 L 215.074219 236.253906 Z M 215.074219 243.324219 "/>
<path style=" stroke:none;fill-rule:nonzero;fill:rgb(2.352905%,45.092773%,63.867188%);fill-opacity:1;" d="M 215.074219 261.902344 L 245.582031 261.902344 L 245.582031 254.832031 L 215.074219 254.832031 Z M 215.074219 261.902344 "/>
<path style=" stroke:none;fill-rule:nonzero;fill:rgb(2.352905%,45.092773%,63.867188%);fill-opacity:1;" d="M 258.296875 94.675781 L 288.804688 94.675781 L 288.804688 87.609375 L 258.296875 87.609375 Z M 258.296875 94.675781 "/>
<path style=" stroke:none;fill-rule:nonzero;fill:rgb(2.352905%,45.092773%,63.867188%);fill-opacity:1;" d="M 258.296875 113.257813 L 288.804688 113.257813 L 288.804688 106.1875 L 258.296875 106.1875 Z M 258.296875 113.257813 "/>
<path style=" stroke:none;fill-rule:nonzero;fill:rgb(2.352905%,45.092773%,63.867188%);fill-opacity:1;" d="M 258.296875 131.839844 L 288.804688 131.839844 L 288.804688 124.769531 L 258.296875 124.769531 Z M 258.296875 131.839844 "/>
<path style=" stroke:none;fill-rule:nonzero;fill:rgb(2.352905%,45.092773%,63.867188%);fill-opacity:1;" d="M 258.296875 150.417969 L 288.804688 150.417969 L 288.804688 143.347656 L 258.296875 143.347656 Z M 258.296875 150.417969 "/>
<path style=" stroke:none;fill-rule:nonzero;fill:rgb(2.352905%,45.092773%,63.867188%);fill-opacity:1;" d="M 258.296875 169 L 288.804688 169 L 288.804688 161.929688 L 258.296875 161.929688 Z M 258.296875 169 "/>
<path style=" stroke:none;fill-rule:nonzero;fill:rgb(2.352905%,45.092773%,63.867188%);fill-opacity:1;" d="M 258.296875 187.582031 L 288.804688 187.582031 L 288.804688 180.511719 L 258.296875 180.511719 Z M 258.296875 187.582031 "/>
<path style=" stroke:none;fill-rule:nonzero;fill:rgb(2.352905%,45.092773%,63.867188%);fill-opacity:1;" d="M 258.296875 206.160156 L 288.804688 206.160156 L 288.804688 199.09375 L 258.296875 199.09375 Z M 258.296875 206.160156 "/>
<path style=" stroke:none;fill-rule:nonzero;fill:rgb(2.352905%,45.092773%,63.867188%);fill-opacity:1;" d="M 258.296875 224.742188 L 288.804688 224.742188 L 288.804688 217.671875 L 258.296875 217.671875 Z M 258.296875 224.742188 "/>
<path style=" stroke:none;fill-rule:nonzero;fill:rgb(2.352905%,45.092773%,63.867188%);fill-opacity:1;" d="M 258.296875 243.324219 L 288.804688 243.324219 L 288.804688 236.253906 L 258.296875 236.253906 Z M 258.296875 243.324219 "/>
<path style=" stroke:none;fill-rule:nonzero;fill:rgb(2.352905%,45.092773%,63.867188%);fill-opacity:1;" d="M 258.296875 261.902344 L 288.804688 261.902344 L 288.804688 254.832031 L 258.296875 254.832031 Z M 258.296875 261.902344 "/>
<path style=" stroke:none;fill-rule:nonzero;fill:rgb(2.352905%,45.092773%,63.867188%);fill-opacity:1;" d="M 61.824219 94.675781 L 92.328125 94.675781 L 92.328125 87.609375 L 61.824219 87.609375 Z M 61.824219 94.675781 "/>
<path style=" stroke:none;fill-rule:nonzero;fill:rgb(2.352905%,45.092773%,63.867188%);fill-opacity:1;" d="M 61.824219 113.257813 L 92.328125 113.257813 L 92.328125 106.1875 L 61.824219 106.1875 Z M 61.824219 113.257813 "/>
<path style=" stroke:none;fill-rule:nonzero;fill:rgb(2.352905%,45.092773%,63.867188%);fill-opacity:1;" d="M 61.824219 131.839844 L 92.328125 131.839844 L 92.328125 124.769531 L 61.824219 124.769531 Z M 61.824219 131.839844 "/>
<path style=" stroke:none;fill-rule:nonzero;fill:rgb(2.352905%,45.092773%,63.867188%);fill-opacity:1;" d="M 61.824219 150.417969 L 92.328125 150.417969 L 92.328125 143.347656 L 61.824219 143.347656 Z M 61.824219 150.417969 "/>
<path style=" stroke:none;fill-rule:nonzero;fill:rgb(2.352905%,45.092773%,63.867188%);fill-opacity:1;" d="M 61.824219 169 L 92.328125 169 L 92.328125 161.929688 L 61.824219 161.929688 Z M 61.824219 169 "/>
<path style=" stroke:none;fill-rule:nonzero;fill:rgb(2.352905%,45.092773%,63.867188%);fill-opacity:1;" d="M 61.824219 187.582031 L 92.328125 187.582031 L 92.328125 180.511719 L 61.824219 180.511719 Z M 61.824219 187.582031 "/>
<path style=" stroke:none;fill-rule:nonzero;fill:rgb(2.352905%,45.092773%,63.867188%);fill-opacity:1;" d="M 61.824219 206.160156 L 92.328125 206.160156 L 92.328125 199.09375 L 61.824219 199.09375 Z M 61.824219 206.160156 "/>
<path style=" stroke:none;fill-rule:nonzero;fill:rgb(2.352905%,45.092773%,63.867188%);fill-opacity:1;" d="M 61.824219 224.742188 L 92.328125 224.742188 L 92.328125 217.671875 L 61.824219 217.671875 Z M 61.824219 224.742188 "/>
<path style=" stroke:none;fill-rule:nonzero;fill:rgb(2.352905%,45.092773%,63.867188%);fill-opacity:1;" d="M 61.824219 243.324219 L 92.328125 243.324219 L 92.328125 236.253906 L 61.824219 236.253906 Z M 61.824219 243.324219 "/>
<path style=" stroke:none;fill-rule:nonzero;fill:rgb(2.352905%,45.092773%,63.867188%);fill-opacity:1;" d="M 61.824219 261.902344 L 92.328125 261.902344 L 92.328125 254.832031 L 61.824219 254.832031 Z M 61.824219 261.902344 "/>
<path style=" stroke:none;fill-rule:nonzero;fill:rgb(0.784302%,38.035583%,61.914063%);fill-opacity:1;" d="M 61.824219 326.402344 L 92.328125 326.402344 L 92.328125 281.855469 L 61.824219 281.855469 Z M 61.824219 326.402344 "/>
<path style=" stroke:none;fill-rule:nonzero;fill:rgb(0.784302%,43.530273%,66.992188%);fill-opacity:1;" d="M 61.824219 326.402344 L 69.050781 326.402344 L 69.050781 281.855469 L 61.824219 281.855469 Z M 61.824219 326.402344 "/>
<path style=" stroke:none;fill-rule:nonzero;fill:rgb(87.5%,89.0625%,91.014099%);fill-opacity:1;" d="M 58.320313 406.671875 L 300.964844 406.671875 L 300.964844 397.46875 L 58.320313 397.46875 Z M 58.320313 406.671875 "/>
<g clip-path="url(#clip11)" clip-rule="nonzero">
<path style=" stroke:none;fill-rule:nonzero;fill:rgb(93.75%,96.09375%,97.264099%);fill-opacity:1;" d="M 58.320313 668.777344 L 300.964844 668.777344 L 300.964844 406.09375 L 58.320313 406.09375 Z M 58.320313 668.777344 "/>
</g>
<g clip-path="url(#clip12)" clip-rule="nonzero">
<path style=" stroke:none;fill-rule:nonzero;fill:rgb(87.5%,89.0625%,91.014099%);fill-opacity:1;" d="M 202.914063 668.777344 L 300.964844 668.777344 L 300.964844 660.5 L 202.914063 660.5 Z M 202.914063 668.777344 "/>
</g>
<g clip-path="url(#clip13)" clip-rule="nonzero">
<path style=" stroke:none;fill-rule:nonzero;fill:rgb(87.5%,89.0625%,91.014099%);fill-opacity:1;" d="M 58.324219 668.777344 L 95.898438 668.777344 L 95.898438 660.5 L 58.324219 660.5 Z M 58.324219 668.777344 "/>
</g>
<g clip-path="url(#clip14)" clip-rule="nonzero">
<path style=" stroke:none;fill-rule:nonzero;fill:rgb(0.784302%,38.035583%,61.914063%);fill-opacity:1;" d="M 95.894531 668.777344 L 168.015625 668.777344 L 168.015625 342.613281 L 95.894531 342.613281 Z M 95.894531 668.777344 "/>
</g>
<g clip-path="url(#clip15)" clip-rule="nonzero">
<path style=" stroke:none;fill-rule:nonzero;fill:rgb(0.784302%,43.530273%,66.992188%);fill-opacity:1;" d="M 95.894531 668.777344 L 115.078125 668.777344 L 115.078125 342.613281 L 95.894531 342.613281 Z M 95.894531 668.777344 "/>
</g>
<g clip-path="url(#clip16)" clip-rule="nonzero">
<path style=" stroke:none;fill-rule:nonzero;fill:rgb(0.784302%,43.530273%,66.992188%);fill-opacity:1;" d="M 131.953125 668.777344 L 141.546875 668.777344 L 141.546875 342.613281 L 131.953125 342.613281 Z M 131.953125 668.777344 "/>
</g>
<path style=" stroke:none;fill-rule:nonzero;fill:rgb(0%,33.714294%,61.131287%);fill-opacity:1;" d="M 95.894531 342.609375 L 168.015625 342.609375 L 168.015625 334.632813 L 95.894531 334.632813 Z M 95.894531 342.609375 "/>
<path style=" stroke:none;fill-rule:nonzero;fill:rgb(0%,27.43988%,47.459412%);fill-opacity:1;" d="M 95.894531 392.371094 L 168.015625 392.371094 L 168.015625 388 L 95.894531 388 Z M 95.894531 392.371094 "/>
<path style=" stroke:none;fill-rule:nonzero;fill:rgb(0%,27.43988%,47.459412%);fill-opacity:1;" d="M 95.894531 469.378906 L 168.015625 469.378906 L 168.015625 465.007813 L 95.894531 465.007813 Z M 95.894531 469.378906 "/>
<path style=" stroke:none;fill-rule:nonzero;fill:rgb(0%,27.43988%,47.459412%);fill-opacity:1;" d="M 95.894531 546.382813 L 168.015625 546.382813 L 168.015625 542.011719 L 95.894531 542.011719 Z M 95.894531 546.382813 "/>
<path style=" stroke:none;fill-rule:nonzero;fill:rgb(0%,27.43988%,47.459412%);fill-opacity:1;" d="M 95.894531 623.386719 L 168.015625 623.386719 L 168.015625 619.015625 L 95.894531 619.015625 Z M 95.894531 623.386719 "/>
<g clip-path="url(#clip17)" clip-rule="nonzero">
<use xlink:href="#surface15" transform="matrix(1,0,0,1,95,498)" mask="url(#mask3)"/>
</g>
<g clip-path="url(#clip20)" clip-rule="nonzero">
<use xlink:href="#surface18" transform="matrix(1,0,0,1,95,342)" mask="url(#mask4)"/>
</g>
<g clip-path="url(#clip23)" clip-rule="nonzero">
<path style=" stroke:none;fill-rule:nonzero;fill:rgb(1.567078%,27.830505%,41.967773%);fill-opacity:1;" d="M 168.015625 668.777344 L 202.914063 668.777344 L 202.914063 334.632813 L 168.015625 334.632813 Z M 168.015625 668.777344 "/>
</g>
<path style=" stroke:none;fill-rule:nonzero;fill:rgb(0%,20.776367%,36.863708%);fill-opacity:1;" d="M 168.015625 342.613281 L 202.914063 342.613281 L 202.914063 334.632813 L 168.015625 334.632813 Z M 168.015625 342.613281 "/>
<path style=" stroke:none;fill-rule:nonzero;fill:rgb(1.960754%,33.325195%,55.271912%);fill-opacity:1;" d="M 168.015625 392.371094 L 202.914063 392.371094 L 202.914063 388 L 168.015625 388 Z M 168.015625 392.371094 "/>
<path style=" stroke:none;fill-rule:nonzero;fill:rgb(1.960754%,33.325195%,55.271912%);fill-opacity:1;" d="M 168.015625 469.378906 L 202.914063 469.378906 L 202.914063 465.007813 L 168.015625 465.007813 Z M 168.015625 469.378906 "/>
<path style=" stroke:none;fill-rule:nonzero;fill:rgb(1.960754%,33.325195%,55.271912%);fill-opacity:1;" d="M 168.015625 546.382813 L 202.914063 546.382813 L 202.914063 542.011719 L 168.015625 542.011719 Z M 168.015625 546.382813 "/>
<path style=" stroke:none;fill-rule:nonzero;fill:rgb(1.960754%,33.325195%,55.271912%);fill-opacity:1;" d="M 168.015625 623.386719 L 202.914063 623.386719 L 202.914063 619.015625 L 168.015625 619.015625 Z M 168.015625 623.386719 "/>
<g clip-path="url(#clip24)" clip-rule="nonzero">
<use xlink:href="#surface21" transform="matrix(1,0,0,1,168,342)" mask="url(#mask5)"/>
</g>
<g clip-path="url(#clip27)" clip-rule="nonzero">
<use xlink:href="#surface24" transform="matrix(1,0,0,1,168,447)" mask="url(#mask6)"/>
</g>
<path style=" stroke:none;fill-rule:nonzero;fill:rgb(0.784302%,38.035583%,61.914063%);fill-opacity:1;" d="M 95.894531 334.378906 L 168.015625 334.378906 L 168.015625 8.214844 L 95.894531 8.214844 Z M 95.894531 334.378906 "/>
<path style=" stroke:none;fill-rule:nonzero;fill:rgb(0.784302%,43.530273%,66.992188%);fill-opacity:1;" d="M 95.894531 334.378906 L 115.078125 334.378906 L 115.078125 8.214844 L 95.894531 8.214844 Z M 95.894531 334.378906 "/>
<path style=" stroke:none;fill-rule:nonzero;fill:rgb(0.784302%,43.530273%,66.992188%);fill-opacity:1;" d="M 131.953125 334.378906 L 141.546875 334.378906 L 141.546875 8.214844 L 131.953125 8.214844 Z M 131.953125 334.378906 "/>
<g clip-path="url(#clip30)" clip-rule="nonzero">
<path style=" stroke:none;fill-rule:nonzero;fill:rgb(0%,33.714294%,61.131287%);fill-opacity:1;" d="M 95.894531 8.214844 L 168.015625 8.214844 L 168.015625 0.234375 L 95.894531 0.234375 Z M 95.894531 8.214844 "/>
</g>
<path style=" stroke:none;fill-rule:nonzero;fill:rgb(0%,27.43988%,47.459412%);fill-opacity:1;" d="M 95.894531 57.972656 L 168.015625 57.972656 L 168.015625 53.601563 L 95.894531 53.601563 Z M 95.894531 57.972656 "/>
<path style=" stroke:none;fill-rule:nonzero;fill:rgb(0%,27.43988%,47.459412%);fill-opacity:1;" d="M 95.894531 134.980469 L 168.015625 134.980469 L 168.015625 130.609375 L 95.894531 130.609375 Z M 95.894531 134.980469 "/>
<path style=" stroke:none;fill-rule:nonzero;fill:rgb(0%,27.43988%,47.459412%);fill-opacity:1;" d="M 95.894531 211.984375 L 168.015625 211.984375 L 168.015625 207.613281 L 95.894531 207.613281 Z M 95.894531 211.984375 "/>
<path style=" stroke:none;fill-rule:nonzero;fill:rgb(0%,27.43988%,47.459412%);fill-opacity:1;" d="M 95.894531 288.988281 L 168.015625 288.988281 L 168.015625 284.617188 L 95.894531 284.617188 Z M 95.894531 288.988281 "/>
<g clip-path="url(#clip31)" clip-rule="nonzero">
<use xlink:href="#surface27" transform="matrix(1,0,0,1,95,164)" mask="url(#mask7)"/>
</g>
<g clip-path="url(#clip34)" clip-rule="nonzero">
<use xlink:href="#surface30" transform="matrix(1,0,0,1,95,8)" mask="url(#mask8)"/>
</g>
<g clip-path="url(#clip37)" clip-rule="nonzero">
<path style=" stroke:none;fill-rule:nonzero;fill:rgb(1.567078%,27.830505%,41.967773%);fill-opacity:1;" d="M 168.015625 334.378906 L 202.914063 334.378906 L 202.914063 0.234375 L 168.015625 0.234375 Z M 168.015625 334.378906 "/>
</g>
<g clip-path="url(#clip38)" clip-rule="nonzero">
<path style=" stroke:none;fill-rule:nonzero;fill:rgb(0%,20.776367%,36.863708%);fill-opacity:1;" d="M 168.015625 8.214844 L 202.914063 8.214844 L 202.914063 0.234375 L 168.015625 0.234375 Z M 168.015625 8.214844 "/>
</g>
<path style=" stroke:none;fill-rule:nonzero;fill:rgb(1.960754%,33.325195%,55.271912%);fill-opacity:1;" d="M 168.015625 57.972656 L 202.914063 57.972656 L 202.914063 53.601563 L 168.015625 53.601563 Z M 168.015625 57.972656 "/>
<path style=" stroke:none;fill-rule:nonzero;fill:rgb(1.960754%,33.325195%,55.271912%);fill-opacity:1;" d="M 168.015625 134.980469 L 202.914063 134.980469 L 202.914063 130.609375 L 168.015625 130.609375 Z M 168.015625 134.980469 "/>
<path style=" stroke:none;fill-rule:nonzero;fill:rgb(1.960754%,33.325195%,55.271912%);fill-opacity:1;" d="M 168.015625 211.984375 L 202.914063 211.984375 L 202.914063 207.613281 L 168.015625 207.613281 Z M 168.015625 211.984375 "/>
<path style=" stroke:none;fill-rule:nonzero;fill:rgb(1.960754%,33.325195%,55.271912%);fill-opacity:1;" d="M 168.015625 288.988281 L 202.914063 288.988281 L 202.914063 284.617188 L 168.015625 284.617188 Z M 168.015625 288.988281 "/>
<g clip-path="url(#clip39)" clip-rule="nonzero">
<use xlink:href="#surface33" transform="matrix(1,0,0,1,168,8)" mask="url(#mask9)"/>
</g>
<g clip-path="url(#clip42)" clip-rule="nonzero">
<use xlink:href="#surface36" transform="matrix(1,0,0,1,168,113)" mask="url(#mask10)"/>
</g>
<path style=" stroke:none;fill-rule:nonzero;fill:rgb(0.784302%,38.035583%,61.914063%);fill-opacity:1;" d="M 215.074219 660.5 L 288.804688 660.5 L 288.804688 615.953125 L 215.074219 615.953125 Z M 215.074219 660.5 "/>
<g clip-path="url(#clip45)" clip-rule="nonzero">
<use xlink:href="#surface39" transform="matrix(1,0,0,1,215,615)" mask="url(#mask11)"/>
</g>
<g clip-path="url(#clip48)" clip-rule="nonzero">
<use xlink:href="#surface41" transform="matrix(1,0,0,1,261,615)" mask="url(#mask12)"/>
</g>
<path style=" stroke:none;fill-rule:nonzero;fill:rgb(0%,27.43988%,47.459412%);fill-opacity:1;" d="M 215.074219 626.085938 L 288.804688 626.085938 L 288.804688 623.9375 L 215.074219 623.9375 Z M 215.074219 626.085938 "/>
<path style=" stroke:none;fill-rule:nonzero;fill:rgb(0%,27.43988%,47.459412%);fill-opacity:1;" d="M 236.902344 660.5 L 239.050781 660.5 L 239.050781 615.953125 L 236.902344 615.953125 Z M 236.902344 660.5 "/>
<path style=" stroke:none;fill-rule:nonzero;fill:rgb(0%,27.43988%,47.459412%);fill-opacity:1;" d="M 264.828125 660.5 L 266.976563 660.5 L 266.976563 615.953125 L 264.828125 615.953125 Z M 264.828125 660.5 "/>
<path style=" stroke:none;fill-rule:nonzero;fill:rgb(2.352905%,45.092773%,63.867188%);fill-opacity:1;" d="M 215.074219 428.773438 L 245.582031 428.773438 L 245.582031 421.707031 L 215.074219 421.707031 Z M 215.074219 428.773438 "/>
<path style=" stroke:none;fill-rule:nonzero;fill:rgb(2.352905%,45.092773%,63.867188%);fill-opacity:1;" d="M 215.074219 447.355469 L 245.582031 447.355469 L 245.582031 440.285156 L 215.074219 440.285156 Z M 215.074219 447.355469 "/>
<path style=" stroke:none;fill-rule:nonzero;fill:rgb(2.352905%,45.092773%,63.867188%);fill-opacity:1;" d="M 215.074219 465.9375 L 245.582031 465.9375 L 245.582031 458.867188 L 215.074219 458.867188 Z M 215.074219 465.9375 "/>
<path style=" stroke:none;fill-rule:nonzero;fill:rgb(2.352905%,45.092773%,63.867188%);fill-opacity:1;" d="M 215.074219 484.515625 L 245.582031 484.515625 L 245.582031 477.445313 L 215.074219 477.445313 Z M 215.074219 484.515625 "/>
<path style=" stroke:none;fill-rule:nonzero;fill:rgb(2.352905%,45.092773%,63.867188%);fill-opacity:1;" d="M 215.074219 503.097656 L 245.582031 503.097656 L 245.582031 496.027344 L 215.074219 496.027344 Z M 215.074219 503.097656 "/>
<path style=" stroke:none;fill-rule:nonzero;fill:rgb(2.352905%,45.092773%,63.867188%);fill-opacity:1;" d="M 215.074219 521.679688 L 245.582031 521.679688 L 245.582031 514.609375 L 215.074219 514.609375 Z M 215.074219 521.679688 "/>
<path style=" stroke:none;fill-rule:nonzero;fill:rgb(2.352905%,45.092773%,63.867188%);fill-opacity:1;" d="M 215.074219 540.257813 L 245.582031 540.257813 L 245.582031 533.1875 L 215.074219 533.1875 Z M 215.074219 540.257813 "/>
<path style=" stroke:none;fill-rule:nonzero;fill:rgb(2.352905%,45.092773%,63.867188%);fill-opacity:1;" d="M 215.074219 558.839844 L 245.582031 558.839844 L 245.582031 551.769531 L 215.074219 551.769531 Z M 215.074219 558.839844 "/>
<path style=" stroke:none;fill-rule:nonzero;fill:rgb(2.352905%,45.092773%,63.867188%);fill-opacity:1;" d="M 215.074219 577.421875 L 245.582031 577.421875 L 245.582031 570.351563 L 215.074219 570.351563 Z M 215.074219 577.421875 "/>
<path style=" stroke:none;fill-rule:nonzero;fill:rgb(2.352905%,45.092773%,63.867188%);fill-opacity:1;" d="M 215.074219 596 L 245.582031 596 L 245.582031 588.929688 L 215.074219 588.929688 Z M 215.074219 596 "/>
<path style=" stroke:none;fill-rule:nonzero;fill:rgb(2.352905%,45.092773%,63.867188%);fill-opacity:1;" d="M 258.296875 428.773438 L 288.804688 428.773438 L 288.804688 421.707031 L 258.296875 421.707031 Z M 258.296875 428.773438 "/>
<path style=" stroke:none;fill-rule:nonzero;fill:rgb(2.352905%,45.092773%,63.867188%);fill-opacity:1;" d="M 258.296875 447.355469 L 288.804688 447.355469 L 288.804688 440.285156 L 258.296875 440.285156 Z M 258.296875 447.355469 "/>
<path style=" stroke:none;fill-rule:nonzero;fill:rgb(2.352905%,45.092773%,63.867188%);fill-opacity:1;" d="M 258.296875 465.9375 L 288.804688 465.9375 L 288.804688 458.867188 L 258.296875 458.867188 Z M 258.296875 465.9375 "/>
<path style=" stroke:none;fill-rule:nonzero;fill:rgb(2.352905%,45.092773%,63.867188%);fill-opacity:1;" d="M 258.296875 484.515625 L 288.804688 484.515625 L 288.804688 477.445313 L 258.296875 477.445313 Z M 258.296875 484.515625 "/>
<path style=" stroke:none;fill-rule:nonzero;fill:rgb(2.352905%,45.092773%,63.867188%);fill-opacity:1;" d="M 258.296875 503.097656 L 288.804688 503.097656 L 288.804688 496.027344 L 258.296875 496.027344 Z M 258.296875 503.097656 "/>
<path style=" stroke:none;fill-rule:nonzero;fill:rgb(2.352905%,45.092773%,63.867188%);fill-opacity:1;" d="M 258.296875 521.679688 L 288.804688 521.679688 L 288.804688 514.609375 L 258.296875 514.609375 Z M 258.296875 521.679688 "/>
<path style=" stroke:none;fill-rule:nonzero;fill:rgb(2.352905%,45.092773%,63.867188%);fill-opacity:1;" d="M 258.296875 540.257813 L 288.804688 540.257813 L 288.804688 533.1875 L 258.296875 533.1875 Z M 258.296875 540.257813 "/>
<path style=" stroke:none;fill-rule:nonzero;fill:rgb(2.352905%,45.092773%,63.867188%);fill-opacity:1;" d="M 258.296875 558.839844 L 288.804688 558.839844 L 288.804688 551.769531 L 258.296875 551.769531 Z M 258.296875 558.839844 "/>
<path style=" stroke:none;fill-rule:nonzero;fill:rgb(2.352905%,45.092773%,63.867188%);fill-opacity:1;" d="M 258.296875 577.421875 L 288.804688 577.421875 L 288.804688 570.351563 L 258.296875 570.351563 Z M 258.296875 577.421875 "/>
<path style=" stroke:none;fill-rule:nonzero;fill:rgb(2.352905%,45.092773%,63.867188%);fill-opacity:1;" d="M 258.296875 596 L 288.804688 596 L 288.804688 588.929688 L 258.296875 588.929688 Z M 258.296875 596 "/>
<path style=" stroke:none;fill-rule:nonzero;fill:rgb(2.352905%,45.092773%,63.867188%);fill-opacity:1;" d="M 61.824219 428.773438 L 92.328125 428.773438 L 92.328125 421.707031 L 61.824219 421.707031 Z M 61.824219 428.773438 "/>
<path style=" stroke:none;fill-rule:nonzero;fill:rgb(2.352905%,45.092773%,63.867188%);fill-opacity:1;" d="M 61.824219 447.355469 L 92.328125 447.355469 L 92.328125 440.285156 L 61.824219 440.285156 Z M 61.824219 447.355469 "/>
<path style=" stroke:none;fill-rule:nonzero;fill:rgb(2.352905%,45.092773%,63.867188%);fill-opacity:1;" d="M 61.824219 465.9375 L 92.328125 465.9375 L 92.328125 458.867188 L 61.824219 458.867188 Z M 61.824219 465.9375 "/>
<path style=" stroke:none;fill-rule:nonzero;fill:rgb(2.352905%,45.092773%,63.867188%);fill-opacity:1;" d="M 61.824219 484.515625 L 92.328125 484.515625 L 92.328125 477.445313 L 61.824219 477.445313 Z M 61.824219 484.515625 "/>
<path style=" stroke:none;fill-rule:nonzero;fill:rgb(2.352905%,45.092773%,63.867188%);fill-opacity:1;" d="M 61.824219 503.097656 L 92.328125 503.097656 L 92.328125 496.027344 L 61.824219 496.027344 Z M 61.824219 503.097656 "/>
<path style=" stroke:none;fill-rule:nonzero;fill:rgb(2.352905%,45.092773%,63.867188%);fill-opacity:1;" d="M 61.824219 521.679688 L 92.328125 521.679688 L 92.328125 514.609375 L 61.824219 514.609375 Z M 61.824219 521.679688 "/>
<path style=" stroke:none;fill-rule:nonzero;fill:rgb(2.352905%,45.092773%,63.867188%);fill-opacity:1;" d="M 61.824219 540.257813 L 92.328125 540.257813 L 92.328125 533.1875 L 61.824219 533.1875 Z M 61.824219 540.257813 "/>
<path style=" stroke:none;fill-rule:nonzero;fill:rgb(2.352905%,45.092773%,63.867188%);fill-opacity:1;" d="M 61.824219 558.839844 L 92.328125 558.839844 L 92.328125 551.769531 L 61.824219 551.769531 Z M 61.824219 558.839844 "/>
<path style=" stroke:none;fill-rule:nonzero;fill:rgb(2.352905%,45.092773%,63.867188%);fill-opacity:1;" d="M 61.824219 577.421875 L 92.328125 577.421875 L 92.328125 570.351563 L 61.824219 570.351563 Z M 61.824219 577.421875 "/>
<path style=" stroke:none;fill-rule:nonzero;fill:rgb(2.352905%,45.092773%,63.867188%);fill-opacity:1;" d="M 61.824219 596 L 92.328125 596 L 92.328125 588.929688 L 61.824219 588.929688 Z M 61.824219 596 "/>
<path style=" stroke:none;fill-rule:nonzero;fill:rgb(0.784302%,38.035583%,61.914063%);fill-opacity:1;" d="M 61.824219 660.5 L 92.328125 660.5 L 92.328125 615.953125 L 61.824219 615.953125 Z M 61.824219 660.5 "/>
<path style=" stroke:none;fill-rule:nonzero;fill:rgb(0.784302%,43.530273%,66.992188%);fill-opacity:1;" d="M 61.824219 660.5 L 69.050781 660.5 L 69.050781 615.953125 L 61.824219 615.953125 Z M 61.824219 660.5 "/>
</g>
<clipPath id="clip51">
  <path d="M 156 365 L 206 365 L 206 469 L 156 469 Z M 156 365 "/>
</clipPath>
<clipPath id="clip52">
  <path d="M 47.632813 221.382813 C 45.746094 221.382813 44.21875 222.910156 44.21875 224.796875 L 44.21875 482.425781 C 44.21875 484.3125 45.746094 485.839844 47.632813 485.839844 L 201.769531 485.839844 C 203.660156 485.839844 205.1875 484.3125 205.1875 482.425781 L 205.1875 224.796875 C 205.1875 222.910156 203.660156 221.382813 201.769531 221.382813 Z M 47.632813 221.382813 "/>
</clipPath>
<clipPath id="clip53">
  <path d="M 63 357 L 194 357 L 194 486 L 63 486 Z M 63 357 "/>
</clipPath>
<clipPath id="clip54">
  <path d="M 47.632813 221.382813 C 45.746094 221.382813 44.21875 222.910156 44.21875 224.796875 L 44.21875 482.425781 C 44.21875 484.3125 45.746094 485.839844 47.632813 485.839844 L 201.769531 485.839844 C 203.660156 485.839844 205.1875 484.3125 205.1875 482.425781 L 205.1875 224.796875 C 205.1875 222.910156 203.660156 221.382813 201.769531 221.382813 Z M 47.632813 221.382813 "/>
</clipPath>
<clipPath id="clip55">
  <path d="M 168 381 L 201 381 L 201 439 L 168 439 Z M 168 381 "/>
</clipPath>
<clipPath id="clip56">
  <path d="M 47.632813 221.382813 C 45.746094 221.382813 44.21875 222.910156 44.21875 224.796875 L 44.21875 482.425781 C 44.21875 484.3125 45.746094 485.839844 47.632813 485.839844 L 201.769531 485.839844 C 203.660156 485.839844 205.1875 484.3125 205.1875 482.425781 L 205.1875 224.796875 C 205.1875 222.910156 203.660156 221.382813 201.769531 221.382813 Z M 47.632813 221.382813 "/>
</clipPath>
<clipPath id="clip57">
  <path d="M 44 366 L 118 366 L 118 486 L 44 486 Z M 44 366 "/>
</clipPath>
<clipPath id="clip58">
  <path d="M 47.632813 221.382813 C 45.746094 221.382813 44.21875 222.910156 44.21875 224.796875 L 44.21875 482.425781 C 44.21875 484.3125 45.746094 485.839844 47.632813 485.839844 L 201.769531 485.839844 C 203.660156 485.839844 205.1875 484.3125 205.1875 482.425781 L 205.1875 224.796875 C 205.1875 222.910156 203.660156 221.382813 201.769531 221.382813 Z M 47.632813 221.382813 "/>
</clipPath>
<clipPath id="clip59">
  <path d="M 124 465 L 147 465 L 147 486 L 124 486 Z M 124 465 "/>
</clipPath>
<clipPath id="clip60">
  <path d="M 47.632813 221.382813 C 45.746094 221.382813 44.21875 222.910156 44.21875 224.796875 L 44.21875 482.425781 C 44.21875 484.3125 45.746094 485.839844 47.632813 485.839844 L 201.769531 485.839844 C 203.660156 485.839844 205.1875 484.3125 205.1875 482.425781 L 205.1875 224.796875 C 205.1875 222.910156 203.660156 221.382813 201.769531 221.382813 Z M 47.632813 221.382813 "/>
</clipPath>
<clipPath id="clip61">
  <path d="M 141 462 L 190 462 L 190 486 L 141 486 Z M 141 462 "/>
</clipPath>
<clipPath id="clip62">
  <path d="M 47.632813 221.382813 C 45.746094 221.382813 44.21875 222.910156 44.21875 224.796875 L 44.21875 482.425781 C 44.21875 484.3125 45.746094 485.839844 47.632813 485.839844 L 201.769531 485.839844 C 203.660156 485.839844 205.1875 484.3125 205.1875 482.425781 L 205.1875 224.796875 C 205.1875 222.910156 203.660156 221.382813 201.769531 221.382813 Z M 47.632813 221.382813 "/>
</clipPath>
<clipPath id="clip63">
  <path d="M 44 451 L 131 451 L 131 486 L 44 486 Z M 44 451 "/>
</clipPath>
<clipPath id="clip64">
  <path d="M 47.632813 221.382813 C 45.746094 221.382813 44.21875 222.910156 44.21875 224.796875 L 44.21875 482.425781 C 44.21875 484.3125 45.746094 485.839844 47.632813 485.839844 L 201.769531 485.839844 C 203.660156 485.839844 205.1875 484.3125 205.1875 482.425781 L 205.1875 224.796875 C 205.1875 222.910156 203.660156 221.382813 201.769531 221.382813 Z M 47.632813 221.382813 "/>
</clipPath>
<clipPath id="clip65">
  <path d="M 69 395 L 143 395 L 143 478 L 69 478 Z M 69 395 "/>
</clipPath>
<clipPath id="clip66">
  <path d="M 47.632813 221.382813 C 45.746094 221.382813 44.21875 222.910156 44.21875 224.796875 L 44.21875 482.425781 C 44.21875 484.3125 45.746094 485.839844 47.632813 485.839844 L 201.769531 485.839844 C 203.660156 485.839844 205.1875 484.3125 205.1875 482.425781 L 205.1875 224.796875 C 205.1875 222.910156 203.660156 221.382813 201.769531 221.382813 Z M 47.632813 221.382813 "/>
</clipPath>
<clipPath id="clip67">
  <path d="M 59 440 L 94 440 L 94 470 L 59 470 Z M 59 440 "/>
</clipPath>
<clipPath id="clip68">
  <path d="M 47.632813 221.382813 C 45.746094 221.382813 44.21875 222.910156 44.21875 224.796875 L 44.21875 482.425781 C 44.21875 484.3125 45.746094 485.839844 47.632813 485.839844 L 201.769531 485.839844 C 203.660156 485.839844 205.1875 484.3125 205.1875 482.425781 L 205.1875 224.796875 C 205.1875 222.910156 203.660156 221.382813 201.769531 221.382813 Z M 47.632813 221.382813 "/>
</clipPath>
<clipPath id="clip69">
  <path d="M 124 316 L 158 316 L 158 373 L 124 373 Z M 124 316 "/>
</clipPath>
<clipPath id="clip70">
  <path d="M 47.632813 221.382813 C 45.746094 221.382813 44.21875 222.910156 44.21875 224.796875 L 44.21875 482.425781 C 44.21875 484.3125 45.746094 485.839844 47.632813 485.839844 L 201.769531 485.839844 C 203.660156 485.839844 205.1875 484.3125 205.1875 482.425781 L 205.1875 224.796875 C 205.1875 222.910156 203.660156 221.382813 201.769531 221.382813 Z M 47.632813 221.382813 "/>
</clipPath>
<clipPath id="clip71">
  <path d="M 121 256 L 186 256 L 186 341 L 121 341 Z M 121 256 "/>
</clipPath>
<clipPath id="clip72">
  <path d="M 47.632813 221.382813 C 45.746094 221.382813 44.21875 222.910156 44.21875 224.796875 L 44.21875 482.425781 C 44.21875 484.3125 45.746094 485.839844 47.632813 485.839844 L 201.769531 485.839844 C 203.660156 485.839844 205.1875 484.3125 205.1875 482.425781 L 205.1875 224.796875 C 205.1875 222.910156 203.660156 221.382813 201.769531 221.382813 Z M 47.632813 221.382813 "/>
</clipPath>
<clipPath id="clip73">
  <path d="M 109 264 L 181 264 L 181 344 L 109 344 Z M 109 264 "/>
</clipPath>
<clipPath id="clip74">
  <path d="M 47.632813 221.382813 C 45.746094 221.382813 44.21875 222.910156 44.21875 224.796875 L 44.21875 482.425781 C 44.21875 484.3125 45.746094 485.839844 47.632813 485.839844 L 201.769531 485.839844 C 203.660156 485.839844 205.1875 484.3125 205.1875 482.425781 L 205.1875 224.796875 C 205.1875 222.910156 203.660156 221.382813 201.769531 221.382813 Z M 47.632813 221.382813 "/>
</clipPath>
<clipPath id="clip75">
  <path d="M 109 291 L 130 291 L 130 313 L 109 313 Z M 109 291 "/>
</clipPath>
<clipPath id="clip76">
  <path d="M 47.632813 221.382813 C 45.746094 221.382813 44.21875 222.910156 44.21875 224.796875 L 44.21875 482.425781 C 44.21875 484.3125 45.746094 485.839844 47.632813 485.839844 L 201.769531 485.839844 C 203.660156 485.839844 205.1875 484.3125 205.1875 482.425781 L 205.1875 224.796875 C 205.1875 222.910156 203.660156 221.382813 201.769531 221.382813 Z M 47.632813 221.382813 "/>
</clipPath>
<clipPath id="clip77">
  <path d="M 116 297 L 123 297 L 123 306 L 116 306 Z M 116 297 "/>
</clipPath>
<clipPath id="clip78">
  <path d="M 47.632813 221.382813 C 45.746094 221.382813 44.21875 222.910156 44.21875 224.796875 L 44.21875 482.425781 C 44.21875 484.3125 45.746094 485.839844 47.632813 485.839844 L 201.769531 485.839844 C 203.660156 485.839844 205.1875 484.3125 205.1875 482.425781 L 205.1875 224.796875 C 205.1875 222.910156 203.660156 221.382813 201.769531 221.382813 Z M 47.632813 221.382813 "/>
</clipPath>
<clipPath id="clip79">
  <path d="M 124 241 L 192 241 L 192 271 L 124 271 Z M 124 241 "/>
</clipPath>
<clipPath id="clip80">
  <path d="M 47.632813 221.382813 C 45.746094 221.382813 44.21875 222.910156 44.21875 224.796875 L 44.21875 482.425781 C 44.21875 484.3125 45.746094 485.839844 47.632813 485.839844 L 201.769531 485.839844 C 203.660156 485.839844 205.1875 484.3125 205.1875 482.425781 L 205.1875 224.796875 C 205.1875 222.910156 203.660156 221.382813 201.769531 221.382813 Z M 47.632813 221.382813 "/>
</clipPath>
<clipPath id="clip81">
  <path d="M 115 355 L 165 355 L 165 377 L 115 377 Z M 115 355 "/>
</clipPath>
<clipPath id="clip82">
  <path d="M 47.632813 221.382813 C 45.746094 221.382813 44.21875 222.910156 44.21875 224.796875 L 44.21875 482.425781 C 44.21875 484.3125 45.746094 485.839844 47.632813 485.839844 L 201.769531 485.839844 C 203.660156 485.839844 205.1875 484.3125 205.1875 482.425781 L 205.1875 224.796875 C 205.1875 222.910156 203.660156 221.382813 201.769531 221.382813 Z M 47.632813 221.382813 "/>
</clipPath>
<clipPath id="clip83">
  <path d="M 487 414 L 595 414 L 595 458 L 487 458 Z M 487 414 "/>
</clipPath>
<clipPath id="clip84">
  <path d="M 480.898438 173.476563 C 479.128906 173.476563 477.695313 174.910156 477.695313 176.679688 L 477.695313 567.070313 C 477.695313 568.839844 479.128906 570.277344 480.898438 570.277344 L 951.867188 570.277344 C 953.636719 570.277344 955.070313 568.839844 955.070313 567.070313 L 955.070313 176.679688 C 955.070313 174.910156 953.636719 173.476563 951.867188 173.476563 Z M 480.898438 173.476563 "/>
</clipPath>
<clipPath id="clip85">
  <path d="M 579 379 L 788 379 L 788 536 L 579 536 Z M 579 379 "/>
</clipPath>
<clipPath id="clip86">
  <path d="M 480.898438 173.476563 C 479.128906 173.476563 477.695313 174.910156 477.695313 176.679688 L 477.695313 567.070313 C 477.695313 568.839844 479.128906 570.277344 480.898438 570.277344 L 951.867188 570.277344 C 953.636719 570.277344 955.070313 568.839844 955.070313 567.070313 L 955.070313 176.679688 C 955.070313 174.910156 953.636719 173.476563 951.867188 173.476563 Z M 480.898438 173.476563 "/>
</clipPath>
<clipPath id="clip87">
  <path d="M 735 341 L 921 341 L 921 571 L 735 571 Z M 735 341 "/>
</clipPath>
<clipPath id="clip88">
  <path d="M 480.898438 173.476563 C 479.128906 173.476563 477.695313 174.910156 477.695313 176.679688 L 477.695313 567.070313 C 477.695313 568.839844 479.128906 570.277344 480.898438 570.277344 L 951.867188 570.277344 C 953.636719 570.277344 955.070313 568.839844 955.070313 567.070313 L 955.070313 176.679688 C 955.070313 174.910156 953.636719 173.476563 951.867188 173.476563 Z M 480.898438 173.476563 "/>
</clipPath>
<clipPath id="clip89">
  <path d="M 739 404 L 770 404 L 770 563 L 739 563 Z M 739 404 "/>
</clipPath>
<clipPath id="clip90">
  <path d="M 480.898438 173.476563 C 479.128906 173.476563 477.695313 174.910156 477.695313 176.679688 L 477.695313 567.070313 C 477.695313 568.839844 479.128906 570.277344 480.898438 570.277344 L 951.867188 570.277344 C 953.636719 570.277344 955.070313 568.839844 955.070313 567.070313 L 955.070313 176.679688 C 955.070313 174.910156 953.636719 173.476563 951.867188 173.476563 Z M 480.898438 173.476563 "/>
</clipPath>
<clipPath id="clip91">
  <path d="M 584 468 L 640 468 L 640 552 L 584 552 Z M 584 468 "/>
</clipPath>
<clipPath id="clip92">
  <path d="M 480.898438 173.476563 C 479.128906 173.476563 477.695313 174.910156 477.695313 176.679688 L 477.695313 567.070313 C 477.695313 568.839844 479.128906 570.277344 480.898438 570.277344 L 951.867188 570.277344 C 953.636719 570.277344 955.070313 568.839844 955.070313 567.070313 L 955.070313 176.679688 C 955.070313 174.910156 953.636719 173.476563 951.867188 173.476563 Z M 480.898438 173.476563 "/>
</clipPath>
<clipPath id="clip93">
  <path d="M 633 373 L 886 373 L 886 571 L 633 571 Z M 633 373 "/>
</clipPath>
<clipPath id="clip94">
  <path d="M 480.898438 173.476563 C 479.128906 173.476563 477.695313 174.910156 477.695313 176.679688 L 477.695313 567.070313 C 477.695313 568.839844 479.128906 570.277344 480.898438 570.277344 L 951.867188 570.277344 C 953.636719 570.277344 955.070313 568.839844 955.070313 567.070313 L 955.070313 176.679688 C 955.070313 174.910156 953.636719 173.476563 951.867188 173.476563 Z M 480.898438 173.476563 "/>
</clipPath>
<clipPath id="clip95">
  <path d="M 638 388 L 824 388 L 824 528 L 638 528 Z M 638 388 "/>
</clipPath>
<clipPath id="clip96">
  <path d="M 480.898438 173.476563 C 479.128906 173.476563 477.695313 174.910156 477.695313 176.679688 L 477.695313 567.070313 C 477.695313 568.839844 479.128906 570.277344 480.898438 570.277344 L 951.867188 570.277344 C 953.636719 570.277344 955.070313 568.839844 955.070313 567.070313 L 955.070313 176.679688 C 955.070313 174.910156 953.636719 173.476563 951.867188 173.476563 Z M 480.898438 173.476563 "/>
</clipPath>
<clipPath id="clip97">
  <path d="M 785 500 L 829 500 L 829 528 L 785 528 Z M 785 500 "/>
</clipPath>
<clipPath id="clip98">
  <path d="M 480.898438 173.476563 C 479.128906 173.476563 477.695313 174.910156 477.695313 176.679688 L 477.695313 567.070313 C 477.695313 568.839844 479.128906 570.277344 480.898438 570.277344 L 951.867188 570.277344 C 953.636719 570.277344 955.070313 568.839844 955.070313 567.070313 L 955.070313 176.679688 C 955.070313 174.910156 953.636719 173.476563 951.867188 173.476563 Z M 480.898438 173.476563 "/>
</clipPath>
<clipPath id="clip99">
  <path d="M 820 438 L 893 438 L 893 571 L 820 571 Z M 820 438 "/>
</clipPath>
<clipPath id="clip100">
  <path d="M 480.898438 173.476563 C 479.128906 173.476563 477.695313 174.910156 477.695313 176.679688 L 477.695313 567.070313 C 477.695313 568.839844 479.128906 570.277344 480.898438 570.277344 L 951.867188 570.277344 C 953.636719 570.277344 955.070313 568.839844 955.070313 567.070313 L 955.070313 176.679688 C 955.070313 174.910156 953.636719 173.476563 951.867188 173.476563 Z M 480.898438 173.476563 "/>
</clipPath>
<clipPath id="clip101">
  <path d="M 718 206 L 904 206 L 904 338 L 718 338 Z M 718 206 "/>
</clipPath>
<clipPath id="clip102">
  <path d="M 480.898438 173.476563 C 479.128906 173.476563 477.695313 174.910156 477.695313 176.679688 L 477.695313 567.070313 C 477.695313 568.839844 479.128906 570.277344 480.898438 570.277344 L 951.867188 570.277344 C 953.636719 570.277344 955.070313 568.839844 955.070313 567.070313 L 955.070313 176.679688 C 955.070313 174.910156 953.636719 173.476563 951.867188 173.476563 Z M 480.898438 173.476563 "/>
</clipPath>
<clipPath id="clip103">
  <path d="M 760 178 L 866 178 L 866 306 L 760 306 Z M 760 178 "/>
</clipPath>
<clipPath id="clip104">
  <path d="M 480.898438 173.476563 C 479.128906 173.476563 477.695313 174.910156 477.695313 176.679688 L 477.695313 567.070313 C 477.695313 568.839844 479.128906 570.277344 480.898438 570.277344 L 951.867188 570.277344 C 953.636719 570.277344 955.070313 568.839844 955.070313 567.070313 L 955.070313 176.679688 C 955.070313 174.910156 953.636719 173.476563 951.867188 173.476563 Z M 480.898438 173.476563 "/>
</clipPath>
<clipPath id="clip105">
  <path d="M 735 250 L 770 250 L 770 286 L 735 286 Z M 735 250 "/>
</clipPath>
<clipPath id="clip106">
  <path d="M 480.898438 173.476563 C 479.128906 173.476563 477.695313 174.910156 477.695313 176.679688 L 477.695313 567.070313 C 477.695313 568.839844 479.128906 570.277344 480.898438 570.277344 L 951.867188 570.277344 C 953.636719 570.277344 955.070313 568.839844 955.070313 567.070313 L 955.070313 176.679688 C 955.070313 174.910156 953.636719 173.476563 951.867188 173.476563 Z M 480.898438 173.476563 "/>
</clipPath>
<clipPath id="clip107">
  <path d="M 775 289 L 825 289 L 825 369 L 775 369 Z M 775 289 "/>
</clipPath>
<clipPath id="clip108">
  <path d="M 480.898438 173.476563 C 479.128906 173.476563 477.695313 174.910156 477.695313 176.679688 L 477.695313 567.070313 C 477.695313 568.839844 479.128906 570.277344 480.898438 570.277344 L 951.867188 570.277344 C 953.636719 570.277344 955.070313 568.839844 955.070313 567.070313 L 955.070313 176.679688 C 955.070313 174.910156 953.636719 173.476563 951.867188 173.476563 Z M 480.898438 173.476563 "/>
</clipPath>
<clipPath id="clip109">
  <path d="M 775 295 L 819 295 L 819 336 L 775 336 Z M 775 295 "/>
</clipPath>
<clipPath id="clip110">
  <path d="M 480.898438 173.476563 C 479.128906 173.476563 477.695313 174.910156 477.695313 176.679688 L 477.695313 567.070313 C 477.695313 568.839844 479.128906 570.277344 480.898438 570.277344 L 951.867188 570.277344 C 953.636719 570.277344 955.070313 568.839844 955.070313 567.070313 L 955.070313 176.679688 C 955.070313 174.910156 953.636719 173.476563 951.867188 173.476563 Z M 480.898438 173.476563 "/>
</clipPath>
<clipPath id="clip111">
  <path d="M 740 194 L 833 194 L 833 318 L 740 318 Z M 740 194 "/>
</clipPath>
<clipPath id="clip112">
  <path d="M 480.898438 173.476563 C 479.128906 173.476563 477.695313 174.910156 477.695313 176.679688 L 477.695313 567.070313 C 477.695313 568.839844 479.128906 570.277344 480.898438 570.277344 L 951.867188 570.277344 C 953.636719 570.277344 955.070313 568.839844 955.070313 567.070313 L 955.070313 176.679688 C 955.070313 174.910156 953.636719 173.476563 951.867188 173.476563 Z M 480.898438 173.476563 "/>
</clipPath>
<clipPath id="clip113">
  <path d="M 807 221 L 851 221 L 851 265 L 807 265 Z M 807 221 "/>
</clipPath>
<clipPath id="clip114">
  <path d="M 480.898438 173.476563 C 479.128906 173.476563 477.695313 174.910156 477.695313 176.679688 L 477.695313 567.070313 C 477.695313 568.839844 479.128906 570.277344 480.898438 570.277344 L 951.867188 570.277344 C 953.636719 570.277344 955.070313 568.839844 955.070313 567.070313 L 955.070313 176.679688 C 955.070313 174.910156 953.636719 173.476563 951.867188 173.476563 Z M 480.898438 173.476563 "/>
</clipPath>
<clipPath id="clip115">
  <path d="M 817 245 L 853 245 L 853 280 L 817 280 Z M 817 245 "/>
</clipPath>
<clipPath id="clip116">
  <path d="M 480.898438 173.476563 C 479.128906 173.476563 477.695313 174.910156 477.695313 176.679688 L 477.695313 567.070313 C 477.695313 568.839844 479.128906 570.277344 480.898438 570.277344 L 951.867188 570.277344 C 953.636719 570.277344 955.070313 568.839844 955.070313 567.070313 L 955.070313 176.679688 C 955.070313 174.910156 953.636719 173.476563 951.867188 173.476563 Z M 480.898438 173.476563 "/>
</clipPath>
<clipPath id="clip117">
  <path d="M 727 183 L 838 183 L 838 236 L 727 236 Z M 727 183 "/>
</clipPath>
<clipPath id="clip118">
  <path d="M 480.898438 173.476563 C 479.128906 173.476563 477.695313 174.910156 477.695313 176.679688 L 477.695313 567.070313 C 477.695313 568.839844 479.128906 570.277344 480.898438 570.277344 L 951.867188 570.277344 C 953.636719 570.277344 955.070313 568.839844 955.070313 567.070313 L 955.070313 176.679688 C 955.070313 174.910156 953.636719 173.476563 951.867188 173.476563 Z M 480.898438 173.476563 "/>
</clipPath>
<clipPath id="clip119">
  <path d="M 767 341 L 845 341 L 845 372 L 767 372 Z M 767 341 "/>
</clipPath>
<clipPath id="clip120">
  <path d="M 480.898438 173.476563 C 479.128906 173.476563 477.695313 174.910156 477.695313 176.679688 L 477.695313 567.070313 C 477.695313 568.839844 479.128906 570.277344 480.898438 570.277344 L 951.867188 570.277344 C 953.636719 570.277344 955.070313 568.839844 955.070313 567.070313 L 955.070313 176.679688 C 955.070313 174.910156 953.636719 173.476563 951.867188 173.476563 Z M 480.898438 173.476563 "/>
</clipPath>
</defs>
<g id="surface1">
<g clip-path="url(#clip1)" clip-rule="nonzero">
<path style=" stroke:none;fill-rule:nonzero;fill:rgb(87.109375%,92.576599%,97.264099%);fill-opacity:1;" d="M 130.164063 702.605469 C 130.164063 702.605469 -34.28125 653.476563 6.5 513.664063 C 47.28125 373.847656 183.042969 389.820313 241.984375 333.035156 C 300.925781 276.253906 310.394531 105.476563 440.632813 27.855469 C 570.871094 -49.761719 696.410156 56.800781 738.886719 81.796875 C 781.359375 106.789063 953.699219 1.546875 1058.941406 81.796875 C 1164.191406 162.042969 1065.519531 307.988281 1053.679688 409.328125 C 1041.839844 510.664063 1164.191406 518.253906 1194.441406 584.183594 C 1224.699219 650.113281 1145.769531 702.605469 1145.769531 702.605469 "/>
</g>
<path style=" stroke:none;fill-rule:nonzero;fill:rgb(26.660156%,73.631287%,63.476563%);fill-opacity:1;" d="M 929.136719 688.351563 L 823.664063 688.351563 L 835.121094 643.308594 L 837.71875 633.09375 L 842.757813 613.3125 L 910.042969 613.3125 L 915.085938 633.09375 L 917.679688 643.308594 "/>
<path style=" stroke:none;fill-rule:nonzero;fill:rgb(26.660156%,73.631287%,63.476563%);fill-opacity:1;" d="M 1124.519531 321.863281 L 1124.519531 620.457031 C 1124.519531 627.558594 1119.03125 633.332031 1112.25 633.332031 L 642.066406 633.332031 C 635.273438 633.332031 629.777344 627.558594 629.777344 620.457031 L 629.777344 321.863281 C 629.777344 314.757813 635.273438 308.988281 642.066406 308.988281 L 1112.25 308.988281 C 1119.03125 308.988281 1124.519531 314.757813 1124.519531 321.863281 "/>
<path style=" stroke:none;fill-rule:nonzero;fill:rgb(26.660156%,73.631287%,63.476563%);fill-opacity:1;" d="M 917.679688 643.308594 L 835.121094 643.308594 L 837.71875 633.09375 L 915.085938 633.09375 Z M 917.679688 643.308594 "/>
<path style=" stroke:none;fill-rule:nonzero;fill:rgb(26.660156%,73.631287%,63.476563%);fill-opacity:1;" d="M 969.609375 700.792969 L 783.183594 700.792969 C 778.710938 700.792969 775.085938 697.167969 775.085938 692.695313 C 775.085938 688.222656 778.710938 684.59375 783.183594 684.59375 L 969.609375 684.59375 C 974.085938 684.59375 977.710938 688.222656 977.710938 692.695313 C 977.710938 697.167969 974.085938 700.792969 969.609375 700.792969 "/>
<path style=" stroke:none;fill-rule:nonzero;fill:rgb(26.660156%,73.631287%,63.476563%);fill-opacity:1;" d="M 1124.519531 321.863281 L 1124.519531 579.300781 L 629.777344 579.300781 L 629.777344 321.863281 C 629.777344 314.757813 635.273438 308.988281 642.066406 308.988281 L 1112.25 308.988281 C 1119.03125 308.988281 1124.519531 314.757813 1124.519531 321.863281 "/>
<path style=" stroke:none;fill-rule:nonzero;fill:rgb(46.655273%,49.021912%,70.896912%);fill-opacity:1;" d="M 1111.960938 570.277344 L 640.992188 570.277344 C 639.222656 570.277344 637.785156 568.839844 637.785156 567.070313 L 637.785156 321.28125 C 637.785156 319.511719 639.222656 318.074219 640.988281 318.074219 L 1111.960938 318.074219 C 1113.730469 318.074219 1115.160156 319.511719 1115.160156 321.28125 L 1115.160156 567.070313 C 1115.160156 568.839844 1113.730469 570.277344 1111.960938 570.277344 "/>
<path style=" stroke:none;fill-rule:nonzero;fill:rgb(100%,100%,100%);fill-opacity:1;" d="M 876.371094 618.609375 C 869.800781 618.609375 864.421875 613.234375 864.421875 606.660156 C 864.421875 600.089844 869.800781 594.710938 876.371094 594.710938 C 882.945313 594.710938 888.324219 600.089844 888.324219 606.660156 C 888.324219 613.234375 882.945313 618.609375 876.371094 618.609375 "/>
<g clip-path="url(#clip2)" clip-rule="nonzero">
<use xlink:href="#surface5" transform="matrix(1,0,0,1,205,34)" mask="url(#mask0)"/>
</g>
<path style=" stroke:none;fill-rule:nonzero;fill:rgb(26.660156%,73.631287%,63.476563%);fill-opacity:1;" d="M 629.496094 43.0625 L 932.730469 43.0625 C 934.792969 43.0625 936.464844 44.734375 936.464844 46.796875 L 936.464844 260.753906 C 936.464844 262.8125 934.792969 264.484375 932.730469 264.484375 L 629.496094 264.484375 C 627.433594 264.484375 625.761719 262.8125 625.761719 260.753906 L 625.761719 46.796875 C 625.761719 44.734375 627.433594 43.0625 629.496094 43.0625 "/>
<path style=" stroke:none;fill-rule:nonzero;fill:rgb(46.655273%,49.021912%,70.896912%);fill-opacity:1;" d="M 637.125 51.09375 L 925.101563 51.09375 C 926.953125 51.09375 928.453125 52.59375 928.453125 54.445313 L 928.453125 253.105469 C 928.453125 254.953125 926.953125 256.457031 925.101563 256.457031 L 637.125 256.457031 C 635.273438 256.457031 633.769531 254.953125 633.769531 253.105469 L 633.769531 54.445313 C 633.769531 52.59375 635.273438 51.09375 637.125 51.09375 "/>
<path style=" stroke:none;fill-rule:nonzero;fill:rgb(26.660156%,73.631287%,63.476563%);fill-opacity:1;" d="M 35.875 211.042969 L 213.53125 211.042969 C 215.59375 211.042969 217.265625 212.714844 217.265625 214.777344 L 217.265625 492.445313 C 217.265625 494.507813 215.59375 496.179688 213.53125 496.179688 L 35.875 496.179688 C 33.8125 496.179688 32.140625 494.507813 32.140625 492.445313 L 32.140625 214.777344 C 32.140625 212.714844 33.8125 211.042969 35.875 211.042969 "/>
<path style=" stroke:none;fill-rule:nonzero;fill:rgb(46.655273%,49.021912%,70.896912%);fill-opacity:1;" d="M 47.632813 221.382813 L 201.773438 221.382813 C 203.660156 221.382813 205.1875 222.910156 205.1875 224.796875 L 205.1875 482.425781 C 205.1875 484.3125 203.660156 485.839844 201.773438 485.839844 L 47.632813 485.839844 C 45.746094 485.839844 44.21875 484.3125 44.21875 482.425781 L 44.21875 224.796875 C 44.21875 222.910156 45.746094 221.382813 47.632813 221.382813 "/>
<g clip-path="url(#clip51)" clip-rule="nonzero">
<g clip-path="url(#clip52)" clip-rule="nonzero">
<path style=" stroke:none;fill-rule:nonzero;fill:rgb(99.21875%,76.5625%,35.301208%);fill-opacity:1;" d="M 191.410156 365.835938 C 191.410156 365.835938 218.371094 402.894531 237.457031 446.738281 C 239.597656 451.652344 239.136719 457.371094 236.195313 461.84375 C 229.554688 471.941406 212.214844 469.613281 205.53125 460.222656 C 205.53125 460.222656 154.503906 389.570313 156.679688 386.710938 C 157.195313 386.03125 191.410156 365.835938 191.410156 365.835938 "/>
</g>
</g>
<g clip-path="url(#clip53)" clip-rule="nonzero">
<g clip-path="url(#clip54)" clip-rule="nonzero">
<path style=" stroke:none;fill-rule:nonzero;fill:rgb(99.21875%,76.5625%,35.301208%);fill-opacity:1;" d="M 139.285156 357.246094 L 185.566406 363.195313 C 190.28125 363.800781 193.660156 368.046875 193.191406 372.777344 L 163.289063 502.503906 L 63.960938 502.257813 L 78.023438 373.214844 C 77.4375 368.363281 80.917969 363.96875 85.773438 363.429688 "/>
</g>
</g>
<g clip-path="url(#clip55)" clip-rule="nonzero">
<g clip-path="url(#clip56)" clip-rule="nonzero">
<path style="fill:none;stroke-width:8.44;stroke-linecap:butt;stroke-linejoin:miter;stroke:rgb(83.201599%,69.334412%,72.459412%);stroke-opacity:1;stroke-miterlimit:10;" d="M 1800.859375 2761.451562 C 1800.859375 2776.88125 1883.867188 3092.35 1883.867188 3092.35 " transform="matrix(0.1,0,0,-0.1,0,702.86)"/>
</g>
</g>
<g clip-path="url(#clip57)" clip-rule="nonzero">
<g clip-path="url(#clip58)" clip-rule="nonzero">
<path style=" stroke:none;fill-rule:nonzero;fill:rgb(99.21875%,76.5625%,35.301208%);fill-opacity:1;" d="M 117.542969 388.433594 C 117.542969 388.433594 92.316406 438.382813 63.84375 478.640625 C 60.648438 483.152344 53.113281 485.394531 47.59375 485.15625 C 35.128906 484.621094 29.847656 471.195313 34.558594 460.265625 C 34.558594 460.265625 74.449219 368.078125 79.972656 366.574219 C 80.824219 366.339844 117.542969 388.433594 117.542969 388.433594 "/>
</g>
</g>
<g clip-path="url(#clip59)" clip-rule="nonzero">
<g clip-path="url(#clip60)" clip-rule="nonzero">
<path style=" stroke:none;fill-rule:nonzero;fill:rgb(98.4375%,45.872498%,45.872498%);fill-opacity:1;" d="M 146.367188 467.273438 L 124.675781 465.597656 L 125.355469 487.304688 L 144.128906 487.296875 Z M 146.367188 467.273438 "/>
</g>
</g>
<g clip-path="url(#clip61)" clip-rule="nonzero">
<g clip-path="url(#clip62)" clip-rule="nonzero">
<path style=" stroke:none;fill-rule:nonzero;fill:rgb(98.4375%,45.872498%,45.872498%);fill-opacity:1;" d="M 144.761719 467.273438 C 144.761719 467.273438 194.492188 448.101563 188.964844 487.265625 L 141.230469 487.265625 "/>
</g>
</g>
<g clip-path="url(#clip63)" clip-rule="nonzero">
<g clip-path="url(#clip64)" clip-rule="nonzero">
<path style=" stroke:none;fill-rule:nonzero;fill:rgb(91.796875%,78.125%,80.859375%);fill-opacity:1;" d="M 52.960938 451.546875 L 130.925781 453.890625 L 129.40625 488.796875 L 48.398438 487.089844 C 36.863281 485.542969 29.84375 473.578125 34.117188 462.75 C 37.113281 455.160156 44.859375 450.554688 52.960938 451.546875 "/>
</g>
</g>
<g clip-path="url(#clip65)" clip-rule="nonzero">
<g clip-path="url(#clip66)" clip-rule="nonzero">
<path style="fill:none;stroke-width:8.44;stroke-linecap:butt;stroke-linejoin:miter;stroke:rgb(83.201599%,69.334412%,72.459412%);stroke-opacity:1;stroke-miterlimit:10;" d="M 1025.15625 2951.529687 L 818.90625 2504.420312 L 1309.257813 2489.69375 L 1309.6875 2372.623437 " transform="matrix(0.1,0,0,-0.1,0,702.86)"/>
</g>
</g>
<g clip-path="url(#clip67)" clip-rule="nonzero">
<g clip-path="url(#clip68)" clip-rule="nonzero">
<path style="fill:none;stroke-width:8.44;stroke-linecap:butt;stroke-linejoin:miter;stroke:rgb(83.201599%,69.334412%,72.459412%);stroke-opacity:1;stroke-miterlimit:10;" d="M 818.90625 2504.420312 L 709.960938 2451.021875 " transform="matrix(0.1,0,0,-0.1,0,702.86)"/>
</g>
</g>
<g clip-path="url(#clip69)" clip-rule="nonzero">
<g clip-path="url(#clip70)" clip-rule="nonzero">
<path style=" stroke:none;fill-rule:nonzero;fill:rgb(98.4375%,45.872498%,45.872498%);fill-opacity:1;" d="M 157.4375 332.1875 L 155.136719 359.335938 C 154.347656 368.871094 148.234375 373.476563 139.152344 372.613281 C 131.402344 371.875 123.199219 367.390625 124.253906 359.015625 L 129.863281 316.46875 "/>
</g>
</g>
<g clip-path="url(#clip71)" clip-rule="nonzero">
<g clip-path="url(#clip72)" clip-rule="nonzero">
<path style=" stroke:none;fill-rule:nonzero;fill:rgb(98.4375%,45.872498%,45.872498%);fill-opacity:1;" d="M 150.949219 340.75 C 166.445313 342.097656 180.308594 330.566406 181.867188 317.53125 L 184.984375 290.246094 C 186.941406 273.910156 175.996094 258.988281 160.253906 256.519531 C 144.136719 253.996094 126.191406 265.003906 123.660156 281.652344 L 121.488281 302.941406 C 119.511719 322.109375 132.511719 337.859375 150.949219 340.75 "/>
</g>
</g>
<g clip-path="url(#clip73)" clip-rule="nonzero">
<g clip-path="url(#clip74)" clip-rule="nonzero">
<path style=" stroke:none;fill-rule:nonzero;fill:rgb(3.921509%,9.008789%,10.594177%);fill-opacity:1;" d="M 139.324219 268.121094 C 139.324219 268.121094 146.617188 277.476563 132.113281 288.828125 C 132.113281 288.828125 134.578125 312.273438 137.742188 318.246094 C 137.742188 318.246094 167.121094 312.230469 180.898438 321.832031 C 180.898438 321.832031 180.421875 342.316406 156.273438 343.292969 C 124.160156 344.59375 120.777344 311.945313 120.777344 311.945313 L 127.476563 296.175781 L 116.519531 297.664063 C 116.519531 297.664063 94.25 264.023438 128.976563 264.023438 "/>
</g>
</g>
<g clip-path="url(#clip75)" clip-rule="nonzero">
<g clip-path="url(#clip76)" clip-rule="nonzero">
<path style=" stroke:none;fill-rule:nonzero;fill:rgb(98.4375%,45.872498%,45.872498%);fill-opacity:1;" d="M 109.664063 300.398438 C 108.820313 305.933594 112.484375 311.105469 117.84375 311.945313 C 123.203125 312.785156 128.230469 308.976563 129.074219 303.441406 C 129.917969 297.902344 126.253906 292.730469 120.894531 291.890625 C 115.535156 291.050781 110.507813 294.859375 109.664063 300.398438 "/>
</g>
</g>
<g clip-path="url(#clip77)" clip-rule="nonzero">
<g clip-path="url(#clip78)" clip-rule="nonzero">
<path style="fill:none;stroke-width:5.19;stroke-linecap:round;stroke-linejoin:round;stroke:rgb(18.821716%,12.939453%,12.156677%);stroke-opacity:1;stroke-miterlimit:10;" d="M 1223.164063 3980.1625 C 1223.164063 3980.1625 1234.21875 4052.857812 1165.195313 4051.959375 " transform="matrix(0.1,0,0,-0.1,0,702.86)"/>
</g>
</g>
<g clip-path="url(#clip79)" clip-rule="nonzero">
<g clip-path="url(#clip80)" clip-rule="nonzero">
<path style=" stroke:none;fill-rule:nonzero;fill:rgb(3.921509%,9.008789%,10.594177%);fill-opacity:1;" d="M 137.890625 269.5625 C 137.890625 269.5625 164.726563 271.199219 180.949219 269.902344 C 180.949219 269.902344 196.953125 263.910156 190.3125 254.195313 C 185.0625 246.519531 172.367188 252.78125 172.367188 252.78125 C 172.367188 252.78125 172.578125 244.867188 167.003906 242.714844 C 160.316406 240.132813 140.796875 238.042969 124.160156 264.53125 "/>
</g>
</g>
<g clip-path="url(#clip81)" clip-rule="nonzero">
<g clip-path="url(#clip82)" clip-rule="nonzero">
<path style=" stroke:none;fill-rule:nonzero;fill:rgb(98.4375%,45.872498%,45.872498%);fill-opacity:1;" d="M 155.410156 359.320313 L 163.984375 360.421875 C 163.984375 360.421875 167.8125 374.746094 147.921875 376.183594 C 127.199219 377.679688 119.027344 370.015625 115.023438 359.777344 L 137.84375 355.300781 "/>
</g>
</g>
<path style=" stroke:none;fill-rule:nonzero;fill:rgb(26.660156%,73.631287%,63.476563%);fill-opacity:1;" d="M 888.1875 260.285156 L 931.082031 260.285156 L 931.082031 48.371094 L 888.1875 48.371094 Z M 888.1875 260.285156 "/>
<path style=" stroke:none;fill-rule:nonzero;fill:rgb(100%,100%,100%);fill-opacity:1;" d="M 917.675781 154.328125 C 917.675781 158.769531 914.074219 162.371094 909.632813 162.371094 C 905.191406 162.371094 901.589844 158.769531 901.589844 154.328125 C 901.589844 149.886719 905.191406 146.285156 909.632813 146.285156 C 914.074219 146.285156 917.675781 149.886719 917.675781 154.328125 "/>
<path style=" stroke:none;fill-rule:nonzero;fill:rgb(26.660156%,73.631287%,63.476563%);fill-opacity:1;" d="M 36.503906 487.070313 L 205.1875 487.070313 L 205.1875 444.175781 L 36.503906 444.175781 Z M 36.503906 487.070313 "/>
<path style=" stroke:none;fill-rule:nonzero;fill:rgb(100%,100%,100%);fill-opacity:1;" d="M 124.703125 473.664063 C 120.261719 473.664063 116.660156 470.0625 116.660156 465.621094 C 116.660156 461.179688 120.261719 457.578125 124.703125 457.578125 C 129.144531 457.578125 132.746094 461.179688 132.746094 465.621094 C 132.746094 470.0625 129.144531 473.664063 124.703125 473.664063 "/>
<path style=" stroke:none;fill-rule:nonzero;fill:rgb(98.826599%,36.863708%,35.301208%);fill-opacity:1;" d="M 615.902344 138.898438 L 629.132813 199.953125 L 638.433594 256.457031 L 654.449219 256.457031 L 655.757813 190.003906 L 645.550781 134.792969 "/>
<path style=" stroke:none;fill-rule:nonzero;fill:rgb(99.21875%,76.5625%,35.301208%);fill-opacity:1;" d="M 620.988281 115.167969 L 604.691406 157.898438 L 641.328125 179.019531 L 632.707031 142.121094 Z M 620.988281 115.167969 "/>
<path style=" stroke:none;fill-rule:nonzero;fill:rgb(99.21875%,76.5625%,35.301208%);fill-opacity:1;" d="M 669.578125 98.195313 C 669.578125 98.195313 707.664063 88.140625 725.316406 129.007813 C 742.96875 169.878906 752.035156 256.457031 752.035156 256.457031 L 656.488281 256.457031 L 629.183594 142.414063 C 625.445313 131.925781 614.988281 117.820313 623.984375 111.261719 C 628.046875 108.300781 633.519531 105.734375 640.898438 104.191406 "/>
<path style="fill:none;stroke-width:7.35;stroke-linecap:butt;stroke-linejoin:miter;stroke:rgb(100%,42.358398%,38.426208%);stroke-opacity:1;stroke-miterlimit:10;" d="M 6374.21875 5260.94375 L 6296.132813 5586.373437 " transform="matrix(0.1,0,0,-0.1,0,702.86)"/>
<path style=" stroke:none;fill-rule:nonzero;fill:rgb(98.4375%,45.872498%,45.872498%);fill-opacity:1;" d="M 644.0625 194.398438 L 690.511719 116.226563 L 716.382813 163.3125 L 668.601563 217.210938 C 664.289063 222.070313 657.828125 224.449219 651.394531 223.542969 L 571.144531 212.238281 L 562.027344 197.21875 "/>
<path style=" stroke:none;fill-rule:nonzero;fill:rgb(98.4375%,45.872498%,45.872498%);fill-opacity:1;" d="M 562.027344 197.21875 L 526.894531 195.929688 L 512.171875 199.355469 C 510.539063 199.734375 509.496094 201.328125 509.800781 202.976563 C 510.113281 204.65625 511.714844 205.777344 513.402344 205.492188 L 527.808594 203.070313 L 537.792969 203.230469 L 533.171875 206.664063 C 530.964844 208.308594 529.28125 210.566406 528.335938 213.152344 L 527.523438 215.371094 C 526.382813 218.492188 527.953125 221.953125 531.050781 223.152344 L 537.757813 225.746094 C 540.644531 226.863281 543.910156 225.636719 545.351563 222.894531 L 548.011719 217.839844 L 555.007813 215.113281 C 555.007813 215.113281 564.0625 218.851563 573.320313 212.464844 C 581.230469 207.007813 573.214844 204.40625 572.496094 203.988281 C 571.777344 203.574219 562.027344 197.21875 562.027344 197.21875 "/>
<path style=" stroke:none;fill-rule:nonzero;fill:rgb(99.21875%,76.5625%,35.301208%);fill-opacity:1;" d="M 687.214844 109.828125 L 648.710938 163.378906 L 696.710938 204.820313 L 728.375 151.074219 Z M 687.214844 109.828125 "/>
<path style="fill:none;stroke-width:7.35;stroke-linecap:butt;stroke-linejoin:miter;stroke:rgb(100%,42.358398%,38.426208%);stroke-opacity:1;stroke-miterlimit:10;" d="M 7137.8125 5250.435937 L 6955.507813 4990.553125 L 6870.703125 5064.85 " transform="matrix(0.1,0,0,-0.1,0,702.86)"/>
<path style="fill:none;stroke-width:7.35;stroke-linecap:butt;stroke-linejoin:miter;stroke:rgb(100%,42.358398%,38.426208%);stroke-opacity:1;stroke-miterlimit:10;" d="M 6582.851563 5312.154687 L 6831.835938 5688.678125 " transform="matrix(0.1,0,0,-0.1,0,702.86)"/>
<path style=" stroke:none;fill-rule:nonzero;fill:rgb(3.921509%,9.008789%,10.594177%);fill-opacity:1;" d="M 610.0625 35.019531 C 610.0625 35.019531 597.449219 55.957031 615.980469 57.046875 "/>
<path style=" stroke:none;fill-rule:nonzero;fill:rgb(98.826599%,36.863708%,35.301208%);fill-opacity:1;" d="M 628.117188 63.644531 C 629.746094 68.886719 626.953125 74.4375 621.882813 76.035156 C 616.808594 77.636719 611.378906 74.683594 609.746094 69.441406 C 608.117188 64.195313 610.910156 58.648438 615.980469 57.046875 C 621.054688 55.445313 626.488281 58.398438 628.117188 63.644531 "/>
<path style=" stroke:none;fill-rule:nonzero;fill:rgb(98.4375%,45.872498%,45.872498%);fill-opacity:1;" d="M 638.585938 85.238281 L 644.109375 108.34375 C 646.035156 116.460938 651.90625 119.632813 659.621094 117.699219 C 666.210938 116.054688 672.695313 111.117188 670.695313 104.035156 L 660.304688 68.089844 "/>
<path style=" stroke:none;fill-rule:nonzero;fill:rgb(98.826599%,36.863708%,35.301208%);fill-opacity:1;" d="M 642.207031 100.613281 C 642.207031 100.613281 661.40625 97.699219 662.179688 75.109375 C 662.421875 67.996094 637.972656 82.882813 637.972656 82.882813 "/>
<path style=" stroke:none;fill-rule:nonzero;fill:rgb(98.4375%,45.872498%,45.872498%);fill-opacity:1;" d="M 647.128906 90.308594 C 633.941406 93.496094 620.484375 85.363281 617.4375 74.328125 L 611.1875 51.214844 C 607.371094 37.386719 614.855469 23.09375 628.105469 18.910156 C 641.671875 14.628906 658.578125 21.777344 662.9375 35.800781 L 667.589844 53.871094 C 671.792969 70.136719 662.644531 85.410156 647.128906 90.308594 "/>
<path style="fill:none;stroke-width:10;stroke-linecap:butt;stroke-linejoin:miter;stroke:rgb(100%,100%,100%);stroke-opacity:1;stroke-miterlimit:10;" d="M 6271.5625 6431.178125 C 6287.96875 6372.779687 6253.945313 6312.115625 6195.546875 6295.709375 C 6137.1875 6279.264062 6076.523438 6313.2875 6060.117188 6371.685937 C 6043.671875 6430.084375 6077.695313 6490.709375 6136.09375 6507.154687 C 6194.453125 6523.560937 6255.117188 6489.576562 6271.5625 6431.178125 Z M 6271.5625 6431.178125 " transform="matrix(0.1,0,0,-0.1,0,702.86)"/>
<path style="fill:none;stroke-width:10;stroke-linecap:butt;stroke-linejoin:miter;stroke:rgb(100%,100%,100%);stroke-opacity:1;stroke-miterlimit:10;" d="M 6462.773438 6565.63125 C 6515.703125 6535.94375 6534.53125 6469.029687 6504.84375 6416.139062 C 6475.15625 6363.248437 6408.242188 6344.38125 6355.351563 6374.06875 C 6302.421875 6403.75625 6283.59375 6470.670312 6313.28125 6523.560937 C 6342.96875 6576.490625 6409.882813 6595.31875 6462.773438 6565.63125 Z M 6462.773438 6565.63125 " transform="matrix(0.1,0,0,-0.1,0,702.86)"/>
<path style="fill:none;stroke-width:10;stroke-linecap:butt;stroke-linejoin:miter;stroke:rgb(100%,100%,100%);stroke-opacity:1;stroke-miterlimit:10;" d="M 6514.804688 6499.576562 L 6614.570313 6527.6625 " transform="matrix(0.1,0,0,-0.1,0,702.86)"/>
<path style="fill:none;stroke-width:10;stroke-linecap:butt;stroke-linejoin:miter;stroke:rgb(100%,100%,100%);stroke-opacity:1;stroke-miterlimit:10;" d="M 6309.648438 6419.615625 L 6277.851563 6410.63125 " transform="matrix(0.1,0,0,-0.1,0,702.86)"/>
<path style=" stroke:none;fill-rule:nonzero;fill:rgb(3.921509%,9.008789%,10.594177%);fill-opacity:1;" d="M 670.714844 20.757813 C 666.363281 10.328125 656.988281 13.597656 656.988281 13.597656 L 656.984375 13.609375 C 651.507813 7.746094 639.9375 4.277344 628.480469 7.652344 C 612.957031 12.222656 601.046875 24.546875 600.683594 33.464844 C 600.320313 42.382813 612.375 38.9375 612.375 38.9375 C 612.375 38.9375 630.386719 35.628906 644.316406 30.890625 C 645.117188 37.128906 648.105469 46.617188 658.972656 44.382813 L 666.003906 62.140625 C 666.003906 62.140625 676.347656 34.28125 670.714844 20.757813 "/>
<path style=" stroke:none;fill-rule:nonzero;fill:rgb(98.4375%,45.872498%,45.872498%);fill-opacity:1;" d="M 679.605469 50.507813 C 681.21875 55.699219 678.453125 61.195313 673.429688 62.777344 C 668.40625 64.363281 663.027344 61.441406 661.414063 56.246094 C 659.800781 51.054688 662.5625 45.5625 667.585938 43.976563 C 672.609375 42.390625 677.988281 45.3125 679.605469 50.507813 "/>
<path style=" stroke:none;fill-rule:nonzero;fill:rgb(98.4375%,45.872498%,45.872498%);fill-opacity:1;" d="M 677.269531 97.035156 L 653.738281 100.210938 L 637.269531 105.070313 C 637.269531 105.070313 640.277344 121.105469 654.8125 119.882813 C 681.609375 117.628906 677.269531 97.035156 677.269531 97.035156 "/>
<g clip-path="url(#clip83)" clip-rule="nonzero">
<g clip-path="url(#clip84)" clip-rule="nonzero">
<path style=" stroke:none;fill-rule:nonzero;fill:rgb(98.4375%,45.872498%,45.872498%);fill-opacity:1;" d="M 594.976563 438.121094 L 549.921875 415.597656 C 549.921875 415.597656 513.160156 412.882813 490.820313 417.742188 C 488.476563 418.253906 486.992188 420.542969 487.554688 422.875 C 488.050781 424.9375 490.003906 426.308594 492.109375 426.078125 L 512.734375 423.820313 L 501.632813 431.371094 C 498.621094 433.417969 498.960938 437.953125 502.238281 439.53125 C 503.605469 440.1875 505.195313 440.167969 506.523438 439.433594 C 512.695313 436.019531 532.089844 427.128906 550.996094 437.765625 L 533.359375 445.6875 C 529.890625 447.246094 528.953125 451.742188 531.511719 454.554688 C 532.742188 455.910156 534.554688 456.574219 536.371094 456.34375 L 552.785156 454.214844 C 552.785156 454.214844 572.09375 462.078125 589.96875 453.496094 "/>
</g>
</g>
<g clip-path="url(#clip85)" clip-rule="nonzero">
<g clip-path="url(#clip86)" clip-rule="nonzero">
<path style=" stroke:none;fill-rule:nonzero;fill:rgb(99.21875%,76.5625%,35.301208%);fill-opacity:1;" d="M 742.046875 379.886719 C 727.773438 414.839844 707.359375 484.453125 707.359375 484.453125 L 594.597656 431.34375 L 579.683594 470.054688 L 675.351563 535.378906 L 779.996094 531.015625 L 787.753906 449.167969 "/>
</g>
</g>
<g clip-path="url(#clip87)" clip-rule="nonzero">
<g clip-path="url(#clip88)" clip-rule="nonzero">
<path style=" stroke:none;fill-rule:nonzero;fill:rgb(99.21875%,76.5625%,35.301208%);fill-opacity:1;" d="M 760.871094 357.097656 C 753.308594 362.796875 746.15625 370.300781 742.046875 379.886719 L 735.269531 575.214844 C 735.269531 575.214844 855.148438 600.457031 920.257813 571.367188 C 920.257813 571.367188 918.425781 407.785156 881.339844 364.488281 C 881.339844 364.488281 869.652344 341.492188 810.214844 341.386719 C 792.535156 341.355469 774.988281 346.453125 760.871094 357.097656 "/>
</g>
</g>
<g clip-path="url(#clip89)" clip-rule="nonzero">
<g clip-path="url(#clip90)" clip-rule="nonzero">
<path style="fill:none;stroke-width:7.35;stroke-linecap:butt;stroke-linejoin:miter;stroke:rgb(100%,42.358398%,38.426208%);stroke-opacity:1;stroke-miterlimit:10;" d="M 7503.320313 2880.201562 L 7589.804688 1508.75625 " transform="matrix(0.1,0,0,-0.1,0,702.86)"/>
</g>
</g>
<g clip-path="url(#clip91)" clip-rule="nonzero">
<g clip-path="url(#clip92)" clip-rule="nonzero">
<path style=" stroke:none;fill-rule:nonzero;fill:rgb(98.4375%,45.872498%,45.872498%);fill-opacity:1;" d="M 634.410156 528.140625 L 632.765625 494.46875 C 632.765625 494.46875 620.691406 469.261719 609.6875 468.90625 C 601.609375 468.644531 591.425781 474.121094 586.019531 479.863281 C 583.5625 482.472656 584.222656 486.671875 587.414063 488.289063 C 592.660156 490.945313 600.640625 495.679688 604.71875 501.570313 C 604.71875 501.570313 599.390625 528.734375 608.378906 539.910156 C 612.949219 545.597656 639.863281 551.984375 639.863281 551.984375 "/>
</g>
</g>
<g clip-path="url(#clip93)" clip-rule="nonzero">
<g clip-path="url(#clip94)" clip-rule="nonzero">
<path style=" stroke:none;fill-rule:nonzero;fill:rgb(99.21875%,76.5625%,35.301208%);fill-opacity:1;" d="M 817.503906 373.78125 L 795.894531 510.714844 L 633.4375 517.753906 L 633.4375 575.214844 L 808.144531 570.988281 C 814.816406 571.378906 819.878906 569.234375 823.496094 565.492188 L 825.269531 566.328125 C 825.269531 566.328125 872.582031 567.128906 885.878906 405.574219 "/>
</g>
</g>
<g clip-path="url(#clip95)" clip-rule="nonzero">
<g clip-path="url(#clip96)" clip-rule="nonzero">
<path style="fill:none;stroke-width:7.35;stroke-linecap:butt;stroke-linejoin:miter;stroke:rgb(100%,42.358398%,38.426208%);stroke-opacity:1;stroke-miterlimit:10;" d="M 6485.78125 1857.623437 L 7959.375 1924.185937 L 8134.648438 3034.732812 " transform="matrix(0.1,0,0,-0.1,0,702.86)"/>
</g>
</g>
<g clip-path="url(#clip97)" clip-rule="nonzero">
<g clip-path="url(#clip98)" clip-rule="nonzero">
<path style="fill:none;stroke-width:7.35;stroke-linecap:butt;stroke-linejoin:miter;stroke:rgb(100%,42.358398%,38.426208%);stroke-opacity:1;stroke-miterlimit:10;" d="M 7959.375 1924.185937 L 8184.257813 1857.623437 " transform="matrix(0.1,0,0,-0.1,0,702.86)"/>
</g>
</g>
<g clip-path="url(#clip99)" clip-rule="nonzero">
<g clip-path="url(#clip100)" clip-rule="nonzero">
<path style="fill:none;stroke-width:7.35;stroke-linecap:butt;stroke-linejoin:miter;stroke:rgb(100%,42.358398%,38.426208%);stroke-opacity:1;stroke-miterlimit:10;" d="M 8825.9375 2540.31875 L 8662.03125 1809.146875 C 8620.820313 1625.1625 8521.015625 1459.5375 8377.617188 1337.19375 L 8304.179688 1279.107812 " transform="matrix(0.1,0,0,-0.1,0,702.86)"/>
</g>
</g>
<g clip-path="url(#clip101)" clip-rule="nonzero">
<g clip-path="url(#clip102)" clip-rule="nonzero">
<path style=" stroke:none;fill-rule:nonzero;fill:rgb(58.006287%,29.026794%,32.93457%);fill-opacity:1;" d="M 731.578125 216.253906 C 731.578125 216.253906 735.628906 235.578125 731.578125 247.347656 C 727.523438 259.117188 714.628906 264.652344 720.417969 295.394531 C 726.207031 326.132813 720.035156 326.859375 718.640625 335.542969 C 718.640625 335.542969 842.066406 347.164063 903.875 315.46875 C 903.875 315.46875 893.425781 297.53125 881.847656 277.628906 C 870.269531 257.730469 865.917969 225.003906 865.917969 225.003906 L 818.589844 206.886719 "/>
</g>
</g>
<g clip-path="url(#clip103)" clip-rule="nonzero">
<g clip-path="url(#clip104)" clip-rule="nonzero">
<path style=" stroke:none;fill-rule:nonzero;fill:rgb(58.006287%,29.026794%,32.93457%);fill-opacity:1;" d="M 760.882813 193.445313 C 759.472656 193.007813 764.960938 184.875 766.367188 184.425781 C 788.339844 177.410156 835.273438 168.125 859.140625 206.714844 C 876.683594 235.074219 859.074219 288.410156 822.210938 304.550781 C 787.097656 319.925781 793.074219 203.515625 793.074219 203.515625 "/>
</g>
</g>
<g clip-path="url(#clip105)" clip-rule="nonzero">
<g clip-path="url(#clip106)" clip-rule="nonzero">
<path style=" stroke:none;fill-rule:nonzero;fill:rgb(98.826599%,36.863708%,35.301208%);fill-opacity:1;" d="M 769.855469 265.679688 C 771.003906 275.230469 764.191406 283.90625 754.636719 285.054688 C 745.085938 286.203125 736.410156 279.390625 735.261719 269.835938 C 734.113281 260.28125 740.925781 251.609375 750.480469 250.460938 C 760.035156 249.3125 768.710938 256.125 769.855469 265.679688 "/>
</g>
</g>
<g clip-path="url(#clip107)" clip-rule="nonzero">
<g clip-path="url(#clip108)" clip-rule="nonzero">
<path style=" stroke:none;fill-rule:nonzero;fill:rgb(98.4375%,45.872498%,45.872498%);fill-opacity:1;" d="M 775.851563 312.226563 L 780.15625 349.953125 C 781.644531 363.203125 790.601563 369.371094 803.632813 367.804688 C 814.753906 366.46875 824.515625 359.472656 824.566406 348.269531 L 814.933594 289.226563 "/>
</g>
</g>
<g clip-path="url(#clip109)" clip-rule="nonzero">
<g clip-path="url(#clip110)" clip-rule="nonzero">
<path style=" stroke:none;fill-rule:nonzero;fill:rgb(98.826599%,36.863708%,35.301208%);fill-opacity:1;" d="M 778.511719 335.542969 C 804.980469 333.25 818.589844 295.394531 818.589844 295.394531 L 775.332031 308.367188 "/>
</g>
</g>
<g clip-path="url(#clip111)" clip-rule="nonzero">
<g clip-path="url(#clip112)" clip-rule="nonzero">
<path style=" stroke:none;fill-rule:nonzero;fill:rgb(98.4375%,45.872498%,45.872498%);fill-opacity:1;" d="M 787.675781 317.765625 C 765.320313 318.953125 745.972656 302.273438 744.386719 284.050781 L 740.90625 241.03125 C 738.921875 218.1875 755.410156 197.890625 778.175781 195.152344 C 801.476563 192.351563 826.722656 208.484375 829.523438 231.785156 L 831.945313 266.414063 C 833.820313 293.199219 816.332031 315.574219 787.675781 317.765625 "/>
</g>
</g>
<g clip-path="url(#clip113)" clip-rule="nonzero">
<g clip-path="url(#clip114)" clip-rule="nonzero">
<path style=" stroke:none;fill-rule:nonzero;fill:rgb(58.006287%,29.026794%,32.93457%);fill-opacity:1;" d="M 811.257813 226.253906 C 800.644531 242.097656 817.976563 264.59375 817.976563 264.59375 L 850.722656 225.003906 C 850.722656 225.003906 817.546875 216.867188 811.257813 226.253906 "/>
</g>
</g>
<g clip-path="url(#clip115)" clip-rule="nonzero">
<g clip-path="url(#clip116)" clip-rule="nonzero">
<path style=" stroke:none;fill-rule:nonzero;fill:rgb(98.4375%,45.872498%,45.872498%);fill-opacity:1;" d="M 852.570313 260.433594 C 853.71875 269.988281 846.90625 278.664063 837.351563 279.8125 C 827.800781 280.960938 819.125 274.148438 817.976563 264.59375 C 816.828125 255.039063 823.640625 246.363281 833.195313 245.214844 C 842.746094 244.066406 851.421875 250.882813 852.570313 260.433594 "/>
</g>
</g>
<g clip-path="url(#clip117)" clip-rule="nonzero">
<g clip-path="url(#clip118)" clip-rule="nonzero">
<path style=" stroke:none;fill-rule:nonzero;fill:rgb(58.006287%,29.026794%,32.93457%);fill-opacity:1;" d="M 766.367188 184.425781 C 766.367188 184.425781 718.632813 201.660156 728.523438 219.621094 C 735.851563 232.929688 783.890625 241.1875 829.523438 231.785156 C 829.523438 231.785156 850.347656 214.871094 824.566406 197.34375 C 824.566406 197.34375 810.726563 177.789063 766.367188 184.425781 "/>
</g>
</g>
<g clip-path="url(#clip119)" clip-rule="nonzero">
<g clip-path="url(#clip120)" clip-rule="nonzero">
<path style=" stroke:none;fill-rule:nonzero;fill:rgb(98.4375%,45.872498%,45.872498%);fill-opacity:1;" d="M 767.003906 352.945313 C 767.003906 352.945313 780.617188 344.144531 800.671875 341.386719 C 800.671875 341.386719 824.613281 339.914063 844.660156 344.660156 C 844.660156 344.660156 843.347656 365.941406 803.039063 370.644531 C 795.113281 371.570313 787.039063 371.375 779.363281 369.199219 C 771.652344 367.019531 769.835938 361.671875 767.003906 352.945313 "/>
</g>
</g>
</g>
</svg>
