<svg width="146.109" height="139.015" viewBox="0 0 146.109 139.015" xmlns="http://www.w3.org/2000/svg" xmlns:xlink="http://www.w3.org/1999/xlink" overflow="hidden"><g id="Icon_Background" transform="translate(-332.062 -329.922)"><ellipse cx="65.204" cy="64.707" rx="65.204" ry="64.707" id="Ellipse_27" fill="#003189" opacity="0.05" transform="translate(340.51 337.914)"/><ellipse cx="3.622" cy="3.595" rx="3.622" ry="3.595" id="Ellipse_28" stroke="#009CDC" stroke-width="3.208" stroke-linecap="round" stroke-miterlimit="10" fill="none" transform="translate(354.849 341.509)"/><ellipse cx="2.214" cy="2.197" rx="2.214" ry="2.197" id="Ellipse_29" fill="#E0007A" transform="translate(391.916 335.717)"/><line x1="0" y1="0" x2="10.666" y2="0" id="Line_45" stroke="#45A735" stroke-width="2.415" stroke-linecap="round" stroke-miterlimit="10" fill="none" transform="translate(440.077 342.008)"/><line x1="0" y1="10.585" x2="0" y2="0" id="Line_46" stroke="#45A735" stroke-width="2.397" stroke-linecap="round" stroke-miterlimit="10" fill="none" transform="translate(445.41 336.716)"/><line x1="0" y1="0" x2="57.154" y2="0" id="Line_47" stroke="#172954" stroke-width="3.22" stroke-linecap="round" stroke-miterlimit="10" fill="none" transform="translate(352.585 467.328)"/><line x1="0" y1="0" x2="3.22" y2="0" id="Line_48" stroke="#172954" stroke-width="3.22" stroke-linecap="round" stroke-miterlimit="10" fill="none" transform="translate(416.984 467.328)"/><path d="M354.093 455C354.098 455.833 353.426 456.513 352.593 456.518 351.76 456.523 351.08 455.851 351.075 455.018 351.07 454.185 351.742 453.505 352.575 453.5 352.578 453.5 352.581 453.5 352.584 453.5 353.412 453.495 354.088 454.163 354.093 454.991 354.093 454.994 354.093 454.997 354.093 455Z" id="Path_110" fill="#003189"/><path d="M465.247 383.451C465.252 384.284 464.58 384.964 463.747 384.969 462.914 384.974 462.234 384.302 462.229 383.469 462.224 382.636 462.896 381.956 463.729 381.951 463.732 381.951 463.735 381.951 463.738 381.951 464.566 381.946 465.242 382.614 465.247 383.442 465.247 383.445 465.247 383.448 465.247 383.451Z" id="Path_111" fill="#003189"/><ellipse cx="1.811" cy="1.797" rx="1.811" ry="1.797" id="Ellipse_30" fill="#EC411B" transform="translate(360.434 352.293)"/><path d="M471.171 436.744C471.18 437.738 470.382 438.552 469.388 438.561 468.394 438.57 467.581 437.772 467.571 436.778 467.562 435.784 468.36 434.97 469.354 434.961 469.36 434.961 469.365 434.961 469.371 434.961 470.359 434.955 471.165 435.751 471.171 436.739 471.171 436.741 471.171 436.742 471.171 436.744Z" id="Path_112" fill="#FFEE00"/><path d="M340.327 429.047 333.265 426.541 339.522 422.441Z" id="Path_113" stroke="#880F50" stroke-width="2.406" stroke-linecap="round" stroke-linejoin="round" fill="none"/><rect x="0" y="0" width="5.123" height="5.084" id="Rectangle_4" stroke="#FE9D2B" stroke-width="2.406" stroke-linecap="round" stroke-linejoin="round" fill="none" transform="matrix(0.707107 -0.707107 0.707107 0.707107 468.785 376.658)"/><path d="M427.449 467.328 448.379 467.328" id="Path_114" stroke="#172954" stroke-width="3.22" stroke-linecap="round" stroke-linejoin="round" fill="none"/><path d="M334.107 413.618C331.031 393.737 336.459 373.48 349.062 357.8" id="Path_115" stroke="#121A50" stroke-width="1.604" stroke-linecap="round" stroke-miterlimit="10" fill="none" opacity="0.2"/><path d="M350.647 449.343C347.396 445.575 344.544 441.481 342.137 437.125" id="Path_116" stroke="#121A50" stroke-width="1.604" stroke-linecap="round" stroke-miterlimit="10" fill="none" opacity="0.3"/><path d="M474.963 423.817C471.145 436.058 464.121 447.055 454.62 455.666" id="Path_117" stroke="#121A50" stroke-width="1.604" stroke-linecap="round" stroke-miterlimit="10" fill="none" opacity="0.2"/><path d="M476.621 387.788C476.858 388.912 477.069 390.045 477.253 391.188" id="Path_118" stroke="#121A50" stroke-width="1.604" stroke-linecap="round" stroke-miterlimit="10" fill="none" opacity="0.35"/><path d="M453.128 348.257C458.916 353.23 463.882 359.087 467.84 365.611" id="Path_119" stroke="#121A50" stroke-width="1.604" stroke-linecap="round" stroke-miterlimit="10" fill="none" opacity="0.3"/><path d="M372.673 338.62C391.861 328.897 414.356 328.115 434.173 336.482" id="Path_120" stroke="#121A50" stroke-width="1.604" stroke-linecap="round" stroke-miterlimit="10" fill="none" opacity="0.15"/></g><g id="Great_Post_Large" transform="translate(-313.106 -316.359)"><path d="M434.1 353.251 434.1 419.151C434.104 427.611 427.249 434.472 418.789 434.476 418.789 434.476 418.788 434.476 418.788 434.476L352.945 434.476C344.485 434.473 337.63 427.612 337.633 419.152 337.633 419.152 337.633 419.151 337.633 419.151L337.633 353.251" id="Path_121" stroke="#172954" stroke-width="3.064" stroke-linecap="round" stroke-miterlimit="10" fill="#E5F0F8"/><rect x="0" y="0" width="96.467" height="6.513" id="Rectangle_5" fill="#D1DEE5" transform="translate(337.633 358.615)"/><path d="M337.633 358.615 337.633 353.251C337.629 344.791 344.484 337.93 352.944 337.926 352.944 337.926 352.945 337.926 352.945 337.926L418.787 337.926C427.247 337.929 434.103 344.789 434.1 353.249 434.1 353.25 434.1 353.25 434.1 353.251L434.1 358.615" id="Path_122" fill="#009CDC"/><path d="M337.633 357.082C337.633 357.082 334.762 335.435 354.668 336.393L418.4 336.393C418.4 336.393 431.6 338.418 433.519 348.325 433.519 348.325 429.25 341.242 411.319 341.374L355.816 341.374C355.816 341.374 339.355 339.075 337.633 357.082Z" id="Path_123" fill="#68CBF1"/><line x1="96.467" y1="0" x2="0" y2="0" id="Line_49" stroke="#172954" stroke-width="3.062" stroke-linecap="round" stroke-miterlimit="10" fill="none" transform="translate(337.633 358.615)"/><line x1="0" y1="0" x2="55.124" y2="0" id="Line_50" stroke="#172954" stroke-width="4.594" stroke-linecap="round" stroke-miterlimit="10" fill="none" transform="translate(357.945 376.239)"/><line x1="0" y1="0" x2="20.671" y2="0" id="Line_51" stroke="#172954" stroke-width="4.594" stroke-linecap="round" stroke-miterlimit="10" fill="none" transform="translate(392.397 390.032)"/><line x1="13.781" y1="0" x2="0" y2="0" id="Line_52" stroke="#172954" stroke-width="4.594" stroke-linecap="round" stroke-miterlimit="10" fill="none" transform="translate(399.287 403.825)"/><path d="M414.773 421.962 429.29 419.437 434.769 415.231 434.099 408.378Z" id="Path_124" fill="#D1DEE5"/><rect x="0" y="0" rx="15.319" width="96.467" height="96.55" id="Rectangle_6" stroke="#172954" stroke-width="3.064" stroke-linecap="round" stroke-miterlimit="10" fill="none" transform="translate(337.633 337.926)"/><g id="Group_17"><g id="Group_7"><rect x="0" y="0" width="28.88" height="6.418" id="Rectangle_7" fill="#FAC923" transform="matrix(0.707 -0.707 0.707 0.707 423.62 412.205)"/></g><g id="Group_8"><rect x="0" y="0" width="28.88" height="6.418" id="Rectangle_8" fill="#FDE085" transform="matrix(0.707 -0.707 0.707 0.707 419.084 407.665)"/></g><g id="Group_9"><path d="M421.352 419.015 428.152 416.745C428.152 416.745 428.152 412.205 423.616 412.205 423.616 412.205 423.616 407.666 419.081 407.666L416.812 414.476 414.544 421.287Z" id="Path_125" fill="#FFFFFF"/><path d="M427.316 412.878 427.316 412.878C428.281 413.939 428.832 415.311 428.868 416.745 428.868 417.052 428.672 417.324 428.381 417.422L414.772 421.962C414.398 422.085 413.995 421.881 413.872 421.507 413.824 421.363 413.824 421.207 413.872 421.062L418.408 407.442C418.505 407.151 418.778 406.955 419.085 406.955 420.456 406.891 421.793 407.392 422.785 408.341 423.607 409.218 424.13 410.332 424.279 411.525 425.42 411.599 426.497 412.079 427.316 412.878ZM423.116 412.71C422.982 412.576 422.908 412.394 422.908 412.204 422.872 411.149 422.471 410.139 421.773 409.347 421.182 408.781 420.408 408.445 419.591 408.401L415.676 420.157 427.397 416.246C427.288 415.366 426.908 414.541 426.309 413.887L426.309 413.887C425.582 413.212 424.612 412.862 423.621 412.918 423.432 412.919 423.25 412.844 423.115 412.711Z" id="Path_126" fill="#172954"/></g><g id="Group_10"><line x1="0" y1="21.944" x2="21.925" y2="0" id="Line_53" fill="#E5F0F8" transform="translate(422.108 391.775)"/><path d="M444.537 391.27C444.815 391.549 444.815 391.999 444.537 392.278L422.612 414.222C422.326 414.493 421.875 414.482 421.604 414.196 421.343 413.921 421.343 413.489 421.604 413.214L443.529 391.27C443.807 390.992 444.259 390.992 444.537 391.27Z" id="Path_127" fill="#172954"/></g><g id="Group_11"><line x1="0" y1="20.43" x2="20.413" y2="0" id="Line_54" fill="#E5F0F8" transform="translate(419.084 387.235)"/><path d="M440 386.73C440.278 387.009 440.278 387.46 440 387.739L419.587 408.169C419.319 408.458 418.867 408.476 418.578 408.208 418.289 407.94 418.271 407.488 418.539 407.199 418.552 407.185 418.565 407.172 418.578 407.16L438.992 386.729C439.27 386.451 439.721 386.451 439.999 386.729 439.999 386.729 440 386.73 440 386.73Z" id="Path_128" fill="#172954"/></g><g id="Group_12"><path d="M450.837 394.044 455.373 389.504C456.627 388.301 456.668 386.31 455.465 385.056 455.435 385.025 455.404 384.994 455.373 384.964L450.837 380.424C449.638 379.171 447.65 379.128 446.397 380.327 446.364 380.358 446.332 380.391 446.3 380.424L441.765 384.964" id="Path_129" fill="#DF454A"/><path d="M451.341 379.92 455.877 384.459C457.41 385.881 457.499 388.277 456.077 389.81 456.013 389.878 455.946 389.945 455.877 390.009L451.341 394.549C451.062 394.827 450.61 394.827 450.332 394.548 450.054 394.269 450.054 393.817 450.333 393.539L454.87 389C455.845 388.097 455.904 386.575 455.001 385.6 454.959 385.555 454.915 385.511 454.87 385.469L450.334 380.929C449.435 379.955 447.917 379.894 446.943 380.792 446.895 380.836 446.85 380.882 446.806 380.929L442.27 385.469C441.981 385.737 441.529 385.719 441.261 385.43 441.008 385.156 441.008 384.734 441.261 384.46L445.797 379.921C447.214 378.39 449.605 378.298 451.136 379.715 451.207 379.781 451.275 379.849 451.341 379.92Z" id="Path_130" fill="#172954"/></g><g id="Group_13"><line x1="0" y1="20.43" x2="20.413" y2="0" id="Line_55" fill="#E5F0F8" transform="translate(428.156 396.315)"/><path d="M449.073 395.81C449.351 396.088 449.351 396.54 449.073 396.818L428.66 417.251C428.381 417.529 427.929 417.529 427.651 417.25 427.373 416.971 427.373 416.519 427.652 416.241L448.065 395.811C448.343 395.533 448.794 395.532 449.073 395.81Z" id="Path_131" fill="#172954"/></g><g id="Group_14"><path d="M438.362 383.829C438.985 383.203 439.998 383.2 440.625 383.824 440.626 383.825 440.628 383.827 440.63 383.829L451.972 395.181C452.598 395.808 452.598 396.824 451.972 397.451L451.972 397.451C451.349 398.077 450.336 398.08 449.709 397.456 449.707 397.455 449.706 397.453 449.704 397.451L438.362 386.1C437.736 385.473 437.736 384.457 438.362 383.83Z" id="Path_132" fill="#E5F0F8"/><path d="M441.134 383.325 452.476 394.676C453.373 395.589 453.36 397.057 452.447 397.954 451.546 398.839 450.102 398.84 449.2 397.956L437.858 386.6C436.97 385.677 436.999 384.21 437.922 383.322 438.818 382.46 440.236 382.459 441.134 383.321ZM450.208 396.945C450.556 397.293 451.121 397.293 451.469 396.945 451.816 396.596 451.816 396.032 451.468 395.684L440.127 384.334C439.779 383.986 439.214 383.986 438.867 384.335 438.519 384.683 438.519 385.247 438.867 385.595Z" id="Path_133" fill="#172954"/></g><g id="Group_15"><line x1="0" y1="3.279" x2="3.276" y2="0" id="Line_56" fill="#DF454A" transform="translate(448.318 388.244)"/><path d="M452.1 387.739C452.378 388.018 452.378 388.468 452.1 388.747L448.823 392.026C448.544 392.304 448.093 392.304 447.814 392.026 447.536 391.747 447.536 391.295 447.815 391.017L451.091 387.739C451.37 387.461 451.821 387.461 452.1 387.739Z" id="Path_134" fill="#172954"/></g><g id="Group_16"><path d="M414.547 421.286 420.596 419.269 416.563 415.233Z" id="Path_135" fill="#162954"/></g></g><path d="M356.9 418.932 356.9 444.213 365.874 435.232 374.848 444.213 374.848 418.932" id="Path_136" stroke="#172954" stroke-width="2.298" stroke-linecap="round" stroke-linejoin="round" fill="#009CDC"/><path d="M365.874 392.583 370.039 396.616 375.779 395.803 376.779 401.516 381.899 404.236 379.354 409.447 381.899 414.659 376.779 417.378 375.779 423.092 370.039 422.279 365.874 426.312 361.709 422.279 355.969 423.092 354.969 417.378 349.849 414.659 352.394 409.447 349.849 404.236 354.969 401.516 355.969 395.803 361.709 396.616Z" id="Path_137" stroke="#162954" stroke-width="3.064" stroke-linecap="round" stroke-linejoin="round" fill="#A34B96"/><ellipse cx="7.379" cy="7.385" rx="7.379" ry="7.385" id="Ellipse_31" stroke="#172954" stroke-width="2.298" stroke-linecap="round" stroke-miterlimit="10" fill="#E5F0F8" transform="translate(358.56 402.292)"/></g></svg>