<svg width="28.432" height="28.432" viewBox="0 0 28.432 28.432" xmlns="http://www.w3.org/2000/svg" xmlns:xlink="http://www.w3.org/1999/xlink" overflow="hidden"><g id="Group_63" transform="translate(1.25 1.25)"><g id="Group_59"><g id="Group_57"><rect x="0" y="0" width="9.149" height="9.149" id="Rectangle_28" stroke="#2C3149" stroke-width="2.5" stroke-linecap="round" stroke-linejoin="round" fill="none"/><rect x="0" y="0" width="9.149" height="9.149" id="Rectangle_29" stroke="#2C3149" stroke-width="2.5" stroke-linecap="round" stroke-linejoin="round" fill="none" transform="matrix(1 0 0 1 0 16.783)"/></g><g id="Group_58"><rect x="0" y="0" width="9.149" height="9.149" id="Rectangle_30" stroke="#2C3149" stroke-width="2.5" stroke-linecap="round" stroke-linejoin="round" fill="none"/><rect x="0" y="0" width="9.149" height="9.149" id="Rectangle_31" stroke="#2C3149" stroke-width="2.5" stroke-linecap="round" stroke-linejoin="round" fill="none" transform="matrix(1 0 0 1 0 16.783)"/></g></g><g id="Group_62" transform="translate(16.782 0)"><g id="Group_60"><rect x="0" y="0" width="9.149" height="9.149" id="Rectangle_32" stroke="#2C3149" stroke-width="2.5" stroke-linecap="round" stroke-linejoin="round" fill="none"/><rect x="0" y="0" width="9.149" height="9.149" id="Rectangle_33" stroke="#2C3149" stroke-width="2.5" stroke-linecap="round" stroke-linejoin="round" fill="none" transform="matrix(1 0 0 1 0 16.783)"/></g><g id="Group_61"><rect x="0" y="0" width="9.149" height="9.149" id="Rectangle_34" stroke="#2C3149" stroke-width="2.5" stroke-linecap="round" stroke-linejoin="round" fill="none"/><rect x="0" y="0" width="9.149" height="9.149" id="Rectangle_35" stroke="#2C3149" stroke-width="2.5" stroke-linecap="round" stroke-linejoin="round" fill="none" transform="matrix(1 0 0 1 0 16.783)"/></g></g></g></svg>