<svg width="1920" height="480" viewBox="0 0 1920 480" xmlns="http://www.w3.org/2000/svg" xmlns:xlink="http://www.w3.org/1999/xlink" id="Background" overflow="hidden"><defs><linearGradient x1="0.5" x2="0.5" y2="1" gradientUnits="objectBoundingBox" id="linear-gradient"><stop offset="0" stop-color="#6852ED"/><stop offset="1" stop-color="#BA43FC"/></linearGradient><clipPath id="clip-path"><rect x="0" y="0" width="1920" height="480" id="Bg" fill="url(#linear-gradient)" opacity="0.05"/></clipPath></defs><rect x="0" y="0" width="1920" height="480" id="Bg-2" fill="url(#linear-gradient)" opacity="0.05"/><g id="Background-2" clip-path="url(#clip-path)"><circle cx="10" cy="10" r="10" id="Bg-3" fill="#6852ED" transform="translate(318 274)"/><circle cx="25" cy="25" r="25" id="Bg-4" fill="#1E84ED" transform="translate(365 49)"/><circle cx="90.5" cy="90.5" r="90.5" id="Bg-5" fill="#062C51" transform="translate(26 68)"/><circle cx="18.5" cy="18.5" r="18.5" id="Bg-6" fill="#1E84ED" transform="translate(1283 49)"/><circle cx="40" cy="40" r="40" id="Bg-7" fill="#30C7A8" transform="translate(1465 314)"/><circle cx="107.5" cy="107.5" r="107.5" id="Bg-8" fill="#1E84ED" transform="translate(1813 109)"/><path d="M32.011 565.72C-8.68139 527.722-10.8654 463.93 27.1328 423.238 27.2008 423.165 27.2688 423.093 27.337 423.02L394.417 31.948C432.535-8.82884 496.491-10.9846 537.268 27.133 578.045 65.2506 580.201 129.207 542.083 169.984L175.007 561.056C136.773 601.758 72.8118 603.845 32.007 565.72" id="Shape" fill="#062C51" transform="translate(1728 -525)"/><path d="M0.057 510.369C-0.921992 482.779 9.18528 455.945 28.123 435.856L405.752 32.917C445.027-9.03179 510.872-11.1994 552.82 28.0755 594.769 67.3504 596.937 133.195 557.662 175.144L180.036 578.086C140.735 620.021 74.8854 622.172 32.931 582.892 12.7227 564.081 0.884298 537.965 0.0569959 510.369Z" id="Shape-2" fill="#062C51" transform="translate(50 385)"/></g></svg>