<svg width="21.16" height="21.133" viewBox="0 0 21.16 21.133" xmlns="http://www.w3.org/2000/svg" xmlns:xlink="http://www.w3.org/1999/xlink" overflow="hidden"><g id="Post_stats" transform="translate(1.125 1.125)"><g id="Post_stats-2"><path d="M60.364 78.435 65.34 66.835 73.547 71.452 77.823 61.533" id="Path_54" stroke="#1A1818" stroke-width="2.25" stroke-linecap="round" stroke-linejoin="round" fill="none" transform="translate(-59.267 -59.904)"/><path d="M77.723 77.186C77.7285 78.1237 76.9737 78.8888 76.036 78.896L61.191 78.896C60.2533 78.8888 59.4985 78.1237 59.504 77.186L59.504 61.966C59.4985 61.0283 60.2533 60.2632 61.191 60.256" id="Path_55" stroke="#1A1818" stroke-width="2.25" stroke-linecap="round" stroke-linejoin="round" fill="none" transform="translate(-59.504 -60.256)"/></g><path d="M1.687 18.641C0.748891 18.6338-0.00609754 17.8681 3.62396e-08 16.93L0 1.71C-0.00554343 0.772273 0.749284 0.00715463 1.687 3.8147e-08L10.7 9.23 18.555 1.624 14.28 11.543 11.346 9.892 18.219 16.93C18.2251 17.8685 17.4695 18.6344 16.531 18.641Z" id="Color_Overlay" fill="none" transform="matrix(1 0 0 1 0 0.001)"/></g></svg>