<svg width="145.997" height="139.008" viewBox="0 0 145.997 139.008" xmlns="http://www.w3.org/2000/svg" xmlns:xlink="http://www.w3.org/1999/xlink" overflow="hidden"><g id="Icon_Background" transform="translate(-331.309 -329.924)"><path d="M456.363 452.439C454.623 454.242 452.79 455.954 450.873 457.567" id="Path_51" stroke="#121A50" stroke-width="1.601" stroke-linecap="round" stroke-miterlimit="10" fill="none" opacity="0.6"/><path d="M467.89 368.531C479.084 389.263 479.387 414.169 468.701 435.168" id="Path_52" stroke="#121A50" stroke-width="1.601" stroke-linecap="round" stroke-miterlimit="10" fill="none" opacity="0.3"/><path d="M355.591 349.559C379.214 328.093 414.101 324.612 441.5 340.987" id="Path_53" stroke="#121A50" stroke-width="1.601" stroke-linecap="round" stroke-miterlimit="10" fill="none" opacity="0.25"/><path d="M356.743 456.71C335.913 438.565 327.341 410.078 334.7 383.451" id="Path_54" stroke="#121A50" stroke-width="1.601" stroke-linecap="round" stroke-miterlimit="10" fill="none" opacity="0.2"/><ellipse cx="64.978" cy="64.707" rx="64.978" ry="64.707" id="Ellipse_13" fill="#003189" opacity="0.05" transform="translate(339.33 337.914)"/><ellipse cx="3.61" cy="3.595" rx="3.61" ry="3.595" id="Ellipse_14" stroke="#009CDC" stroke-width="3.202" stroke-linecap="round" stroke-miterlimit="10" fill="none" transform="translate(342.94 388.241)"/><ellipse cx="2.206" cy="2.197" rx="2.206" ry="2.197" id="Ellipse_15" fill="#E0007A" transform="translate(342.137 424.19)"/><line x1="0" y1="0" x2="10.629" y2="0" id="Line_22" stroke="#45A735" stroke-width="2.407" stroke-linecap="round" stroke-miterlimit="10" fill="none" transform="translate(335.92 364.775)"/><line x1="0" y1="10.585" x2="0" y2="0" id="Line_23" stroke="#45A735" stroke-width="2.397" stroke-linecap="round" stroke-miterlimit="10" fill="none" transform="translate(341.235 359.483)"/><line x1="0" y1="0" x2="0.802" y2="0" id="Line_24" stroke="#172954" stroke-width="3.209" stroke-linecap="round" stroke-miterlimit="10" fill="none" transform="translate(367.407 467.328)"/><line x1="0" y1="0" x2="36.099" y2="0" id="Line_25" stroke="#172954" stroke-width="3.209" stroke-linecap="round" stroke-miterlimit="10" fill="none" transform="translate(375.429 467.328)"/><path d="M364 444.262C364 445.09 363.328 445.762 362.5 445.762 361.672 445.762 361 445.09 361 444.262 361 443.434 361.672 442.762 362.5 442.762 363.328 442.762 364 443.434 364 444.262Z" id="Path_55" fill="#003189"/><path d="M463.569 393.934C463.569 394.762 462.897 395.434 462.069 395.434 461.241 395.434 460.569 394.762 460.569 393.934 460.569 393.106 461.241 392.434 462.069 392.434 462.897 392.434 463.569 393.106 463.569 393.934Z" id="Path_56" fill="#003189"/><ellipse cx="1.805" cy="1.797" rx="1.805" ry="1.797" id="Ellipse_16" fill="#EC411B" transform="translate(359.184 352.293)"/><path d="M457.173 446.573C457.177 447.562 456.379 448.366 455.39 448.37 454.401 448.374 453.597 447.576 453.593 446.587 453.589 445.598 454.387 444.794 455.376 444.79 455.378 444.79 455.381 444.79 455.383 444.79 456.369 444.788 457.171 445.586 457.173 446.572 457.173 446.572 457.173 446.573 457.173 446.573Z" id="Path_57" fill="#FFEE00"/><path d="M464.552 366.547 462.2 359.483 469.287 361.848Z" id="Path_58" stroke="#880F50" stroke-width="2.402" stroke-linecap="round" stroke-linejoin="round" fill="none"/><rect x="0" y="0" width="5.105" height="5.084" id="Rectangle_2" stroke="#FE9D2B" stroke-width="2.402" stroke-linecap="round" stroke-linejoin="round" fill="none" transform="matrix(0.707107 -0.707107 0.707107 0.707107 447.626 355.888)"/><path d="M418.747 467.328 425.967 467.328 433.187 460.138 440.407 467.328 454.847 467.328" id="Path_59" stroke="#172954" stroke-width="3.202" stroke-linecap="round" stroke-linejoin="round" fill="none"/></g><g id="intermediate_large" transform="translate(-274.77 -276.297)"><path d="M321.521 356.984C322.585 363.022 319.833 368.548 315.376 369.326 310.919 370.104 306.444 365.842 305.376 359.804 304.308 353.766 307.064 348.24 311.521 347.462 315.978 346.684 320.458 350.946 321.521 356.984Z" id="Path_60" stroke="#172954" stroke-width="2.762" stroke-linecap="round" stroke-miterlimit="10" fill="#FFD85B"/><path d="M392.032 360.835C390.71 366.822 386.057 370.892 381.637 369.924 377.217 368.956 374.705 363.319 376.027 357.332 377.349 351.345 382.001 347.276 386.422 348.243 390.843 349.21 393.354 354.848 392.032 360.835Z" id="Path_61" stroke="#172954" stroke-width="2.762" stroke-linecap="round" stroke-miterlimit="10" fill="#E2B733"/><path d="M386.11 351.5C386.11 372.054 369.381 394.921 348.745 394.921 328.109 394.921 311.38 372.055 311.38 351.5 311.487 330.864 328.302 314.221 348.939 314.328 369.424 314.434 386.005 331.014 386.111 351.5Z" id="Path_62" stroke="#172954" stroke-width="2.762" stroke-linecap="round" stroke-miterlimit="10" fill="#FFD746"/><path d="M372.482 324.432C372.482 324.432 392.382 373.299 348.745 394.92 348.745 394.92 384.496 392.62 387.611 345.891Z" id="Path_63" fill="#D4AB2F" opacity="0.8"/><path d="M319.855 328.583C319.855 328.583 318.075 381.976 342.739 394.268 342.739 394.268 315.004 392.286 312.031 345.923 312.031 345.923 317.766 330.157 319.855 328.583Z" id="Path_64" fill="#FDD55D"/><path d="M386.11 351.5C386.11 372.054 369.381 394.921 348.745 394.921 328.109 394.921 311.38 372.055 311.38 351.5 311.487 330.864 328.302 314.221 348.939 314.328 369.424 314.434 386.005 331.014 386.111 351.5Z" id="Path_65" stroke="#172954" stroke-width="2.762" stroke-linecap="round" stroke-miterlimit="10" fill="none"/><path d="M344.074 362.872C347.073 364.069 350.416 364.069 353.415 362.872" id="Path_66" stroke="#172954" stroke-width="2.762" stroke-linecap="round" stroke-miterlimit="10" fill="none"/><line x1="0" y1="0.865" x2="1.413" y2="0" id="Line_26" stroke="#172954" stroke-width="2.762" stroke-linecap="round" stroke-linejoin="round" fill="#FFFFFF" transform="translate(310.168 358.216)"/><line x1="1.413" y1="0.865" x2="0" y2="0" id="Line_27" stroke="#172954" stroke-width="2.762" stroke-linecap="round" stroke-linejoin="round" fill="#FFFFFF" transform="translate(386.284 358.216)"/><path d="M337.673 343.918C337.673 343.918 333.173 340.283 326.256 343.218" id="Path_67" stroke="#172954" stroke-width="2.762" stroke-linecap="round" stroke-linejoin="round" fill="#FFFFFF"/><path d="M359.816 343.918C359.816 343.918 364.316 340.98 371.233 343.918" id="Path_68" stroke="#172954" stroke-width="2.762" stroke-linecap="round" stroke-linejoin="round" fill="#FFFFFF"/><ellipse cx="3.172" cy="3.159" rx="3.172" ry="3.159" id="Ellipse_17" fill="#162954" transform="translate(328.62 346.445)"/><ellipse cx="3.172" cy="3.159" rx="3.172" ry="3.159" id="Ellipse_18" fill="#162954" transform="translate(361.141 346.445)"/><path d="M363.967 306.471C363.967 306.471 383.338 302.336 387.004 323.471 388.309 330.918 387.85 338.567 385.665 345.805 385.665 345.805 377.187 321.174 360.407 321.071 360.407 321.072 357.509 316.809 363.967 306.471Z" id="Path_69" stroke="#172954" stroke-width="2.762" stroke-linecap="round" stroke-linejoin="round" fill="#AB4E3E"/><path d="M375.675 307.6C375.675 307.6 383.437 318.86 378.892 332.854L385.12 344.371C385.12 344.371 390.029 333.371 387.72 324.429 387.723 324.432 384.1 309.054 375.675 307.6Z" id="Path_70" fill="#A23028"/><path d="M363.967 306.471C363.967 306.471 383.338 302.336 387.004 323.471 388.309 330.918 387.85 338.567 385.665 345.805 385.665 345.805 377.187 321.174 360.407 321.071 360.407 321.072 357.509 316.809 363.967 306.471Z" id="Path_71" stroke="#172954" stroke-width="2.762" stroke-linecap="round" stroke-linejoin="round" fill="none"/><path d="M364.425 316.827C364.425 316.827 370.981 300.497 348.744 297.741 348.744 297.741 318.679 295.441 312.03 318.417 312.03 318.417 299.615 325.842 311.378 347.401 311.378 347.401 313.684 330.594 323.833 327.607 323.834 327.607 359.037 329.014 364.425 316.827Z" id="Path_72" stroke="#172954" stroke-width="2.762" stroke-linecap="round" stroke-linejoin="round" fill="#AB4E3E"/><path d="M311.379 345.805C311.379 345.805 306.535 329.215 318.067 322.782 318.067 322.782 328.71 300.272 348.744 297.741 348.744 297.741 323.293 294.524 312.03 318.417 305.948 326.457 305.686 337.485 311.379 345.805Z" id="Path_73" fill="#C0685D"/><path d="M320.993 314.282C320.993 314.282 326.256 307.045 335.166 305.588" id="Path_74" stroke="#172954" stroke-width="2.762" stroke-linecap="round" stroke-linejoin="round" fill="none"/><path d="M338.25 373.3C338.25 373.3 348.745 383.753 359.24 373.3" id="Path_75" stroke="#172954" stroke-width="2.762" stroke-linecap="round" stroke-linejoin="round" fill="none"/><path d="M345.558 384.6C345.558 384.6 348.744 381.427 351.93 384.6" id="Path_76" stroke="#172954" stroke-width="2.762" stroke-linecap="round" stroke-linejoin="round" fill="none"/><path d="M364.425 316.827C364.425 316.827 370.981 300.497 348.744 297.741 348.744 297.741 318.679 295.441 312.03 318.417 312.03 318.417 299.615 325.842 311.378 347.401 311.378 347.401 313.684 330.594 323.833 327.607 323.834 327.607 359.037 329.014 364.425 316.827Z" id="Path_77" stroke="#172954" stroke-width="2.762" stroke-linecap="round" stroke-linejoin="round" fill="none"/></g></svg>