<svg width="145.997" height="139.008" viewBox="0 0 145.997 139.008" xmlns="http://www.w3.org/2000/svg" xmlns:xlink="http://www.w3.org/1999/xlink" overflow="hidden"><g id="Icon_Background" transform="translate(-82.628 -329.924)"><g id="Group_31"><path d="M207.682 452.439C205.942 454.242 204.109 455.954 202.192 457.567" id="Path_216" stroke="#121A50" stroke-width="1.601" stroke-linecap="round" stroke-miterlimit="10" fill="none" opacity="0.6"/><path d="M219.209 368.531C230.403 389.263 230.706 414.169 220.02 435.168" id="Path_217" stroke="#121A50" stroke-width="1.601" stroke-linecap="round" stroke-miterlimit="10" fill="none" opacity="0.3"/><path d="M106.91 349.559C130.533 328.093 165.42 324.612 192.819 340.987" id="Path_218" stroke="#121A50" stroke-width="1.601" stroke-linecap="round" stroke-miterlimit="10" fill="none" opacity="0.25"/><path d="M108.062 456.71C87.2336 438.564 78.664 410.077 86.024 383.451" id="Path_219" stroke="#121A50" stroke-width="1.601" stroke-linecap="round" stroke-miterlimit="10" fill="none" opacity="0.2"/><ellipse cx="64.978" cy="64.707" rx="64.978" ry="64.707" id="Ellipse_52" fill="#003189" opacity="0.05" transform="translate(90.648 337.914)"/><ellipse cx="3.61" cy="3.595" rx="3.61" ry="3.595" id="Ellipse_53" stroke="#009CDC" stroke-width="3.202" stroke-linecap="round" stroke-miterlimit="10" fill="none" transform="translate(94.258 424.19)"/><ellipse cx="2.206" cy="2.197" rx="2.206" ry="2.197" id="Ellipse_54" fill="#E0007A" transform="translate(90.247 395.032)"/><line x1="0" y1="0" x2="10.629" y2="0" id="Line_86" stroke="#45A735" stroke-width="2.407" stroke-linecap="round" stroke-miterlimit="10" fill="none" transform="translate(201.151 351.994)"/><line x1="0" y1="10.585" x2="0" y2="0" id="Line_87" stroke="#45A735" stroke-width="2.397" stroke-linecap="round" stroke-miterlimit="10" fill="none" transform="translate(206.466 346.701)"/><line x1="0" y1="0" x2="0.802" y2="0" id="Line_88" stroke="#172954" stroke-width="3.209" stroke-linecap="round" stroke-miterlimit="10" fill="none" transform="translate(118.725 467.328)"/><line x1="0" y1="0" x2="36.099" y2="0" id="Line_89" stroke="#172954" stroke-width="3.209" stroke-linecap="round" stroke-miterlimit="10" fill="none" transform="translate(126.747 467.328)"/><line x1="0" y1="0" x2="24.066" y2="0" id="Line_90" stroke="#172954" stroke-width="3.209" stroke-linecap="round" stroke-miterlimit="10" fill="none" transform="translate(170.066 467.328)"/><path d="M108.1 444.79C108.1 445.618 107.428 446.29 106.6 446.29 105.772 446.29 105.1 445.618 105.1 444.79 105.1 443.962 105.772 443.29 106.6 443.29 107.428 443.29 108.1 443.962 108.1 444.79Z" id="Path_220" fill="#003189"/><path d="M220.6 388.242C220.6 389.07 219.928 389.742 219.1 389.742 218.272 389.742 217.6 389.07 217.6 388.242 217.6 387.414 218.272 386.742 219.1 386.742 219.928 386.742 220.6 387.414 220.6 388.242Z" id="Path_221" fill="#003189"/><ellipse cx="1.805" cy="1.797" rx="1.805" ry="1.797" id="Ellipse_55" fill="#EC411B" transform="translate(119.26 352.293)"/><path d="M208.491 446.573C208.495 447.562 207.697 448.366 206.708 448.37 205.719 448.374 204.915 447.576 204.911 446.587 204.907 445.598 205.705 444.794 206.694 444.79 206.696 444.79 206.699 444.79 206.701 444.79 207.687 444.788 208.489 445.586 208.491 446.572 208.491 446.572 208.491 446.573 208.491 446.573Z" id="Path_222" fill="#FFEE00"/><path d="M214.313 447.936 211.96 440.872 219.047 443.237Z" id="Path_223" stroke="#880F50" stroke-width="2.402" stroke-linecap="round" stroke-linejoin="round" fill="none"/><rect x="0" y="0" width="5.105" height="5.084" id="Rectangle_21" stroke="#FE9D2B" stroke-width="2.402" stroke-linecap="round" stroke-linejoin="round" fill="none" transform="matrix(0.707107 -0.707107 0.707107 0.707107 102.681 361.48)"/></g></g><g id="lets_talk_large" transform="translate(-277.002 -280.694)"><ellipse cx="15.625" cy="15.652" rx="15.625" ry="15.652" id="Ellipse_56" stroke="#172954" stroke-width="2.78" stroke-linecap="round" stroke-miterlimit="10" fill="#FACC42" transform="translate(301.389 352)"/><rect x="0" y="0" width="3.906" height="3.913" id="Rectangle_22" fill="#162954" transform="translate(321.571 363.739)"/><rect x="0" y="0" width="3.906" height="3.913" id="Rectangle_23" fill="#162954" transform="translate(312.891 363.739)"/><ellipse cx="12.5" cy="12.522" rx="12.5" ry="12.522" id="Ellipse_57" stroke="#172954" stroke-width="2.78" stroke-linecap="round" stroke-miterlimit="10" fill="#F69C5C" transform="translate(373.611 374.261)"/><g id="Group_32"><path d="M392.516 331.826 343.75 331.826 343.75 365.062 386.96 365.062 392.516 369.391 392.516 331.826Z" id="Path_224" fill="#F8FBFD"/><path d="M386.96 365.062 343.75 331.826 343.75 365.062Z" id="Path_225" fill="#E5EEF1"/><path d="M392.516 331.826 343.75 331.826 343.75 365.062 386.96 365.062 392.516 369.391 392.516 331.826Z" id="Path_226" stroke="#172954" stroke-width="2.78" stroke-linecap="round" stroke-linejoin="round" fill="none"/><line x1="18.905" y1="0" x2="0" y2="0" id="Line_91" stroke="#172954" stroke-width="2.778" stroke-linecap="round" stroke-linejoin="round" fill="#E5F0F8" transform="translate(362.5 344.657)"/><line x1="0.849" y1="0" x2="0" y2="0" id="Line_92" stroke="#172954" stroke-width="2.778" stroke-linecap="round" stroke-linejoin="round" fill="#E5F0F8" transform="translate(380.556 352.696)"/><line x1="18.75" y1="0" x2="0" y2="0" id="Line_93" stroke="#172954" stroke-width="2.778" stroke-linecap="round" stroke-linejoin="round" fill="#E5F0F8" transform="translate(356.25 352.696)"/></g><rect x="0" y="0" width="3.125" height="3.13" id="Rectangle_24" fill="#162954" transform="translate(379.34 383.652)"/><rect x="0" y="0" width="3.125" height="3.13" id="Rectangle_25" fill="#162954" transform="translate(386.285 383.652)"/><path d="M326.32 355.079C326.32 355.079 326.17 360.753 314.844 360.261 314.844 360.261 303.993 358.305 301.389 367.652 301.389 367.652 304.986 343.726 326.32 355.079Z" id="Path_227" fill="#162954"/><path d="M393.383 376.011C393.383 376.011 393.264 380.549 384.202 380.156 384.202 380.156 375.521 378.591 373.438 386.069 373.438 386.07 376.315 366.928 393.383 376.011Z" id="Path_228" fill="#162954"/><g id="Group_33"><path d="M315.278 302.087 370.139 302.087 370.139 339.478 321.528 339.478 315.278 344.348 315.278 302.087Z" id="Path_229" fill="#E5F0F8"/><path d="M321.528 339.478 370.139 302.087 370.139 339.478Z" id="Path_230" fill="#CEE1EB"/><path d="M315.278 302.087 370.139 302.087 370.139 339.478 321.528 339.478 315.278 344.348 315.278 302.087Z" id="Path_231" stroke="#172954" stroke-width="2.78" stroke-linecap="round" stroke-linejoin="round" fill="none"/><line x1="0" y1="0" x2="27.431" y2="0" id="Line_94" stroke="#172954" stroke-width="2.778" stroke-linecap="round" stroke-linejoin="round" fill="#E5F0F8" transform="translate(327.778 316.522)"/><line x1="0" y1="0" x2="12.5" y2="0" id="Line_95" stroke="#172954" stroke-width="2.778" stroke-linecap="round" stroke-linejoin="round" fill="#E5F0F8" transform="translate(327.778 325.565)"/><line x1="0" y1="0" x2="6.25" y2="0" id="Line_96" stroke="#172954" stroke-width="2.778" stroke-linecap="round" stroke-linejoin="round" fill="#E5F0F8" transform="translate(346.528 325.565)"/></g></g></svg>