<svg width="18.613" height="18.613" viewBox="0 0 18.613 18.613" xmlns="http://www.w3.org/2000/svg" xmlns:xlink="http://www.w3.org/1999/xlink" overflow="hidden"><g id="Group_48" transform="translate(-739.37 -1206.83)"><path d="M745.164 1223.49 741.596 1227.06C740.295 1228.36 740.295 1230.47 741.595 1231.77 741.596 1231.77 741.596 1231.77 741.596 1231.77L741.596 1231.77C742.896 1233.07 745.005 1233.07 746.305 1231.77 746.306 1231.77 746.306 1231.77 746.306 1231.77L749.874 1228.2" id="Path_554" stroke="#2C3149" stroke-width="2.5" stroke-linecap="round" stroke-linejoin="round" fill="none" transform="matrix(1 0 0 1 0 -8.549)"/><path d="M760.98 1217.23 764.441 1213.77C765.742 1212.47 765.742 1210.36 764.442 1209.06 764.441 1209.06 764.441 1209.06 764.441 1209.06L764.441 1209.06C763.141 1207.76 761.032 1207.76 759.732 1209.06 759.731 1209.06 759.731 1209.06 759.731 1209.06L756.27 1212.52" id="Path_555" stroke="#2C3149" stroke-width="2.5" stroke-linecap="round" stroke-linejoin="round" fill="none" transform="translate(-8.682 0)"/><line x1="0" y1="4.102" x2="4.102" y2="0" id="Line_102" stroke="#2C3149" stroke-width="2.5" stroke-linecap="round" stroke-linejoin="round" fill="none" transform="translate(746.626 1214.09)"/></g></svg>