<svg width="21.948" height="21.948" viewBox="0 0 21.948 21.948" xmlns="http://www.w3.org/2000/svg" xmlns:xlink="http://www.w3.org/1999/xlink" overflow="hidden"><g id="Hyperlink" transform="translate(0.794 0.794)"><path d="M86.9 86.7 86.9 86.7C88.7735 84.8244 91.8127 84.8227 93.6882 86.6962 93.6895 86.6975 93.6907 86.6987 93.692 86.7L97.092 90.1C98.9678 91.9732 98.97 95.0124 97.0968 96.8882 97.0952 96.8898 97.0936 96.8914 97.092 96.893L97.092 96.893C95.2188 98.7688 92.1796 98.771 90.3038 96.8978 90.3022 96.8962 90.3006 96.8946 90.299 96.893L88.035 94.629" id="Path_13" stroke="#494E53" stroke-width="1.587" stroke-linecap="round" stroke-linejoin="round" fill="none" transform="translate(-78.13 -77.939)"/><path d="M91.426 90.962 91.426 90.962C89.5528 92.8378 86.5136 92.84 84.6378 90.9668 84.6362 90.9652 84.6346 90.9636 84.633 90.962L81.233 87.562C79.3572 85.6888 79.355 82.6496 81.2282 80.7738 81.2298 80.7722 81.2314 80.7706 81.233 80.769L81.233 80.769C83.1062 78.8932 86.1454 78.891 88.0212 80.7642 88.0228 80.7658 88.0244 80.7674 88.026 80.769L90.478 83.222" id="Path_14" stroke="#494E53" stroke-width="1.587" stroke-linecap="round" stroke-linejoin="round" fill="none" transform="translate(-79.83 -79.366)"/><path d="M86.9 86.7 86.9 86.7C88.7735 84.8244 91.8127 84.8227 93.6882 86.6962 93.6895 86.6975 93.6907 86.6987 93.692 86.7" id="Path_15" stroke="#494E53" stroke-width="1.587" stroke-linecap="round" stroke-linejoin="round" fill="none" transform="translate(-78.13 -77.939)"/></g></svg>