<svg width="50.16" height="50.16" viewBox="0 0 50.16 50.16" xmlns="http://www.w3.org/2000/svg" xmlns:xlink="http://www.w3.org/1999/xlink" overflow="hidden"><path d="M50.16 21.035 48.342 21.035 45.632 22.461C45.3294 22.2864 45.0053 22.1519 44.668 22.061L41.26 21.208 41.26 20.82C42.7773 19.7602 43.6833 18.0278 43.688 16.177L43.688 14.766C43.7212 11.6579 41.3034 9.0736 38.2 8.9 38.046 8.9 37.9 8.9 37.743 8.909L38.627 6.84 34.341 2.559 31.815 4.2C30.8596 3.66152 29.843 3.23983 28.787 2.944L28.163 0 22 0 21.376 2.947C20.319 3.2415 19.3014 3.6622 18.345 4.2L15.82 2.56 11.539 6.84 12.408 8.91C12.375 8.91 12.343 8.902 12.308 8.902 9.1802 8.80701 6.5676 11.2656 6.47261 14.3934 6.4709 14.4496 6.47003 14.5058 6.47 14.562L6.47 16.18C6.47483 18.0312 7.38166 19.7639 8.9 20.823L8.9 21.211 6.677 21.767 2.647 19.417 0 19.417 0 36.181 7.959 38.834 9.509 38.834 9.703 38.156 12.143 39.62C12.1833 40.9465 13.2457 42.0142 14.572 42.061 14.6194 43.3816 15.6793 44.4411 17 44.488 17.0474 45.8083 18.1067 46.8676 19.427 46.915 19.4698 48.3039 20.6304 49.3951 22.0193 49.3523 22.4991 49.3375 22.9646 49.1857 23.361 48.915L24.078 49.548C24.5278 49.9443 25.1066 50.1629 25.706 50.163L25.856 50.163C27.2019 50.1609 28.297 49.0788 28.315 47.733 29.6493 47.7136 30.725 46.6343 30.74 45.3 32.0735 45.2817 33.1498 44.2045 33.167 42.871 34.5161 42.8395 35.5941 41.7384 35.597 40.389 35.5972 40.3078 35.5932 40.2267 35.585 40.146L50.16 32.862ZM42.07 14.767 42.07 16.181C42.0651 17.6247 41.2941 18.9572 40.045 19.681L39.645 19.915 39.645 22.475 43.687 23.485 34.787 28.168 34.787 25.989C34.7851 24.9337 34.3689 23.9214 33.628 23.17L36.405 22.476 36.405 19.913 36 19.68C34.751 18.9563 33.9807 17.6235 33.977 16.18L33.977 14.563C33.977 12.329 35.7881 10.518 38.0221 10.5181 38.0637 10.5181 38.1054 10.5187 38.147 10.52 40.3788 10.6603 42.1056 12.5311 42.067 14.767ZM26.3 27.532 22.638 26.362C20.9609 25.8281 19.1726 25.7467 17.454 26.126L16.99 26.226 16.99 25.987C16.989 24.873 17.7471 23.9017 18.828 23.632L23.462 22.474 23.462 19.913 23.062 19.68C21.813 18.9563 21.0427 17.6235 21.039 16.18L21.039 14.563C21.039 12.329 22.8501 10.518 25.0841 10.5181 25.1257 10.5181 25.1674 10.5187 25.209 10.52 27.4408 10.6603 29.1676 12.5311 29.129 14.767L29.129 16.181C29.1241 17.6247 28.3531 18.9572 27.104 19.681L26.704 19.915 26.704 22.475 31.337 23.633C32.4179 23.9027 33.176 24.874 33.175 25.988L33.175 29.02 32.975 29.125 32.475 29.125 27.5 27.7C27.1083 27.5952 26.7054 27.5374 26.3 27.528ZM17.171 12.109C19.4162 7.74077 24.7775 6.01975 29.1457 8.265 30.7747 9.10225 32.1054 10.422 32.956 12.044 32.5646 12.826 32.3609 13.6885 32.361 14.563L32.361 16.181C32.3655 18.0313 33.2711 19.7634 34.788 20.823L34.788 21.211 31.552 22.021 28.315 21.211 28.315 20.823C29.8323 19.7632 30.7383 18.0308 30.743 16.18L30.743 14.766C30.7762 11.6575 28.3578 9.07309 25.254 8.9 22.1273 8.80445 19.5152 11.2617 19.4196 14.3884 19.4179 14.4459 19.417 14.5034 19.417 14.561L19.417 16.179C19.4215 18.0293 20.3271 19.7614 21.844 20.821L21.844 21.209 18.608 22.019 15.371 21.209 15.371 20.821C16.8878 19.7621 17.7941 18.0309 17.8 16.181L17.8 14.766C17.7991 13.8433 17.5842 12.9335 17.172 12.108ZM13.45 7.216 16.035 4.631 18.31 6.111 18.745 5.844C19.8279 5.17844 21.0091 4.68807 22.245 4.391L22.745 4.272 23.308 1.618 26.851 1.618 27.412 4.271 27.912 4.39C29.1478 4.68724 30.329 5.17761 31.412 5.843L31.847 6.11 34.124 4.63 36.706 7.212 35.788 9.361C35.1539 9.63328 34.5751 10.0193 34.08 10.5 34.047 10.532 34.018 10.567 33.986 10.6 30.9077 5.68093 24.4246 4.18869 19.5055 7.26698 18.1399 8.12157 16.9891 9.27872 16.142 10.649 15.6348 10.1148 15.029 9.68391 14.358 9.38ZM10.517 22.476 10.517 19.913 10.117 19.68C8.86803 18.9563 8.09766 17.6235 8.094 16.18L8.094 14.563C8.09404 12.329 9.90508 10.518 12.1391 10.5181 12.1807 10.5181 12.2224 10.5187 12.264 10.52 14.4958 10.6603 16.2226 12.5311 16.184 14.767L16.184 16.181C16.1791 17.6247 15.4081 18.9572 14.159 19.681L13.759 19.915 13.759 22.475 16.535 23.169C15.7941 23.9204 15.3779 24.9327 15.376 25.988L15.376 26.588 12.852 27.149 12.918 26.92 12.949 25.42 8.678 22.935ZM1.617 21.035 2.207 21.035 8.026 24.429 5.09 36.172 1.618 35.014ZM8.217 37.216 6.625 36.685 9.481 25.278 11.326 26.354 11.326 26.585 8.289 37.216ZM13.749 39.545C13.7493 39.3044 13.8445 39.0737 14.014 38.903L15.436 37.481C15.7903 37.1267 16.3647 37.1267 16.719 37.481 17.0733 37.8353 17.0733 38.4097 16.719 38.764L15.3 40.186C14.9462 40.5406 14.3719 40.5412 14.0173 40.1873 13.8465 40.0168 13.7507 39.7853 13.751 39.544ZM16.176 41.972C16.1763 41.7314 16.2715 41.5007 16.441 41.33L17.863 39.908C18.2173 39.5537 18.7917 39.5537 19.146 39.908 19.5003 40.2623 19.5003 40.8367 19.146 41.191L17.724 42.613C17.3702 42.9676 16.7959 42.9682 16.4413 42.6143 16.2705 42.4438 16.1747 42.2123 16.175 41.971ZM18.608 44.4C18.6083 44.1594 18.7035 43.9287 18.873 43.758L20.3 42.335C20.6543 41.9807 21.2287 41.9807 21.583 42.335 21.9373 42.6893 21.9373 43.2637 21.583 43.618L20.161 45.04C19.8072 45.3946 19.2329 45.3952 18.8783 45.0413 18.7075 44.8708 18.6117 44.6393 18.612 44.398ZM21.942 47.734C21.4411 47.7347 21.0344 47.3292 21.0337 46.8283 21.0333 46.587 21.1292 46.3555 21.3 46.185L22.722 44.763C23.0763 44.4087 23.6507 44.4087 24.005 44.763 24.3593 45.1173 24.3593 45.6917 24.005 46.046L22.583 47.468C22.4125 47.6372 22.1822 47.7324 21.942 47.733ZM25.854 48.543 25.7 48.543C25.4948 48.5432 25.2966 48.4682 25.143 48.332L24.538 47.798 25.146 47.19C25.3602 46.9724 25.533 46.7175 25.656 46.438L26.392 47.05C26.7499 47.3487 26.7979 47.8809 26.4992 48.2388 26.339 48.4307 26.102 48.5418 25.852 48.542ZM33.109 41.262 32.969 41.262C32.7656 41.2626 32.5685 41.1919 32.412 41.062L28.026 37.4 26.989 38.644 31.249 42.194C31.6069 42.4927 31.6549 43.0249 31.3562 43.3828 31.1958 43.575 30.9584 43.6861 30.708 43.686L30.531 43.686C30.3331 43.6847 30.142 43.6139 29.991 43.486L25.6 39.83 24.563 41.074 28.823 44.624C29.1809 44.9218 29.2296 45.4533 28.9318 45.8112 28.7715 46.0039 28.5337 46.1152 28.283 46.115 27.9721 46.1145 27.6712 46.0055 27.432 45.807L25.624 44.3C25.2169 43.4635 24.3817 42.9197 23.452 42.886 23.4046 41.5657 22.3453 40.5064 21.025 40.459 20.9766 39.1403 19.9187 38.0824 18.6 38.034 18.5557 36.6435 17.3926 35.5522 16.0021 35.5964 15.3616 35.6168 14.7529 35.8806 14.3 36.334L12.878 37.756C12.7958 37.8428 12.7199 37.9353 12.651 38.033L10.166 36.542 12.345 28.917 17.8 27.706C19.2392 27.3876 20.7371 27.4566 22.141 27.906L23.333 28.287 19.3 30.3C18.3795 30.7567 17.798 31.6964 17.8 32.724L17.8 32.884C17.8003 34.3801 19.0135 35.5927 20.5096 35.5924 20.9993 35.5923 21.4798 35.4594 21.9 35.208L24.916 33.4C25.5358 33.0394 26.3165 33.1147 26.856 33.587L33.692 39.739C34.0493 40.061 34.0779 40.6118 33.7559 40.9691 33.591 41.1521 33.3563 41.2567 33.11 41.257ZM48.542 31.862 34.912 38.678C34.868 38.631 34.822 38.586 34.773 38.543L27.939 32.39C26.8755 31.4314 25.3105 31.28 24.083 32.017L21.069 33.824C20.5522 34.1338 19.8821 33.9661 19.5723 33.4493 19.4704 33.2794 19.4168 33.085 19.417 32.887L19.417 32.727C19.4146 32.3136 19.6472 31.9348 20.017 31.75L24.53 29.494C25.3124 29.1054 26.2115 29.022 27.052 29.26L32.136 30.712 33.367 30.743 48.539 22.758Z" id="team" fill="#6852ED"/></svg>