<?xml version="1.0" encoding="UTF-8"?>
<svg xmlns="http://www.w3.org/2000/svg" xmlns:xlink="http://www.w3.org/1999/xlink" width="301.88pt" height="277.15pt" viewBox="0 0 301.88 277.15" version="1.1">
<defs>
<clipPath id="clip1">
  <path d="M 126 117 L 223 117 L 223 277.148438 L 126 277.148438 Z M 126 117 "/>
</clipPath>
<clipPath id="clip2">
  <path d="M 39 117 L 136 117 L 136 277.148438 L 39 277.148438 Z M 39 117 "/>
</clipPath>
<clipPath id="clip3">
  <path d="M 0 0 L 301.878906 0 L 301.878906 277.148438 L 0 277.148438 Z M 0 0 "/>
</clipPath>
<clipPath id="clip4">
  <path d="M 233 117 L 301.878906 117 L 301.878906 172 L 233 172 Z M 233 117 "/>
</clipPath>
</defs>
<g id="surface1">
<g clip-path="url(#clip1)" clip-rule="nonzero">
<path style="fill:none;stroke-width:83.38;stroke-linecap:round;stroke-linejoin:round;stroke:rgb(0%,0%,0%);stroke-opacity:1;stroke-miterlimit:10;" d="M 2183.28125 546.070313 L 1309.648438 41.695313 L 1309.648438 1051.226563 L 2183.28125 1555.640625 Z M 2183.28125 546.070313 " transform="matrix(0.1,0,0,-0.1,0,277.15)"/>
</g>
<path style="fill:none;stroke-width:83.38;stroke-linecap:round;stroke-linejoin:round;stroke:rgb(0%,0%,0%);stroke-opacity:1;stroke-miterlimit:10;" d="M 1309.648438 2053.921875 L 436.015625 1549.546875 L 41.679688 1945.484375 L 915.351563 2449.898438 Z M 1309.648438 2053.921875 " transform="matrix(0.1,0,0,-0.1,0,277.15)"/>
<path style="fill:none;stroke-width:83.38;stroke-linecap:round;stroke-linejoin:round;stroke:rgb(0%,0%,0%);stroke-opacity:1;stroke-miterlimit:10;" d="M 1309.6875 2053.921875 L 2183.320313 1549.546875 L 2577.617188 1945.484375 L 1703.984375 2449.898438 Z M 1309.6875 2053.921875 " transform="matrix(0.1,0,0,-0.1,0,277.15)"/>
<path style="fill:none;stroke-width:83.38;stroke-linecap:round;stroke-linejoin:round;stroke:rgb(0%,0%,0%);stroke-opacity:1;stroke-miterlimit:10;" d="M 1309.335938 1051.03125 L 435.664063 1555.445313 L 1309.960938 2060.210938 L 2183.632813 1555.835938 Z M 1309.335938 1051.03125 " transform="matrix(0.1,0,0,-0.1,0,277.15)"/>
<g clip-path="url(#clip2)" clip-rule="nonzero">
<path style="fill:none;stroke-width:83.38;stroke-linecap:round;stroke-linejoin:round;stroke:rgb(0%,0%,0%);stroke-opacity:1;stroke-miterlimit:10;" d="M 436.015625 546.070313 L 1309.648438 41.695313 L 1309.648438 1051.226563 L 436.015625 1555.640625 Z M 436.015625 546.070313 " transform="matrix(0.1,0,0,-0.1,0,277.15)"/>
</g>
<path style=" stroke:none;fill-rule:nonzero;fill:rgb(0%,0%,0%);fill-opacity:1;" d="M 130.96875 7.5 C 99.464844 7.5 73.921875 33.039063 73.921875 64.542969 C 73.921875 96.046875 99.464844 121.585938 130.96875 121.585938 C 162.46875 121.585938 187.996094 96.046875 187.996094 64.542969 C 187.996094 33.039063 162.46875 7.5 130.96875 7.5 "/>
<g clip-path="url(#clip3)" clip-rule="nonzero">
<path style="fill:none;stroke-width:150;stroke-linecap:butt;stroke-linejoin:miter;stroke:rgb(0%,0%,0%);stroke-opacity:1;stroke-miterlimit:10;" d="M 1309.6875 2696.5 C 994.648438 2696.5 739.21875 2441.109375 739.21875 2126.070313 C 739.21875 1811.03125 994.648438 1555.640625 1309.6875 1555.640625 C 1624.6875 1555.640625 1879.960938 1811.03125 1879.960938 2126.070313 C 1879.960938 2441.109375 1624.6875 2696.5 1309.6875 2696.5 Z M 1309.6875 2696.5 " transform="matrix(0.1,0,0,-0.1,0,277.15)"/>
</g>
<path style=" stroke:none;fill-rule:nonzero;fill:rgb(100%,100%,100%);fill-opacity:1;" d="M 171.488281 24.410156 L 142.738281 53.160156 C 136.332031 46.753906 125.953125 46.753906 119.558594 53.152344 L 90.816406 24.410156 C 113.09375 2.132813 149.214844 2.136719 171.488281 24.410156 "/>
<path style=" stroke:none;fill-rule:nonzero;fill:rgb(100%,100%,100%);fill-opacity:1;" d="M 149.011719 64.542969 C 149.011719 74.503906 140.929688 82.601563 130.96875 82.601563 C 120.988281 82.601563 112.910156 74.503906 112.910156 64.542969 C 112.910156 54.578125 120.988281 46.5 130.96875 46.5 C 140.929688 46.5 149.011719 54.578125 149.011719 64.542969 "/>
<path style="fill:none;stroke-width:55.58;stroke-linecap:butt;stroke-linejoin:miter;stroke:rgb(0%,0%,0%);stroke-opacity:1;stroke-miterlimit:10;" d="M 1490.117188 2126.070313 C 1490.117188 2026.460938 1409.296875 1945.484375 1309.6875 1945.484375 C 1209.882813 1945.484375 1129.101563 2026.460938 1129.101563 2126.070313 C 1129.101563 2225.71875 1209.882813 2306.5 1309.6875 2306.5 C 1409.296875 2306.5 1490.117188 2225.71875 1490.117188 2126.070313 Z M 1490.117188 2126.070313 " transform="matrix(0.1,0,0,-0.1,0,277.15)"/>
<g clip-path="url(#clip4)" clip-rule="nonzero">
<path style=" stroke:none;fill-rule:nonzero;fill:rgb(0%,0%,0%);fill-opacity:1;" d="M 253.929688 164.957031 C 250.730469 165.417969 247.992188 162.671875 247.992188 159.480469 L 247.992188 138.46875 L 287.726563 138.46875 L 287.726563 159.480469 C 287.726563 162.671875 284.988281 164.957031 282.246094 164.957031 Z M 271.285156 171.804688 L 281.789063 171.804688 C 288.601563 171.804688 294.121094 166.28125 294.121094 159.472656 L 294.121094 138.46875 L 298.578125 138.46875 C 300.332031 138.46875 301.851563 137.101563 301.878906 135.347656 C 301.917969 133.480469 300.539063 132.074219 298.691406 132.074219 L 285.445313 132.074219 L 285.445313 121.050781 C 285.445313 119.398438 284.351563 117.878906 282.734375 117.535156 C 281.523438 117.28125 280.371094 117.683594 279.59375 118.460938 C 278.976563 119.089844 278.589844 119.941406 278.589844 120.890625 L 278.589844 132.074219 L 256.671875 132.074219 L 256.671875 121.070313 C 256.671875 119.082031 255.046875 117.355469 253.058594 117.46875 C 252.1875 117.503906 251.40625 117.878906 250.828125 118.460938 C 250.207031 119.089844 249.824219 119.941406 249.824219 120.890625 L 249.824219 132.074219 L 236.691406 132.074219 C 234.9375 132.074219 233.414063 133.441406 233.378906 135.203125 C 233.34375 137.0625 234.730469 138.46875 236.578125 138.46875 L 241.144531 138.46875 L 241.144531 159.480469 C 241.144531 166.285156 246.664063 171.804688 253.472656 171.804688 L 263.976563 171.804688 "/>
</g>
<path style="fill:none;stroke-width:83.38;stroke-linecap:round;stroke-linejoin:round;stroke:rgb(0%,0%,0%);stroke-opacity:1;stroke-miterlimit:10;" d="M 2183.28125 550.484375 C 2455.585938 550.484375 2676.289063 771.1875 2676.289063 1043.492188 L 2676.289063 1054.585938 " transform="matrix(0.1,0,0,-0.1,0,277.15)"/>
</g>
</svg>
