<svg width="26.716" height="23" viewBox="0 0 26.716 23" xmlns="http://www.w3.org/2000/svg" xmlns:xlink="http://www.w3.org/1999/xlink" overflow="hidden"><g id="Group_1139" transform="translate(-174.899 -365.193)"><path d="M181.073 366.193 178.645 366.193C177.128 366.193 175.899 367.422 175.899 368.939L175.899 380.28C175.899 381.797 177.128 383.026 178.645 383.026L182.953 383.026C183.681 383.025 184.379 383.313 184.895 383.826L188.258 387.188 191.621 383.826C192.137 383.312 192.835 383.025 193.563 383.026L197.871 383.026C199.388 383.026 200.617 381.797 200.617 380.28L200.617 368.939C200.617 367.422 199.388 366.193 197.871 366.193L184.425 366.193" id="Path_991" stroke="#2C3149" stroke-width="2" stroke-linecap="round" stroke-linejoin="round" fill="none"/><ellipse cx="0.299" cy="0.311" rx="0.299" ry="0.311" id="Ellipse_68" stroke="#2C3149" stroke-width="2" stroke-linecap="round" stroke-linejoin="round" fill="none" transform="translate(193.534 374.737)"/><ellipse cx="0.299" cy="0.311" rx="0.299" ry="0.311" id="Ellipse_69" stroke="#2C3149" stroke-width="2" stroke-linecap="round" stroke-linejoin="round" fill="none" transform="translate(182.873 374.737)"/><ellipse cx="0.299" cy="0.311" rx="0.299" ry="0.311" id="Ellipse_70" stroke="#2C3149" stroke-width="2" stroke-linecap="round" stroke-linejoin="round" fill="none" transform="translate(188.203 374.737)"/></g></svg>