<svg width="145.997" height="139.008" viewBox="0 0 145.997 139.008" xmlns="http://www.w3.org/2000/svg" xmlns:xlink="http://www.w3.org/1999/xlink" overflow="hidden"><g id="Icon_Background" transform="translate(-85.837 -329.924)"><path d="M210.891 452.439C209.151 454.242 207.318 455.954 205.401 457.567" id="Path_26" stroke="#121A50" stroke-width="1.601" stroke-linecap="round" stroke-miterlimit="10" fill="none" opacity="0.6"/><path d="M222.417 368.531C233.611 389.263 233.914 414.17 223.228 435.168" id="Path_27" stroke="#121A50" stroke-width="1.601" stroke-linecap="round" stroke-miterlimit="10" fill="none" opacity="0.3"/><path d="M110.118 349.559C133.741 328.093 168.628 324.612 196.027 340.987" id="Path_28" stroke="#121A50" stroke-width="1.601" stroke-linecap="round" stroke-miterlimit="10" fill="none" opacity="0.25"/><path d="M111.27 456.71C90.4416 438.564 81.872 410.077 89.232 383.451" id="Path_29" stroke="#121A50" stroke-width="1.601" stroke-linecap="round" stroke-miterlimit="10" fill="none" opacity="0.2"/><ellipse cx="64.978" cy="64.707" rx="64.978" ry="64.707" id="Ellipse_4" fill="#003189" opacity="0.05" transform="translate(93.857 337.914)"/><ellipse cx="3.61" cy="3.595" rx="3.61" ry="3.595" id="Ellipse_5" stroke="#009CDC" stroke-width="3.202" stroke-linecap="round" stroke-miterlimit="10" fill="none" transform="translate(97.467 424.19)"/><ellipse cx="2.206" cy="2.197" rx="2.206" ry="2.197" id="Ellipse_6" fill="#E0007A" transform="translate(93.456 395.032)"/><line x1="0" y1="0" x2="10.629" y2="0" id="Line_15" stroke="#45A735" stroke-width="2.407" stroke-linecap="round" stroke-miterlimit="10" fill="none" transform="translate(204.36 351.994)"/><line x1="0" y1="10.585" x2="0" y2="0" id="Line_16" stroke="#45A735" stroke-width="2.397" stroke-linecap="round" stroke-miterlimit="10" fill="none" transform="translate(209.674 346.701)"/><line x1="0" y1="0" x2="0.802" y2="0" id="Line_17" stroke="#172954" stroke-width="3.209" stroke-linecap="round" stroke-miterlimit="10" fill="none" transform="translate(121.934 467.328)"/><line x1="0" y1="0" x2="36.099" y2="0" id="Line_18" stroke="#172954" stroke-width="3.209" stroke-linecap="round" stroke-miterlimit="10" fill="none" transform="translate(129.956 467.328)"/><line x1="0" y1="0" x2="24.066" y2="0" id="Line_19" stroke="#172954" stroke-width="3.209" stroke-linecap="round" stroke-miterlimit="10" fill="none" transform="translate(173.275 467.328)"/><path d="M111.3 444.79C111.3 445.618 110.628 446.29 109.8 446.29 108.972 446.29 108.3 445.618 108.3 444.79 108.3 443.962 108.972 443.29 109.8 443.29 110.628 443.29 111.3 443.962 111.3 444.79Z" id="Path_30" fill="#003189"/><path d="M223.813 388.242C223.813 389.07 223.141 389.742 222.313 389.742 221.485 389.742 220.813 389.07 220.813 388.242 220.813 387.414 221.485 386.742 222.313 386.742 223.141 386.742 223.813 387.414 223.813 388.242Z" id="Path_31" fill="#003189"/><ellipse cx="1.805" cy="1.797" rx="1.805" ry="1.797" id="Ellipse_7" fill="#EC411B" transform="translate(122.469 352.293)"/><path d="M211.7 446.573C211.704 447.562 210.906 448.366 209.917 448.37 208.928 448.374 208.124 447.576 208.12 446.587 208.116 445.598 208.914 444.794 209.903 444.79 209.905 444.79 209.908 444.79 209.91 444.79 210.896 444.788 211.698 445.586 211.7 446.572 211.7 446.572 211.7 446.573 211.7 446.573Z" id="Path_32" fill="#FFEE00"/><path d="M217.522 447.936 215.169 440.872 222.256 443.237Z" id="Path_33" stroke="#880F50" stroke-width="2.402" stroke-linecap="round" stroke-linejoin="round" fill="none"/><rect x="0" y="0" width="5.105" height="5.084" id="Rectangle_1" stroke="#FE9D2B" stroke-width="2.402" stroke-linecap="round" stroke-linejoin="round" fill="none" transform="matrix(0.707107 -0.707107 0.707107 0.707107 105.89 361.48)"/></g><g id="Newbie_Large" transform="translate(-275.77 -277.55)"><path d="M321.521 357.212C322.585 363.254 319.833 368.784 315.376 369.562 310.919 370.34 306.444 366.076 305.376 360.034 304.308 353.992 307.064 348.463 311.521 347.684 315.978 346.905 320.458 351.17 321.521 357.212Z" id="Path_34" stroke="#172954" stroke-width="2.763" stroke-linecap="round" stroke-miterlimit="10" fill="#FFD85B"/><path d="M392.032 361.066C390.71 367.056 386.057 371.129 381.637 370.16 377.217 369.191 374.705 363.55 376.027 357.56 377.349 351.57 382 347.5 386.422 348.466 390.844 349.432 393.354 355.074 392.032 361.066Z" id="Path_35" stroke="#172954" stroke-width="2.763" stroke-linecap="round" stroke-miterlimit="10" fill="#E2B733"/><path d="M386.11 351.724C386.11 372.292 369.381 395.172 348.745 395.172 328.109 395.172 311.38 372.291 311.38 351.724 311.487 331.088 328.302 314.445 348.939 314.552 369.424 314.658 386.005 331.238 386.111 351.724Z" id="Path_36" stroke="#172954" stroke-width="2.763" stroke-linecap="round" stroke-miterlimit="10" fill="#FECE3E"/><path d="M375.675 340.9C375.675 340.9 384.265 382.99 348.744 395.174 348.744 395.174 384.495 392.874 386.109 347.588Z" id="Path_37" fill="#D4AB2F"/><path d="M320.637 334.522C320.637 334.522 318.075 382.222 342.737 394.522 342.737 394.522 315.002 392.539 312.029 346.146 312.031 346.144 318.549 336.1 320.637 334.522Z" id="Path_38" fill="#FDD55D"/><path d="M386.11 351.724C386.11 372.292 369.381 395.172 348.745 395.172 328.109 395.172 311.38 372.291 311.38 351.724 311.487 331.088 328.302 314.445 348.939 314.552 369.424 314.658 386.005 331.238 386.111 351.724Z" id="Path_39" stroke="#172954" stroke-width="2.763" stroke-linecap="round" stroke-miterlimit="10" fill="none"/><path d="M311.379 347.586C311.379 347.586 311.379 310.345 367.427 297.931L361.2 316.552 379.883 310.345C379.883 310.345 386.111 328.966 386.111 347.586 386.11 347.586 330.062 304.138 311.379 347.586Z" id="Path_40" stroke="#172954" stroke-width="2.763" stroke-linecap="round" stroke-linejoin="round" fill="#AB4E3E"/><path d="M378.844 310.69C378.844 310.69 379.725 332.344 371.933 338.5L386.11 347.587C386.11 347.587 384.38 317.241 378.844 310.69Z" id="Path_41" fill="#A23028"/><path d="M312.031 342.578C312.031 342.578 316.478 310.955 366.085 298.236 366.085 298.236 339.2 306.694 330.479 329.382 330.479 329.381 317.873 332.859 312.031 342.578Z" id="Path_42" fill="#C0685D"/><path d="M311.379 347.586C311.379 347.586 311.379 310.345 367.427 297.931L361.2 316.552 379.883 310.345C379.883 310.345 386.111 328.966 386.111 347.586 386.11 347.586 330.062 304.138 311.379 347.586Z" id="Path_43" stroke="#172954" stroke-width="2.763" stroke-linecap="round" stroke-linejoin="round" fill="none"/><path d="M333.694 321.379C336.952 317.83 340.811 314.884 345.094 312.679" id="Path_44" stroke="#172954" stroke-width="2.763" stroke-linecap="round" stroke-linejoin="round" fill="none"/><path d="M336.289 372.414 361.2 372.414C361.2 372.414 361.2 384.828 348.745 384.828 348.744 384.828 336.289 384.828 336.289 372.414Z" id="Path_45" stroke="#172954" stroke-width="2.763" stroke-linecap="round" stroke-linejoin="round" fill="#FFFFFF"/><path d="M344.074 363.1C344.074 363.1 348.745 367.755 353.415 363.1" id="Path_46" stroke="#172954" stroke-width="2.763" stroke-linecap="round" stroke-miterlimit="10" fill="none"/><line x1="0" y1="0.865" x2="1.413" y2="0" id="Line_20" stroke="#172954" stroke-width="2.763" stroke-linecap="round" stroke-linejoin="round" fill="#FFFFFF" transform="translate(310.168 358.445)"/><line x1="1.413" y1="0.865" x2="0" y2="0" id="Line_21" stroke="#172954" stroke-width="2.763" stroke-linecap="round" stroke-linejoin="round" fill="#FFFFFF" transform="translate(386.284 358.445)"/><path d="M337.673 345.517C337.673 345.517 333.173 341.88 326.256 344.817" id="Path_47" stroke="#172954" stroke-width="2.763" stroke-linecap="round" stroke-linejoin="round" fill="#FFFFFF"/><path d="M359.816 345.517C359.816 345.517 364.316 342.577 371.233 345.517" id="Path_48" stroke="#172954" stroke-width="2.763" stroke-linecap="round" stroke-linejoin="round" fill="#FFFFFF"/><ellipse cx="3.172" cy="3.161" rx="3.172" ry="3.161" id="Ellipse_8" fill="#162954" transform="translate(328.62 348.046)"/><ellipse cx="3.172" cy="3.161" rx="3.172" ry="3.161" id="Ellipse_9" fill="#162954" transform="translate(361.141 348.046)"/><ellipse cx="7.179" cy="3.405" rx="7.179" ry="3.405" id="Ellipse_10" fill="#162954" opacity="0.16" transform="translate(341.479 378.017)"/><path d="M332.9 364.117C332.912 367.545 330.142 370.333 326.714 370.345 323.286 370.357 320.498 367.587 320.486 364.159 320.474 360.731 323.244 357.943 326.672 357.931 326.679 357.931 326.687 357.931 326.694 357.931 330.115 357.928 332.892 360.696 332.9 364.117Z" id="Path_49" fill="#AB4E3E" opacity="0.15"/><ellipse cx="6.187" cy="6.206" rx="6.187" ry="6.206" id="Ellipse_11" fill="#AB4E3E" opacity="0.25" transform="matrix(0.196 -0.981 0.981 0.195 363.68 368.974)"/></g></svg>