<svg width="32.789" height="36.082" viewBox="0 0 32.789 36.082" xmlns="http://www.w3.org/2000/svg" xmlns:xlink="http://www.w3.org/1999/xlink" overflow="hidden"><g id="Group_1215" transform="translate(-1559 -79)"><g id="Group_54" transform="translate(1395.61 -81.489)"><g id="Group_53" transform="translate(176.504 176.489)"><path d="M180.8 178.762C182.084 177.322 183.92 176.496 185.849 176.489L185.849 176.489C189.793 176.587 192.912 179.862 192.818 183.806L192.818 186.08C192.701 188.744 193.542 191.362 195.189 193.46L176.5 193.46C178.147 191.362 178.988 188.744 178.871 186.08L178.871 183.806C178.869 182.865 179.042 181.931 179.381 181.053" id="Path_557" stroke="#2C3149" stroke-width="2" stroke-linecap="round" stroke-linejoin="round" fill="none" transform="translate(-176.504 -176.489)"/></g><path d="M193.887 208.961C194.201 209.468 194.044 210.134 193.536 210.448 193.029 210.761 192.364 210.604 192.05 210.097 191.839 209.755 191.834 209.325 192.039 208.979" id="Path_558" stroke="#2C3149" stroke-width="2" stroke-linecap="round" stroke-linejoin="round" fill="none" transform="translate(-7.124 -15.036)"/></g><rect x="0" y="0" rx="3" width="23" height="24" id="tag_bg" fill="#EE395B" opacity="0.902" transform="translate(1559 79)"/></g></svg>