<svg width="19.575" height="19.954" viewBox="0 0 19.575 19.954" xmlns="http://www.w3.org/2000/svg" xmlns:xlink="http://www.w3.org/1999/xlink" overflow="hidden"><g id="Group_1136" transform="translate(-175.504 -175.489)"><g id="Group_1135" transform="translate(176.504 176.489)"><path d="M180.541 178.627C181.75 177.273 183.476 176.496 185.291 176.489L185.291 176.489C189.002 176.582 191.936 179.662 191.848 183.373L191.848 185.512C191.738 188.018 192.529 190.481 194.078 192.455L176.5 192.455C178.049 190.482 178.841 188.019 178.731 185.512L178.731 183.373C178.729 182.487 178.892 181.609 179.211 180.783" id="Path_988" stroke="#2C3149" stroke-width="2" stroke-linecap="round" stroke-linejoin="round" fill="none" transform="translate(-176.504 -176.489)"/></g><path d="M193.768 208.961C194.063 209.438 193.915 210.064 193.438 210.359 192.96 210.654 192.334 210.506 192.039 210.029 191.841 209.708 191.837 209.303 192.029 208.978" id="Path_989" stroke="#2C3149" stroke-width="2" stroke-linecap="round" stroke-linejoin="round" fill="none" transform="translate(-7.612 -16.067)"/></g></svg>