<svg width="35.56" height="35.535" viewBox="0 0 35.56 35.535" xmlns="http://www.w3.org/2000/svg" xmlns:xlink="http://www.w3.org/1999/xlink" overflow="hidden"><g id="call" transform="translate(-0.477 -0.404)"><g id="Group_1678" transform="translate(1 1.018)"><g id="Group_1677"><path d="M34.52 27.572 27.553 22.926C26.6688 22.3413 25.4838 22.5336 24.83 23.368L22.8 25.978C22.5392 26.3219 22.0652 26.4216 21.688 26.212L21.3 26C19.0218 24.7572 16.9669 23.1431 15.22 21.224 13.3022 19.4758 11.6883 17.4212 10.444 15.144L10.232 14.758C10.0194 14.3809 10.1171 13.9049 10.461 13.642L13.069 11.613C13.9033 10.9592 14.096 9.77453 13.512 8.89L8.867 1.921C8.26828 1.02027 7.06698 0.749786 6.14 1.307L3.227 3.057C2.31142 3.59539 1.63982 4.46732 1.353 5.49 0.3 9.312 1.093 15.91 10.811 25.629 18.542 33.359 24.297 35.438 28.253 35.438 29.1647 35.4423 30.0729 35.3239 30.953 35.086 31.9755 34.7993 32.8472 34.1277 33.385 33.212L35.133 30.3C35.6911 29.3731 35.421 28.1711 34.52 27.572ZM34.145 29.712 32.4 32.625C32.0136 33.286 31.3865 33.7719 30.65 33.981 27.121 34.95 20.956 34.147 11.625 24.817 2.294 15.487 1.49 9.323 2.459 5.793 2.66851 5.05558 3.15512 4.42778 3.817 4.041L6.73 2.293C7.13208 2.05142 7.65303 2.16856 7.913 2.559L10.437 6.348 12.555 9.525C12.8087 9.90884 12.7252 10.4232 12.363 10.707L9.756 12.737C8.96213 13.344 8.73539 14.4423 9.224 15.314L9.431 15.69C10.7233 18.0661 12.4026 20.2102 14.4 22.034 16.2239 24.0321 18.3679 25.7124 20.744 27.006L21.121 27.214C21.9927 27.7026 23.091 27.4759 23.698 26.682L25.727 24.074C26.0108 23.7118 26.5252 23.6283 26.909 23.882L33.876 28.528C34.2685 28.7868 34.3872 29.309 34.145 29.712Z" id="Path_1039" stroke="#F6FAFD" fill="#F6FAFD" transform="translate(-1 -1.018)"/><path d="M283.2 70.471C288.583 70.4771 292.946 74.8396 292.952 80.223 292.965 80.5397 293.233 80.7858 293.549 80.7725 293.848 80.7601 294.087 80.5212 294.099 80.223 294.093 74.2056 289.216 69.3291 283.199 69.323 282.882 69.3362 282.636 69.6037 282.649 69.9204 282.662 70.2186 282.901 70.4575 283.199 70.47Z" id="Path_1040" stroke="#F6FAFD" fill="#F6FAFD" transform="translate(-263.696 -64.732)"/><path d="M283.2 121.671C286.683 121.675 289.506 124.498 289.51 127.981 289.523 128.298 289.791 128.544 290.107 128.531 290.406 128.518 290.645 128.279 290.657 127.981 290.652 123.865 287.316 120.529 283.2 120.524 282.883 120.537 282.637 120.805 282.65 121.121 282.663 121.42 282.902 121.659 283.2 121.671Z" id="Path_1041" stroke="#F6FAFD" fill="#F6FAFD" transform="translate(-263.696 -112.49)"/><path d="M283.2 172.871C284.783 172.873 286.066 174.156 286.068 175.739 286.081 176.056 286.349 176.302 286.665 176.289 286.964 176.276 287.203 176.037 287.215 175.739 287.212 173.523 285.416 171.727 283.2 171.724 282.883 171.737 282.637 172.005 282.65 172.321 282.663 172.62 282.902 172.859 283.2 172.871Z" id="Path_1042" stroke="#F6FAFD" fill="#F6FAFD" transform="translate(-263.696 -160.249)"/></g></g></g></svg>