<svg width="164" height="166" viewBox="0 0 164 166" xmlns="http://www.w3.org/2000/svg" xmlns:xlink="http://www.w3.org/1999/xlink" overflow="hidden"><g id="Avatar" transform="translate(0.457 2.568)"><ellipse cx="82" cy="81.5" rx="82" ry="81.5" id="User" fill="#2E3192" transform="translate(-0.457 0.432)"/><text id="A" fill="#FFFFFF" font-family="NunitoSans-Bold,Nunito Sans" font-weight="700" font-size="63" transform="translate(79.565 98.858)"><tspan x="-23.373" y="0">A</tspan></text><g id="User-2" stroke="#F8F9FA" stroke-width="3" fill="#E9ECEE" transform="translate(113.543 0.432)"><circle cx="22.5" cy="22.5" r="22.5" stroke="none"/><circle cx="22.5" cy="22.5" r="24" fill="none"/></g><g id="Pencil" transform="translate(125.94 11.79)"><path d="M76.278 89.173 82.735 87.949 77.569 83.055Z" id="Path_24" stroke="#494E53" stroke-width="1.464" stroke-linecap="round" stroke-linejoin="round" fill="none" transform="translate(-76.278 -69.054)"/><path d="M82.508 89.889 94.13 78.878 88.964 73.984 77.342 85" id="Path_25" stroke="#494E53" stroke-width="1.464" stroke-linecap="round" stroke-linejoin="round" fill="none" transform="translate(-76.051 -70.993)"/><path d="M92.083 79.4 94.666 76.953C95.3417 76.3532 95.4033 75.3192 94.8034 74.6434 94.7604 74.5949 94.7145 74.549 94.666 74.506L92.083 72.059C91.3634 71.3611 90.2196 71.3611 89.5 72.059L86.917 74.506" id="Path_26" stroke="#494E53" stroke-width="1.464" stroke-linecap="round" stroke-linejoin="round" fill="none" transform="translate(-74.003 -71.52)"/></g></g></svg>