<svg width="30.581" height="19.173" viewBox="0 0 30.581 19.173" xmlns="http://www.w3.org/2000/svg" xmlns:xlink="http://www.w3.org/1999/xlink" overflow="hidden"><g id="down-arrow_1_" transform="matrix(-0.017 -1 1 -0.017 -132.628 212.278)"><g id="Group_236" transform="translate(190.756 136.303)"><path d="M150.2 22.065C149.566 21.6032 148.707 21.6032 148.073 22.065L142.823 26.212 142.823 1.182C142.621 0.351364 141.783-0.157933 140.953 0.0444533 140.391 0.181364 139.952 0.62009 139.815 1.182L139.815 26.215 134.565 22.068C133.931 21.6062 133.072 21.6062 132.438 22.068 131.975 22.3826 131.855 23.0126 132.17 23.4753 132.24 23.5791 132.33 23.6688 132.433 23.74L140.253 29.916 140.253 29.916C140.887 30.3781 141.748 30.3781 142.382 29.916L142.382 29.916 150.202 23.74C150.664 23.4247 150.783 22.7945 150.468 22.3323 150.396 22.2272 150.305 22.1365 150.2 22.065Z" id="Path_387" fill="#554D89" transform="translate(-132 0)"/></g></g></svg>