<svg width="21.377" height="26.763" viewBox="0 0 21.377 26.763" xmlns="http://www.w3.org/2000/svg" xmlns:xlink="http://www.w3.org/1999/xlink" overflow="hidden"><g id="Group_43" transform="translate(1.25 1.768)"><g id="Group_41"><path d="M201.784 2057.24 206.135 2052.89 201.784 2048.54" id="Path_545" stroke="#2C3149" stroke-width="2.5" stroke-linecap="round" stroke-linejoin="round" fill="none" transform="translate(-187.258 -2048.54)"/><path d="M179.271 2064.19 179.271 2058.95C179.271 2056.92 180.914 2055.28 182.941 2055.28L198.147 2055.28" id="Path_546" stroke="#2C3149" stroke-width="2.5" stroke-linecap="round" stroke-linejoin="round" fill="none" transform="translate(-179.271 -2050.93)"/></g><g id="Group_42" transform="matrix(1 0 0 1 0 9.969)"><path d="M183.621 2071.05 179.27 2075.4 183.621 2079.75" id="Path_547" stroke="#2C3149" stroke-width="2.5" stroke-linecap="round" stroke-linejoin="round" fill="none" transform="translate(-179.271 -2066.49)"/><path d="M198.147 2063.99 198.147 2069.23C198.148 2071.25 196.505 2072.9 194.478 2072.9 194.478 2072.9 194.477 2072.9 194.477 2072.9L179.271 2072.9" id="Path_548" stroke="#2C3149" stroke-width="2.5" stroke-linecap="round" stroke-linejoin="round" fill="none" transform="translate(-179.271 -2063.99)"/></g></g></svg>