<svg width="20.766" height="21.991" viewBox="0 0 20.766 21.991" xmlns="http://www.w3.org/2000/svg" xmlns:xlink="http://www.w3.org/1999/xlink" overflow="hidden"><g id="Settings" transform="translate(0.689 0.689)"><ellipse cx="3.403" cy="3.435" rx="3.403" ry="3.435" id="Ellipse_6" stroke="#494E53" stroke-width="1.378" stroke-linecap="round" stroke-linejoin="round" fill="none" transform="translate(6.29 6.871)"/><path d="M73.773 72.9 75.853 69.234 79.253 69.234 80.953 72.9" id="Path_16" stroke="#494E53" stroke-width="1.378" stroke-linecap="round" stroke-linejoin="round" fill="none" transform="translate(-67.861 -69.231)"/><path d="M71.374 78.826 69.007 75.16 70.707 72.185 74.917 72.185" id="Path_17" stroke="#494E53" stroke-width="1.378" stroke-linecap="round" stroke-linejoin="round" fill="none" transform="translate(-69.007 -68.52)"/><path d="M75.3 84.179 70.709 84.179 69.009 81.204 71.376 77.538" id="Path_18" stroke="#494E53" stroke-width="1.378" stroke-linecap="round" stroke-linejoin="round" fill="none" transform="translate(-69.007 -67.232)"/><path d="M80.885 82.892 79.185 86.557 75.785 86.557 74.085 82.892" id="Path_19" stroke="#494E53" stroke-width="1.378" stroke-linecap="round" stroke-linejoin="round" fill="none" transform="translate(-67.788 -65.944)"/><path d="M83.442 77.538 85.855 81.2 84.155 84.175 79.565 84.175" id="Path_20" stroke="#494E53" stroke-width="1.378" stroke-linecap="round" stroke-linejoin="round" fill="none" transform="translate(-66.468 -67.232)"/><path d="M79.565 72.186 84.153 72.186 85.853 75.161 83.439 78.827" id="Path_21" stroke="#494E53" stroke-width="1.378" stroke-linecap="round" stroke-linejoin="round" fill="none" transform="translate(-66.468 -68.52)"/></g></svg>