<svg width="23.403" height="24.837" viewBox="0 0 23.403 24.837" xmlns="http://www.w3.org/2000/svg" xmlns:xlink="http://www.w3.org/1999/xlink" overflow="hidden"><g id="Support" transform="translate(0.648 0.643)"><path d="M65.385 75.153C65.4185 73.1181 67.0953 71.4957 69.1302 71.5292 71.1179 71.562 72.7213 73.1654 72.754 75.153 72.7875 73.1181 74.4643 71.4957 76.4992 71.5292 78.4868 71.562 80.0902 73.1654 80.123 75.153 80.1565 73.1181 81.8333 71.4957 83.8682 71.5292 85.8558 71.562 87.4592 73.1654 87.492 75.153 87.3759 69.0486 82.3331 64.1941 76.2287 64.3103 70.2879 64.4233 65.499 69.2122 65.386 75.153Z" id="Path_33" stroke="#494E53" stroke-width="1.297" stroke-linecap="round" stroke-linejoin="round" fill="none" transform="translate(-65.385 -62.474)"/><line x1="0" y1="0" x2="0" y2="1.811" id="Line_21" stroke="#494E53" stroke-width="1.286" stroke-linecap="round" stroke-linejoin="round" fill="none" transform="translate(11.053 0)"/><path d="M74.3 72.857 74.3 80.706C74.3 81.7233 73.4753 82.548 72.458 82.548 71.4407 82.548 70.616 81.7233 70.616 80.706" id="Path_34" stroke="#494E53" stroke-width="1.297" stroke-linecap="round" stroke-linejoin="round" fill="none" transform="translate(-63.247 -58.971)"/></g></svg>