<?xml version="1.0" encoding="UTF-8"?>
<svg xmlns="http://www.w3.org/2000/svg" xmlns:xlink="http://www.w3.org/1999/xlink" width="304.13pt" height="521.39pt" viewBox="0 0 304.13 521.39" version="1.1">
<defs>
<clipPath id="clip1">
  <path d="M 95 429 L 155 429 L 155 521.390625 L 95 521.390625 Z M 95 429 "/>
</clipPath>
<clipPath id="clip2">
  <path d="M 203 0 L 304.128906 0 L 304.128906 100 L 203 100 Z M 203 0 "/>
</clipPath>
<clipPath id="clip3">
  <path d="M 127 0 L 304.128906 0 L 304.128906 167 L 127 167 Z M 127 0 "/>
</clipPath>
</defs>
<g id="surface1">
<path style="fill:none;stroke-width:80;stroke-linecap:round;stroke-linejoin:round;stroke:rgb(0%,0%,0%);stroke-opacity:1;stroke-miterlimit:10;" d="M 1407.34375 920.657812 L 357.96875 920.657812 C 182.382813 920.657812 40 1063.040625 40 1238.665625 L 40 3645.267187 C 40 3820.892187 182.382813 3963.275 357.96875 3963.275 L 1407.34375 3963.275 C 1582.96875 3963.275 1725.3125 3820.892187 1725.3125 3645.267187 L 1725.3125 1748.939062 " transform="matrix(0.1,0,0,-0.1,0,521.39)"/>
<path style="fill:none;stroke-width:80;stroke-linecap:round;stroke-linejoin:round;stroke:rgb(0%,0%,0%);stroke-opacity:1;stroke-miterlimit:10;" d="M 1725.3125 2164.2125 L 2471.445313 1549.759375 L 2471.445313 182.65 " transform="matrix(0.1,0,0,-0.1,0,521.39)"/>
<g clip-path="url(#clip1)" clip-rule="nonzero">
<path style="fill:none;stroke-width:80;stroke-linecap:round;stroke-linejoin:round;stroke:rgb(0%,0%,0%);stroke-opacity:1;stroke-miterlimit:10;" d="M 996.757813 882.65 C 996.757813 882.65 1023.125 171.673437 1505.898438 39.99375 " transform="matrix(0.1,0,0,-0.1,0,521.39)"/>
</g>
<path style="fill:none;stroke-width:80;stroke-linecap:round;stroke-linejoin:round;stroke:rgb(0%,0%,0%);stroke-opacity:1;stroke-miterlimit:10;" d="M 1013.398438 1312.610937 C 1013.398438 1240.384375 954.882813 1181.86875 882.65625 1181.86875 C 810.46875 1181.86875 751.914063 1240.384375 751.914063 1312.610937 C 751.914063 1384.798437 810.46875 1443.353125 882.65625 1443.353125 C 954.882813 1443.353125 1013.398438 1384.798437 1013.398438 1312.610937 Z M 1013.398438 1312.610937 " transform="matrix(0.1,0,0,-0.1,0,521.39)"/>
<path style="fill:none;stroke-width:80;stroke-linecap:round;stroke-linejoin:round;stroke:rgb(0%,0%,0%);stroke-opacity:1;stroke-miterlimit:10;" d="M 708.671875 3696.0875 L 1056.640625 3696.0875 " transform="matrix(0.1,0,0,-0.1,0,521.39)"/>
<path style="fill:none;stroke-width:80;stroke-linecap:round;stroke-linejoin:round;stroke:rgb(0%,0%,0%);stroke-opacity:1;stroke-miterlimit:10;" d="M 2015 1453.196875 L 1400.546875 2063.196875 C 1400.546875 2063.196875 1075.78125 1803.978125 1576.09375 1312.610937 C 1576.09375 1312.610937 1321.5625 917.767187 1400.546875 698.314062 " transform="matrix(0.1,0,0,-0.1,0,521.39)"/>
<path style="fill:none;stroke-width:80;stroke-linecap:round;stroke-linejoin:round;stroke:rgb(0%,0%,0%);stroke-opacity:1;stroke-miterlimit:10;" d="M 375.976563 2204.05625 L 1388.203125 2204.05625 " transform="matrix(0.1,0,0,-0.1,0,521.39)"/>
<path style="fill:none;stroke-width:80;stroke-linecap:round;stroke-linejoin:round;stroke:rgb(0%,0%,0%);stroke-opacity:1;stroke-miterlimit:10;" d="M 375.976563 2004.915625 L 1034.6875 2004.915625 " transform="matrix(0.1,0,0,-0.1,0,521.39)"/>
<path style="fill:none;stroke-width:80;stroke-linecap:round;stroke-linejoin:round;stroke:rgb(0%,0%,0%);stroke-opacity:1;stroke-miterlimit:10;" d="M 377.148438 2439.99375 L 1388.203125 2439.99375 L 1388.203125 3451.048437 L 377.148438 3451.048437 Z M 377.148438 2439.99375 " transform="matrix(0.1,0,0,-0.1,0,521.39)"/>
<path style="fill:none;stroke-width:80;stroke-linecap:round;stroke-linejoin:round;stroke:rgb(0%,0%,0%);stroke-opacity:1;stroke-miterlimit:10;" d="M 375.976563 1794.05625 L 1034.6875 1794.05625 " transform="matrix(0.1,0,0,-0.1,0,521.39)"/>
<path style=" stroke:none;fill-rule:nonzero;fill:rgb(0%,0%,0%);fill-opacity:1;" d="M 216.015625 90.5625 L 201.683594 104.898438 L 187.347656 90.5625 C 185.367188 88.582031 185.363281 85.375 187.34375 83.394531 C 187.34375 83.390625 187.34375 83.390625 187.347656 83.386719 C 189.324219 81.414063 192.53125 81.414063 194.507813 83.386719 L 198.09375 86.96875 C 200.070313 88.945313 203.28125 88.945313 205.261719 86.96875 L 208.84375 83.382813 C 210.824219 81.402344 214.035156 81.40625 216.015625 83.386719 C 217.992188 85.367188 217.992188 88.578125 216.011719 90.554688 Z M 201.683594 76.222656 C 195.742188 70.285156 186.113281 70.285156 180.175781 76.226563 C 174.234375 82.167969 174.238281 91.796875 180.179688 97.734375 L 198.097656 115.652344 C 200.078125 117.632813 203.285156 117.632813 205.265625 115.652344 L 223.183594 97.734375 C 229.125 91.796875 229.128906 82.167969 223.191406 76.226563 C 217.253906 70.285156 207.621094 70.285156 201.683594 76.222656 "/>
<path style="fill:none;stroke-width:20;stroke-linecap:butt;stroke-linejoin:miter;stroke:rgb(100%,100%,100%);stroke-opacity:1;stroke-miterlimit:10;" d="M 2160.15625 4308.275 L 2016.835938 4164.915625 L 1873.476563 4308.275 C 1853.671875 4328.079687 1853.632813 4360.15 1873.4375 4379.954687 C 1873.4375 4379.99375 1873.4375 4379.99375 1873.476563 4380.032812 C 1893.242188 4399.759375 1925.3125 4399.759375 1945.078125 4380.032812 L 1980.9375 4344.2125 C 2000.703125 4324.446875 2032.8125 4324.446875 2052.617188 4344.2125 L 2088.4375 4380.071875 C 2108.242188 4399.876562 2140.351563 4399.8375 2160.15625 4380.032812 C 2179.921875 4360.228125 2179.921875 4328.11875 2160.117188 4308.353125 Z M 2016.835938 4451.673437 C 1957.421875 4511.048437 1861.132813 4511.048437 1801.757813 4451.634375 C 1742.34375 4392.220312 1742.382813 4295.93125 1801.796875 4236.55625 L 1980.976563 4057.376562 C 2000.78125 4037.571875 2032.851563 4037.571875 2052.65625 4057.376562 L 2231.835938 4236.55625 C 2291.25 4295.93125 2291.289063 4392.220312 2231.914063 4451.634375 C 2172.539063 4511.048437 2076.210938 4511.048437 2016.835938 4451.673437 Z M 2016.835938 4451.673437 " transform="matrix(0.1,0,0,-0.1,0,521.39)"/>
<path style=" stroke:none;fill-rule:nonzero;fill:rgb(0%,0%,0%);fill-opacity:1;" d="M 271.777344 44.261719 L 257.441406 58.59375 L 243.105469 44.261719 C 241.125 42.28125 241.121094 39.070313 243.101563 37.089844 C 243.105469 37.089844 243.105469 37.089844 243.105469 37.085938 C 245.085938 35.113281 248.289063 35.113281 250.269531 37.085938 L 253.851563 40.664063 C 255.832031 42.644531 259.039063 42.644531 261.019531 40.664063 L 264.605469 37.082031 C 266.585938 35.101563 269.796875 35.105469 271.773438 37.085938 C 273.753906 39.066406 273.753906 42.277344 271.769531 44.253906 Z M 257.441406 29.917969 C 251.5 23.980469 241.871094 23.984375 235.933594 29.925781 C 229.996094 35.863281 229.996094 45.492188 235.9375 51.433594 L 253.855469 69.351563 C 255.835938 71.328125 259.046875 71.328125 261.027344 69.351563 L 278.945313 51.433594 C 284.886719 45.492188 284.886719 35.863281 278.949219 29.925781 C 273.011719 23.984375 263.382813 23.980469 257.441406 29.917969 "/>
<g clip-path="url(#clip2)" clip-rule="nonzero">
<path style="fill:none;stroke-width:20;stroke-linecap:butt;stroke-linejoin:miter;stroke:rgb(100%,100%,100%);stroke-opacity:1;stroke-miterlimit:10;" d="M 2717.773438 4771.282812 L 2574.414063 4627.9625 L 2431.054688 4771.282812 C 2411.25 4791.0875 2411.210938 4823.196875 2431.015625 4843.001562 C 2431.054688 4843.001562 2431.054688 4843.001562 2431.054688 4843.040625 C 2450.859375 4862.767187 2482.890625 4862.767187 2502.695313 4843.040625 L 2538.515625 4807.259375 C 2558.320313 4787.454687 2590.390625 4787.454687 2610.195313 4807.259375 L 2646.054688 4843.079687 C 2665.859375 4862.884375 2697.96875 4862.845312 2717.734375 4843.040625 C 2737.539063 4823.235937 2737.539063 4791.126562 2717.695313 4771.360937 Z M 2574.414063 4914.720312 C 2515 4974.095312 2418.710938 4974.05625 2359.335938 4914.642187 C 2299.960938 4855.267187 2299.960938 4758.978125 2359.375 4699.564062 L 2538.554688 4520.384375 C 2558.359375 4500.61875 2590.46875 4500.61875 2610.273438 4520.384375 L 2789.453125 4699.564062 C 2848.867188 4758.978125 2848.867188 4855.267187 2789.492188 4914.642187 C 2730.117188 4974.05625 2633.828125 4974.095312 2574.414063 4914.720312 Z M 2574.414063 4914.720312 " transform="matrix(0.1,0,0,-0.1,0,521.39)"/>
</g>
<path style=" stroke:none;fill-rule:nonzero;fill:rgb(0%,0%,0%);fill-opacity:1;" d="M 257.445313 82.101563 C 253.398438 82.101563 249.386719 81.398438 245.582031 80.023438 C 242.148438 67.734375 233.730469 57.441406 222.367188 51.636719 C 222.105469 49.976563 221.96875 48.300781 221.960938 46.621094 C 221.960938 27.023438 237.847656 11.136719 257.445313 11.136719 C 277.039063 11.136719 292.925781 27.023438 292.925781 46.621094 C 292.925781 66.21875 277.039063 82.101563 257.445313 82.101563 M 201.683594 127.726563 C 182.089844 127.726563 166.199219 111.839844 166.199219 92.242188 C 166.199219 72.644531 182.089844 56.757813 201.683594 56.757813 C 221.28125 56.757813 237.167969 72.644531 237.167969 92.242188 C 237.144531 111.828125 221.273438 127.703125 201.683594 127.726563 M 257.445313 1 C 232.265625 1.039063 211.859375 21.441406 211.820313 46.621094 C 211.820313 47.027344 211.871094 47.429688 211.871094 47.785156 C 208.527344 47.035156 205.113281 46.644531 201.683594 46.621094 C 176.488281 46.621094 156.0625 67.046875 156.0625 92.242188 C 156.0625 117.4375 176.488281 137.863281 201.683594 137.863281 C 226.882813 137.863281 247.304688 117.4375 247.304688 92.242188 C 247.304688 91.835938 247.253906 91.429688 247.253906 91.074219 C 271.808594 96.734375 296.300781 81.417969 301.957031 56.867188 C 307.617188 32.316406 292.304688 7.824219 267.75 2.164063 C 264.371094 1.386719 260.914063 0.992188 257.445313 1 "/>
<g clip-path="url(#clip3)" clip-rule="nonzero">
<path style="fill:none;stroke-width:20;stroke-linecap:butt;stroke-linejoin:miter;stroke:rgb(100%,100%,100%);stroke-opacity:1;stroke-miterlimit:10;" d="M 2574.453125 4392.884375 C 2533.984375 4392.884375 2493.867188 4399.915625 2455.820313 4413.665625 C 2421.484375 4536.55625 2337.304688 4639.485937 2223.671875 4697.532812 C 2221.054688 4714.134375 2219.6875 4730.892187 2219.609375 4747.689062 C 2219.609375 4943.665625 2378.476563 5102.532812 2574.453125 5102.532812 C 2770.390625 5102.532812 2929.257813 4943.665625 2929.257813 4747.689062 C 2929.257813 4551.7125 2770.390625 4392.884375 2574.453125 4392.884375 Z M 2016.835938 3936.634375 C 1820.898438 3936.634375 1661.992188 4095.501562 1661.992188 4291.478125 C 1661.992188 4487.454687 1820.898438 4646.321875 2016.835938 4646.321875 C 2212.8125 4646.321875 2371.679688 4487.454687 2371.679688 4291.478125 C 2371.445313 4095.61875 2212.734375 3936.86875 2016.835938 3936.634375 Z M 2574.453125 5203.9 C 2322.65625 5203.509375 2118.59375 4999.485937 2118.203125 4747.689062 C 2118.203125 4743.626562 2118.710938 4739.603125 2118.710938 4736.048437 C 2085.273438 4743.548437 2051.132813 4747.454687 2016.835938 4747.689062 C 1764.882813 4747.689062 1560.625 4543.43125 1560.625 4291.478125 C 1560.625 4039.525 1764.882813 3835.267187 2016.835938 3835.267187 C 2268.828125 3835.267187 2473.046875 4039.525 2473.046875 4291.478125 C 2473.046875 4295.540625 2472.539063 4299.603125 2472.539063 4303.157812 C 2718.085938 4246.55625 2963.007813 4399.720312 3019.570313 4645.228125 C 3076.171875 4890.735937 2923.046875 5135.657812 2677.5 5192.259375 C 2643.710938 5200.032812 2609.140625 5203.978125 2574.453125 5203.9 Z M 2574.453125 5203.9 " transform="matrix(0.1,0,0,-0.1,0,521.39)"/>
</g>
</g>
</svg>
