<svg width="61.858" height="59.862" viewBox="0 0 61.858 59.862" xmlns="http://www.w3.org/2000/svg" xmlns:xlink="http://www.w3.org/1999/xlink" overflow="hidden"><g id="work-from-home" transform="translate(-8 -16)"><path d="M68.86 66.883 61.377 66.883C63.3038 66.8786 64.8646 65.3178 64.869 63.391L64.869 62.391C64.8641 60.4646 63.3034 58.9044 61.377 58.9L58.952 58.9 56.235 46.4C55.9478 43.3179 53.3675 40.9574 50.272 40.945L44.915 40.945 44.915 39.945C44.9147 39.828 44.8941 39.7119 44.854 39.602 45.8186 38.5886 46.4791 37.3246 46.76 35.954L46.911 35.954C48.5608 35.948 49.8962 34.6108 49.9 32.961L49.9 26.476C49.8939 20.6943 45.2097 16.0083 39.428 16L38.428 16C32.6456 16.0072 27.9601 20.6936 27.954 26.476L27.954 32.961C27.9578 34.6124 29.2956 35.9501 30.947 35.954L31.1 35.954C31.3796 37.3232 32.0379 38.5865 33 39.6 32.9599 39.7099 32.9393 39.826 32.939 39.943L32.939 40.943 27.585 40.943C24.4888 40.9555 21.9083 43.3171 21.622 46.4L19.34 56.906 18.476 56.906C18.1966 56.9055 17.9182 56.9391 17.647 57.006L14.88 51.47C14.6613 50.9629 14.0729 50.729 13.5658 50.9477 13.0586 51.1664 12.8248 51.7548 13.0435 52.262 13.0584 52.2966 13.0753 52.3303 13.094 52.363L15.922 58.019C15.3191 58.6641 14.9839 59.5141 14.984 60.397L14.984 63.39C14.9884 65.3167 16.5492 66.8776 18.476 66.882L9 66.882C8.44771 66.882 8 67.3297 8 67.882L8 71.873C8 72.4253 8.44771 72.873 9 72.873L10 72.873 10 74.873C10 75.4253 10.4477 75.873 11 75.873L66.865 75.873C67.4173 75.873 67.865 75.4253 67.865 74.873L67.865 72.873 68.865 72.873C69.4173 72.873 69.865 72.4253 69.865 71.873L69.865 67.881C69.8639 67.3287 69.4153 66.8819 68.863 66.883 68.862 66.883 68.861 66.883 68.86 66.883ZM58.384 60.9 61.377 60.9C62.2054 60.9 62.877 61.5716 62.877 62.4L62.877 63.4C62.877 64.2284 62.2054 64.9 61.377 64.9L58.384 64.9C57.5556 64.9 56.884 64.2284 56.884 63.4L56.884 62.4C56.884 61.5716 57.5556 60.9 58.384 60.9ZM47.908 32.961C47.908 33.5133 47.4603 33.961 46.908 33.961L46.908 29.968 47.908 29.968ZM30.947 33.961C30.3947 33.961 29.947 33.5133 29.947 32.961L29.947 29.968 30.947 29.968ZM29.947 27.975 29.947 26.475C29.9547 21.7945 33.7495 18.0033 38.43 18L39.43 18C44.1113 18.005 47.905 21.7987 47.91 26.48L47.91 27.98 46.91 27.98 46.91 27.48C46.91 27.289 46.903 27.098 46.889 26.913 46.8453 26.3624 46.3635 25.9516 45.813 25.9953 45.7142 26.0031 45.6172 26.0256 45.525 26.062 40.771 27.955 32.032 27.979 31.945 27.979ZM32.94 34.46 32.94 29.96C36.979 29.9114 40.9979 29.3827 44.912 28.385L44.912 34.465C44.9081 37.4938 42.4538 39.9481 39.425 39.952L38.425 39.952C35.3954 39.9454 32.943 37.4876 32.943 34.458ZM42.917 41.075 42.917 41.943C42.917 43.593 41.127 44.936 38.926 44.936 36.725 44.936 34.935 43.593 34.935 41.943L34.935 41.075C36.0103 41.6462 37.2094 41.9443 38.427 41.943L39.427 41.943C40.6451 41.9435 41.8447 41.6444 42.92 41.072ZM23.587 46.758C23.5968 46.7132 23.6035 46.6677 23.607 46.622 23.7752 44.5474 25.5036 42.9468 27.585 42.938L33.064 42.938C33.62 45.213 36.038 46.929 38.929 46.929 41.82 46.929 44.238 45.213 44.794 42.938L50.273 42.938C52.3544 42.9468 54.0828 44.5474 54.251 46.622 54.2545 46.6677 54.2612 46.7132 54.271 46.758L56.971 59.199C55.7067 59.7588 54.8905 61.0104 54.888 62.393L54.888 63.393C54.8924 65.3198 56.4532 66.8806 58.38 66.885L53.89 66.885 53.89 51.419C53.8856 49.493 52.326 47.9325 50.4 47.927L27.455 47.927C25.5282 47.9314 23.9674 49.4922 23.963 51.419L23.963 66.883 19.473 66.883C21.3998 66.8786 22.9606 65.3178 22.965 63.391L22.965 60.4C22.9649 59.1752 22.3228 58.04 21.273 57.409ZM51.9 51.419 51.9 66.883 25.959 66.883 25.959 51.419C25.959 50.5906 26.6306 49.919 27.459 49.919L50.4 49.919C51.2284 49.919 51.9 50.5906 51.9 51.419ZM16.979 63.391 16.979 60.4C16.979 59.5716 17.6506 58.9 18.479 58.9L19.479 58.9C20.3074 58.9 20.979 59.5716 20.979 60.4L20.979 63.393C20.979 64.2214 20.3074 64.893 19.479 64.893L18.479 64.893C17.6506 64.893 16.979 64.2214 16.979 63.393 16.979 63.3923 16.979 63.3917 16.979 63.391ZM65.867 73.867 11.991 73.867 11.991 72.867 65.867 72.867ZM67.867 70.874 10 70.874 10 68.874 67.862 68.874Z" id="Path_1032" fill="#6852ED"/><path d="M227.991 336C225.787 336 224 337.787 224 339.991 224 342.195 225.787 343.982 227.991 343.982 230.195 343.982 231.982 342.195 231.982 339.991 231.982 337.787 230.195 336 227.991 336ZM227.991 341.986C226.886 341.986 225.991 341.091 225.991 339.986 225.991 338.881 226.886 337.986 227.991 337.986 229.096 337.986 229.991 338.881 229.991 339.986 229.991 341.091 229.096 341.986 227.991 341.986Z" id="Path_1033" fill="#6852ED" transform="translate(-189.062 -280.092)"/><circle cx="1.14" cy="1.14" r="1.14" id="Ellipse_99" fill="#6852ED" transform="translate(34.895 31.019)"/><circle cx="1.14" cy="1.14" r="1.14" id="Ellipse_100" fill="#6852ED" transform="translate(40.976 31.019)"/><path d="M241 178 243 178C243.552 178 244 177.552 244 177 244 176.448 243.552 176 243 176L241 176C240.448 176 240 176.448 240 177 240 177.552 240.448 178 241 178Z" id="Path_1034" fill="#6852ED" transform="translate(-203.067 -140.046)"/></g></svg>